<svg width="21" height="21" viewBox="0 0 21 21" fill="none" xmlns="http://www.w3.org/2000/svg">
<path d="M2.5928 17.6318C2.45526 17.6318 2.32336 17.5771 2.22611 17.4799C2.12885 17.3826 2.07422 17.2507 2.07422 17.1132C2.07422 16.9756 2.12885 16.8437 2.22611 16.7465C2.32336 16.6492 2.45526 16.5946 2.5928 16.5946H18.1502C18.2877 16.5946 18.4196 16.6492 18.5169 16.7465C18.6142 16.8437 18.6688 16.9756 18.6688 17.1132C18.6688 17.2507 18.6142 17.3826 18.5169 17.4799C18.4196 17.5771 18.2877 17.6318 18.1502 17.6318H2.5928ZM4.14854 13.4831C4.14854 14.0333 4.36708 14.5609 4.75609 14.9499C5.14511 15.3389 5.67272 15.5574 6.22286 15.5574H7.26002C7.81017 15.5574 8.33778 15.3389 8.72679 14.9499C9.1158 14.5609 9.33434 14.0333 9.33434 13.4831V5.18583C9.33434 4.63569 9.1158 4.10808 8.72679 3.71907C8.33778 3.33006 7.81017 3.11151 7.26002 3.11151H6.22286C5.67272 3.11151 5.14511 3.33006 4.75609 3.71907C4.36708 4.10808 4.14854 4.63569 4.14854 5.18583V13.4831ZM11.4087 13.4831C11.4087 14.0333 11.6272 14.5609 12.0162 14.9499C12.4052 15.3389 12.9328 15.5574 13.483 15.5574H14.5201C15.0703 15.5574 15.5979 15.3389 15.9869 14.9499C16.3759 14.5609 16.5945 14.0333 16.5945 13.4831V8.29731C16.5945 7.74717 16.3759 7.21956 15.9869 6.83055C15.5979 6.44154 15.0703 6.22299 14.5201 6.22299H13.483C12.9328 6.22299 12.4052 6.44154 12.0162 6.83055C11.6272 7.21956 11.4087 7.74717 11.4087 8.29731V13.4831Z" fill="#1D4ED8" fill-opacity="0.3"/>
</svg>
