<svg width="21" height="21" viewBox="0 0 21 21" fill="none" xmlns="http://www.w3.org/2000/svg">
<path d="M3.38132 12.0331C4.08866 8.63643 7.04561 6.22295 10.3718 6.22295C13.6969 6.22295 16.6539 8.63643 17.3622 12.0331C17.3903 12.1679 17.4708 12.286 17.5859 12.3615C17.701 12.437 17.8415 12.4636 17.9762 12.4355C18.111 12.4075 18.2291 12.327 18.3046 12.2119C18.3801 12.0967 18.4067 11.9563 18.3787 11.8215C17.5728 7.95812 14.202 5.18579 10.3718 5.18579C6.54155 5.18579 3.17077 7.95812 2.3649 11.8215C2.33684 11.9563 2.36348 12.0967 2.43895 12.2119C2.51441 12.327 2.63253 12.4075 2.76732 12.4355C2.9021 12.4636 3.04251 12.437 3.15766 12.3615C3.27281 12.286 3.35326 12.1679 3.38132 12.0331Z" fill="#1D4ED8" fill-opacity="0.3"/>
<path d="M10.3615 8.2973C11.3243 8.2973 12.2476 8.67975 12.9283 9.36052C13.6091 10.0413 13.9916 10.9646 13.9916 11.9274C13.9916 12.8901 13.6091 13.8134 12.9283 14.4942C12.2476 15.175 11.3243 15.5574 10.3615 15.5574C9.39876 15.5574 8.47543 15.175 7.79467 14.4942C7.1139 13.8134 6.73145 12.8901 6.73145 11.9274C6.73145 10.9646 7.1139 10.0413 7.79467 9.36052C8.47543 8.67975 9.39876 8.2973 10.3615 8.2973Z" fill="#1D4ED8" fill-opacity="0.3"/>
</svg>
