<svg width="21" height="21" viewBox="0 0 21 21" fill="none" xmlns="http://www.w3.org/2000/svg">
<path d="M14.5205 2.85221C14.5205 2.64591 14.6024 2.44805 14.7483 2.30217C14.8942 2.15629 15.092 2.07434 15.2983 2.07434H17.8912C18.0975 2.07434 18.2954 2.15629 18.4413 2.30217C18.5871 2.44805 18.6691 2.64591 18.6691 2.85221V5.44511C18.6691 5.65142 18.5871 5.84927 18.4413 5.99515C18.2954 6.14103 18.0975 6.22298 17.8912 6.22298C17.6849 6.22298 17.4871 6.14103 17.3412 5.99515C17.1953 5.84927 17.1134 5.65142 17.1134 5.44511V4.72947L12.4773 9.36558C12.3314 9.51125 12.1337 9.59307 11.9276 9.59307C11.7214 9.59307 11.5237 9.51125 11.3779 9.36558L8.81607 6.80379L4.43925 11.1806C4.36804 11.257 4.28216 11.3183 4.18675 11.3609C4.09133 11.4034 3.98832 11.4262 3.88388 11.4281C3.77943 11.4299 3.67569 11.4107 3.57883 11.3716C3.48197 11.3325 3.39398 11.2742 3.32012 11.2004C3.24625 11.1265 3.18802 11.0385 3.1489 10.9416C3.10978 10.8448 3.09056 10.741 3.09241 10.6366C3.09425 10.5322 3.11711 10.4291 3.15963 10.3337C3.20214 10.2383 3.26344 10.1524 3.33986 10.0812L8.26638 5.15471C8.41223 5.00904 8.60994 4.92722 8.81607 4.92722C9.02221 4.92722 9.21992 5.00904 9.36577 5.15471L11.9276 7.7165L16.014 3.63008H15.2983C15.092 3.63008 14.8942 3.54813 14.7483 3.40225C14.6024 3.25637 14.5205 3.05852 14.5205 2.85221ZM3.88956 14.5203C4.09586 14.5203 4.29372 14.6022 4.4396 14.7481C4.58548 14.894 4.66743 15.0918 4.66743 15.2981V17.891C4.66743 18.0973 4.58548 18.2952 4.4396 18.4411C4.29372 18.587 4.09586 18.6689 3.88956 18.6689C3.68326 18.6689 3.4854 18.587 3.33952 18.4411C3.19364 18.2952 3.11169 18.0973 3.11169 17.891V15.2981C3.11169 15.0918 3.19364 14.894 3.33952 14.7481C3.4854 14.6022 3.68326 14.5203 3.88956 14.5203ZM8.81607 12.1867C8.81607 11.9804 8.73412 11.7825 8.58824 11.6366C8.44236 11.4907 8.24451 11.4088 8.0382 11.4088C7.8319 11.4088 7.63404 11.4907 7.48816 11.6366C7.34229 11.7825 7.26033 11.9804 7.26033 12.1867V17.891C7.26033 18.0973 7.34229 18.2952 7.48816 18.4411C7.63404 18.587 7.8319 18.6689 8.0382 18.6689C8.24451 18.6689 8.44236 18.587 8.58824 18.4411C8.73412 18.2952 8.81607 18.0973 8.81607 17.891V12.1867ZM12.1868 13.4831C12.3932 13.4831 12.591 13.5651 12.7369 13.7109C12.8828 13.8568 12.9647 14.0547 12.9647 14.261V17.891C12.9647 18.0973 12.8828 18.2952 12.7369 18.4411C12.591 18.587 12.3932 18.6689 12.1868 18.6689C11.9805 18.6689 11.7827 18.587 11.6368 18.4411C11.4909 18.2952 11.409 18.0973 11.409 17.891V14.261C11.409 14.0547 11.4909 13.8568 11.6368 13.7109C11.7827 13.5651 11.9805 13.4831 12.1868 13.4831ZM17.1134 10.1123C17.1134 9.90603 17.0314 9.70818 16.8855 9.5623C16.7396 9.41642 16.5418 9.33447 16.3355 9.33447C16.1292 9.33447 15.9313 9.41642 15.7855 9.5623C15.6396 9.70818 15.5576 9.90603 15.5576 10.1123V17.891C15.5576 18.0973 15.6396 18.2952 15.7855 18.4411C15.9313 18.587 16.1292 18.6689 16.3355 18.6689C16.5418 18.6689 16.7396 18.587 16.8855 18.4411C17.0314 18.2952 17.1134 18.0973 17.1134 17.891V10.1123Z" fill="#1D4ED8" fill-opacity="0.3"/>
</svg>
