<svg width="431" height="371" viewBox="0 0 431 371" fill="none" xmlns="http://www.w3.org/2000/svg">
<line x1="397.827" y1="346.135" x2="0.248383" y2="346.135" stroke="#ECEFF7"/>
<path d="M28.6163 366V359H29.8663L32.2363 363.66L34.5963 359H35.8463V366H34.7863V360.83L32.6463 365H31.8263L29.6763 360.84V366H28.6163ZM39.5486 366.12C39.0753 366.12 38.6486 366.013 38.2686 365.8C37.8953 365.58 37.5986 365.277 37.3786 364.89C37.1586 364.497 37.0486 364.04 37.0486 363.52C37.0486 363 37.1586 362.547 37.3786 362.16C37.6053 361.767 37.9086 361.463 38.2886 361.25C38.6686 361.03 39.0919 360.92 39.5586 360.92C40.0319 360.92 40.4553 361.03 40.8286 361.25C41.2086 361.463 41.5086 361.767 41.7286 362.16C41.9553 362.547 42.0686 363 42.0686 363.52C42.0686 364.04 41.9553 364.497 41.7286 364.89C41.5086 365.277 41.2086 365.58 40.8286 365.8C40.4486 366.013 40.0219 366.12 39.5486 366.12ZM39.5486 365.21C39.8019 365.21 40.0353 365.147 40.2486 365.02C40.4686 364.893 40.6453 364.707 40.7786 364.46C40.9119 364.207 40.9786 363.893 40.9786 363.52C40.9786 363.147 40.9119 362.837 40.7786 362.59C40.6519 362.337 40.4786 362.147 40.2586 362.02C40.0453 361.893 39.8119 361.83 39.5586 361.83C39.3053 361.83 39.0686 361.893 38.8486 362.02C38.6353 362.147 38.4619 362.337 38.3286 362.59C38.1953 362.837 38.1286 363.147 38.1286 363.52C38.1286 363.893 38.1953 364.207 38.3286 364.46C38.4619 364.707 38.6353 364.893 38.8486 365.02C39.0619 365.147 39.2953 365.21 39.5486 365.21ZM43.2149 366V361.04H44.1549L44.2349 361.91C44.3883 361.603 44.6116 361.363 44.9049 361.19C45.2049 361.01 45.5483 360.92 45.9349 360.92C46.5349 360.92 47.0049 361.107 47.3449 361.48C47.6916 361.853 47.8649 362.41 47.8649 363.15V366H46.8149V363.26C46.8149 362.3 46.4216 361.82 45.6349 361.82C45.2416 361.82 44.9149 361.96 44.6549 362.24C44.4016 362.52 44.2749 362.92 44.2749 363.44V366H43.2149Z" fill="#1D4ED8" fill-opacity="0.5"/>
<path d="M86.4564 366V359.86H84.3864V359H89.5764V359.86H87.5164V366H86.4564ZM91.8604 366.12C91.2604 366.12 90.787 365.933 90.4404 365.56C90.1004 365.187 89.9304 364.63 89.9304 363.89V361.04H90.9904V363.78C90.9904 364.74 91.3837 365.22 92.1704 365.22C92.5637 365.22 92.887 365.08 93.1404 364.8C93.3937 364.52 93.5204 364.12 93.5204 363.6V361.04H94.5804V366H93.6404L93.5604 365.13C93.407 365.437 93.1804 365.68 92.8804 365.86C92.587 366.033 92.247 366.12 91.8604 366.12ZM98.2488 366.12C97.7621 366.12 97.3288 366.013 96.9488 365.8C96.5755 365.58 96.2821 365.277 96.0688 364.89C95.8555 364.503 95.7488 364.053 95.7488 363.54C95.7488 363.02 95.8521 362.563 96.0588 362.17C96.2721 361.777 96.5655 361.47 96.9388 361.25C97.3188 361.03 97.7588 360.92 98.2588 360.92C98.7455 360.92 99.1688 361.03 99.5288 361.25C99.8888 361.463 100.169 361.75 100.369 362.11C100.569 362.47 100.669 362.867 100.669 363.3C100.669 363.367 100.665 363.44 100.659 363.52C100.659 363.593 100.655 363.677 100.649 363.77H96.7888C96.8221 364.25 96.9788 364.617 97.2588 364.87C97.5455 365.117 97.8755 365.24 98.2488 365.24C98.5488 365.24 98.7988 365.173 98.9988 365.04C99.2055 364.9 99.3588 364.713 99.4588 364.48H100.519C100.385 364.947 100.119 365.337 99.7188 365.65C99.3255 365.963 98.8355 366.12 98.2488 366.12ZM98.2488 361.79C97.8955 361.79 97.5821 361.897 97.3088 362.11C97.0355 362.317 96.8688 362.63 96.8088 363.05H99.6088C99.5888 362.663 99.4521 362.357 99.1988 362.13C98.9455 361.903 98.6288 361.79 98.2488 361.79Z" fill="#1D4ED8" fill-opacity="0.5"/>
<path d="M137.837 366.01L135.947 359H137.087L138.477 364.8L140.077 359H141.247L142.797 364.8L144.187 359H145.327L143.407 366H142.167L140.637 360.51L139.057 366L137.837 366.01ZM148.062 366.12C147.576 366.12 147.142 366.013 146.762 365.8C146.389 365.58 146.096 365.277 145.882 364.89C145.669 364.503 145.562 364.053 145.562 363.54C145.562 363.02 145.666 362.563 145.872 362.17C146.086 361.777 146.379 361.47 146.752 361.25C147.132 361.03 147.572 360.92 148.072 360.92C148.559 360.92 148.982 361.03 149.342 361.25C149.702 361.463 149.982 361.75 150.182 362.11C150.382 362.47 150.482 362.867 150.482 363.3C150.482 363.367 150.479 363.44 150.472 363.52C150.472 363.593 150.469 363.677 150.462 363.77H146.602C146.636 364.25 146.792 364.617 147.072 364.87C147.359 365.117 147.689 365.24 148.062 365.24C148.362 365.24 148.612 365.173 148.812 365.04C149.019 364.9 149.172 364.713 149.272 364.48H150.332C150.199 364.947 149.932 365.337 149.532 365.65C149.139 365.963 148.649 366.12 148.062 366.12ZM148.062 361.79C147.709 361.79 147.396 361.897 147.122 362.11C146.849 362.317 146.682 362.63 146.622 363.05H149.422C149.402 362.663 149.266 362.357 149.012 362.13C148.759 361.903 148.442 361.79 148.062 361.79ZM153.842 366.12C153.362 366.12 152.939 366.007 152.572 365.78C152.205 365.553 151.919 365.243 151.712 364.85C151.505 364.457 151.402 364.01 151.402 363.51C151.402 363.01 151.505 362.567 151.712 362.18C151.919 361.787 152.205 361.48 152.572 361.26C152.945 361.033 153.372 360.92 153.852 360.92C154.245 360.92 154.589 360.997 154.882 361.15C155.182 361.303 155.415 361.52 155.582 361.8V358.8H156.642V366H155.692L155.582 365.23C155.422 365.463 155.202 365.67 154.922 365.85C154.642 366.03 154.282 366.12 153.842 366.12ZM154.032 365.2C154.485 365.2 154.855 365.043 155.142 364.73C155.435 364.417 155.582 364.013 155.582 363.52C155.582 363.02 155.435 362.617 155.142 362.31C154.855 361.997 154.485 361.84 154.032 361.84C153.579 361.84 153.205 361.997 152.912 362.31C152.619 362.617 152.472 363.02 152.472 363.52C152.472 363.847 152.539 364.137 152.672 364.39C152.805 364.643 152.989 364.843 153.222 364.99C153.462 365.13 153.732 365.2 154.032 365.2Z" fill="#1D4ED8" fill-opacity="0.5"/>
<path d="M195.4 366V359.86H193.33V359H198.52V359.86H196.46V366H195.4ZM199.472 366V358.8H200.532V361.84C200.699 361.553 200.929 361.33 201.222 361.17C201.522 361.003 201.852 360.92 202.212 360.92C202.806 360.92 203.272 361.107 203.612 361.48C203.952 361.853 204.122 362.41 204.122 363.15V366H203.072V363.26C203.072 362.3 202.689 361.82 201.922 361.82C201.522 361.82 201.189 361.96 200.922 362.24C200.662 362.52 200.532 362.92 200.532 363.44V366H199.472ZM207.201 366.12C206.601 366.12 206.127 365.933 205.781 365.56C205.441 365.187 205.271 364.63 205.271 363.89V361.04H206.331V363.78C206.331 364.74 206.724 365.22 207.511 365.22C207.904 365.22 208.227 365.08 208.481 364.8C208.734 364.52 208.861 364.12 208.861 363.6V361.04H209.921V366H208.981L208.901 365.13C208.747 365.437 208.521 365.68 208.221 365.86C207.927 366.033 207.587 366.12 207.201 366.12Z" fill="#1D4ED8" fill-opacity="0.5"/>
<path d="M246.503 366V359H250.893V359.86H247.563V362.07H250.323V362.92H247.563V366H246.503ZM251.893 366V361.04H252.843L252.933 361.98C253.106 361.653 253.346 361.397 253.653 361.21C253.966 361.017 254.343 360.92 254.783 360.92V362.03H254.493C254.2 362.03 253.936 362.08 253.703 362.18C253.476 362.273 253.293 362.437 253.153 362.67C253.02 362.897 252.953 363.213 252.953 363.62V366H251.893ZM256.292 360.1C256.092 360.1 255.925 360.04 255.792 359.92C255.665 359.793 255.602 359.637 255.602 359.45C255.602 359.263 255.665 359.11 255.792 358.99C255.925 358.863 256.092 358.8 256.292 358.8C256.492 358.8 256.655 358.863 256.782 358.99C256.915 359.11 256.982 359.263 256.982 359.45C256.982 359.637 256.915 359.793 256.782 359.92C256.655 360.04 256.492 360.1 256.292 360.1ZM255.762 366V361.04H256.822V366H255.762Z" fill="#1D4ED8" fill-opacity="0.5"/>
<path d="M294.643 366.12C294.129 366.12 293.679 366.03 293.293 365.85C292.906 365.67 292.603 365.413 292.383 365.08C292.169 364.747 292.059 364.35 292.053 363.89H293.173C293.179 364.263 293.309 364.58 293.563 364.84C293.816 365.1 294.173 365.23 294.633 365.23C295.039 365.23 295.356 365.133 295.583 364.94C295.816 364.74 295.933 364.487 295.933 364.18C295.933 363.933 295.876 363.733 295.763 363.58C295.656 363.427 295.506 363.3 295.313 363.2C295.126 363.1 294.909 363.01 294.663 362.93C294.416 362.85 294.156 362.763 293.883 362.67C293.343 362.49 292.936 362.257 292.663 361.97C292.396 361.683 292.263 361.307 292.263 360.84C292.256 360.447 292.346 360.103 292.533 359.81C292.726 359.517 292.993 359.29 293.333 359.13C293.679 358.963 294.083 358.88 294.543 358.88C294.996 358.88 295.393 358.963 295.733 359.13C296.079 359.297 296.349 359.53 296.543 359.83C296.736 360.123 296.836 360.467 296.843 360.86H295.723C295.723 360.68 295.676 360.51 295.583 360.35C295.489 360.183 295.353 360.047 295.173 359.94C294.993 359.833 294.773 359.78 294.513 359.78C294.179 359.773 293.903 359.857 293.683 360.03C293.469 360.203 293.363 360.443 293.363 360.75C293.363 361.023 293.443 361.233 293.603 361.38C293.763 361.527 293.983 361.65 294.263 361.75C294.543 361.843 294.863 361.953 295.223 362.08C295.569 362.193 295.879 362.33 296.153 362.49C296.426 362.65 296.643 362.86 296.803 363.12C296.969 363.38 297.053 363.71 297.053 364.11C297.053 364.463 296.963 364.793 296.783 365.1C296.603 365.4 296.333 365.647 295.973 365.84C295.613 366.027 295.169 366.12 294.643 366.12ZM299.851 366.12C299.431 366.12 299.085 366.05 298.811 365.91C298.538 365.77 298.335 365.587 298.201 365.36C298.068 365.127 298.001 364.873 298.001 364.6C298.001 364.12 298.188 363.74 298.561 363.46C298.935 363.18 299.468 363.04 300.161 363.04H301.461V362.95C301.461 362.563 301.355 362.273 301.141 362.08C300.935 361.887 300.665 361.79 300.331 361.79C300.038 361.79 299.781 361.863 299.561 362.01C299.348 362.15 299.218 362.36 299.171 362.64H298.111C298.145 362.28 298.265 361.973 298.471 361.72C298.685 361.46 298.951 361.263 299.271 361.13C299.598 360.99 299.955 360.92 300.341 360.92C301.035 360.92 301.571 361.103 301.951 361.47C302.331 361.83 302.521 362.323 302.521 362.95V366H301.601L301.511 365.15C301.371 365.423 301.168 365.653 300.901 365.84C300.635 366.027 300.285 366.12 299.851 366.12ZM300.061 365.26C300.348 365.26 300.588 365.193 300.781 365.06C300.981 364.92 301.135 364.737 301.241 364.51C301.355 364.283 301.425 364.033 301.451 363.76H300.271C299.851 363.76 299.551 363.833 299.371 363.98C299.198 364.127 299.111 364.31 299.111 364.53C299.111 364.757 299.195 364.937 299.361 365.07C299.535 365.197 299.768 365.26 300.061 365.26ZM305.74 366C305.253 366 304.866 365.883 304.58 365.65C304.293 365.41 304.15 364.987 304.15 364.38V361.93H303.3V361.04H304.15L304.28 359.78H305.21V361.04H306.61V361.93H305.21V364.38C305.21 364.653 305.266 364.843 305.38 364.95C305.5 365.05 305.703 365.1 305.99 365.1H306.56V366H305.74Z" fill="#1D4ED8" fill-opacity="0.5"/>
<path d="M345.081 366.12C344.567 366.12 344.117 366.03 343.731 365.85C343.344 365.67 343.041 365.413 342.821 365.08C342.607 364.747 342.497 364.35 342.491 363.89H343.611C343.617 364.263 343.747 364.58 344.001 364.84C344.254 365.1 344.611 365.23 345.071 365.23C345.477 365.23 345.794 365.133 346.021 364.94C346.254 364.74 346.371 364.487 346.371 364.18C346.371 363.933 346.314 363.733 346.201 363.58C346.094 363.427 345.944 363.3 345.751 363.2C345.564 363.1 345.347 363.01 345.101 362.93C344.854 362.85 344.594 362.763 344.321 362.67C343.781 362.49 343.374 362.257 343.101 361.97C342.834 361.683 342.701 361.307 342.701 360.84C342.694 360.447 342.784 360.103 342.971 359.81C343.164 359.517 343.431 359.29 343.771 359.13C344.117 358.963 344.521 358.88 344.981 358.88C345.434 358.88 345.831 358.963 346.171 359.13C346.517 359.297 346.787 359.53 346.981 359.83C347.174 360.123 347.274 360.467 347.281 360.86H346.161C346.161 360.68 346.114 360.51 346.021 360.35C345.927 360.183 345.791 360.047 345.611 359.94C345.431 359.833 345.211 359.78 344.951 359.78C344.617 359.773 344.341 359.857 344.121 360.03C343.907 360.203 343.801 360.443 343.801 360.75C343.801 361.023 343.881 361.233 344.041 361.38C344.201 361.527 344.421 361.65 344.701 361.75C344.981 361.843 345.301 361.953 345.661 362.08C346.007 362.193 346.317 362.33 346.591 362.49C346.864 362.65 347.081 362.86 347.241 363.12C347.407 363.38 347.491 363.71 347.491 364.11C347.491 364.463 347.401 364.793 347.221 365.1C347.041 365.4 346.771 365.647 346.411 365.84C346.051 366.027 345.607 366.12 345.081 366.12ZM350.439 366.12C349.839 366.12 349.366 365.933 349.019 365.56C348.679 365.187 348.509 364.63 348.509 363.89V361.04H349.569V363.78C349.569 364.74 349.963 365.22 350.749 365.22C351.143 365.22 351.466 365.08 351.719 364.8C351.973 364.52 352.099 364.12 352.099 363.6V361.04H353.159V366H352.219L352.139 365.13C351.986 365.437 351.759 365.68 351.459 365.86C351.166 366.033 350.826 366.12 350.439 366.12ZM354.508 366V361.04H355.448L355.528 361.91C355.681 361.603 355.905 361.363 356.198 361.19C356.498 361.01 356.841 360.92 357.228 360.92C357.828 360.92 358.298 361.107 358.638 361.48C358.985 361.853 359.158 362.41 359.158 363.15V366H358.108V363.26C358.108 362.3 357.715 361.82 356.928 361.82C356.535 361.82 356.208 361.96 355.948 362.24C355.695 362.52 355.568 362.92 355.568 363.44V366H354.508Z" fill="#1D4ED8" fill-opacity="0.5"/>
<path d="M92.5 275.5L37.5 324.5L420 282.109L425 84L392 67L370.5 84L353.5 104L323.601 141.957L307.5 169.348L266.5 238.5L209.5 228.5L191.5 245.13L158 286L128.5 282.109L92.5 275.5Z" fill="url(#paint0_linear_410_286)"/>
<path d="M394.69 0.414612V131.182C413.3 131.182 430.96 107.719 430.96 65.7683C430.96 23.818 413.3 0.414612 394.69 0.414612Z" fill="#263238"/>
<path d="M394.69 131.182C413.296 131.182 428.38 101.895 428.38 65.7682C428.38 29.6413 413.296 0.354614 394.69 0.354614C376.084 0.354614 361 29.6413 361 65.7682C361 101.895 376.084 131.182 394.69 131.182Z" fill="#407BFF"/>
<path d="M394.69 118.101C409.58 118.101 421.65 94.6709 421.65 65.7682C421.65 36.8656 409.58 13.4353 394.69 13.4353C379.8 13.4353 367.73 36.8656 367.73 65.7682C367.73 94.6709 379.8 118.101 394.69 118.101Z" fill="white"/>
<path d="M394.69 105.02C405.857 105.02 414.91 87.4467 414.91 65.7683C414.91 44.0899 405.857 26.5161 394.69 26.5161C383.523 26.5161 374.47 44.0899 374.47 65.7683C374.47 87.4467 383.523 105.02 394.69 105.02Z" fill="#407BFF"/>
<path d="M394.69 91.9297C402.135 91.9297 408.17 80.2168 408.17 65.7682C408.17 51.3196 402.135 39.6068 394.69 39.6068C387.245 39.6068 381.21 51.3196 381.21 65.7682C381.21 80.2168 387.245 91.9297 394.69 91.9297Z" fill="white"/>
<path d="M394.69 78.8489C398.413 78.8489 401.43 72.9924 401.43 65.7682C401.43 58.5439 398.413 52.6875 394.69 52.6875C390.968 52.6875 387.95 58.5439 387.95 65.7682C387.95 72.9924 390.968 78.8489 394.69 78.8489Z" fill="#407BFF"/>
<path d="M39.5 323L92 274L156.5 285L182 257.5L207 230.5L265.5 240L298 184.5L313.5 162.5L319.5 151.5L323.601 141.957L371 84L385.5 72.5L393.5 65.5" stroke="#1D4ED8" stroke-width="5"/>
<path d="M201.89 337.735C308.972 337.735 395.78 332.671 395.78 326.424C395.78 320.176 308.972 315.112 201.89 315.112C94.8075 315.112 8 320.176 8 326.424C8 332.671 94.8075 337.735 201.89 337.735Z" fill="#F5F5F5"/>
<path d="M186.09 128.324V120.12L191.16 118.671C191.467 115.915 192.009 113.19 192.78 110.527L188.65 107.229L191.78 99.6643L197.02 100.264C198.38 97.8422 199.931 95.5331 201.66 93.3587L199.1 88.742L204.88 82.9461L209.52 85.5043C211.686 83.7746 213.994 82.2303 216.42 80.8876L215.82 75.6513L223.4 72.5035L226.68 76.6306C229.357 75.8794 232.089 75.3382 234.85 75.0117L236.3 69.9453H244.49L245.97 75.0117C248.724 75.3401 251.449 75.8813 254.12 76.6306L257.41 72.5035L264.98 75.6513L264.38 80.8876C266.81 82.2278 269.122 83.7723 271.29 85.5043L275.91 82.9461L281.72 88.742L279.15 93.3487C280.875 95.521 282.42 97.8303 283.77 100.254L289.01 99.6543L292.16 107.219L288.01 110.517C288.785 113.179 289.327 115.904 289.63 118.661L294.73 120.11V128.324L289.63 129.773C289.33 132.533 288.788 135.262 288.01 137.927L292.16 141.215L289.01 148.779L283.77 148.2C282.42 150.617 280.875 152.92 279.15 155.085L281.72 159.722L275.89 165.468L271.27 162.899C269.1 164.634 266.788 166.185 264.36 167.536L264.96 172.772L257.39 175.9L254.1 171.773C251.434 172.541 248.707 173.083 245.95 173.392L244.47 178.468H236.28L234.89 173.392C232.125 173.085 229.392 172.544 226.72 171.773L223.44 175.9L215.86 172.772L216.46 167.536C214.036 166.183 211.728 164.632 209.56 162.899L204.89 165.468L199.11 159.682L201.67 155.045C199.942 152.878 198.39 150.575 197.03 148.16L191.79 148.739L188.66 141.175L192.79 137.887C192.016 135.221 191.474 132.493 191.17 129.733L186.09 128.324ZM240.4 162.03C247.882 162.03 255.197 159.813 261.418 155.658C267.639 151.504 272.488 145.599 275.351 138.691C278.214 131.783 278.963 124.181 277.502 116.848C276.042 109.515 272.438 102.779 267.146 97.4924C261.855 92.2059 255.113 88.6063 247.774 87.1488C240.435 85.6913 232.828 86.4413 225.916 89.3041C219.004 92.1669 213.096 97.0138 208.94 103.232C204.785 109.45 202.568 116.76 202.57 124.237C202.58 134.255 206.571 143.859 213.665 150.938C220.758 158.018 230.375 161.993 240.4 161.99V162.03Z" fill="#407BFF"/>
<path opacity="0.7" d="M186.09 128.324V120.12L191.16 118.671C191.467 115.915 192.009 113.19 192.78 110.527L188.65 107.229L191.78 99.6643L197.02 100.264C198.38 97.8422 199.931 95.5331 201.66 93.3587L199.1 88.742L204.88 82.9461L209.52 85.5043C211.686 83.7746 213.994 82.2303 216.42 80.8876L215.82 75.6513L223.4 72.5035L226.68 76.6306C229.357 75.8794 232.089 75.3382 234.85 75.0117L236.3 69.9453H244.49L245.97 75.0117C248.724 75.3401 251.449 75.8813 254.12 76.6306L257.41 72.5035L264.98 75.6513L264.38 80.8876C266.81 82.2278 269.122 83.7723 271.29 85.5043L275.91 82.9461L281.72 88.742L279.15 93.3487C280.875 95.521 282.42 97.8303 283.77 100.254L289.01 99.6543L292.16 107.219L288.01 110.517C288.785 113.179 289.327 115.904 289.63 118.661L294.73 120.11V128.324L289.63 129.773C289.33 132.533 288.788 135.262 288.01 137.927L292.16 141.215L289.01 148.779L283.77 148.2C282.42 150.617 280.875 152.92 279.15 155.085L281.72 159.722L275.89 165.468L271.27 162.899C269.1 164.634 266.788 166.185 264.36 167.536L264.96 172.772L257.39 175.9L254.1 171.773C251.434 172.541 248.707 173.083 245.95 173.392L244.47 178.468H236.28L234.89 173.392C232.125 173.085 229.392 172.544 226.72 171.773L223.44 175.9L215.86 172.772L216.46 167.536C214.036 166.183 211.728 164.632 209.56 162.899L204.89 165.468L199.11 159.682L201.67 155.045C199.942 152.878 198.39 150.575 197.03 148.16L191.79 148.739L188.66 141.175L192.79 137.887C192.016 135.221 191.474 132.493 191.17 129.733L186.09 128.324ZM240.4 162.03C247.882 162.03 255.197 159.813 261.418 155.658C267.639 151.504 272.488 145.599 275.351 138.691C278.214 131.783 278.963 124.181 277.502 116.848C276.042 109.515 272.438 102.779 267.146 97.4924C261.855 92.2059 255.113 88.6063 247.774 87.1488C240.435 85.6913 232.828 86.4413 225.916 89.3041C219.004 92.1669 213.096 97.0138 208.94 103.232C204.785 109.45 202.568 116.76 202.57 124.237C202.58 134.255 206.571 143.859 213.665 150.938C220.758 158.018 230.375 161.993 240.4 161.99V162.03Z" fill="white"/>
<path d="M160.14 186.812C160.696 185.031 161.43 183.311 162.33 181.676L161.23 176.68L168.69 169.225L173.69 170.324C175.326 169.424 177.048 168.691 178.83 168.136L182.08 163.059H192.65L195.89 168.136C197.675 168.691 199.401 169.425 201.04 170.324L206.04 169.225L213.51 176.68L212.41 181.676C213.306 183.313 214.039 185.033 214.6 186.812L219.67 190.06V200.613L214.6 203.86C214.036 205.642 213.302 207.365 212.41 209.007L213.51 214.003L206.04 221.468L201.04 220.369C199.399 221.264 197.674 221.997 195.89 222.557L192.65 227.624H182.1L178.89 222.567C177.109 222.007 175.388 221.274 173.75 220.379L168.75 221.478L161.29 214.013L162.39 209.017C161.493 207.377 160.76 205.653 160.2 203.87L155.13 200.623V190.06L160.14 186.812ZM187.38 209.956C190.274 209.958 193.103 209.102 195.511 207.497C197.918 205.892 199.795 203.609 200.903 200.938C202.012 198.267 202.303 195.327 201.74 192.49C201.177 189.654 199.784 187.048 197.738 185.002C195.693 182.957 193.086 181.563 190.248 180.998C187.41 180.433 184.467 180.722 181.794 181.829C179.12 182.935 176.834 184.809 175.226 187.213C173.618 189.618 172.76 192.444 172.76 195.336C172.76 199.212 174.3 202.929 177.041 205.67C179.783 208.412 183.501 209.953 187.38 209.956Z" fill="#407BFF"/>
<path opacity="0.5" d="M160.14 186.812C160.696 185.031 161.43 183.311 162.33 181.676L161.23 176.68L168.69 169.225L173.69 170.324C175.326 169.424 177.048 168.691 178.83 168.136L182.08 163.059H192.65L195.89 168.136C197.675 168.691 199.401 169.425 201.04 170.324L206.04 169.225L213.51 176.68L212.41 181.676C213.306 183.313 214.039 185.033 214.6 186.812L219.67 190.06V200.613L214.6 203.86C214.036 205.642 213.302 207.365 212.41 209.007L213.51 214.003L206.04 221.468L201.04 220.369C199.399 221.264 197.674 221.997 195.89 222.557L192.65 227.624H182.1L178.89 222.567C177.109 222.007 175.388 221.274 173.75 220.379L168.75 221.478L161.29 214.013L162.39 209.017C161.493 207.377 160.76 205.653 160.2 203.87L155.13 200.623V190.06L160.14 186.812ZM187.38 209.956C190.274 209.958 193.103 209.102 195.511 207.497C197.918 205.892 199.795 203.609 200.903 200.938C202.012 198.267 202.303 195.327 201.74 192.49C201.177 189.654 199.784 187.048 197.738 185.002C195.693 182.957 193.086 181.563 190.248 180.998C187.41 180.433 184.467 180.722 181.794 181.829C179.12 182.935 176.834 184.809 175.226 187.213C173.618 189.618 172.76 192.444 172.76 195.336C172.76 199.212 174.3 202.929 177.041 205.67C179.783 208.412 183.501 209.953 187.38 209.956Z" fill="white"/>
<path d="M345.5 112.775L307 136.758H322.5L263.72 235.038L207.17 225.045C206.485 224.922 205.78 224.98 205.124 225.214C204.468 225.447 203.884 225.847 203.43 226.374L156.43 280.696L91.2602 270.403C90.571 270.295 89.8662 270.342 89.198 270.543C88.5298 270.744 87.9153 271.092 87.4002 271.562L36.4802 318.189C35.5108 319.094 34.941 320.347 34.8959 321.672C34.8509 322.997 35.3345 324.286 36.2402 325.254C37.1459 326.223 38.3996 326.792 39.7255 326.837C41.0514 326.882 42.3408 326.399 43.3102 325.494L92.0302 279.966L157.43 289.729C158.168 289.847 158.923 289.773 159.624 289.514C160.325 289.254 160.947 288.82 161.43 288.251L207.99 233.349L264.89 243.003C265.646 243.131 266.422 243.026 267.117 242.703C267.812 242.38 268.392 241.854 268.78 241.194L333.5 136.758H347.5L345.5 112.775Z" fill="#263238"/>
<path d="M123.45 86.2937L122.93 86.5535L122.29 86.8833C121.86 87.1231 121.41 87.3529 120.97 87.6128C120.09 88.1124 119.21 88.662 118.34 89.2416C116.59 90.3708 114.9 91.6299 113.23 92.939C111.56 94.2481 109.98 95.6671 108.41 97.1161L106.12 99.3445L105 100.504L104.45 101.093L104.24 101.313C103.536 102.519 103.272 103.931 103.49 105.31C103.651 107.298 104.03 109.262 104.62 111.166C105.907 115.309 107.515 119.345 109.43 123.238L105.68 125.686C102.72 121.941 100.238 117.842 98.2901 113.485C97.2433 111.158 96.4876 108.711 96.0401 106.2C95.7956 104.768 95.7351 103.31 95.8601 101.863C96.0004 100.143 96.5341 98.4776 97.4201 96.9961C97.6623 96.5974 97.933 96.2167 98.2301 95.857L98.7901 95.1574L99.9301 93.7784C100.7 92.8591 101.5 91.9697 102.31 91.0903C103.96 89.337 105.699 87.6693 107.52 86.0938C109.36 84.4996 111.297 83.0211 113.32 81.667C114.32 80.9874 115.38 80.3379 116.48 79.7283C117.01 79.4086 117.57 79.1188 118.14 78.829L119.03 78.3993C119.35 78.2494 119.59 78.1395 120.03 77.9496L123.45 86.2937Z" fill="#B55B52"/>
<path d="M137.5 50.689C137.84 56.0152 138.64 67.6769 134.5 70.6747C134.5 70.6747 135.23 76.1309 144.89 77.4C155.52 78.789 150.66 72.7932 150.66 72.7932C145.04 70.6548 145.75 66.3678 147.29 62.4706L137.5 50.689Z" fill="#B55B52"/>
<path d="M132.46 73.3629C132.46 73.3629 131.52 70.365 131.18 68.6162C130.84 66.8674 143.97 67.437 148.32 68.5462C152.67 69.6554 154.05 74.7519 154.05 74.7519L132.46 73.3629Z" fill="#263238"/>
<path d="M156.95 46.9615C157.751 48.5133 158.761 49.9488 159.95 51.2286C159.618 51.5258 159.224 51.7455 158.797 51.8717C158.37 51.9979 157.92 52.0274 157.48 51.9581L156.95 46.9615Z" fill="#A02724"/>
<path d="M153.89 42.3249C153.824 42.3224 153.759 42.3054 153.7 42.2749C153.651 42.2487 153.608 42.2132 153.573 42.1704C153.538 42.1276 153.512 42.0783 153.497 42.0254C153.481 41.9725 153.476 41.917 153.481 41.862C153.487 41.8071 153.503 41.7539 153.53 41.7053C153.825 41.1104 154.259 40.5948 154.795 40.2019C155.331 39.809 155.953 39.5501 156.61 39.4469C156.72 39.4385 156.828 39.4737 156.913 39.5447C156.997 39.6157 157.05 39.717 157.06 39.8266C157.067 39.8813 157.063 39.9367 157.048 39.9897C157.033 40.0427 157.007 40.0921 156.973 40.135C156.938 40.1779 156.895 40.2134 156.847 40.2394C156.798 40.2654 156.745 40.2814 156.69 40.2863C156.171 40.3726 155.681 40.5819 155.26 40.8966C154.839 41.2113 154.499 41.6223 154.27 42.0951C154.233 42.1643 154.179 42.2223 154.112 42.2628C154.045 42.3033 153.968 42.3248 153.89 42.3249Z" fill="#263238"/>
<path d="M156.19 45.8124C156.26 46.5219 156.7 47.0515 157.19 47.0116C157.68 46.9716 157.97 46.352 157.9 45.6425C157.83 44.933 157.39 44.3934 156.9 44.4433C156.41 44.4933 156.12 45.1029 156.19 45.8124Z" fill="#263238"/>
<path d="M156.7 44.5026L158.35 43.8337C158.35 43.8337 157.61 45.2515 156.7 44.5026Z" fill="#263238"/>
<path d="M88.7598 268.355L97.2898 270.663L105.37 251.666L96.8398 249.358L88.7598 268.355Z" fill="#B55B52"/>
<path d="M100.28 264.227L90.4699 262.679C90.3013 262.652 90.1286 262.686 89.9836 262.776C89.8385 262.866 89.7307 263.005 89.6799 263.168L87.3399 270.743C87.2884 270.936 87.2779 271.137 87.3089 271.334C87.34 271.531 87.4121 271.719 87.5204 271.887C87.6287 272.054 87.7709 272.198 87.9379 272.307C88.1049 272.416 88.2929 272.489 88.4899 272.522C91.9199 273.001 93.5999 273.061 97.9099 273.741C100.56 274.16 104.4 275.05 108.06 275.619C111.72 276.189 112.49 272.622 111.06 272.042C104.45 269.494 103.69 267.295 101.69 265.047C101.332 264.616 100.832 264.325 100.28 264.227Z" fill="#263238"/>
<path opacity="0.2" d="M96.8399 249.358L105.37 251.676L101.2 261.469L92.6699 259.151L96.8399 249.358Z" fill="black"/>
<path d="M127.58 72.4735C124.08 71.1145 113.5 79.9282 113.5 79.9282L118.22 96.1768C118.22 96.1768 130.07 89.3016 131.13 84.535C132.24 79.5785 131.72 74.0824 127.58 72.4735Z" fill="#407BFF"/>
<path d="M166.94 80.6377C166.94 86.3136 167.15 96.8361 163.45 115.613C162.78 119.02 164.1 120.539 163.51 124.017C163.12 126.295 161.84 125.955 161.66 127.065H125.78C125.78 126.005 124.21 125.436 123.84 123.127C123.01 117.851 126.07 117.412 125.97 114.084C125.72 105.69 124.49 96.2466 120.82 79.6783C120.633 78.8691 120.616 78.0299 120.771 77.2139C120.925 76.3979 121.248 75.6229 121.718 74.938C122.188 74.2532 122.795 73.6733 123.502 73.2353C124.208 72.7973 124.997 72.5106 125.82 72.3935C128.4 72.0238 131.5 71.664 134.64 71.5141C140.066 71.124 145.514 71.124 150.94 71.5141C154.12 71.8039 157.49 72.2936 160.23 72.7433C162.104 73.0492 163.808 74.0114 165.037 75.4577C166.267 76.904 166.941 78.7401 166.94 80.6377Z" fill="#407BFF"/>
<path opacity="0.2" d="M157.03 85.5742C158.63 89.3915 163.73 95.1174 166.19 97.7556C166.57 94.0782 166.76 90.9604 166.86 88.3222L157.03 85.5742Z" fill="black"/>
<path d="M167.89 77.7997C170.83 80.7976 174.03 83.8554 177.22 86.6834C180.32 89.5048 183.641 92.0744 187.15 94.3679C187.57 94.6577 188 94.8576 188.42 95.1174L189.05 95.4771C189.14 95.5271 189.05 95.4771 189.05 95.4771H188.98H188.86C188.6 95.4771 189.18 95.587 189.86 95.3372C191.601 94.6544 193.243 93.7401 194.74 92.6192C198.211 90.084 201.533 87.3514 204.69 84.435L208.12 87.3029C205.533 91.2005 202.513 94.794 199.12 98.0153C197.254 99.8355 195.115 101.353 192.78 102.512C192.035 102.864 191.253 103.136 190.45 103.322C189.406 103.56 188.326 103.594 187.27 103.421C186.958 103.367 186.651 103.291 186.35 103.192C186.19 103.147 186.033 103.094 185.88 103.032L185.49 102.862L184.64 102.462C184.09 102.182 183.49 101.923 182.97 101.623C178.827 99.3182 174.924 96.6067 171.32 93.5285C167.767 90.565 164.403 87.3809 161.25 83.9953L167.89 77.7997Z" fill="#B55B52"/>
<path d="M207.1 81.3572C205.462 82.5512 204.151 84.1392 203.29 85.9739L204.04 89.3315C204.06 89.4165 204.098 89.4959 204.153 89.5639C204.208 89.6319 204.277 89.6866 204.356 89.7241C204.435 89.7616 204.521 89.7808 204.608 89.7803C204.696 89.7798 204.782 89.7596 204.86 89.7213L210.23 87.0831L212.47 85.9439C212.711 85.8212 212.907 85.6259 213.031 85.3856C213.155 85.1453 213.2 84.8722 213.16 84.6049L212.79 82.0567C212.746 81.7425 212.586 81.456 212.342 81.2529C212.098 81.0497 211.787 80.9445 211.47 80.9575L207.99 81.0674C207.672 81.0761 207.362 81.1768 207.1 81.3572Z" fill="#B55B52"/>
<path d="M110.68 126.075C110.457 128.089 109.735 130.016 108.58 131.681L105.29 132.681C105.207 132.706 105.119 132.713 105.032 132.7C104.946 132.687 104.864 132.655 104.792 132.606C104.72 132.557 104.66 132.493 104.616 132.417C104.573 132.342 104.546 132.258 104.54 132.171L104.15 126.175L104 123.117C103.994 123.007 104.022 122.898 104.082 122.805C104.141 122.712 104.227 122.639 104.33 122.598L107.86 121.199C107.983 121.152 108.119 121.151 108.242 121.197C108.366 121.243 108.468 121.333 108.53 121.449L110.53 125.116C110.671 125.415 110.723 125.748 110.68 126.075Z" fill="#B55B52"/>
<path d="M74.6399 155.655L110.51 159.852C111.372 159.914 112.232 159.7 112.966 159.242C113.699 158.784 114.268 158.105 114.59 157.303L122.23 136.188C122.381 135.845 122.446 135.47 122.42 135.096C122.395 134.722 122.278 134.36 122.082 134.041C121.885 133.721 121.614 133.454 121.291 133.263C120.969 133.071 120.605 132.961 120.23 132.941L84.3599 128.744C83.4973 128.681 82.6373 128.895 81.904 129.353C81.1707 129.811 80.6019 130.49 80.2799 131.292L72.6399 152.407C72.4889 152.75 72.4235 153.125 72.4493 153.499C72.4751 153.873 72.5914 154.235 72.788 154.555C72.9847 154.874 73.2559 155.141 73.5784 155.332C73.901 155.524 74.2652 155.635 74.6399 155.655Z" fill="#263238"/>
<path d="M78.8898 163.019L122.89 168.126C123.887 168.234 124.888 167.957 125.688 167.351C126.487 166.745 127.025 165.857 127.19 164.868L131.47 137.977C131.552 137.499 131.535 137.01 131.42 136.539C131.306 136.068 131.096 135.625 130.804 135.239C130.511 134.852 130.143 134.529 129.721 134.29C129.299 134.052 128.832 133.902 128.35 133.85L84.3499 128.743C83.3514 128.638 82.3504 128.918 81.5512 129.525C80.752 130.132 80.215 131.022 80.0498 132.011L75.7698 158.902C75.6878 159.379 75.7047 159.868 75.8194 160.339C75.9341 160.809 76.1442 161.251 76.4366 161.637C76.7291 162.023 77.0977 162.344 77.5197 162.582C77.9417 162.82 78.408 162.969 78.8898 163.019Z" fill="#407BFF"/>
<path opacity="0.3" d="M78.8898 163.019L122.89 168.126C123.887 168.234 124.888 167.957 125.688 167.351C126.487 166.745 127.025 165.857 127.19 164.868L131.47 137.977C131.552 137.499 131.535 137.01 131.42 136.539C131.306 136.068 131.096 135.625 130.804 135.239C130.511 134.852 130.143 134.529 129.721 134.29C129.299 134.052 128.832 133.902 128.35 133.85L84.3499 128.743C83.3514 128.638 82.3504 128.918 81.5512 129.525C80.752 130.132 80.215 131.022 80.0498 132.011L75.7698 158.902C75.6878 159.379 75.7047 159.868 75.8194 160.339C75.9341 160.809 76.1442 161.251 76.4366 161.637C76.7291 162.023 77.0977 162.344 77.5197 162.582C77.9417 162.82 78.408 162.969 78.8898 163.019Z" fill="black"/>
<path d="M113.27 139.506H113.03L100.26 138.017C99.9865 137.988 99.7219 137.903 99.4827 137.767C99.2435 137.631 99.035 137.448 98.8701 137.228C98.7006 137.009 98.5785 136.757 98.5114 136.489C98.4442 136.221 98.4336 135.941 98.4801 135.669L99.4101 129.873C99.5901 128.794 100.176 127.824 101.048 127.163C101.92 126.502 103.012 126.198 104.1 126.315L112.64 127.315C113.2 127.378 113.741 127.554 114.23 127.832C114.72 128.11 115.148 128.485 115.488 128.934C115.829 129.382 116.074 129.895 116.211 130.441C116.347 130.987 116.37 131.556 116.28 132.111L115.38 137.727C115.293 138.224 115.034 138.675 114.648 139C114.263 139.325 113.775 139.504 113.27 139.506ZM100.49 136.028L113.26 137.507C113.294 137.511 113.328 137.501 113.356 137.481C113.384 137.461 113.403 137.431 113.41 137.397L114.3 131.771C114.351 131.484 114.342 131.189 114.273 130.905C114.204 130.621 114.077 130.355 113.9 130.123C113.721 129.89 113.497 129.695 113.241 129.551C112.985 129.407 112.702 129.316 112.41 129.283L103.89 128.324C103.313 128.272 102.737 128.439 102.276 128.79C101.815 129.141 101.503 129.652 101.4 130.223L100.48 136.018L100.4 137.018L100.49 136.028Z" fill="#407BFF"/>
<path d="M127.58 168.675L83.5799 163.569C82.5782 163.438 81.6614 162.938 81.0086 162.168C80.3558 161.397 80.014 160.411 80.0499 159.402L81.4099 132.171C81.4269 131.69 81.544 131.218 81.7539 130.785C81.9638 130.352 82.2618 129.968 82.6289 129.657C82.996 129.345 83.424 129.114 83.8857 128.977C84.3473 128.841 84.8324 128.802 85.3099 128.864L129.31 133.97C130.317 134.088 131.242 134.584 131.898 135.357C132.553 136.131 132.89 137.125 132.84 138.137L131.48 165.368C131.463 165.849 131.346 166.321 131.136 166.754C130.926 167.187 130.628 167.571 130.261 167.882C129.894 168.194 129.466 168.425 129.004 168.562C128.543 168.698 128.057 168.737 127.58 168.675Z" fill="#407BFF"/>
<path d="M161.07 73.0831C167.86 74.7219 174.89 81.4072 174.89 81.4072L168.89 96.1768C168.89 96.1768 154.89 87.6428 153.59 82.9361C151.89 76.6805 154.52 71.5042 161.07 73.0831Z" fill="#407BFF"/>
<path d="M132.1 45.8424C133.53 54.4863 133.96 58.1737 138.81 62.1908C146.12 68.1866 156.44 64.5691 157.62 55.6754C158.68 47.6811 156.16 34.8701 147.28 32.282C145.325 31.7127 143.256 31.6502 141.27 32.1003C139.284 32.5504 137.445 33.4984 135.926 34.8548C134.408 36.2113 133.26 37.9316 132.59 39.8539C131.921 41.7761 131.752 43.837 132.1 45.8424Z" fill="#B55B52"/>
<path d="M153.48 32.9715C147.74 32.322 137.48 23.9779 131.64 32.5218C126.3 40.3962 123.59 41.5154 115.33 44.7231C101.55 50.0194 109.22 55.6354 103.33 64.1294C97.44 72.6234 87.49 70.1251 86.08 81.607C83.91 99.1845 114.41 120.749 132.66 100.923C150.91 81.0973 138.89 74.3621 147.11 68.6961C157.52 61.4813 154.89 49.4698 151.31 47.8309C155.23 43.8338 160.74 33.8109 153.48 32.9715Z" fill="#263238"/>
<path d="M154.4 46.0522C155.62 47.3745 156.362 49.0663 156.51 50.8588C156.64 53.1072 154.51 53.2871 152.73 51.8581C151.09 50.599 149.04 47.8609 149.73 46.0223C150.42 44.1836 152.89 44.3834 154.4 46.0522Z" fill="#B55B52"/>
<path d="M152.19 127.105C152.19 127.105 148.67 179.847 135.04 206.908C129.49 217.9 104.14 258.821 104.14 258.821L91.7397 256.763C91.7397 256.763 109.67 212.264 120.67 201.802C121.82 172.373 113.22 141.504 125.78 127.075L152.19 127.105Z" fill="#263238"/>
<path opacity="0.4" d="M140.29 141.315C139.9 153.786 141.362 166.246 144.63 178.288C146.63 169.794 148.11 161.15 149.24 153.446C146.761 149.053 143.756 144.979 140.29 141.315Z" fill="black"/>
<path d="M105.02 260.61L90.21 256.593L92.0099 251.507L107.95 255.264L105.02 260.61Z" fill="#263238"/>
<path d="M204.38 221.178L213.38 222.497L211.58 202.181L202.58 200.852L204.38 221.178Z" fill="#B55B52"/>
<path d="M213.41 216.441L203.6 214.942C203.431 214.916 203.259 214.95 203.114 215.04C202.969 215.13 202.861 215.269 202.81 215.432L200.51 223.027C200.46 223.22 200.451 223.422 200.485 223.619C200.518 223.816 200.592 224.004 200.702 224.171C200.812 224.337 200.956 224.479 201.125 224.587C201.293 224.694 201.482 224.766 201.68 224.796C205.11 225.255 206.79 225.305 211.11 225.955C213.76 226.364 217.6 227.224 221.26 227.783C224.92 228.343 225.68 224.786 224.2 224.186C217.58 221.678 216.81 219.479 214.79 217.191C214.436 216.783 213.945 216.517 213.41 216.441Z" fill="#263238"/>
<path opacity="0.2" d="M202.57 200.852L211.59 202.181L212.42 211.675L203.5 211.335L202.57 200.852Z" fill="black"/>
<path d="M161.66 127.105C161.66 127.105 220.85 137.098 218.51 154.455C214.82 181.866 213.38 207.268 213.38 207.268L201.89 206.269C201.89 206.269 197.07 179.288 200.39 161.221C186.56 154.975 128.02 179.258 135.25 127.105H161.66Z" fill="#263238"/>
<path d="M214.64 210.126L199.39 208.327L199.22 202.891L215.42 204.24L214.64 210.126Z" fill="#263238"/>
<path d="M125.24 125.006L123.62 128.214C123.49 128.464 123.79 128.714 124.2 128.714H161.89C162.21 128.714 162.48 128.564 162.5 128.354L162.83 125.146C162.83 124.926 162.57 124.737 162.21 124.737H125.82C125.708 124.728 125.596 124.748 125.495 124.795C125.393 124.842 125.305 124.915 125.24 125.006Z" fill="white"/>
<path d="M130.12 129.063H129.12C128.92 129.063 128.77 128.963 128.79 128.844L129.24 124.677C129.24 124.547 129.43 124.447 129.62 124.447H130.62C130.82 124.447 130.97 124.547 130.95 124.677L130.5 128.844C130.48 128.963 130.31 129.063 130.12 129.063Z" fill="#263238"/>
<path d="M153.71 129.063H152.71C152.51 129.063 152.37 128.963 152.38 128.844L152.84 124.677C152.84 124.547 153.02 124.447 153.21 124.447H154.21C154.4 124.447 154.55 124.547 154.53 124.677L154.08 128.844C154.07 128.963 153.89 129.063 153.71 129.063Z" fill="#263238"/>
<defs>
<linearGradient id="paint0_linear_410_286" x1="242" y1="5.00003" x2="231" y2="282" gradientUnits="userSpaceOnUse">
<stop stop-color="#1D4ED8" stop-opacity="0.61"/>
<stop offset="1" stop-color="white" stop-opacity="0.34"/>
</linearGradient>
</defs>
</svg>
