<svg width="172" height="137" viewBox="0 0 172 137" fill="none" xmlns="http://www.w3.org/2000/svg">
<path d="M169.651 102.468C169.651 102.468 178.251 53.5037 154.842 25.7238C134.202 1.20108 101.479 -8.33388 74.8231 11.9435C65.3244 19.1667 58.41 33.1962 47.3032 37.5319C34.8633 42.3917 18.8673 44.1277 7.31316 64.9637C-4.24094 85.7996 -0.0699412 112.54 15.3241 126.775C30.7181 141.011 57.6833 127.123 81.974 126.079C106.265 125.035 156.914 162.891 169.651 102.468Z" fill="#407BFF"/>
<path opacity="0.7" d="M169.651 102.468C169.651 102.468 178.251 53.5037 154.842 25.7238C134.202 1.20108 101.479 -8.33388 74.8231 11.9435C65.3244 19.1667 58.41 33.1962 47.3032 37.5319C34.8633 42.3917 18.8673 44.1277 7.31316 64.9637C-4.24094 85.7996 -0.0699412 112.54 15.3241 126.775C30.7181 141.011 57.6833 127.123 81.974 126.079C106.265 125.035 156.914 162.891 169.651 102.468Z" fill="white"/>
<path d="M157.942 39.0361C158.342 38.8986 156.717 34.1719 156.57 33.725C155.569 30.6655 153.075 27.6619 149.596 27.7092C146.117 27.7564 142.11 32.6121 138.635 30.644C135.767 29.0155 134.223 25.87 131.076 24.5981C125.125 22.1961 125.125 28.5342 120.756 29.5397C117.423 30.3089 116.4 27.49 113.321 29.7932C110.242 32.0964 112.298 33.1234 108.965 33.6391C105.633 34.1547 105.117 33.3813 103.066 34.1504C101.014 34.9196 97.4282 38.7611 97.4282 38.7611C97.4282 38.7611 94.6074 37.7384 92.0446 38.7611C89.4818 39.7838 88.4541 41.3394 88.4541 41.3394H161.017C161.017 41.3394 160.247 38.5248 157.942 39.0361Z" fill="#407BFF"/>
<path d="M107.809 20.0002C108.036 19.9228 107.112 17.2286 107.026 16.9923C106.458 15.2735 105.035 13.5547 103.053 13.5761C101.07 13.5976 98.7871 16.3692 96.8091 15.2477C95.1751 14.3195 94.2936 12.5277 92.5091 11.8101C89.1207 10.4436 89.1164 14.0531 86.6353 14.6246C84.7347 15.0543 84.1499 13.4601 82.3998 14.7707C80.6497 16.0813 81.815 16.67 79.9144 16.9622C78.0138 17.2544 77.7257 16.8161 76.5561 17.2544C75.3865 17.6927 73.3397 19.8798 73.3397 19.8798C72.3451 19.5458 71.2685 19.5458 70.2738 19.8798C69.4684 20.1662 68.7593 20.6723 68.2271 21.3408H109.58C109.58 21.3408 109.124 19.708 107.809 20.0002Z" fill="#407BFF"/>
<path opacity="0.36" d="M157.942 39.0361C158.342 38.8986 156.717 34.1719 156.57 33.725C155.569 30.6655 153.075 27.6619 149.596 27.7092C146.117 27.7564 142.11 32.6121 138.635 30.644C135.767 29.0155 134.223 25.87 131.076 24.5981C125.125 22.1961 125.125 28.5342 120.756 29.5397C117.423 30.3089 116.4 27.49 113.321 29.7932C110.242 32.0964 112.298 33.1234 108.965 33.6391C105.633 34.1547 105.117 33.3813 103.066 34.1504C101.014 34.9196 97.4282 38.7611 97.4282 38.7611C97.4282 38.7611 94.6074 37.7384 92.0446 38.7611C89.4818 39.7838 88.4541 41.3394 88.4541 41.3394H161.017C161.017 41.3394 160.247 38.5248 157.942 39.0361Z" fill="white"/>
<path opacity="0.36" d="M107.809 20.0002C108.036 19.9228 107.112 17.2286 107.026 16.9923C106.458 15.2735 105.035 13.5547 103.053 13.5761C101.07 13.5976 98.7871 16.3692 96.8091 15.2477C95.1751 14.3195 94.2936 12.5277 92.5091 11.8101C89.1207 10.4436 89.1164 14.0531 86.6353 14.6246C84.7347 15.0543 84.1499 13.4601 82.3998 14.7707C80.6497 16.0813 81.815 16.67 79.9144 16.9622C78.0138 17.2544 77.7257 16.8161 76.5561 17.2544C75.3865 17.6927 73.3397 19.8798 73.3397 19.8798C72.3451 19.5458 71.2685 19.5458 70.2738 19.8798C69.4684 20.1662 68.7593 20.6723 68.2271 21.3408H109.58C109.58 21.3408 109.124 19.708 107.809 20.0002Z" fill="white"/>
<path d="M54.88 46.1854C45.3942 44.9994 35.5516 44.9307 26.8699 45.326C19.9125 48.9699 13.0712 54.6075 7.33066 64.9503C-4.22344 85.7993 -0.069634 112.539 15.3244 126.775C30.7184 141.011 57.6836 127.123 81.9743 126.079C106.265 125.035 156.915 162.892 169.651 102.467C169.651 102.467 174.287 76.0452 167.471 51.0066C156.515 53.1079 133.85 57.0224 116.985 57.0224C93.9326 57.0267 80.9122 49.4382 54.88 46.1854Z" fill="#407BFF"/>
<path opacity="0.36" d="M54.88 46.1854C45.3942 44.9994 35.5516 44.9307 26.8699 45.326C19.9125 48.9699 13.0712 54.6075 7.33066 64.9503C-4.22344 85.7993 -0.069634 112.539 15.3244 126.775C30.7184 141.011 57.6836 127.123 81.9743 126.079C106.265 125.035 156.915 162.892 169.651 102.467C169.651 102.467 174.287 76.0452 167.471 51.0066C156.515 53.1079 133.85 57.0224 116.985 57.0224C93.9326 57.0267 80.9122 49.4382 54.88 46.1854Z" fill="white"/>
<g opacity="0.2">
<path opacity="0.2" d="M143.021 81.4164C143.021 81.4164 143.292 79.5171 152.782 77.0808C159.108 75.4565 166.392 73.467 170.873 72.0018C170.838 71.542 170.808 71.0779 170.769 70.6096C164.896 71.5334 155.195 73.4026 156.308 72.4744C157.422 71.5463 165.515 68.6716 170.425 66.983C169.857 61.589 168.87 56.2475 167.471 51.0069C156.515 53.1081 133.85 57.0227 116.985 57.0227C93.9326 57.0227 80.9122 49.4343 54.88 46.1815C45.3942 44.9955 35.5515 44.9268 26.8698 45.3221C19.9124 48.9702 13.0711 54.6078 7.33062 64.9505C6.66842 66.1408 6.07072 67.3482 5.51172 68.5728C7.94959 69.5602 10.5049 70.2289 13.1141 70.5623C25.8593 71.9158 38.3336 70.5623 46.7444 70.5623C55.1552 70.5623 43.2184 73.003 35.8955 75.4393C28.5726 77.8757 55.6755 76.7971 71.693 77.3386C87.7105 77.88 51.0831 86.2805 40.5051 87.0926C29.9271 87.9047 36.7082 89.2626 45.3856 89.804C54.063 90.3454 60.0314 91.4282 55.1509 92.2446C50.2704 93.0611 44.0311 95.4974 53.0009 95.4974C61.9707 95.4974 100.189 93.5982 108.041 93.8689C115.893 94.1396 93.6703 97.9338 99.3635 98.2045C105.057 98.4752 115.91 98.7459 114.28 99.2916C112.651 99.8373 97.7381 102.811 102.89 102.269C108.041 101.728 108.05 101.728 124.858 100.374C141.667 99.0209 144.114 99.5623 146.827 98.7459C149.54 97.9295 124.587 97.6631 134.89 95.7681C145.193 93.8732 155.233 91.7032 163.098 90.8868C170.963 90.0704 163.098 89.804 160.656 88.7383C158.764 87.8789 164.526 87.7071 171.122 86.1602C171.165 84.8711 171.191 83.5261 171.195 82.1339C161 81.3003 143.021 81.4164 143.021 81.4164Z" fill="black"/>
<path opacity="0.2" d="M93.391 103.623C100.443 103.623 101.798 102.265 97.7297 102.265C93.6619 102.265 97.7297 101.453 101.527 100.37C105.324 99.2875 88.2353 100.641 84.7093 100.912C81.1833 101.183 88.2353 101.995 91.4904 101.995C94.7455 101.995 82.0003 103.078 79.5579 104.165C77.1155 105.252 98.2715 106.314 102.348 106.314C106.424 106.314 100.723 106.855 95.8377 107.13C90.9529 107.405 107.228 107.13 111.838 105.501C116.448 103.873 93.391 103.623 93.391 103.623Z" fill="black"/>
<path opacity="0.2" d="M72.2348 99.5746C63.5574 99.5746 50.5413 98.2166 55.4218 99.8454C60.3023 101.474 70.3385 101.47 66.2707 101.741C62.2029 102.011 51.8958 101.741 55.6927 102.553C59.4896 103.365 66.6663 103.412 66.6663 103.412C66.6663 103.412 48.9116 103.902 55.6927 104.173C62.4738 104.444 83.0837 105.256 76.8444 104.173C70.6051 103.09 75.7608 102.273 77.6614 101.732C79.562 101.19 80.9122 99.5746 72.2348 99.5746Z" fill="black"/>
<path opacity="0.2" d="M148.985 109.6C148.985 109.6 130.543 110.683 134.61 111.499C138.678 112.315 165.257 112.853 158.751 112.311C152.245 111.77 158.205 110.683 162.001 110.683C165.798 110.683 152.24 110.683 150.615 110.141L148.985 109.6Z" fill="black"/>
<path opacity="0.2" d="M150.069 103.369C146.001 102.553 136.24 103.911 136.24 103.911C136.24 103.911 113.73 106.889 120.24 106.889C126.75 106.889 154.137 104.182 150.069 103.369Z" fill="black"/>
<path opacity="0.2" d="M146.818 104.993C140.85 105.805 167.428 103.64 163.361 105.535C159.293 107.429 148.444 107.975 155.767 108.246C158.88 108.362 163.902 108.083 168.379 107.726C168.508 107.258 168.632 106.781 168.757 106.299C166.022 106.132 164.233 105.939 166.074 105.805C167.051 105.713 168.023 105.57 168.985 105.376C169.196 104.516 169.415 103.614 169.596 102.699C167.36 102.622 165.799 102.536 165.799 102.536C165.799 102.536 152.783 104.181 146.818 104.993Z" fill="black"/>
</g>
<path opacity="0.25" d="M116.985 57.0271C93.9327 57.0271 80.9123 49.4384 54.8801 46.1854C45.3943 44.9994 35.5516 44.9307 26.8699 45.326C24.096 46.7689 21.4803 48.4971 19.0654 50.4826C20.8886 50.7361 24.3888 51.2088 29.6305 51.8491C37.7317 52.8374 49.7846 51.4537 45.8329 51.4537C41.8812 51.4537 36.9405 48.8754 48.2022 49.8724C59.4639 50.8693 71.9124 53.6238 70.9234 54.8098C69.9344 55.9958 71.5168 55.0074 78.629 56.5888C85.7412 58.1701 88.7039 59.5495 94.6293 61.1266C100.555 62.7036 101.346 63.4986 105.495 62.5102C109.645 61.5219 108.656 61.5219 113.399 62.1149C118.142 62.7079 118.129 62.7079 122.291 62.7079H132.564C136.516 62.7079 140.859 63.1032 143.628 62.7079C146.397 62.3126 137.698 62.1149 147.773 60.7312C157.848 59.3475 158.248 58.9565 159.813 58.9565C161.378 58.9565 161.198 58.5612 166.134 56.1934C167.205 55.6778 167.923 55.2954 168.439 54.9817C168.152 53.6581 167.825 52.3361 167.458 51.0154C156.515 53.1081 133.85 57.0271 116.985 57.0271Z" fill="black"/>
<path d="M167.721 51.9647C167.631 51.6167 167.54 51.2729 167.446 50.9292C165.16 51.0001 162.889 51.3214 160.673 51.8874C157.356 52.5599 153.986 52.9409 150.603 53.0261C148.328 53.0261 146.866 54.3151 142.643 53.3483C138.421 52.3815 139.719 53.0261 136.959 53.6749C134.198 54.3237 132.899 55.7847 129.326 54.646C125.753 53.5073 120.881 53.3569 114.22 55.2948C107.56 57.2327 108.656 55.789 104.967 55.6214C101.191 55.4495 98.4693 51.8874 96.1946 52.2139C93.9199 52.5405 93.9199 52.0507 90.9959 50.5897C88.0719 49.1288 84.662 48.6432 83.0409 48.9655C81.4198 49.2878 79.9535 48.4799 77.0209 46.3874C74.0883 44.2948 71.0009 45.4163 67.2771 45.4163C63.5533 45.4163 63.2179 45.4163 59.808 43.1432C56.3981 40.8701 52.1712 43.6288 51.036 43.6288C49.9008 43.6288 45.5105 41.6651 42.9305 41.1795C40.3505 40.694 37.8952 42.9627 34.3305 43.4483C32.6879 43.6717 32.0085 43.5213 31.4667 43.1776C28.5645 44.3686 25.7755 45.8182 23.1333 47.5089H27.0033C29.278 47.5089 30.9034 46.6967 33.3372 46.3702C35.771 46.0436 36.7471 46.8557 39.1852 47.8311C41.6233 48.8065 41.619 47.8311 44.7064 48.1577C47.7938 48.4842 47.9529 48.8065 50.0642 48.6432C52.1755 48.4799 54.9404 47.8311 56.7249 47.8311C58.5094 47.8311 62.5729 50.2675 65.9828 50.2675C69.3927 50.2675 74.5828 49.9409 78.6506 51.0753C82.7184 52.2097 82.7098 56.5968 89.3705 57.8944C96.0312 59.1921 98.8305 57.4648 100.899 57.8944C102.967 58.3241 104.15 60.3265 107.074 60.1675C109.998 60.0085 113.094 59.1921 117.63 59.6777C122.167 60.1632 123.315 61.1386 126.725 60.1675C130.135 59.1964 131.111 59.5144 135.006 59.8409C138.902 60.1675 142.476 59.5144 146.212 58.38C149.949 57.2456 151.411 57.7312 153.522 57.7312C155.634 57.7312 159.207 56.1069 162.939 54.1604C164.651 53.271 166.487 52.519 167.721 51.9647Z" fill="white"/>
<path opacity="0.63" d="M59.0809 107.769C55.6409 103.704 56.4364 101.062 51.7709 100.25C47.1054 99.4375 42.8226 100.048 41.1972 96.1847C39.5718 92.3218 42.212 90.2893 36.5188 87.6467C30.8256 85.0041 30.8213 87.853 29.398 82.5678C27.9747 77.2826 29.1959 75.6583 23.4984 74.8333C17.8009 74.0083 14.1201 71.5934 13.1139 69.561C12.1077 67.5285 11.08 65.4961 7.21429 65.4961H7.04659C1.04474 76.7871 -0.772139 89.8341 1.91669 102.334C7.11108 101.792 14.2577 101.474 16.9667 103.322C21.4387 106.368 23.4726 112.062 29.7807 112.672C36.0888 113.282 39.3396 110.231 44.2201 113.282C49.1006 116.333 51.3409 117.549 56.0193 117.149C60.6977 116.75 62.7316 116.135 65.7803 116.746C67.7936 117.108 69.849 117.177 71.882 116.947L67.8142 113.51C67.8142 113.51 62.5381 111.838 59.0809 107.769Z" fill="white"/>
<path d="M100.211 52.5328C100.211 52.5328 100.954 56.1893 100.894 56.6834C100.834 57.1775 100.211 57.4267 100.211 57.8005C100.211 58.1743 101.204 59.2227 100.894 59.9058C100.831 60.1156 100.698 60.2977 100.518 60.4219C100.337 60.5461 100.12 60.6051 99.901 60.589C99.6516 60.589 98.9722 62.8189 98.4734 63.6868C98.2672 64.1091 97.9148 64.4424 97.4815 64.6249C97.0482 64.8073 96.5634 64.8267 96.117 64.6793C95.8299 64.5872 95.5661 64.4344 95.3435 64.2312C95.1209 64.0281 94.9447 63.7794 94.827 63.5021L93.1069 64.7395L89.1982 61.8909L90.7462 60.0906C90.7462 60.0906 89.3702 57.9852 89.3702 56.3568C89.3702 54.7284 92.0362 51.5231 94.5818 51.1493C97.1275 50.7755 100.211 52.5328 100.211 52.5328Z" fill="white"/>
<path d="M94.5689 51.1661C92.0233 51.5399 89.3573 54.7625 89.3573 56.3738C89.3573 57.9851 90.7204 60.0905 90.7204 60.0905L89.1724 61.8908L93.0811 64.7396L94.8011 63.5021C94.9188 63.7794 95.095 64.0281 95.3176 64.2313C95.5402 64.4345 95.804 64.5873 96.0911 64.6794C96.475 64.8104 96.8908 64.8151 97.2777 64.693C97.6645 64.5708 98.0021 64.3282 98.2411 64.0005C97.609 63.5107 96.1684 63.2314 95.7341 62.3635C95.0977 61.0744 96.1169 59.4331 97.1403 57.637C97.4402 57.1459 97.6394 56.6002 97.7265 56.0315C97.8136 55.4628 97.7868 54.8825 97.6476 54.3242L100.228 52.7043L100.189 52.5239C100.189 52.5239 97.1101 50.7966 94.5689 51.1661Z" fill="#407BFF"/>
<path opacity="0.5" d="M94.5689 51.1661C92.0233 51.5399 89.3573 54.7625 89.3573 56.3738C89.3573 57.9851 90.7204 60.0905 90.7204 60.0905L89.1724 61.8908L93.0811 64.7396L94.8011 63.5021C94.9188 63.7794 95.095 64.0281 95.3176 64.2313C95.5402 64.4345 95.804 64.5873 96.0911 64.6794C96.475 64.8104 96.8908 64.8151 97.2777 64.693C97.6645 64.5708 98.0021 64.3282 98.2411 64.0005C97.609 63.5107 96.1684 63.2314 95.7341 62.3635C95.0977 61.0744 96.1169 59.4331 97.1403 57.637C97.4402 57.1459 97.6394 56.6002 97.7265 56.0315C97.8136 55.4628 97.7868 54.8825 97.6476 54.3242L100.228 52.7043L100.189 52.5239C100.189 52.5239 97.1101 50.7966 94.5689 51.1661Z" fill="white"/>
<path d="M100.211 52.5328C100.211 52.5328 100.954 56.1893 100.894 56.6834C100.834 57.1775 100.211 57.4267 100.211 57.8005C100.211 58.1743 101.204 59.2227 100.894 59.9058C100.831 60.1156 100.698 60.2977 100.518 60.4219C100.337 60.5461 100.12 60.6051 99.901 60.589C99.6516 60.589 98.9722 62.8189 98.4734 63.6868C98.2672 64.1091 97.9148 64.4424 97.4815 64.6248C97.0482 64.8073 96.5634 64.8267 96.117 64.6793C95.8299 64.5872 95.5661 64.4344 95.3435 64.2312C95.1209 64.0281 94.9447 63.7794 94.827 63.5021L93.1069 64.7395L89.1982 61.8909L90.7462 60.0906C90.7462 60.0906 89.3702 57.9852 89.3702 56.3568C89.3702 54.7284 92.0362 51.5231 94.5818 51.1493C97.1275 50.7755 100.211 52.5328 100.211 52.5328Z" stroke="#263238" stroke-linecap="round" stroke-linejoin="round"/>
<path d="M90.587 84.0845C90.587 84.0845 95.6997 85.4251 96.306 86.6326C97.51 89.0346 89.082 104.925 88.4757 106.957C88.1138 108.123 87.9197 109.334 87.8995 110.554C87.8995 110.554 93.1541 113.562 94.1689 114.275C95.1837 114.988 97.1187 115.19 96.4049 115.495C95.6911 115.801 91.1159 115.087 89.2884 114.988C87.4609 114.89 83.8962 115.087 83.1867 113.97C82.4772 112.853 84.4036 110.498 84.4036 109.48C84.4036 108.461 86.3386 101.268 86.3386 98.9306C86.3386 96.593 86.846 91.1057 87.6501 88.1537C88.0704 86.471 89.1219 85.0141 90.587 84.0845Z" fill="white"/>
<path d="M87.9726 113.507C84.7863 111.465 84.7863 112.488 86.3171 109.682C87.8479 106.876 93.4594 91.4497 93.5884 89.4086C93.7174 87.3675 89.2497 89.4086 89.2497 89.4086L87.5297 88.7254C86.827 92.0841 86.4355 95.5004 86.3601 98.9309C86.3601 101.269 84.4251 108.466 84.4251 109.48C84.4251 110.494 82.4944 112.853 83.2082 113.971C83.922 115.088 87.4781 114.886 89.3099 114.989C89.7184 115.011 90.2645 115.066 90.8751 115.131C89.88 114.64 88.9112 114.098 87.9726 113.507Z" fill="#407BFF"/>
<path opacity="0.5" d="M87.9726 113.507C84.7863 111.465 84.7863 112.488 86.3171 109.682C87.8479 106.876 93.4594 91.4497 93.5884 89.4086C93.7174 87.3675 89.2497 89.4086 89.2497 89.4086L87.5297 88.7254C86.827 92.0841 86.4355 95.5004 86.3601 98.9309C86.3601 101.269 84.4251 108.466 84.4251 109.48C84.4251 110.494 82.4944 112.853 83.2082 113.971C83.922 115.088 87.4781 114.886 89.3099 114.989C89.7184 115.011 90.2645 115.066 90.8751 115.131C89.88 114.64 88.9112 114.098 87.9726 113.507Z" fill="white"/>
<path d="M88.6133 91.1787L93.5884 89.395" stroke="#263238" stroke-linecap="round" stroke-linejoin="round"/>
<path d="M90.587 84.0845C90.587 84.0845 95.6997 85.4251 96.306 86.6326C97.51 89.0346 89.082 104.925 88.4757 106.957C88.1138 108.123 87.9197 109.334 87.8995 110.554C87.8995 110.554 93.1541 113.562 94.1689 114.275C95.1837 114.988 97.1187 115.19 96.4049 115.495C95.6911 115.801 91.1159 115.087 89.2884 114.988C87.4609 114.89 83.8962 115.087 83.1867 113.97C82.4772 112.853 84.4036 110.498 84.4036 109.48C84.4036 108.461 86.3386 101.268 86.3386 98.9306C86.3386 96.593 86.846 91.1057 87.6501 88.1537C88.0704 86.471 89.1219 85.0141 90.587 84.0845V84.0845Z" stroke="#263238" stroke-linecap="round" stroke-linejoin="round"/>
<path d="M69.8611 94.8657C69.8611 94.8657 67.2166 98.1186 66.7092 99.743C66.2018 101.367 63.8626 109.399 63.2692 110.516C62.6758 111.633 62.2544 112.041 62.3533 112.346C62.4522 112.651 64.7957 112.957 65.5052 112.957C66.2147 112.957 66.4211 110.516 68.455 107.37C70.4889 104.225 74.3202 100.353 75.1501 98.037C75.98 95.7209 76.3713 94.479 76.3713 94.479C75.3935 95.0517 74.294 95.3853 73.1626 95.4525C72.0312 95.5197 70.8999 95.3186 69.8611 94.8657Z" fill="white"/>
<path d="M74.5781 95.8885C72.518 98.4656 70.7217 101.243 69.216 104.178C67.7998 107.025 66.5549 109.953 65.4879 112.948L62.0737 112.849C62.0737 112.849 65.9007 106.472 66.6661 103.396C67.4315 100.319 70.2394 96.1249 71.5165 94.9775" fill="#407BFF"/>
<path opacity="0.5" d="M74.5781 95.8885C72.518 98.4656 70.7217 101.243 69.216 104.178C67.7998 107.025 66.5549 109.953 65.4879 112.948L62.0737 112.849C62.0737 112.849 65.9007 106.472 66.6661 103.396C67.4315 100.319 70.2394 96.1249 71.5165 94.9775" fill="white"/>
<path d="M69.8611 94.8657C69.8611 94.8657 67.2166 98.1186 66.7092 99.743C66.2018 101.367 63.8626 109.399 63.2692 110.516C62.6758 111.633 62.2544 112.041 62.3533 112.346C62.4522 112.651 64.7957 112.957 65.5052 112.957C66.2147 112.957 66.4211 110.516 68.455 107.37C70.4889 104.225 74.3202 100.353 75.1501 98.037C75.98 95.7209 76.3713 94.479 76.3713 94.479C75.3935 95.0517 74.294 95.3853 73.1626 95.4525C72.0312 95.5197 70.8999 95.3186 69.8611 94.8657V94.8657Z" stroke="#263238" stroke-linecap="round" stroke-linejoin="round"/>
<path d="M65.0835 87.6472L67.5216 94.7629C67.5216 94.7629 70.3725 96.7953 73.1116 96.9972C75.8507 97.1992 78.6199 95.068 78.6199 95.068L72.5182 88.6656C72.5182 88.6656 66.61 85.2109 65.0835 87.6472Z" fill="#263238"/>
<path opacity="0.81" d="M77.4335 93.8345C75.95 94.8185 73.9204 95.8026 71.7876 95.7339C70.2084 95.6839 68.6757 95.1878 67.3672 94.3029L67.522 94.7627C67.522 94.7627 70.3729 96.7953 73.112 96.9972C75.8511 97.1992 78.6203 95.0678 78.6203 95.0678L77.4335 93.8345Z" fill="white"/>
<path d="M65.0835 87.6472L67.5216 94.7629C67.5216 94.7629 70.3725 96.7953 73.1116 96.9972C75.8507 97.1992 78.6199 95.068 78.6199 95.068L72.5182 88.6656C72.5182 88.6656 66.61 85.2109 65.0835 87.6472Z" stroke="#263238" stroke-linecap="round" stroke-linejoin="round"/>
<path d="M65.4879 76.2681C65.4879 76.2681 63.0498 79.3147 62.8434 82.0605C62.637 84.8063 62.6413 87.1397 67.3197 89.6835C71.9981 92.2274 77.5924 90.5945 79.0157 87.853C80.439 85.1114 80.6411 83.4828 77.8977 81.4503C75.1543 79.4178 65.4879 76.2681 65.4879 76.2681Z" fill="#263238"/>
<path opacity="0.49" d="M63.9097 80.9056C62.0521 82.8477 63.7678 86.2207 65.0836 88.2101C65.5577 88.5923 66.0577 88.9411 66.58 89.2542C65.3115 86.3238 64.2623 83.6684 64.9589 84.4461C65.6555 85.2238 66.7821 87.6129 67.7668 89.9073C68.544 90.2803 69.3644 90.5559 70.2092 90.728C68.5795 86.1262 65.9006 78.8216 63.9097 80.9056Z" fill="white"/>
<path d="M65.4879 76.2681C65.4879 76.2681 63.0498 79.3147 62.8434 82.0605C62.637 84.8064 62.6413 87.1397 67.3197 89.6835C71.9981 92.2274 77.5924 90.5945 79.0157 87.853C80.439 85.1114 80.6411 83.4828 77.8977 81.4503C75.1543 79.4178 65.4879 76.2681 65.4879 76.2681Z" stroke="#263238" stroke-linecap="round" stroke-linejoin="round"/>
<path d="M89.1852 74.0305C89.1852 74.0305 92.2382 83.1787 93.4551 84.094C94.672 85.0092 108.914 87.5315 108.914 87.5315C108.914 87.5315 110.238 88.7519 110.948 88.9538C111.762 89.2898 112.545 89.6983 113.287 90.1742C113.287 90.1742 114.104 92.4086 114.611 92.5117C115.119 92.6149 114.714 89.9679 114.508 88.0386C114.302 86.1093 113.592 85.4991 112.358 85.2971C111.124 85.0952 108.488 84.687 108.488 84.687C108.488 84.687 104.012 83.7717 101.978 82.0443C99.9438 80.3169 97.6046 78.6068 97.6046 78.6068C97.6046 78.6068 95.6739 69.1534 95.0633 66.5108C94.4527 63.8682 93.4336 61.8357 91.705 61.3287C89.9764 60.8216 88.1489 59.8033 83.1652 61.1224C78.1815 62.4416 75.7391 63.8682 73.7052 66.5108C71.6713 69.1534 65.1611 75.7579 65.1611 76.7762C65.1611 77.7946 67.0961 77.5884 69.3321 78.4005C71.5681 79.2126 77.4677 82.2678 78.4868 81.8381C79.5059 81.4084 81.0281 79.6037 81.3334 79.2986C81.6387 78.9935 88.1704 76.8751 89.1852 74.0305Z" fill="white"/>
<path opacity="0.19" d="M89.5552 70.8373C90.2174 71.8943 93.9197 81.1498 94.1863 81.6783C94.4529 82.2068 96.1686 82.7353 97.6263 83.3971C99.084 84.0588 103.582 86.0439 106.493 86.8346C107.88 87.2464 109.296 87.5566 110.728 87.7627L110.329 86.0439C110.329 86.0439 110.191 85.5799 109.989 84.9311L108.51 84.7033C108.51 84.7033 104.033 83.7881 101.999 82.0607C99.9655 80.3334 97.6263 78.6232 97.6263 78.6232C97.6263 78.6232 95.3774 75.4822 94.8485 74.0256C94.3196 72.5689 91.5375 68.0787 92.7286 68.8693C93.9197 69.6599 95.773 71.2498 94.9775 69.7974C94.182 68.3451 92.5996 63.0513 90.4797 62.7892C90.4797 62.7892 88.4974 60.9373 84.7908 62.1275C81.0842 63.3177 76.0403 66.4717 75.1287 67.1334C74.2171 67.7951 76.8487 70.1756 76.0575 70.7041C75.2663 71.2326 73.6753 70.7041 73.1464 70.9705C72.6175 71.2369 71.6887 72.0275 71.6887 72.4228C71.6887 72.8181 71.2931 72.0275 70.102 72.4228C68.9109 72.8181 64.5421 76.1267 65.8665 77.317C66.0037 77.4284 66.1473 77.5317 66.2965 77.6264C67.3333 77.8216 68.3572 78.0798 69.3624 78.3998C71.5984 79.2119 77.498 82.267 78.5171 81.8373C78.7344 81.7438 78.9395 81.624 79.1277 81.4807C79.6179 80.0498 80.207 78.1892 80.3016 77.8283C80.4306 77.2998 85.9905 76.1096 84.2705 75.71C82.5505 75.3103 76.595 73.2006 78.5816 73.2006C80.5682 73.2006 86.3861 73.8623 85.7239 73.5959C85.0617 73.3295 83.8706 71.4818 83.8706 71.4818L86.1238 72.0103C86.1238 72.0103 83.7416 68.1732 84.1372 68.4396C84.5328 68.706 89.194 74.0256 89.194 74.0256C89.194 74.0256 88.893 69.7803 89.5552 70.8373Z" fill="black"/>
<path d="M87.3752 69.3294L89.1855 74.0298L85.1177 69.2563" stroke="#263238" stroke-linecap="round" stroke-linejoin="round"/>
<path d="M86.644 67.4248L87.0353 68.4482" stroke="#263238" stroke-linecap="round" stroke-linejoin="round"/>
<path d="M89.1852 74.0305C89.1852 74.0305 92.2382 83.1787 93.4551 84.094C94.672 85.0092 108.914 87.5315 108.914 87.5315C108.914 87.5315 110.238 88.7519 110.948 88.9538C111.762 89.2898 112.545 89.6983 113.287 90.1742C113.287 90.1742 114.104 92.4086 114.611 92.5117C115.119 92.6149 114.714 89.9679 114.508 88.0386C114.302 86.1093 113.592 85.4991 112.358 85.2971C111.124 85.0952 108.488 84.687 108.488 84.687C108.488 84.687 104.012 83.7717 101.978 82.0443C99.9438 80.3169 97.6046 78.6068 97.6046 78.6068C97.6046 78.6068 95.6739 69.1534 95.0633 66.5108C94.4527 63.8682 93.4336 61.8357 91.705 61.3287C89.9764 60.8216 88.1489 59.8033 83.1652 61.1224C78.1815 62.4416 75.7391 63.8682 73.7052 66.5108C71.6713 69.1534 65.1611 75.7579 65.1611 76.7762C65.1611 77.7946 67.0961 77.5884 69.3321 78.4005C71.5681 79.2126 77.4677 82.2678 78.4868 81.8381C79.5059 81.4084 81.0281 79.6037 81.3334 79.2986C81.6387 78.9935 88.1704 76.8751 89.1852 74.0305Z" stroke="#263238" stroke-linecap="round" stroke-linejoin="round"/>
<path d="M114.611 92.5286C115.119 92.6274 114.714 89.9848 114.508 88.0555C114.302 86.1263 113.592 85.5161 112.358 85.3142C111.722 85.2067 110.698 85.0435 109.864 84.9146C109.903 85.688 109.842 87.1102 108.896 87.5485C108.896 87.5485 110.221 88.7688 110.93 88.9708C111.745 89.3068 112.528 89.7152 113.27 90.1911C113.27 90.1911 114.104 92.4254 114.611 92.5286Z" fill="white" stroke="#263238" stroke-linecap="round" stroke-linejoin="round"/>
<path d="M113.635 88.7598C114.157 89.3514 114.549 90.047 114.783 90.8008" stroke="#263238" stroke-linecap="round" stroke-linejoin="round"/>
<path d="M113.553 87.4619C113.789 87.6014 113.994 87.7878 114.155 88.0095C114.317 88.2312 114.431 88.4835 114.491 88.751" stroke="#263238" stroke-linecap="round" stroke-linejoin="round"/>
<path d="M100.576 56.751C100.408 56.5668 100.204 56.4183 99.9777 56.3144C99.7508 56.2104 99.5053 56.1532 99.2559 56.146" stroke="#263238" stroke-linecap="round" stroke-linejoin="round"/>
<path d="M100.21 57.8001L99.1997 57.4819" stroke="#263238" stroke-linecap="round" stroke-linejoin="round"/>
<path d="M72.8107 81.2444C72.8107 81.2444 80.2368 80.9436 84.812 81.8545C87.5822 82.4159 90.2551 83.3801 92.7455 84.7163C92.7455 84.7163 89.0819 91.7291 87.5597 93.8604C86.0375 95.9917 82.8813 98.6387 82.8813 98.6387C79.8319 97.049 76.8771 95.2843 74.0319 93.3533C69.762 90.4056 70.8671 91.0244 69.8179 89.0563" fill="#263238"/>
<path opacity="0.49" d="M90.978 83.8315C90.6992 84.5086 90.3863 85.1712 90.0406 85.8167C87.5079 85.357 73.649 82.985 73.8898 86.6761C74.1005 89.9375 80.7225 93.7016 83.3498 95.068C82.3565 96.1208 81.4793 96.9415 80.8343 97.513C82.0813 98.2091 82.8897 98.6216 82.8897 98.6216C82.8897 98.6216 86.0416 95.979 87.5681 93.8434C89.0946 91.7078 92.7453 84.7167 92.7453 84.7167C92.7453 84.7167 92.096 84.33 90.978 83.8315ZM85.3063 92.8551C83.1821 92.1203 77.6222 89.9976 79.0111 88.3992C80.5763 86.5902 87.2327 88.4336 88.312 88.7472C88.1916 88.9363 88.0712 89.1211 87.9379 89.3187C87.1221 90.5378 86.2437 91.7138 85.3063 92.8422V92.8551Z" fill="white"/>
<path d="M72.8107 81.2444C72.8107 81.2444 80.2368 80.9436 84.812 81.8545C87.5822 82.4159 90.2551 83.3801 92.7455 84.7163C92.7455 84.7163 89.0819 91.7291 87.5597 93.8604C86.0375 95.9917 82.8813 98.6387 82.8813 98.6387C79.8319 97.049 76.8771 95.2843 74.0319 93.3533C69.762 90.4056 70.8671 91.0244 69.8179 89.0563" stroke="#263238" stroke-linecap="round" stroke-linejoin="round"/>
<path d="M64.1118 109.338C64.1118 109.338 63.1959 110.253 59.4463 108.758C55.6967 107.263 56.7846 104.182 52.0374 104.598C47.2902 105.015 48.7909 110.004 52.3728 111.087" fill="white"/>
<path d="M64.1118 109.338C64.1118 109.338 63.1959 110.253 59.4463 108.758C55.6967 107.263 56.7846 104.182 52.0374 104.598C47.2902 105.015 48.7909 110.004 52.3728 111.087" stroke="#263238" stroke-linecap="round" stroke-linejoin="round"/>
<path opacity="0.2" d="M100.916 119.766C100.916 119.766 89.065 117.438 71.9725 116.273C56.6086 115.225 49.7243 117.317 57.1203 118.877C54.4973 119.075 46.0177 118.37 35.9987 115.255C29.682 113.291 15.0749 110.893 4.17871 109.845C5.82349 114.225 8.12285 118.331 10.9985 122.022C13.9096 121.842 15.3286 120.862 18.1666 120.673C21.555 120.45 22.8966 122.482 26.9773 122.706C31.058 122.929 34.4335 122.482 37.8219 122.482C41.2103 122.482 42.5519 123.608 48.215 123.608C53.8781 123.608 54.3167 122.254 56.1227 122.254C57.9287 122.254 62.448 123.385 65.8364 122.254L70.5664 120.677C79.9372 121.828 89.2314 123.533 98.4003 125.782C116.271 130.053 127.731 130.634 132.585 130.44C137.44 130.247 100.916 119.766 100.916 119.766Z" fill="black"/>
<path d="M50.0292 110.498C50.0292 110.498 91.7392 115.375 107.899 115.985C124.058 116.596 137.392 113.648 137.087 114.971C136.782 116.295 129.867 120.381 121.426 120.983C112.985 121.585 104.441 121.49 89.2882 120.781C74.135 120.072 54.1744 117.154 50.6398 116.716C45.7593 116.106 38.0279 115.599 33.8698 113.278C29.7117 110.958 31.6209 108.482 50.0292 110.498Z" fill="#407BFF" stroke="#263238" stroke-linecap="round" stroke-linejoin="round"/>
<path d="M137.1 114.989C137.216 114.49 135.38 114.597 132.232 114.89C130.237 115.427 127.855 116.153 125.099 117.038C119.04 118.942 113.084 120.45 109.06 121.4C113.63 121.4 117.548 121.284 121.439 121C129.867 120.381 136.782 116.308 137.1 114.989Z" fill="#263238" stroke="#263238" stroke-linecap="round" stroke-linejoin="round"/>
<path d="M63.6133 109.922C63.6133 109.922 65.4408 109.673 66.7738 110.67L67.2726 109.505C67.2726 109.505 66.0256 108.006 63.8627 108.921L63.6133 109.922Z" fill="#263238" stroke="#263238" stroke-miterlimit="10"/>
<path d="M93.8247 57.9855C93.8247 57.9855 93.6355 56.5589 92.7669 56.4343C91.8983 56.3097 91.0942 58.2347 91.3436 58.9136C91.593 59.5925 92.5218 59.773 92.5218 59.773C92.5218 59.773 91.3436 60.7054 91.0942 60.8258C90.8448 60.9461 89.9762 60.2714 89.0474 58.6773C88.1186 57.0831 87.4994 53.16 88.2433 51.0545C88.9872 48.949 92.2724 48.9447 93.141 48.906C94.0096 48.8674 96.8605 49.151 95.9317 48.7213C95.0029 48.2916 94.5041 47.0455 96.0564 46.7962C97.6087 46.547 98.8471 47.8533 99.9608 48.6568C101.074 49.4603 100.025 48.5322 100.769 48.472C101.513 48.4119 102.567 48.7814 102.631 50.9514C102.696 53.1213 100.769 53.1815 99.4663 52.9967C98.1634 52.812 95.807 52.8721 96.1811 53.4909C96.5552 54.1096 97.2948 55.2097 96.4262 55.721C95.5576 56.2323 94.5686 55.8456 94.6288 56.5288C94.689 57.212 94.6933 58.1702 93.8247 57.9855Z" fill="#263238" stroke="#263238" stroke-linecap="round" stroke-linejoin="round"/>
<path d="M89.4088 53.8901C88.9739 54.0077 88.5291 54.0855 88.0801 54.1224" stroke="white" stroke-width="0.5" stroke-linecap="round" stroke-linejoin="round"/>
<path d="M100.369 49.5164C100.369 49.5164 101.659 49.2801 101.436 50.4616C101.212 51.6431 99.5438 51.4068 96.8262 51.7505C94.1086 52.0942 92.9261 52.932 90.8062 53.5249" stroke="white" stroke-width="0.5" stroke-linecap="round" stroke-linejoin="round"/>
<path d="M93.9795 54.6768C95.4071 54.2468 95.0545 54.5951 95.0545 54.5951" stroke="white" stroke-width="0.5" stroke-linecap="round" stroke-linejoin="round"/>
<path d="M88.3164 56.1309C89.6404 55.9248 90.9492 55.6299 92.2337 55.248" stroke="white" stroke-width="0.5" stroke-linecap="round" stroke-linejoin="round"/>
<path d="M68.8461 117.326C66.2016 114.683 66.4037 113.055 62.3359 113.665C58.2681 114.275 56.6427 114.683 56.2342 111.431C55.8257 108.178 52.5749 106.145 49.1134 106.347C45.6519 106.549 43.4202 106.145 40.9778 102.081C38.5354 98.0157 34.674 98.0157 31.0147 99.4379C27.3554 100.86 24.096 99.236 21.2494 96.9973C18.4028 94.7586 16.1625 94.7629 13.7244 96.3914C11.2863 98.02 10.4693 97.2035 6.60364 94.9649C2.73794 92.7262 2.94004 92.5328 0.790039 93.1215C1.17704 102.729 4.07094 111.998 9.14064 119.504C9.40244 119.538 9.65435 119.626 9.88024 119.762C11.712 120.983 14.3565 122.405 17.001 121.391C19.6455 120.377 20.6603 116.918 24.9302 120.17C29.2001 123.423 34.4934 122.813 38.3548 121.185C42.2162 119.556 44.2544 120.17 47.918 121.795C51.5816 123.419 54.2218 123.625 57.0684 122.203C59.915 120.781 61.7468 122.611 64.8084 122.611C67.87 122.611 68.0635 121.795 69.891 121.185C71.0441 120.791 72.1389 120.245 73.1461 119.56C73.1461 119.56 71.4906 119.951 68.8461 117.326Z" fill="white"/>
</svg>
