<svg width="17" height="24" viewBox="0 0 17 24" fill="none" xmlns="http://www.w3.org/2000/svg">
<path d="M9.92871 16.0302C9.92871 16.3467 10.0318 16.6545 10.2223 16.9072C10.4129 17.16 10.6806 17.3438 10.985 17.4311C11.2894 17.5183 11.6139 17.5042 11.9096 17.3908C12.2052 17.2774 12.4559 17.071 12.6237 16.8026L16.5437 12.8869C16.6791 12.7515 16.7865 12.5907 16.8597 12.4139C16.933 12.237 16.9706 12.0475 16.9706 11.856C16.9705 11.6646 16.9327 11.4751 16.8593 11.2983C16.786 11.1215 16.6785 10.9608 16.543 10.8255C16.4075 10.6902 16.2467 10.5829 16.0697 10.5097C15.8927 10.4365 15.703 10.3989 15.5114 10.399C15.3199 10.399 15.1302 10.4368 14.9533 10.5101C14.7763 10.5834 14.6156 10.6908 14.4802 10.8262L12.8468 12.4584V1.4573C12.8468 1.0708 12.6932 0.700128 12.4197 0.426832C12.1462 0.153536 11.7753 0 11.3885 0C11.0017 0 10.6308 0.153536 10.3573 0.426832C10.0838 0.700128 9.93017 1.0708 9.93017 1.4573V15.9574V16.0302H9.92871Z" fill="white"/>
<path d="M7.05875 7.28667C7.05875 6.97023 6.95568 6.66238 6.76511 6.40966C6.57455 6.15693 6.30684 5.97306 6.00245 5.88582C5.69806 5.79858 5.37353 5.81272 5.07789 5.9261C4.78225 6.03949 4.53158 6.24595 4.36375 6.51429L0.445211 10.4301C0.305926 10.5645 0.194826 10.7253 0.118397 10.9031C0.041967 11.0809 0.00173771 11.2722 5.50623e-05 11.4657C-0.00162758 11.6592 0.0352704 11.8511 0.108597 12.0302C0.181923 12.2093 0.290209 12.372 0.427135 12.5088C0.564062 12.6456 0.726888 12.7538 0.906111 12.8271C1.08534 12.9004 1.27737 12.9373 1.471 12.9356C1.66464 12.9339 1.856 12.8937 2.03392 12.8173C2.21185 12.741 2.37277 12.6299 2.50729 12.4907L4.14208 10.8585V21.8598C4.14208 22.2463 4.29573 22.617 4.56922 22.8903C4.84271 23.1636 5.21364 23.3171 5.60041 23.3171C5.98719 23.3171 6.35812 23.1636 6.63161 22.8903C6.9051 22.617 7.05875 22.2463 7.05875 21.8598V7.35953V7.28667Z" fill="white"/>
</svg>
