<svg width="50" height="50" viewBox="0 0 50 50" fill="none" xmlns="http://www.w3.org/2000/svg">
<g clip-path="url(#clip0_20_1731)">
<path fill-rule="evenodd" clip-rule="evenodd" d="M8.72027 25C8.72027 24.3767 9.22593 23.8714 9.8497 23.8714L23.628 23.8714L23.628 10.1028C23.628 9.47949 24.1337 8.97418 24.7574 8.97418C25.3812 8.97418 25.8869 9.47949 25.8869 10.1028L25.8869 23.8714H39.6652C40.2889 23.8714 40.7946 24.3767 40.7946 25C40.7946 25.6233 40.2889 26.1286 39.6652 26.1286H25.8869L25.8869 39.8972C25.8869 40.5205 25.3812 41.0258 24.7574 41.0258C24.1337 41.0258 23.628 40.5205 23.628 39.8972L23.628 26.1286L9.8497 26.1286C9.22593 26.1286 8.72027 25.6233 8.72027 25Z" fill="white"/>
</g>
<defs>
<clipPath id="clip0_20_1731">
<rect width="35" height="35" fill="white" transform="matrix(0.707357 -0.706856 0.707357 0.706856 0 25)"/>
</clipPath>
</defs>
</svg>
