<svg width="35" height="35" viewBox="0 0 35 35" fill="none" xmlns="http://www.w3.org/2000/svg">
<path fill-rule="evenodd" clip-rule="evenodd" d="M17.4998 5.16034C10.6848 5.16034 5.16009 10.685 5.16009 17.5001C5.16009 24.3151 10.6848 29.8398 17.4998 29.8398C24.3149 29.8398 29.8396 24.3151 29.8396 17.5001C29.8396 10.685 24.3149 5.16034 17.4998 5.16034ZM2.9165 17.5001C2.9165 9.44593 9.44569 2.91675 17.4998 2.91675C25.554 2.91675 32.0832 9.44593 32.0832 17.5001C32.0832 25.5542 25.554 32.0834 17.4998 32.0834C9.44569 32.0834 2.9165 25.5542 2.9165 17.5001Z" fill="white"/>
<path fill-rule="evenodd" clip-rule="evenodd" d="M17.4998 23.8569C18.1194 23.8569 18.6216 23.3547 18.6216 22.7351V16.7522C18.6216 16.1327 18.1194 15.6304 17.4998 15.6304C16.8803 15.6304 16.378 16.1327 16.378 16.7522V22.7351C16.378 23.3547 16.8803 23.8569 17.4998 23.8569Z" fill="white"/>
<path d="M18.9956 12.265C18.9956 11.439 18.3259 10.7693 17.4998 10.7693C16.6738 10.7693 16.0041 11.439 16.0041 12.265C16.0041 13.0911 16.6738 13.7608 17.4998 13.7608C18.3259 13.7608 18.9956 13.0911 18.9956 12.265Z" fill="white"/>
</svg>
