<svg width="35" height="35" viewBox="0 0 35 35" fill="none" xmlns="http://www.w3.org/2000/svg">
<path fill-rule="evenodd" clip-rule="evenodd" d="M29.8754 5.594C29.9899 5.2998 29.7 5.00995 29.4058 5.12436L5.32468 14.4892C5.0215 14.6071 5.01472 15.0337 5.31401 15.1612L14.5594 19.099C15.163 19.3561 15.6437 19.8368 15.9008 20.4404L19.8386 29.6858C19.9661 29.9851 20.3927 29.9783 20.5106 29.6751L29.8754 5.594ZM28.6168 3.09551C30.6762 2.29466 32.7051 4.32366 31.9043 6.38299L22.5394 30.4641C21.7141 32.5864 18.7282 32.6338 17.8359 30.5388L13.898 21.2934C13.8613 21.2072 13.7926 21.1385 13.7064 21.1018L4.46098 17.1639C2.36596 16.2716 2.41338 13.2857 4.53569 12.4604L28.6168 3.09551Z" fill="white"/>
</svg>
