<svg width="289" height="271" viewBox="0 0 289 271" fill="none" xmlns="http://www.w3.org/2000/svg">
<path d="M144.259 270.438C223.93 270.438 288.517 266.67 288.517 262.022C288.517 257.374 223.93 253.606 144.259 253.606C64.5868 253.606 0 257.374 0 262.022C0 266.67 64.5868 270.438 144.259 270.438Z" fill="#F5F5F5"/>
<path d="M172.226 90.2L171.311 91.4119C171.014 91.7985 170.701 92.1554 170.396 92.5346C169.793 93.2781 169.146 94.0216 168.506 94.7056C167.191 96.1437 165.803 97.5135 164.347 98.8097C163.603 99.4714 162.859 100.118 162.033 100.75C161.207 101.382 160.367 101.984 159.459 102.579C157.422 103.962 155.154 104.969 152.763 105.553L152.502 105.613C152.258 105.669 152.009 105.702 151.758 105.709C150.545 105.751 149.336 105.538 148.209 105.085C147.422 104.773 146.673 104.371 145.977 103.888C144.901 103.13 143.904 102.266 143.001 101.308C141.471 99.6796 140.087 97.9207 138.864 96.0513C137.696 94.2669 136.632 92.4677 135.68 90.6312C134.708 88.7948 133.834 86.9087 133.061 84.9806C132.789 84.3269 132.759 83.5975 132.977 82.9238C133.194 82.25 133.646 81.6759 134.249 81.3049C134.853 80.9339 135.569 80.7903 136.269 80.8998C136.969 81.0094 137.607 81.3649 138.068 81.9026L138.135 81.9769L141.967 86.3041C143.254 87.7316 144.541 89.1368 145.851 90.4528C147.065 91.7082 148.363 92.8806 149.734 93.9621C150.257 94.3771 150.823 94.7336 151.423 95.0253C151.547 95.0919 151.685 95.1276 151.825 95.1294C151.825 95.1294 151.654 94.9881 151.193 94.9881L150.173 95.1517C151.176 94.6431 152.12 94.0247 152.986 93.3078C154.156 92.3421 155.276 91.3172 156.341 90.2372C157.45 89.0996 158.573 87.91 159.667 86.6758L161.289 84.8096L162.837 82.9881L163.023 82.7724C164.034 81.6207 165.45 80.9033 166.978 80.7695C168.505 80.6358 170.025 81.0961 171.221 82.0546C172.417 83.013 173.197 84.3957 173.398 85.9145C173.599 87.4333 173.206 88.9711 172.301 90.2074L172.226 90.2Z" fill="#263238"/>
<path d="M134.192 83.1221C131.32 83.5682 128.589 78.9139 128.589 78.9139L126.439 76.3563C126.09 75.9391 125.899 75.4128 125.899 74.8693C125.899 74.3257 126.09 73.7994 126.439 73.3823L128.292 71.2261C128.493 70.9929 128.739 70.8021 129.014 70.6648C129.29 70.5275 129.591 70.4465 129.898 70.4264C130.206 70.4064 130.514 70.4477 130.805 70.548C131.097 70.6482 131.365 70.8055 131.595 71.0105L134.058 73.241C134.498 73.6358 134.848 74.12 135.085 74.6611L136.044 76.8916C136.446 77.8167 136.576 78.8365 136.421 79.8327C136.265 80.8289 135.83 81.7607 135.166 82.5199L134.988 82.728C134.771 82.941 134.492 83.0791 134.192 83.1221Z" fill="#FFC3BD"/>
<path d="M204.227 189.606C200.589 162.676 199.153 146.698 196.787 133.308L173.863 132.966C173.863 132.966 184.153 175.91 189.049 193.442C193.944 210.974 221.637 254.513 221.637 254.513L227.723 250.899C227.723 250.899 210.774 210 204.227 189.606Z" fill="#263238"/>
<path d="M217.567 261.278C217.567 261.278 222.15 255.68 222.076 253.784L227.12 250.81L229.895 256.349L227.462 257.836L226.718 257.606L226.19 258.587C223.675 260.074 219.628 262.349 217.746 262.698C217.599 262.496 217.505 262.26 217.474 262.011C217.443 261.763 217.475 261.511 217.567 261.278Z" fill="#263238"/>
<path d="M195.789 79.0922C187.687 78.0884 176.102 78.1777 168.335 79.5234C166.395 79.8757 164.615 80.8283 163.247 82.2465C161.878 83.6647 160.99 85.4769 160.708 87.4268C159.072 99.1443 160.478 119.628 161.527 140.215C179.257 146.282 197.984 140.133 197.984 140.133C198.631 135.97 197.18 122.341 196.198 115.07C197.686 107.553 200.767 98.951 202.82 88.9733C203.066 87.8578 203.075 86.7032 202.848 85.5839C202.62 84.4646 202.16 83.4055 201.497 82.4746C200.835 81.5437 199.985 80.7618 199.002 80.1792C198.019 79.5967 196.924 79.2264 195.789 79.0922Z" fill="#263238"/>
<path d="M174.897 78.7354C173.802 80.0024 173.115 81.5701 172.926 83.2336C172.092 87.9919 173.037 95.3302 175.545 103.739C177.948 96.9659 183.119 87.9994 186.303 82.7949C187.791 80.3265 188.855 78.6983 188.952 78.5496C184.322 77.4689 179.497 77.5327 174.897 78.7354Z" fill="#407BFF"/>
<path d="M187.769 63.62L178.543 71.1814C179.733 74.3562 180.113 77.6573 174.897 78.9287C173.595 80.6536 175.894 82.6462 178.052 83.5236C181.534 83.0923 186.437 81.9325 188.557 79.0625C187.888 76.7131 186.876 68.3115 187.769 63.62Z" fill="#FFC3BD"/>
<path d="M175.85 81.6128C176.233 82.72 176.891 83.7124 177.762 84.4976C179.168 84.4976 181.229 82.9139 181.229 82.9139C181.229 82.9139 180.433 80.6834 179.317 80.2299C176.46 80.9287 175.85 81.6128 175.85 81.6128Z" fill="white"/>
<path d="M179.064 83.5234C178.844 83.3572 178.593 83.2367 178.326 83.169C178.059 83.1013 177.781 83.0879 177.509 83.1294C175.664 85.7539 174.488 89.8209 173.35 94.5198C173.894 97.6344 174.627 100.713 175.544 103.739C176.574 100.943 177.772 98.2123 179.131 95.5607C178.611 91.5664 178.589 87.5232 179.064 83.5234Z" fill="white"/>
<path opacity="0.2" d="M183.922 66.7727L178.543 71.1741C178.834 71.9088 179.051 72.671 179.19 73.4491C181.274 73.5978 184.175 71.4938 184.309 69.5905C184.354 68.6355 184.223 67.6804 183.922 66.7727Z" fill="black"/>
<path d="M173.945 51.1071C170.969 52.832 172.509 54.5495 172.509 54.5495C172.509 54.5495 171.237 57.9695 172.926 60.3264C180.842 50.8543 173.945 51.1071 173.945 51.1071Z" fill="#263238"/>
<path d="M189.093 58.4603C188.253 64.2447 188.052 67.6722 184.867 70.3934C180.061 74.4752 173.097 71.1369 172.219 65.189C171.4 59.8507 172.911 51.2856 178.811 49.4938C180.116 49.103 181.5 49.0492 182.832 49.3375C184.164 49.6257 185.401 50.2465 186.428 51.1419C187.455 52.0374 188.238 53.1783 188.704 54.4581C189.17 55.7378 189.304 57.1148 189.093 58.4603Z" fill="#FFC3BD"/>
<path d="M188.959 62.0737C185.239 62.4603 185.931 56.3414 187.203 55.1369C183.572 55.2038 184.272 52.78 184.718 51.8878C178.669 53.1592 174.391 53.4269 171.661 50.4008C169.637 48.1703 167.487 50.6685 166.847 48.3339C168.335 49.1294 171.021 45.1517 172.836 46.8023C174.651 48.4529 176.459 42.6833 179.205 45.1517C182.925 48.4603 192.687 39.4491 191.794 49.3822C196.89 53.6722 190.038 56.386 190.484 60.9436C189.086 63.0328 188.959 62.0737 188.959 62.0737Z" fill="#263238"/>
<path d="M189.837 50.6158C189.747 50.6152 189.66 50.5827 189.592 50.5242C189.524 50.4656 189.479 50.3848 189.465 50.2961C189.452 50.1986 189.479 50.0999 189.539 50.0219C189.599 49.9438 189.687 49.8927 189.785 49.8798C190.989 49.5613 192.043 48.8296 192.761 47.8128C192.976 47.5106 193.121 47.164 193.184 46.7985C193.247 46.433 193.227 46.058 193.126 45.7012C193.1 45.6056 193.113 45.5039 193.162 45.4178C193.211 45.3317 193.291 45.268 193.386 45.2403C193.432 45.2267 193.481 45.2225 193.529 45.2279C193.577 45.2333 193.624 45.2482 193.666 45.2717C193.708 45.2952 193.745 45.3269 193.775 45.3649C193.805 45.4029 193.827 45.4465 193.84 45.4931C193.968 45.9522 193.994 46.4339 193.915 46.9041C193.837 47.3743 193.656 47.8216 193.386 48.2143C192.552 49.4199 191.301 50.2751 189.874 50.6158H189.837Z" fill="#263238"/>
<path d="M191.058 62.9509C190.509 64.1749 189.498 65.132 188.245 65.6128C186.579 66.2373 185.574 64.78 185.902 63.1219C186.199 61.6349 187.39 59.5233 189.16 59.6125C189.54 59.6373 189.908 59.7561 190.231 59.9582C190.554 60.1603 190.822 60.4395 191.01 60.7705C191.198 61.1015 191.301 61.4741 191.309 61.8547C191.317 62.2353 191.231 62.612 191.058 62.9509Z" fill="#FFC3BD"/>
<path d="M180.41 58.6685C180.366 59.1444 180.083 59.5088 179.778 59.479C179.473 59.4493 179.242 59.0403 179.287 58.5644C179.331 58.0885 179.607 57.7316 179.919 57.7614C180.232 57.7911 180.448 58.2001 180.41 58.6685Z" fill="#263238"/>
<path d="M174.763 58.5347C174.719 59.0106 174.436 59.3675 174.131 59.3377C173.826 59.308 173.595 58.9065 173.64 58.4306C173.684 57.9547 173.96 57.5978 174.272 57.6201C174.585 57.6424 174.763 58.0588 174.763 58.5347Z" fill="#263238"/>
<path d="M176.445 59.1666C175.762 60.5638 174.885 61.8578 173.841 63.0105C174.144 63.2727 174.501 63.4658 174.886 63.5762C175.272 63.6866 175.677 63.7118 176.073 63.6499L176.445 59.1666Z" fill="#ED847E"/>
<path d="M182.345 57.2484C182.391 57.2598 182.44 57.2598 182.486 57.2484C182.555 57.2204 182.61 57.1664 182.639 57.0982C182.668 57.0301 182.669 56.9532 182.642 56.8841C182.486 56.4677 182.234 56.0942 181.905 55.7943C181.577 55.4945 181.182 55.2767 180.752 55.1591C180.717 55.1515 180.68 55.1511 180.644 55.1578C180.608 55.1646 180.574 55.1784 180.544 55.1985C180.513 55.2185 180.487 55.2445 180.467 55.2747C180.446 55.305 180.432 55.339 180.425 55.3747C180.41 55.4477 180.424 55.5238 180.464 55.5864C180.504 55.6491 180.568 55.6933 180.641 55.7093C180.981 55.8057 181.293 55.9813 181.552 56.2218C181.81 56.4622 182.008 56.7605 182.129 57.0923C182.15 57.1337 182.18 57.1694 182.218 57.1966C182.255 57.2237 182.299 57.2415 182.345 57.2484Z" fill="#263238"/>
<path d="M172.657 56.7279C172.701 56.7422 172.748 56.7457 172.793 56.7379C172.839 56.7301 172.881 56.7114 172.918 56.6833C173.191 56.4655 173.513 56.3167 173.856 56.2494C174.2 56.1821 174.554 56.1983 174.89 56.2966C174.924 56.3095 174.961 56.3153 174.998 56.3136C175.035 56.3119 175.071 56.3028 175.104 56.2868C175.138 56.2709 175.168 56.2484 175.192 56.2207C175.216 56.193 175.235 56.1606 175.247 56.1256C175.271 56.0565 175.268 55.9806 175.237 55.9141C175.206 55.8475 175.151 55.7953 175.083 55.7686C174.659 55.6413 174.211 55.6174 173.776 55.6989C173.341 55.7804 172.932 55.965 172.583 56.2371C172.523 56.2816 172.483 56.3481 172.472 56.4219C172.461 56.4958 172.479 56.571 172.524 56.6313C172.56 56.6739 172.606 56.7071 172.657 56.7279Z" fill="#263238"/>
<path d="M188.959 78.542C188.862 78.6907 187.806 80.319 186.31 82.7874C184.792 84.1861 182.931 85.1606 180.916 85.6128C181.221 84.6165 180.328 81.2558 179.339 80.2223C182.622 80.2654 185.885 79.6955 188.959 78.542Z" fill="#407BFF"/>
<path opacity="0.3" d="M188.959 78.542C188.862 78.6907 187.806 80.319 186.31 82.7874C184.792 84.1861 182.931 85.1606 180.916 85.6128C181.221 84.6165 180.328 81.2558 179.339 80.2223C182.622 80.2654 185.885 79.6955 188.959 78.542Z" fill="white"/>
<path d="M179.317 80.2298C178.25 80.6947 177.289 81.3714 176.493 82.2188C175.696 83.0662 175.08 84.0666 174.682 85.1593C174.269 84.9807 173.9 84.7167 173.597 84.3847C173.294 84.0528 173.066 83.6604 172.926 83.2336C173.115 81.5701 173.802 80.0024 174.897 78.7354C175.433 79.4194 176.906 80.096 179.317 80.2298Z" fill="#407BFF"/>
<path opacity="0.3" d="M179.317 80.2298C178.25 80.6947 177.289 81.3714 176.493 82.2188C175.696 83.0662 175.08 84.0666 174.682 85.1593C174.269 84.9807 173.9 84.7167 173.597 84.3847C173.294 84.0528 173.066 83.6604 172.926 83.2336C173.115 81.5701 173.802 80.0024 174.897 78.7354C175.433 79.4194 176.906 80.096 179.317 80.2298Z" fill="white"/>
<path d="M201.437 82.5421C202.925 84.2372 204.197 85.8655 205.491 87.5978C206.786 89.3302 208.006 91.0774 209.167 92.9287C210.385 94.8084 211.493 96.7571 212.485 98.7651C213.026 99.8447 213.51 100.952 213.936 102.081C214.446 103.41 214.818 104.788 215.045 106.193L215.104 106.557C215.223 107.307 215.149 108.074 214.888 108.787C214.038 111.034 212.821 113.124 211.287 114.973C210.617 115.812 209.899 116.611 209.137 117.367C208.393 118.111 207.649 118.854 206.905 119.486C205.378 120.788 203.77 121.993 202.091 123.092C200.427 124.204 198.686 125.197 196.883 126.066C196.251 126.426 195.509 126.542 194.797 126.392C194.085 126.242 193.453 125.837 193.02 125.253C192.587 124.669 192.382 123.947 192.446 123.223C192.509 122.499 192.836 121.823 193.364 121.323L193.498 121.181C194.651 119.932 195.923 118.587 197.069 117.271C198.215 115.955 199.361 114.616 200.38 113.263C201.377 111.986 202.282 110.639 203.088 109.234C203.762 108.091 204.263 106.856 204.576 105.568L204.42 108.133C204.212 107.535 203.963 106.951 203.676 106.386C203.311 105.687 202.932 104.899 202.441 104.155C201.95 103.412 201.481 102.616 200.953 101.843C200.425 101.07 199.896 100.282 199.338 99.5012C198.215 97.9473 197.054 96.3711 195.856 94.8172L192.285 90.2149L192.211 90.1183C191.242 88.8979 190.79 87.3463 190.954 85.7969C191.117 84.2475 191.883 82.8241 193.085 81.8327C194.288 80.8412 195.832 80.3609 197.385 80.495C198.938 80.629 200.377 81.3667 201.392 82.5495L201.437 82.5421Z" fill="#263238"/>
<path d="M196.34 124.825C196.357 124.504 196.26 124.188 196.065 123.933L194.443 121.702C194.289 121.488 194.076 121.323 193.831 121.225C193.586 121.128 193.318 121.102 193.059 121.152L190.752 121.583C188.516 122.008 186.398 122.908 184.54 124.223L183.93 124.654C183.678 124.832 183.465 125.058 183.302 125.32C183.14 125.581 183.031 125.872 182.982 126.176C182.934 126.48 182.947 126.791 183.02 127.09C183.093 127.389 183.225 127.67 183.409 127.918L185.098 130.2C185.424 130.641 185.896 130.952 186.43 131.078C186.965 131.203 187.526 131.134 188.014 130.884L190.99 129.353C190.99 129.353 196.169 127.724 196.34 124.825Z" fill="#FFC3BD"/>
<path d="M195.068 120.379C193.987 120.237 192.89 120.259 191.816 120.445C191.154 122.148 193.966 127.271 195.41 128.163C196.332 127.947 198.43 126.148 198.43 126.148C197.195 124.505 195.916 121.635 195.068 120.379Z" fill="#407BFF"/>
<path d="M138.143 81.9176C138.166 80.8292 138.023 79.7435 137.718 78.6983C135.955 78.2299 131.171 81.583 130.442 83.1146C130.754 84.0068 132.778 85.8953 132.778 85.8953C134.281 84.4826 136.989 82.8916 138.143 81.9176Z" fill="#407BFF"/>
<path d="M221.369 254.899L228.244 251.07L226.674 246.818L219.033 251.992L221.369 254.899Z" fill="#407BFF"/>
<path d="M181.705 192.029C183.342 164.862 186.482 146.676 185.172 133.293L162.279 132.951C162.279 132.951 164.6 176.074 165.999 194.007C167.398 211.94 175.136 256.282 175.136 256.282H182.219C182.219 256.282 184.19 213.055 181.705 192.029Z" fill="#263238"/>
<path d="M163.648 260.044C163.648 260.044 175.158 257.561 175.887 255.896H181.757L181.943 262.081H177.159L176.579 261.516L175.686 262.081C172.762 262.081 165.091 261.97 163.231 261.338C163.175 261.105 163.185 260.861 163.258 260.633C163.332 260.405 163.467 260.201 163.648 260.044Z" fill="#263238"/>
<path d="M174.778 256.498L182.665 256.714L183.029 252.252L173.878 252.803L174.778 256.498Z" fill="#407BFF"/>
<path d="M178.26 65.3526C177.957 65.3628 177.653 65.3479 177.352 65.308C177.332 65.3046 177.312 65.2969 177.295 65.2854C177.277 65.2739 177.263 65.259 177.252 65.2415C177.24 65.2239 177.233 65.2043 177.23 65.1837C177.227 65.1631 177.228 65.1422 177.233 65.1221C177.241 65.0799 177.264 65.0422 177.299 65.0172C177.334 64.9922 177.377 64.9818 177.419 64.9882C178.099 65.0857 178.792 65.0301 179.447 64.8256C180.102 64.621 180.703 64.2726 181.206 63.806C181.218 63.7859 181.235 63.7688 181.254 63.7558C181.273 63.7429 181.296 63.7345 181.319 63.7312C181.342 63.7279 181.365 63.7298 181.388 63.7368C181.41 63.7438 181.43 63.7557 181.447 63.7716C181.464 63.7875 181.478 63.8071 181.486 63.8288C181.495 63.8505 181.498 63.8739 181.497 63.8971C181.495 63.9204 181.488 63.943 181.476 63.9632C181.465 63.9835 181.449 64.0009 181.43 64.0142C180.575 64.8359 179.446 65.3126 178.26 65.3526Z" fill="#263238"/>
<path d="M223.676 183.605H217.515V184.348H223.676V183.605Z" fill="#407BFF"/>
<path d="M242.075 183.605H228.236V184.348H242.075V183.605Z" fill="#407BFF"/>
<path d="M246.577 153.479H160.27L146.357 179.167C146.217 179.426 146.147 179.717 146.153 180.011C146.158 180.305 146.24 180.593 146.39 180.846C146.539 181.1 146.752 181.31 147.007 181.458C147.262 181.605 147.55 181.684 147.845 181.687H246.577L253.63 167.561L246.577 153.479Z" fill="#407BFF"/>
<path d="M149.816 29.0105C164.734 30.3805 178.662 37.0592 189.066 47.8304C199.469 58.6016 205.655 72.7485 206.496 87.6946C206.509 87.9786 206.593 88.2548 206.74 88.498C206.887 88.7413 207.093 88.9438 207.338 89.0872C207.584 89.2307 207.862 89.3103 208.146 89.319C208.43 89.3277 208.712 89.2651 208.966 89.137L219.449 83.9325C219.839 83.7311 220.272 83.626 220.71 83.626C221.149 83.626 221.582 83.7311 221.972 83.9325L232.261 89.0701C232.528 89.204 232.825 89.2658 233.123 89.2495C233.422 89.2331 233.71 89.139 233.961 88.9766C234.211 88.8143 234.415 88.5893 234.551 88.3239C234.688 88.0586 234.753 87.7622 234.739 87.4641C233.811 65.0384 224.592 43.7539 208.864 27.7299C193.137 11.7059 172.02 2.08191 149.6 0.720459L142.629 14.6536L149.816 29.0105Z" fill="#407BFF"/>
<path opacity="0.6" d="M149.816 29.0105C164.734 30.3805 178.662 37.0592 189.066 47.8304C199.469 58.6016 205.655 72.7485 206.496 87.6946C206.509 87.9786 206.593 88.2548 206.74 88.498C206.887 88.7413 207.093 88.9438 207.338 89.0872C207.584 89.2307 207.862 89.3103 208.146 89.319C208.43 89.3277 208.712 89.2651 208.966 89.137L219.449 83.9325C219.839 83.7311 220.272 83.626 220.71 83.626C221.149 83.626 221.582 83.7311 221.972 83.9325L232.261 89.0701C232.528 89.204 232.825 89.2658 233.123 89.2495C233.422 89.2331 233.71 89.139 233.961 88.9766C234.211 88.8143 234.415 88.5893 234.551 88.3239C234.688 88.0586 234.753 87.7622 234.739 87.4641C233.811 65.0384 224.592 43.7539 208.864 27.7299C193.137 11.7059 172.02 2.08191 149.6 0.720459L142.629 14.6536L149.816 29.0105Z" fill="white"/>
<path d="M82.0211 85.4936C83.3923 70.5855 90.0769 56.6657 100.857 46.2697C111.638 35.8736 125.796 29.6932 140.754 28.8542C141.037 28.8383 141.311 28.7525 141.553 28.6045C141.794 28.4565 141.995 28.251 142.137 28.0063C142.28 27.7617 142.359 27.4856 142.368 27.2028C142.377 26.9199 142.316 26.6392 142.19 26.3858L136.945 15.91C136.75 15.5171 136.649 15.0845 136.649 14.6461C136.649 14.2076 136.75 13.775 136.945 13.3821L142.094 3.10704C142.226 2.83963 142.286 2.54248 142.268 2.24482C142.25 1.94717 142.155 1.65926 141.992 1.40944C141.829 1.15962 141.604 0.956484 141.339 0.820028C141.073 0.683571 140.777 0.618493 140.479 0.631199C118.049 1.57644 96.765 10.7944 80.7386 26.5046C64.7122 42.2148 55.0804 63.3024 53.7036 85.6944L67.6243 92.6609L82.0211 85.4936Z" fill="#407BFF"/>
<path opacity="0.4" d="M82.0211 85.4936C83.3923 70.5855 90.0769 56.6657 100.857 46.2697C111.638 35.8736 125.796 29.6932 140.754 28.8542C141.037 28.8383 141.311 28.7525 141.553 28.6045C141.794 28.4565 141.995 28.251 142.137 28.0063C142.28 27.7617 142.359 27.4856 142.368 27.2028C142.377 26.9199 142.316 26.6392 142.19 26.3858L136.945 15.91C136.75 15.5171 136.649 15.0845 136.649 14.6461C136.649 14.2076 136.75 13.775 136.945 13.3821L142.094 3.10704C142.226 2.83963 142.286 2.54248 142.268 2.24482C142.25 1.94717 142.155 1.65926 141.992 1.40944C141.829 1.15962 141.604 0.956484 141.339 0.820028C141.073 0.683571 140.777 0.618493 140.479 0.631199C118.049 1.57644 96.765 10.7944 80.7386 26.5046C64.7122 42.2148 55.0804 63.3024 53.7036 85.6944L67.6243 92.6609L82.0211 85.4936Z" fill="white"/>
<path d="M138.544 153.234C123.627 151.866 109.697 145.189 99.2926 134.419C88.888 123.649 82.7006 109.503 81.8574 94.5569C81.8439 94.2739 81.76 93.9988 81.6132 93.7565C81.4665 93.5142 81.2616 93.3122 81.017 93.169C80.7725 93.0258 80.496 92.9458 80.2127 92.9363C79.9295 92.9267 79.6483 92.988 79.3946 93.1145L68.9188 98.319C68.5243 98.5183 68.0886 98.6227 67.6465 98.6238C67.2093 98.6218 66.7787 98.5174 66.3891 98.319L56.0919 93.1814C55.8248 93.0498 55.5282 92.9898 55.231 93.0072C54.9338 93.0247 54.6462 93.119 54.3964 93.2809C54.1466 93.4428 53.9432 93.6667 53.8061 93.9308C53.669 94.1949 53.6029 94.4901 53.6143 94.7874C54.4956 116.717 63.3433 137.575 78.5018 153.457H34.8872L42.0298 167.739L35.1402 181.546H138.753L145.747 167.591L138.544 153.234Z" fill="#407BFF"/>
<path opacity="0.2" d="M138.544 153.234C123.627 151.866 109.697 145.189 99.2926 134.419C88.888 123.649 82.7006 109.503 81.8574 94.5569C81.8439 94.2739 81.76 93.9988 81.6132 93.7565C81.4665 93.5142 81.2616 93.3122 81.017 93.169C80.7725 93.0258 80.496 92.9458 80.2127 92.9363C79.9295 92.9267 79.6483 92.988 79.3946 93.1145L68.9188 98.319C68.5243 98.5183 68.0886 98.6227 67.6465 98.6238C67.2093 98.6218 66.7787 98.5174 66.3891 98.319L56.0919 93.1814C55.8248 93.0498 55.5282 92.9898 55.231 93.0072C54.9338 93.0247 54.6462 93.119 54.3964 93.2809C54.1466 93.4428 53.9432 93.6667 53.8061 93.9308C53.669 94.1949 53.6029 94.4901 53.6143 94.7874C54.4956 116.717 63.3433 137.575 78.5018 153.457H34.8872L42.0298 167.739L35.1402 181.546H138.753L145.747 167.591L138.544 153.234Z" fill="white"/>
<path d="M206.34 96.7427C204.967 111.648 198.283 125.565 187.504 135.96C176.726 146.354 162.57 152.534 147.614 153.375C147.331 153.39 147.056 153.475 146.813 153.622C146.571 153.77 146.369 153.975 146.226 154.22C146.083 154.465 146.003 154.741 145.993 155.025C145.984 155.308 146.045 155.589 146.171 155.843L151.379 166.319C151.574 166.711 151.675 167.142 151.675 167.579C151.675 168.017 151.574 168.448 151.379 168.84L146.238 179.122C146.104 179.389 146.042 179.686 146.058 179.984C146.075 180.282 146.169 180.57 146.331 180.82C146.494 181.071 146.719 181.274 146.984 181.41C147.25 181.547 147.547 181.612 147.845 181.598C170.284 180.671 191.582 171.46 207.617 155.747C223.652 140.034 233.284 118.935 234.65 96.5346L220.707 89.568L206.34 96.7427Z" fill="#407BFF"/>
<path opacity="0.8" d="M206.34 96.7427C204.967 111.648 198.283 125.565 187.504 135.96C176.726 146.354 162.57 152.534 147.614 153.375C147.331 153.39 147.056 153.475 146.813 153.622C146.571 153.77 146.369 153.975 146.226 154.22C146.083 154.465 146.003 154.741 145.993 155.025C145.984 155.308 146.045 155.589 146.171 155.843L151.379 166.319C151.574 166.711 151.675 167.142 151.675 167.579C151.675 168.017 151.574 168.448 151.379 168.84L146.238 179.122C146.104 179.389 146.042 179.686 146.058 179.984C146.075 180.282 146.169 180.57 146.331 180.82C146.494 181.071 146.719 181.274 146.984 181.41C147.25 181.547 147.547 181.612 147.845 181.598C170.284 180.671 191.582 171.46 207.617 155.747C223.652 140.034 233.284 118.935 234.65 96.5346L220.707 89.568L206.34 96.7427Z" fill="white"/>
<path d="M143.552 89.6126L139.482 77.9769L133.291 78.5494C131.823 76.3811 130.071 74.4183 128.083 72.7129L129.356 66.6311L118.218 61.278L114.245 66.0586C111.667 65.5593 109.035 65.4093 106.417 65.6126L103.017 60.4081L91.3733 64.475L91.9462 70.6609C89.7763 72.1284 87.8121 73.8787 86.1056 75.8654L80.012 74.594L74.6551 85.7018L79.4466 89.6721C78.9469 92.2474 78.7967 94.8783 79.0002 97.4936L73.792 100.891L77.8618 112.527L84.0446 111.955C85.5137 114.125 87.2651 116.09 89.2528 117.799L87.9805 123.88L99.0962 129.233L103.069 124.445C105.644 124.945 108.274 125.095 110.889 124.891L114.297 130.096L125.941 126.029L125.368 119.851C127.535 118.38 129.499 116.63 131.208 114.646L137.294 115.917L142.651 104.81L137.867 100.847C138.367 98.2715 138.517 95.6406 138.314 93.0252L143.552 89.6126ZM113.166 108.081C110.629 108.967 107.887 109.082 105.285 108.411C102.683 107.74 100.339 106.313 98.5485 104.31C96.7584 102.307 95.6028 99.8191 95.2279 97.1601C94.8529 94.5011 95.2755 91.7907 96.4422 89.3717C97.6088 86.9527 99.4671 84.9338 101.782 83.5702C104.097 82.2066 106.765 81.5597 109.447 81.7113C112.13 81.8628 114.708 82.806 116.854 84.4215C119.001 86.037 120.62 88.2524 121.506 90.7873C122.693 94.1859 122.481 97.9162 120.917 101.159C119.353 104.401 116.565 106.891 113.166 108.081Z" fill="#407BFF"/>
<path d="M68.4427 96.966C68.093 97.5161 67.6987 98.2373 67.2597 98.8842C66.8207 99.531 66.471 100.237 66.0916 100.929C65.3475 102.304 64.6035 103.702 63.9041 105.122C62.5025 107.955 61.2605 110.864 60.184 113.836C59.7153 115.01 60.184 114.312 59.6409 113.576C59.3879 113.271 59.2242 113.278 59.3135 113.33C59.4796 113.423 59.661 113.486 59.8492 113.516C61.2334 113.745 62.6412 113.795 64.0381 113.665C67.1258 113.479 70.392 113.01 73.5616 112.497H73.5764C73.9821 112.429 74.3987 112.514 74.7459 112.734C75.0932 112.954 75.3466 113.295 75.4574 113.691C75.5683 114.087 75.5286 114.51 75.3462 114.878C75.1638 115.247 74.8514 115.535 74.4693 115.687C71.3002 117.008 68.0114 118.021 64.6482 118.713C63.7851 118.877 62.8997 119.018 61.9697 119.107C60.9803 119.21 59.983 119.21 58.9936 119.107C58.359 119.04 57.7346 118.897 57.1335 118.683C56.2195 118.359 55.4204 117.775 54.8345 117.003C54.478 116.514 54.2249 115.957 54.0905 115.367C53.974 114.853 53.9388 114.324 53.9863 113.799C54.0229 113.401 54.0976 113.007 54.2095 112.624L54.3881 111.999C55.3101 108.681 56.4841 105.437 57.8999 102.297C58.5993 100.728 59.3879 99.1816 60.1989 97.6723C60.6156 96.9139 61.0471 96.1704 61.4935 95.4418C61.9548 94.6983 62.3863 93.992 62.9815 93.2113C63.4943 92.5224 64.2525 92.0567 65.0992 91.9108C65.946 91.765 66.8165 91.9499 67.5305 92.4275C68.2445 92.9051 68.7475 93.6388 68.9353 94.4766C69.1231 95.3145 68.9814 96.1925 68.5394 96.9288L68.4427 96.966Z" fill="#7F3E3B"/>
<path d="M81.0835 115.858L79.5285 117.144C79.2421 117.385 78.902 117.553 78.5367 117.635C78.1715 117.716 77.792 117.709 77.4303 117.613L74.0004 116.713C73.3256 116.534 72.7035 116.196 72.1858 115.728C71.6682 115.26 71.2699 114.675 71.0243 114.022L70.7192 113.204C73.1448 110.892 77.4675 110.17 77.4675 110.17L78.6803 109.836C78.9269 109.758 79.1866 109.73 79.4442 109.753C79.7018 109.777 79.9522 109.851 80.1807 109.972C80.4092 110.093 80.6113 110.259 80.7753 110.459C80.9392 110.659 81.0617 110.889 81.1356 111.137L81.8796 113.524C81.9913 113.948 81.9754 114.396 81.8338 114.811C81.6922 115.226 81.4312 115.59 81.0835 115.858Z" fill="#7F3E3B"/>
<path d="M72.7355 72.3041C73.8069 76.2521 75.1164 83.4567 72.5495 86.1184C72.5495 86.1184 70.5779 89.8359 82.2218 89.2188C90.4061 88.8025 84.8185 86.1184 84.8185 86.1184C80.3543 85.0626 80.2055 81.7986 80.7487 78.7354L72.7355 72.3041Z" fill="#7F3E3B"/>
<path d="M55.5639 237.42L48.0121 234.639C47.3499 240.468 44.9839 249.368 44.9839 249.368L50.2813 251.598C50.2813 251.598 53.808 240.966 55.5639 237.42Z" fill="#7F3E3B"/>
<path d="M51.5161 260.357C47.4761 257.383 47.796 257.546 45.564 255.806C43.6667 254.319 43.0417 254.223 41.5016 253.041C40.2144 252.059 41.0849 250.81 42.4391 249.561C42.9524 249.093 43.5997 248.572 44.3363 247.896C44.5434 247.707 44.8096 247.597 45.0893 247.583C45.369 247.57 45.6447 247.654 45.869 247.821L50.601 251.279C50.7739 251.407 50.9144 251.574 51.0112 251.766C51.1081 251.959 51.1587 252.171 51.159 252.386C51.1836 253.534 51.4417 254.664 51.9176 255.708C52.3934 256.752 53.077 257.689 53.9268 258.461C55.9356 260.357 53.1307 261.539 51.5161 260.357Z" fill="#263238"/>
<path d="M88.2782 128.014C88.2782 128.014 80.3246 168.944 74.1418 188.014C67.6688 208.089 58.2048 230.342 53.9118 243.39C52.58 243.561 48.778 241.977 46.918 240.416C46.918 240.416 49.7527 206.215 59.4548 188.52C58.4875 136.892 68.3086 128.014 68.3086 128.014H88.2782Z" fill="#407BFF"/>
<path opacity="0.3" d="M88.2782 128.014C88.2782 128.014 80.3246 168.944 74.1418 188.014C67.6688 208.089 58.2048 230.342 53.9118 243.39C52.58 243.561 48.778 241.977 46.918 240.416C46.918 240.416 49.7527 206.215 59.4548 188.52C58.4875 136.892 68.3086 128.014 68.3086 128.014H88.2782Z" fill="black"/>
<path opacity="0.2" d="M73.5023 143.33L81.6865 158.944C79.8116 167.122 77.7283 175.65 75.7343 182.579C69.8045 165.933 73.5023 143.33 73.5023 143.33Z" fill="black"/>
<path d="M55.5487 240.929C55.2967 241.82 55.1175 242.73 55.013 243.65C55.0051 243.729 54.9794 243.804 54.938 243.871C54.8966 243.938 54.8404 243.995 54.7737 244.038C54.7071 244.08 54.6317 244.106 54.5533 244.115C54.4748 244.124 54.3954 244.115 54.321 244.089C51.4193 243.345 47.6248 241.115 46.3823 240.371C46.2713 240.306 46.1814 240.211 46.1233 240.096C46.0653 239.981 46.0415 239.852 46.0549 239.724L46.3897 237.107C46.4038 237.028 46.436 236.952 46.484 236.887C46.5319 236.821 46.5943 236.768 46.6662 236.731C46.7382 236.693 46.8178 236.673 46.8988 236.671C46.9799 236.669 47.0603 236.686 47.1337 236.721L55.1097 240.171C55.261 240.224 55.3882 240.33 55.4686 240.469C55.549 240.608 55.5774 240.771 55.5487 240.929Z" fill="#263238"/>
<path d="M94.8929 240.921L87.6387 241.457C88.8291 247.241 90.0716 256.371 90.0716 256.371H95.8304C95.8304 256.371 94.8036 244.884 94.8929 240.921Z" fill="#7F3E3B"/>
<path d="M101.924 262.081C96.9165 262.081 97.2736 262.007 94.4835 261.91C92.0729 261.829 91.5074 262.126 89.5581 262.081C87.9435 262.081 88.003 260.505 88.509 258.721C88.695 258.037 88.9703 257.234 89.253 256.26C89.3268 255.983 89.49 255.738 89.7174 255.563C89.9448 255.388 90.2235 255.293 90.5104 255.293H96.3733C96.5831 255.29 96.7904 255.339 96.9762 255.437C97.1621 255.534 97.3206 255.677 97.4373 255.851C98.0747 256.767 98.9039 257.533 99.8676 258.097C100.831 258.661 101.906 259.008 103.017 259.115C105.681 259.479 103.925 262.081 101.924 262.081Z" fill="#263238"/>
<path d="M94.4537 128.014C94.4537 128.014 95.3614 163.702 96.1724 185.895C96.9833 208.089 95.2423 247.368 95.2423 247.368C95.0786 248.446 89.4166 248.014 88.4568 247.368C88.4568 247.368 77.6313 215.546 81.7606 188.014C67.267 152.327 71.4484 128.892 71.4484 128.892L94.4537 128.014Z" fill="#407BFF"/>
<path opacity="0.3" d="M94.4537 128.014C94.4537 128.014 95.3614 163.702 96.1724 185.895C96.9833 208.089 95.2423 247.368 95.2423 247.368C95.0786 248.446 89.4166 248.014 88.4568 247.368C88.4568 247.368 77.6313 215.546 81.7606 188.014C67.267 152.327 71.4484 128.892 71.4484 128.892L94.4537 128.014Z" fill="black"/>
<path d="M96.0164 244.349C96.0164 245.092 96.0833 246.394 96.1503 247.323C96.159 247.478 96.1084 247.63 96.0089 247.749C95.9094 247.867 95.7685 247.944 95.6146 247.962C93.12 248.168 90.6118 248.14 88.1223 247.881C88.0026 247.871 87.8895 247.822 87.8006 247.741C87.7118 247.661 87.6522 247.553 87.6312 247.434L87.1253 244.81C87.1054 244.722 87.1054 244.631 87.1251 244.543C87.1448 244.455 87.1839 244.372 87.2394 244.301C87.2949 244.23 87.3655 244.172 87.4461 244.131C87.5268 244.091 87.6154 244.069 87.7056 244.066L95.436 243.754C95.5147 243.75 95.5934 243.762 95.6669 243.79C95.7404 243.819 95.8069 243.863 95.8619 243.919C95.9169 243.976 95.9592 244.043 95.9858 244.117C96.0125 244.191 96.0229 244.27 96.0164 244.349Z" fill="#263238"/>
<path d="M69.7074 121.754C69.5845 123.841 69.3361 125.919 68.9634 127.977H94.1857L94.4536 121.561C94.4536 121.561 74.99 120.46 69.7074 121.754Z" fill="#7F3E3B"/>
<path d="M96.8794 95.5532C97.0307 99.4296 96.9711 103.311 96.7008 107.181C96.4925 112.237 97.4448 113.471 96.7008 121.754C93.9331 123.367 75.7268 123.308 66.7762 122.148C67.3194 114.988 67.9816 110.163 63.1305 94.0513C62.007 90.3339 64.5144 86.7279 68.5247 86.3413C69.5961 86.2446 70.7568 86.1554 71.8951 86.1034C75.9851 85.828 80.0889 85.828 84.1789 86.1034C85.5107 86.2149 86.8946 86.3784 88.219 86.5495C92.9658 87.174 96.7306 91.0773 96.8794 95.5532Z" fill="#263238"/>
<path d="M133.723 114.327L132.719 112.579C132.53 112.257 132.266 111.983 131.951 111.782C131.635 111.58 131.276 111.456 130.904 111.419L127.377 111.085C126.683 111.019 125.984 111.12 125.337 111.379C124.69 111.637 124.114 112.046 123.657 112.572L123.084 113.241C124.572 116.215 128.381 118.446 128.381 118.446L129.401 119.189C129.606 119.346 129.839 119.461 130.089 119.528C130.339 119.594 130.599 119.611 130.855 119.576C131.111 119.541 131.357 119.457 131.58 119.326C131.803 119.196 131.998 119.023 132.154 118.817L133.642 116.817C133.902 116.457 134.049 116.028 134.063 115.584C134.078 115.141 133.959 114.703 133.723 114.327Z" fill="#7F3E3B"/>
<path d="M99.1785 97.36L99.5058 97.8655C99.6472 98.0811 99.7811 98.3042 99.9448 98.5272C100.257 98.9733 100.607 99.412 100.964 99.8507C101.704 100.737 102.489 101.586 103.315 102.393C104.156 103.204 105.041 103.992 105.971 104.743C106.901 105.494 107.876 106.23 108.866 106.884L108.285 106.617C109.657 107.113 111.052 107.54 112.467 107.895C113.955 108.275 115.443 108.639 116.931 109.011L121.492 110.096C123.017 110.468 124.55 110.84 126.067 111.204C126.467 111.298 126.819 111.537 127.053 111.874C127.288 112.211 127.39 112.623 127.339 113.031C127.288 113.438 127.089 113.813 126.778 114.082C126.468 114.351 126.069 114.497 125.658 114.49C124.044 114.49 122.459 114.416 120.867 114.341C119.274 114.267 117.682 114.126 116.083 113.977C114.483 113.828 112.891 113.635 111.284 113.382C109.6 113.147 107.934 112.797 106.299 112.334C106.148 112.291 106.004 112.231 105.867 112.156L105.711 112.066C105.108 111.717 104.498 111.382 103.896 111.025C103.293 110.669 102.698 110.282 102.125 109.873C100.947 109.076 99.8236 108.202 98.7618 107.256C97.6744 106.299 96.6597 105.263 95.7262 104.156C95.2575 103.59 94.8036 103.011 94.3721 102.386C94.1563 102.081 93.9406 101.754 93.7397 101.419C93.6355 101.248 93.5388 101.085 93.4346 100.892C93.3305 100.698 93.2486 100.564 93.0924 100.237C92.7153 99.4708 92.6473 98.5888 92.9025 97.7736C93.1576 96.9584 93.7164 96.2723 94.4634 95.8571C95.2103 95.4418 96.0884 95.3293 96.916 95.5425C97.7437 95.7558 98.4577 96.2787 98.9106 97.0031L99.1785 97.36Z" fill="#7F3E3B"/>
<path d="M89.3198 86.9138C94.2304 88.2149 98.4416 92.4231 104.2 100.728C103.397 104.118 96.0161 108.037 96.0161 108.037C96.0161 108.037 80.6445 92.7354 89.3198 86.9138Z" fill="#263238"/>
<path d="M85.5927 64.9733C85.7712 65.4864 86.1953 65.8209 86.5301 65.7169C86.8649 65.6128 86.984 65.1295 86.798 64.6164C86.612 64.1034 86.1953 63.7614 85.8605 63.8729C85.5257 63.9845 85.4067 64.4603 85.5927 64.9733Z" fill="#263238"/>
<path d="M85.7266 63.9391L86.8203 63.241C86.8203 63.241 86.5375 64.3774 85.7266 63.9391Z" fill="#263238"/>
<path d="M85.9795 65.9324C86.8508 66.9739 87.8509 67.9007 88.9556 68.6907C88.7569 68.9531 88.5007 69.1666 88.2067 69.3148C87.9126 69.463 87.5885 69.542 87.2592 69.5457L85.9795 65.9324Z" fill="#630F0F"/>
<path d="M84.8112 60.7131C84.8494 60.7063 84.8857 60.6915 84.9177 60.6698C84.9498 60.648 84.9769 60.6197 84.9973 60.5867C85.0378 60.5135 85.048 60.4274 85.0258 60.3468C85.0035 60.2662 84.9505 60.1975 84.8782 60.1554C84.446 59.88 83.9567 59.7067 83.4475 59.6487C82.9382 59.5907 82.4224 59.6496 81.9393 59.8208C81.9023 59.8373 81.869 59.8614 81.8419 59.8915C81.8147 59.9216 81.7941 59.9571 81.7815 59.9956C81.7689 60.0341 81.7645 60.0749 81.7686 60.1152C81.7727 60.1556 81.7852 60.1946 81.8054 60.2298C81.8452 60.3046 81.9114 60.362 81.9911 60.3909C82.0708 60.4197 82.1584 60.418 82.2369 60.3859C82.6205 60.2551 83.0289 60.2132 83.4311 60.2634C83.8332 60.3137 84.2187 60.4547 84.5583 60.6759C84.6346 60.7205 84.7253 60.7338 84.8112 60.7131Z" fill="#263238"/>
<path d="M67.9668 67.8804C70.4221 73.8878 71.3298 76.4752 75.5112 78.7428C81.7982 82.148 88.6804 78.2596 88.0777 71.7465C87.5421 65.8878 83.6136 57.055 76.7537 56.3041C75.2856 56.0952 73.7883 56.2822 72.4169 56.8459C71.0454 57.4095 69.8497 58.3293 68.9535 59.51C68.0573 60.6906 67.4933 62.0892 67.3198 63.5609C67.1463 65.0326 67.3697 66.5239 67.9668 67.8804Z" fill="#7F3E3B"/>
<path d="M81.9244 67.7391C83.9407 72.1554 83.6803 84.6758 72.4232 80.7948C61.1662 76.9138 61.9548 70.8097 64.983 65.925C58.8746 60.4603 66.7687 56.1257 74.0229 54.1555C81.2771 52.1852 87.646 53.9547 81.9244 67.7391Z" fill="#263238"/>
<path d="M70.8978 67.3524C71.0934 68.283 71.0083 69.2507 70.653 70.1328C70.2978 71.015 69.6885 71.7719 68.9024 72.3077C68.1163 72.8436 67.1887 73.1341 66.2371 73.1426C65.2855 73.1511 64.3529 72.8772 63.5573 72.3555C62.7617 71.8339 62.1389 71.0879 61.768 70.2123C61.397 69.3366 61.2945 68.3706 61.4735 67.4367C61.6524 66.5027 62.1048 65.6429 62.7732 64.9661C63.4417 64.2893 64.2961 63.8261 65.2283 63.635C66.4728 63.3839 67.7661 63.6334 68.8276 64.3294C69.889 65.0254 70.6329 66.1117 70.8978 67.3524Z" fill="#407BFF"/>
<path d="M67.3638 75.1368C69.5958 70.6759 67.7804 65.1294 64.3207 61.5457C57.7733 54.7576 48.6962 59.2186 51.2259 65.9323C54.202 73.9398 38.5179 82.1703 47.662 86.9138C56.5903 91.5607 71.4708 83.3673 67.2894 75.3004C67.3117 75.2261 67.3414 75.2261 67.3638 75.1368Z" fill="#263238"/>
<path d="M79.4246 68.0661C79.7469 68.6022 80.1785 69.0646 80.6912 69.4232C81.2039 69.7819 81.7864 70.0288 82.4007 70.1479C83.8888 70.3859 84.3799 68.6609 83.7177 66.9955C83.115 65.5085 81.6046 63.6126 80.1984 64.133C78.7922 64.6535 78.5318 66.6535 79.4246 68.0661Z" fill="#7F3E3B"/>
<path d="M68.2494 86.3787C63.8448 87.0552 62.0814 88.3935 58.4878 97.2336C60.1172 100.527 67.7583 103.687 67.7583 103.687C67.7583 103.687 72.8325 92.2671 68.2494 86.3787Z" fill="#263238"/>
<path d="M94.4984 129.91C85.4749 130.905 76.3681 130.885 67.349 129.851C67.2551 129.836 67.1658 129.8 67.0881 129.745C67.0104 129.691 66.9464 129.619 66.901 129.535C66.8557 129.452 66.8302 129.359 66.8266 129.264C66.823 129.169 66.8414 129.075 66.8803 128.988C67.1035 128.468 67.3193 127.947 67.535 127.427C67.5822 127.313 67.6646 127.216 67.7703 127.152C67.8761 127.088 67.9996 127.059 68.1228 127.07C76.7967 128.025 85.5493 128.025 94.2231 127.07C94.3004 127.064 94.378 127.073 94.4517 127.097C94.5253 127.121 94.5935 127.16 94.6523 127.21C94.7111 127.26 94.7593 127.322 94.7942 127.391C94.829 127.46 94.8499 127.536 94.8556 127.613C94.9076 128.156 94.9672 128.691 95.0192 129.234C95.0383 129.392 94.9945 129.552 94.8971 129.678C94.7997 129.805 94.6566 129.888 94.4984 129.91Z" fill="#263238"/>
</svg>
