<svg width="233" height="235" viewBox="0 0 233 235" fill="none" xmlns="http://www.w3.org/2000/svg">
<path d="M116.334 234.002C180.583 234.002 232.668 230.963 232.668 227.215C232.668 223.466 180.583 220.428 116.334 220.428C52.0845 220.428 0 223.466 0 227.215C0 230.963 52.0845 234.002 116.334 234.002Z" fill="#F5F5F5"/>
<path d="M90.7379 73.0822C83.1179 70.4141 86.1659 48.9672 67.8359 60.4911C63.6839 63.1052 58.6439 80.2771 62.1239 84.2343C66.9899 89.8044 99.732 76.23 90.7379 73.0822Z" fill="#263238"/>
<path d="M69.2819 93.4439C69.1319 93.7317 69.0359 93.8816 68.9159 94.0855L68.5679 94.6491C68.3339 95.0088 68.0819 95.3566 67.8299 95.7043C67.3148 96.3902 66.764 97.0487 66.1799 97.677C64.982 98.9522 63.6201 100.063 62.1299 100.981C60.5848 101.936 58.8825 102.61 57.1019 102.971C56.2052 103.153 55.2928 103.245 54.3779 103.247C53.9219 103.247 53.4719 103.247 53.0159 103.199L52.3499 103.121L52.0139 103.079L51.5459 102.995C50.4203 102.717 49.3865 102.151 48.5459 101.352C47.862 100.709 47.2577 99.9867 46.7459 99.1999C45.8456 97.796 45.1012 96.2982 44.5259 94.733C43.4203 91.7719 42.6378 88.7003 42.1919 85.5714L44.7719 84.9718C45.7198 87.7475 46.8503 90.4575 48.1559 93.0842C48.769 94.3121 49.4984 95.4786 50.3339 96.5677C50.683 97.0241 51.0859 97.4368 51.5339 97.7969C51.8076 98.0325 52.1388 98.1918 52.4939 98.2585L53.2859 98.3005C53.5919 98.3005 53.8859 98.3005 54.1979 98.2645C54.8051 98.221 55.4074 98.1247 55.9979 97.9767C57.1824 97.6598 58.3085 97.1558 59.3339 96.4838C60.4085 95.7756 61.3866 94.9311 62.2439 93.9715C62.6967 93.4928 63.1214 92.9883 63.5159 92.4606C63.7139 92.1968 63.9059 91.927 64.0859 91.6571L64.3499 91.2554L64.5599 90.9137L69.2819 93.4439Z" fill="#FF8B7B"/>
<path d="M70.7341 87.2143C65.3341 87.2143 61.0801 92.2027 61.0801 92.2027L67.6801 101.076C67.6801 101.076 73.0021 96.076 73.5721 93.246C74.1361 90.2961 73.9741 87.1963 70.7341 87.2143Z" fill="#263238"/>
<path d="M44.5138 86.2729L46.8658 82.3756L41.4118 82.5135C41.4118 82.5135 40.9798 85.0857 42.4198 86.7106L44.5138 86.2729Z" fill="#FF8B7B"/>
<path d="M46.6501 77.813L42.6181 78.6704L41.4121 82.5135L46.8661 82.3757L46.6501 77.813Z" fill="#FF8B7B"/>
<path d="M97.7937 221.675L92.6397 222.167L90.0117 210.163L95.1657 209.671L97.7937 221.675Z" fill="#FF8B7B"/>
<path d="M144.582 206.134L140.676 209.605L131.382 201.685L135.282 198.214L144.582 206.134Z" fill="#FF8B7B"/>
<path d="M139.266 208.94L141.534 203.544C141.572 203.45 141.642 203.373 141.733 203.327C141.824 203.282 141.928 203.272 142.026 203.298L146.568 204.467C146.681 204.502 146.785 204.559 146.875 204.636C146.964 204.714 147.036 204.809 147.086 204.915C147.136 205.022 147.164 205.138 147.167 205.256C147.169 205.374 147.147 205.491 147.102 205.6C146.28 207.471 145.788 208.334 144.792 210.715C144.192 212.178 143.04 215.511 142.194 217.532C141.348 219.552 139.302 218.821 139.47 217.904C140.238 213.79 139.764 211.602 139.23 209.881C139.13 209.573 139.143 209.24 139.266 208.94Z" fill="#263238"/>
<path d="M91.9917 220.608H98.1897C98.3016 220.609 98.4101 220.646 98.4989 220.714C98.5876 220.783 98.6518 220.878 98.6817 220.985L100.026 225.884C100.06 226 100.066 226.122 100.044 226.241C100.021 226.36 99.9715 226.472 99.8978 226.568C99.8241 226.663 99.7288 226.741 99.6196 226.793C99.5105 226.845 99.3906 226.87 99.2697 226.867C97.1037 226.831 96.0477 226.705 93.3237 226.705C91.6437 226.705 87.3237 226.879 84.9957 226.879C82.6677 226.879 82.2537 224.589 83.1957 224.379C87.3957 223.456 89.7957 222.173 91.1157 220.949C91.3529 220.727 91.6666 220.605 91.9917 220.608Z" fill="#263238"/>
<path opacity="0.2" d="M90.0117 210.169L91.3677 216.357H96.6296L95.1717 209.677L90.0117 210.169Z" fill="black"/>
<path opacity="0.2" d="M135.288 198.214L131.382 201.685L136.176 205.768L140.082 202.297L135.288 198.214Z" fill="black"/>
<path d="M65.694 88.6591C65.694 88.6591 63.528 90.1701 76.554 118.35L96.996 112.66C94.338 104.446 92.898 99.3196 92.118 81.1525C89.091 81.3561 86.083 81.781 83.118 82.4236C79.9659 83.0608 76.8638 83.9245 73.836 85.0077C69.954 86.4767 65.694 88.6591 65.694 88.6591Z" fill="#263238"/>
<path d="M79.2899 72.2369C79.5359 75.3847 80.4899 81.0147 83.1239 82.4297C83.2927 84.7418 83.0038 87.0645 82.2739 89.2651C81.544 91.4656 80.3873 93.5009 78.8699 95.2545C71.7779 91.5731 73.8419 85.0138 73.8419 85.0138C76.9499 83.2931 76.1759 80.8468 74.9459 78.6883L79.2899 72.2369Z" fill="#FF8B7B"/>
<path opacity="0.2" d="M80.3818 78.2206L76.8179 77.0215C76.8695 77.7234 77.0484 78.4101 77.3459 79.0481C77.9459 80.2173 79.9318 80.6549 81.3478 80.511C80.9424 79.7855 80.6184 79.0174 80.3818 78.2206Z" fill="black"/>
<path d="M68.9339 68.9452C70.3139 73.9397 70.7879 76.0802 73.8899 78.1428C78.564 81.2366 84.402 78.4546 84.546 73.1483C84.678 68.3517 82.404 61.0068 77.0219 60.0355C75.8359 59.8155 74.6133 59.9022 73.4703 60.2874C72.3273 60.6726 71.3018 61.3434 70.4913 62.2362C69.6808 63.1291 69.1123 64.2142 68.8397 65.3884C68.5671 66.5627 68.5996 67.7871 68.9339 68.9452Z" fill="#FF8B7B"/>
<path d="M76.4038 59.2201C75.9958 62.6137 73.4638 74.2815 68.6878 74.2095C64.7459 70.7739 66.6899 64.3045 67.9139 61.6724C69.1379 59.0403 76.4038 59.2201 76.4038 59.2201Z" fill="#263238"/>
<path d="M74.3936 61.6236C76.7936 62.9007 81.5156 63.4584 80.7656 61.5097C80.0156 59.5611 80.2316 57.9123 76.9796 57.9842C73.7276 58.0562 74.3936 61.6236 74.3936 61.6236Z" fill="#263238"/>
<path d="M69.1261 73.6759C69.2796 74.1478 69.5251 74.5847 69.8485 74.9613C70.1718 75.338 70.5666 75.6469 71.0101 75.8703C72.2101 76.4699 73.044 75.4626 72.924 74.2095C72.816 73.0823 72.066 71.4155 70.7701 71.3435C70.4868 71.3333 70.2054 71.394 69.9515 71.5199C69.6975 71.6458 69.479 71.833 69.3158 72.0646C69.1525 72.2962 69.0497 72.5649 69.0166 72.8462C68.9834 73.1276 69.0211 73.4127 69.1261 73.6759Z" fill="#FF8B7B"/>
<path d="M76.5538 118.35C76.5538 118.35 75.3538 159.613 78.6838 175.19C82.1218 191.378 88.8418 214.558 88.8418 214.558L98.6338 214.084C98.6338 214.084 93.8938 184.705 92.7418 172.174C91.1578 154.906 91.5418 114.183 91.5418 114.183L76.5538 118.35Z" fill="#407BFF"/>
<path opacity="0.4" d="M76.5538 118.35C76.5538 118.35 75.3538 159.613 78.6838 175.19C82.1218 191.378 88.8418 214.558 88.8418 214.558L98.6338 214.084C98.6338 214.084 93.8938 184.705 92.7418 172.174C91.1578 154.906 91.5418 114.183 91.5418 114.183L76.5538 118.35Z" fill="#FAFAFA"/>
<path opacity="0.2" d="M91.4937 129.706C89.9697 125.887 88.6317 123.782 88.4937 127.59C88.1457 135.642 89.5497 144.845 91.7457 149.408C91.5777 142.585 91.5237 135.618 91.4937 129.706Z" fill="black"/>
<path d="M99.3179 214.558L88.1519 215.092L86.8379 211.014L98.9339 210.073L99.3179 214.558Z" fill="#263238"/>
<path d="M81.9536 116.845C81.9536 116.845 94.4876 150.553 102.954 169.164C109.776 184.201 133.962 205.205 133.962 205.205L139.458 200.564C139.458 200.564 121.974 176.617 117.258 166.388C102.15 133.753 106.092 119.927 97.0076 112.63L81.9536 116.845Z" fill="#407BFF"/>
<path opacity="0.4" d="M81.9536 116.845C81.9536 116.845 94.4876 150.553 102.954 169.164C109.776 184.201 133.962 205.205 133.962 205.205L139.458 200.564C139.458 200.564 121.974 176.617 117.258 166.388C102.15 133.753 106.092 119.927 97.0076 112.63L81.9536 116.845Z" fill="#FAFAFA"/>
<path d="M139.902 200.51L133.758 205.93L130.632 203.67L137.874 197.5L139.902 200.51Z" fill="#263238"/>
<path d="M96.9656 111.353L98.3996 112.924C98.5076 113.05 98.3996 113.242 98.1416 113.302L76.7096 119.298C76.5236 119.352 76.3436 119.298 76.3016 119.19L75.6056 117.391C75.5576 117.265 75.6896 117.115 75.8936 117.055L96.5876 111.299C96.6499 111.275 96.7174 111.267 96.7836 111.277C96.8498 111.286 96.9125 111.312 96.9656 111.353Z" fill="#407BFF"/>
<path d="M94.8297 114.465L95.3877 114.309C95.4957 114.279 95.5617 114.201 95.5377 114.129L94.6137 111.827C94.6137 111.761 94.4757 111.731 94.3677 111.761L93.8097 111.917C93.7017 111.947 93.6297 112.025 93.6597 112.097L94.5837 114.399C94.6077 114.465 94.7337 114.495 94.8297 114.465Z" fill="#263238"/>
<path d="M78.318 119.058L78.876 118.902C78.984 118.872 79.056 118.794 79.026 118.722L78.102 116.42C78.102 116.354 77.964 116.324 77.856 116.354L77.298 116.509C77.19 116.539 77.124 116.617 77.148 116.689L78.072 118.992C78.096 119.058 78.21 119.088 78.318 119.058Z" fill="#263238"/>
<path d="M86.5739 116.749L87.1319 116.593C87.2399 116.593 87.3059 116.486 87.2819 116.414L86.3339 114.123C86.3339 114.057 86.1959 114.027 86.0879 114.057L85.5299 114.213C85.4219 114.213 85.3559 114.321 85.3799 114.393L86.3039 116.695C86.3339 116.749 86.4659 116.791 86.5739 116.749Z" fill="#263238"/>
<path d="M76.9319 68.7414C77.0159 69.1551 77.3099 69.4429 77.5739 69.383C77.8379 69.323 77.9939 68.9453 77.9099 68.5375C77.8259 68.1298 77.5319 67.836 77.2619 67.8899C76.9919 67.9439 76.8419 68.3277 76.9319 68.7414Z" fill="#263238"/>
<path d="M81.5938 67.7581C81.6778 68.1718 81.9658 68.4596 82.2358 68.4056C82.5058 68.3517 82.6558 67.968 82.5658 67.5543C82.4758 67.1406 82.1937 66.8529 81.9237 66.9128C81.6537 66.9728 81.5338 67.3505 81.5938 67.7581Z" fill="#263238"/>
<path d="M81.8096 66.9851L82.7396 66.493C82.7396 66.493 82.3916 67.3451 81.8096 66.9851Z" fill="#263238"/>
<path d="M80.5078 68.7295C81.0741 69.5922 81.7565 70.3729 82.5358 71.0497C82.3588 71.248 82.14 71.4046 81.8951 71.5082C81.6503 71.6119 81.3855 71.6601 81.1198 71.6493L80.5078 68.7295Z" fill="#FF5652"/>
<path d="M80.0581 73.5441C80.0778 73.5303 80.0929 73.5109 80.1015 73.4885C80.11 73.466 80.1116 73.4415 80.1061 73.4181C80.1041 73.4018 80.0986 73.3861 80.09 73.3722C80.0814 73.3582 80.0698 73.3462 80.0561 73.3371C80.0425 73.328 80.027 73.3219 80.0107 73.3194C79.9945 73.3168 79.9779 73.3178 79.9621 73.3222C79.4508 73.4405 78.9189 73.4369 78.4093 73.3119C77.8996 73.1869 77.4265 72.944 77.0281 72.6026C77.018 72.5867 77.0044 72.5733 76.9884 72.5634C76.9724 72.5534 76.9543 72.5472 76.9356 72.5452C76.9168 72.5431 76.8979 72.5453 76.8801 72.5516C76.8623 72.5578 76.8461 72.568 76.8328 72.5813C76.8195 72.5946 76.8093 72.6108 76.803 72.6286C76.7968 72.6463 76.7946 72.6653 76.7966 72.684C76.7987 72.7027 76.8049 72.7208 76.8149 72.7368C76.8248 72.7528 76.8382 72.7664 76.8541 72.7765C77.2777 73.1522 77.786 73.4199 78.3356 73.5567C78.8851 73.6935 79.4597 73.6953 80.0101 73.5621L80.0581 73.5441Z" fill="#263238"/>
<path d="M75.2996 67.4942C75.3366 67.4714 75.3659 67.438 75.3836 67.3983C75.5083 67.1143 75.6982 66.8636 75.938 66.6667C76.1778 66.4698 76.4606 66.3322 76.7636 66.265C76.7959 66.2607 76.8271 66.25 76.8552 66.2337C76.8834 66.2173 76.9081 66.1956 76.9279 66.1697C76.9477 66.1438 76.9622 66.1143 76.9705 66.0828C76.9789 66.0513 76.981 66.0185 76.9766 65.9862C76.9723 65.9539 76.9616 65.9228 76.9453 65.8946C76.9289 65.8664 76.9071 65.8418 76.8812 65.822C76.8553 65.8022 76.8258 65.7878 76.7943 65.7794C76.7628 65.7711 76.7299 65.769 76.6976 65.7733C76.3116 65.8505 75.9497 66.0193 75.6427 66.2656C75.3357 66.5119 75.0925 66.8284 74.9336 67.1884C74.9098 67.2377 74.9032 67.2935 74.9147 67.347C74.9263 67.4006 74.9554 67.4487 74.9974 67.4838C75.0394 67.5189 75.092 67.539 75.1467 67.5409C75.2014 67.5428 75.2553 67.5263 75.2996 67.4942Z" fill="#263238"/>
<path d="M83.3338 65.131H83.3698C83.4163 65.0839 83.4424 65.0204 83.4424 64.9543C83.4424 64.8881 83.4163 64.8246 83.3698 64.7775C83.0933 64.4982 82.7546 64.288 82.3814 64.1641C82.0081 64.0402 81.6107 64.0062 81.2218 64.0647C81.1573 64.079 81.1012 64.1183 81.0658 64.1739C81.0303 64.2295 81.0185 64.2969 81.0328 64.3612C81.0471 64.4256 81.0864 64.4816 81.1421 64.517C81.1978 64.5524 81.2653 64.5642 81.3298 64.5499C81.6392 64.5072 81.9545 64.5392 82.2489 64.6435C82.5434 64.7477 82.8084 64.9211 83.0218 65.1489C83.0678 65.1825 83.1241 65.199 83.181 65.1958C83.2379 65.1925 83.2919 65.1696 83.3338 65.131Z" fill="#263238"/>
<path d="M95.7896 85.8651C96.2516 86.3987 96.8276 87.0223 97.3676 87.6039C97.9076 88.1855 98.4896 88.7611 99.0656 89.3247C100.224 90.4459 101.412 91.5432 102.666 92.5624C105.073 94.599 107.733 96.3179 110.58 97.6769C113.22 98.876 116.43 99.3857 119.652 99.6135C121.272 99.7334 122.916 99.7754 124.566 99.7454C126.216 99.7155 127.896 99.6495 129.504 99.5236L129.99 102.126C126.588 102.999 123.102 103.503 119.592 103.631C117.789 103.7 115.984 103.634 114.192 103.433C112.319 103.23 110.479 102.795 108.714 102.138C107.002 101.48 105.35 100.678 103.776 99.7394C102.23 98.8242 100.748 97.8045 99.3416 96.6876C97.9457 95.5907 96.6079 94.422 95.3336 93.186C94.6916 92.5864 94.0736 91.9329 93.4616 91.2853C92.8496 90.6378 92.2616 90.0022 91.6616 89.2348L95.7896 85.8651Z" fill="#FF8B7B"/>
<path d="M128.832 102.36L133.998 101.55L129.738 97.4911C129.738 97.4911 127.71 99.1339 127.71 101.304L128.832 102.36Z" fill="#FF8B7B"/>
<path d="M136.782 97.4609L133.188 95.4343L129.732 97.5209L133.998 101.574L136.782 97.4609Z" fill="#FF8B7B"/>
<path d="M92.1177 81.1524C94.3437 81.2064 98.7657 87.5679 98.7657 87.5679L92.3997 95.4524C92.3997 95.4524 88.6917 90.26 88.7997 87.3761C88.9437 84.3722 89.5857 81.0925 92.1177 81.1524Z" fill="#263238"/>
<path d="M138.282 211.776C138.22 211.753 138.16 211.725 138.102 211.692C138.034 211.658 137.977 211.606 137.937 211.541C137.896 211.477 137.875 211.402 137.874 211.326C137.874 210.661 139.41 209.594 139.59 209.474C139.61 209.461 139.633 209.454 139.656 209.454C139.679 209.454 139.702 209.461 139.722 209.474C139.743 209.487 139.759 209.506 139.77 209.528C139.781 209.55 139.785 209.575 139.782 209.6C139.668 210.283 139.386 211.476 138.786 211.752C138.708 211.79 138.623 211.811 138.536 211.816C138.45 211.82 138.363 211.806 138.282 211.776ZM139.482 209.851C138.882 210.295 138.114 210.973 138.12 211.32C138.12 211.368 138.12 211.422 138.228 211.476C138.292 211.524 138.367 211.554 138.446 211.564C138.525 211.573 138.605 211.562 138.678 211.53C139.008 211.38 139.296 210.763 139.482 209.851Z" fill="#407BFF"/>
<path d="M137.514 210.199C137.466 210.182 137.419 210.16 137.376 210.133C137.295 210.077 137.235 209.994 137.207 209.899C137.178 209.805 137.183 209.703 137.22 209.611C137.245 209.521 137.29 209.437 137.351 209.365C137.412 209.294 137.488 209.237 137.574 209.198C138.258 208.868 139.65 209.438 139.704 209.462C139.724 209.47 139.742 209.483 139.756 209.501C139.769 209.518 139.778 209.539 139.781 209.561C139.784 209.583 139.781 209.605 139.773 209.625C139.765 209.646 139.751 209.664 139.734 209.677C139.079 210.107 138.292 210.292 137.514 210.199ZM139.344 209.599C138.822 209.368 138.24 209.308 137.682 209.426C137.626 209.449 137.576 209.485 137.537 209.531C137.497 209.576 137.469 209.631 137.454 209.689C137.412 209.839 137.454 209.899 137.514 209.929C137.82 210.133 138.828 209.929 139.386 209.611L139.344 209.599Z" fill="#407BFF"/>
<path d="M89.244 221.633C88.824 221.662 88.4053 221.561 88.044 221.345C87.95 221.275 87.873 221.185 87.819 221.081C87.7649 220.977 87.7352 220.863 87.732 220.746C87.7251 220.681 87.736 220.615 87.7635 220.556C87.7909 220.497 87.834 220.446 87.888 220.41C88.446 220.032 90.558 221.009 90.978 221.183C91.0006 221.195 91.0191 221.214 91.0309 221.237C91.0427 221.259 91.0473 221.285 91.044 221.311C91.0408 221.336 91.0298 221.36 91.0127 221.379C90.9955 221.398 90.9729 221.411 90.948 221.417C90.3892 221.549 89.818 221.622 89.244 221.633ZM88.254 220.566C88.1711 220.559 88.088 220.576 88.014 220.614C87.984 220.614 87.96 220.662 87.966 220.734C87.9664 220.815 87.9863 220.895 88.0238 220.967C88.0614 221.039 88.1156 221.101 88.182 221.147C88.548 221.423 89.382 221.459 90.51 221.249C89.7976 220.907 89.0366 220.676 88.254 220.566Z" fill="#407BFF"/>
<path d="M90.9116 221.423H90.8636C90.1676 221.135 88.7516 220.008 88.8356 219.42C88.8356 219.295 88.9376 219.133 89.2556 219.097C90.4556 218.947 91.0076 221.183 91.0556 221.279C91.061 221.302 91.06 221.326 91.0526 221.348C91.0451 221.37 91.0316 221.39 91.0136 221.405C90.9989 221.415 90.9821 221.422 90.9645 221.425C90.947 221.428 90.9289 221.428 90.9116 221.423ZM89.3696 219.325H89.2856C89.1536 219.325 89.0876 219.378 89.0756 219.438C89.0336 219.774 90.0056 220.668 90.7196 221.063C90.5336 220.53 90.1136 219.325 89.3696 219.325Z" fill="#407BFF"/>
<path d="M77.1479 67.9382L78.078 67.4462C78.078 67.4462 77.736 68.3282 77.1479 67.9382Z" fill="#263238"/>
<path d="M107.892 124.238C107.892 124.238 97.2297 132.938 101.196 152.088C103.536 163.378 110.586 169.122 116.76 167.869C122.934 166.616 127.188 158.582 124.932 147.274C121.134 128.099 107.892 124.238 107.892 124.238Z" fill="#407BFF"/>
<path opacity="0.2" d="M107.892 124.238C107.892 124.238 97.2297 132.938 101.196 152.088C103.536 163.378 110.586 169.122 116.76 167.869C122.934 166.616 127.188 158.582 124.932 147.274C121.134 128.099 107.892 124.238 107.892 124.238Z" fill="white"/>
<path d="M175.134 87.0882C175.134 87.0882 155.556 82.7413 137.196 104.524C126.396 117.373 126.15 130.611 133.146 136.541C140.142 142.471 153.18 140.103 164.1 127.338C182.592 105.687 175.134 87.0882 175.134 87.0882Z" fill="#407BFF"/>
<path d="M149.394 0.629639C149.394 0.629639 145.02 1.8288 143.664 8.13038C142.86 11.8478 144.222 14.5159 146.25 14.9596C148.278 15.4033 150.63 13.5506 151.458 9.84518C152.862 3.55559 149.394 0.629639 149.394 0.629639Z" fill="#407BFF"/>
<path d="M114.714 194.448C112.201 185.535 111.02 176.3 111.21 167.042C111.406 158.061 112.724 149.141 115.134 140.487C116.299 136.256 117.681 132.087 119.274 127.998C120.06 125.965 120.9 123.962 121.776 122.002C122.196 121 122.676 120.035 123.12 119.052L123.792 117.625L124.446 116.246C127.944 108.901 131.274 101.508 134.28 94.0076C137.306 86.5309 139.936 78.8997 142.158 71.1459C144.384 63.4156 145.94 55.5079 146.808 47.5106C147.697 39.5034 147.447 31.4106 146.064 23.4737C144.618 15.4259 141.545 7.75708 137.034 0.935669C142.381 7.35394 146.362 14.7943 148.734 22.8022C151.11 30.8997 152.322 39.2939 152.334 47.7325C152.364 56.1712 151.663 64.5966 150.24 72.9146C148.844 81.2015 147.003 89.4076 144.726 97.4972C142.494 105.579 139.926 113.548 137.202 121.42L136.692 122.895L136.434 123.633L136.2 124.328C135.9 125.263 135.564 126.181 135.288 127.116C134.688 128.981 134.16 130.846 133.668 132.722C132.677 136.44 131.876 140.207 131.268 144.006C130.069 151.417 129.801 158.947 130.47 166.424C131.126 173.633 132.847 180.704 135.576 187.409L114.714 194.448Z" fill="#407BFF"/>
<path opacity="0.2" d="M114.714 194.448C112.201 185.535 111.02 176.3 111.21 167.042C111.406 158.061 112.724 149.141 115.134 140.487C116.299 136.256 117.681 132.087 119.274 127.998C120.06 125.965 120.9 123.962 121.776 122.002C122.196 121 122.676 120.035 123.12 119.052L123.792 117.625L124.446 116.246C127.944 108.901 131.274 101.508 134.28 94.0076C137.306 86.5309 139.936 78.8997 142.158 71.1459C144.384 63.4156 145.94 55.5079 146.808 47.5106C147.697 39.5034 147.447 31.4106 146.064 23.4737C144.618 15.4259 141.545 7.75708 137.034 0.935669C142.381 7.35394 146.362 14.7943 148.734 22.8022C151.11 30.8997 152.322 39.2939 152.334 47.7325C152.364 56.1712 151.663 64.5966 150.24 72.9146C148.844 81.2015 147.003 89.4076 144.726 97.4972C142.494 105.579 139.926 113.548 137.202 121.42L136.692 122.895L136.434 123.633L136.2 124.328C135.9 125.263 135.564 126.181 135.288 127.116C134.688 128.981 134.16 130.846 133.668 132.722C132.677 136.44 131.876 140.207 131.268 144.006C130.069 151.417 129.801 158.947 130.47 166.424C131.126 173.633 132.847 180.704 135.576 187.409L114.714 194.448Z" fill="black"/>
<path d="M156.072 173.013L155.472 179.873L151.476 224.439C151.408 225.197 151.059 225.902 150.497 226.416C149.935 226.93 149.201 227.215 148.44 227.215H97.7637C97.0025 227.214 96.2692 226.928 95.7075 226.415C95.1459 225.901 94.7965 225.197 94.7277 224.439L90.7377 179.873L90.1377 173.013H156.072Z" fill="#407BFF"/>
<path d="M155.346 197.796L153.914 213.795L154.512 213.849L155.943 197.85L155.346 197.796Z" fill="#407BFF"/>
<path d="M157.128 188.769L156.786 192.565L157.386 192.619L157.728 188.823L157.128 188.769Z" fill="#407BFF"/>
<path d="M113.142 31.8196C113.142 31.8196 101.826 46.8749 113.364 71.0138C120.168 85.2477 131.418 90.5659 139.206 86.8845C146.994 83.2031 150.006 71.1337 143.322 56.8518C131.964 32.629 113.142 31.8196 113.142 31.8196Z" fill="#407BFF"/>
<path opacity="0.2" d="M113.142 31.8196C113.142 31.8196 101.826 46.8749 113.364 71.0138C120.168 85.2477 131.418 90.5659 139.206 86.8845C146.994 83.2031 150.006 71.1337 143.322 56.8518C131.964 32.629 113.142 31.8196 113.142 31.8196Z" fill="black"/>
<path opacity="0.2" d="M156.072 173.013L155.454 179.873H90.7376L90.1196 173.013H156.072Z" fill="black"/>
<path d="M159.99 164.554H86.1957C85.4037 164.554 84.7617 165.195 84.7617 165.987V175.01C84.7617 175.801 85.4037 176.443 86.1957 176.443H159.99C160.782 176.443 161.424 175.801 161.424 175.01V165.987C161.424 165.195 160.782 164.554 159.99 164.554Z" fill="#407BFF"/>
<path d="M188.593 65.9411C199.195 57.9693 201.322 42.9183 193.345 32.3239C185.367 21.7296 170.306 19.6036 159.704 27.5754C149.102 35.5473 146.974 50.5982 154.952 61.1926C162.929 71.787 177.991 73.913 188.593 65.9411Z" fill="#407BFF"/>
<path opacity="0.1" d="M193.416 52.7087C194.229 49.5145 194.227 46.1671 193.408 42.9742C192.59 39.7812 190.981 36.8451 188.73 34.4357C186.479 32.0263 183.659 30.2208 180.527 29.1852C177.396 28.1496 174.054 27.9172 170.809 28.5092C167.565 29.1012 164.521 30.4987 161.958 32.5732C159.395 34.6478 157.394 37.3328 156.141 40.3816C154.887 43.4304 154.421 46.7451 154.784 50.0212C155.147 53.2972 156.329 56.4295 158.22 59.1301C156.088 56.3948 154.699 53.1567 154.185 49.7283C153.672 46.2999 154.051 42.797 155.287 39.558C156.523 36.3189 158.574 33.453 161.242 31.237C163.91 29.021 167.104 27.5296 170.517 26.907C173.929 26.2844 177.445 26.5515 180.724 27.6825C184.003 28.8135 186.936 30.7703 189.237 33.3639C191.539 35.9574 193.133 39.1002 193.865 42.4888C194.597 45.8774 194.442 49.3973 193.416 52.7087Z" fill="black"/>
<path d="M181.548 50.2325L179.148 55.3109C179.056 55.504 178.926 55.6761 178.765 55.8165C178.604 55.9568 178.416 56.0623 178.212 56.1263C178.009 56.2031 177.792 56.2374 177.575 56.2271C177.359 56.2167 177.146 56.162 176.952 56.0663L172.482 53.9558L170.79 57.5533C170.702 57.7485 170.574 57.9234 170.415 58.0669C170.256 58.2103 170.069 58.3192 169.866 58.3867C169.666 58.4591 169.454 58.4911 169.242 58.4808C169.03 58.4705 168.821 58.4181 168.63 58.3267C168.431 58.2376 168.252 58.1095 168.103 57.9498C167.955 57.7901 167.84 57.6023 167.766 57.3974C167.688 57.197 167.653 56.9828 167.662 56.7682C167.672 56.5536 167.725 56.3432 167.82 56.1503L169.53 52.5528L165.096 50.4603C164.708 50.2747 164.41 49.944 164.265 49.54C164.12 49.1359 164.141 48.691 164.322 48.3019C164.505 47.9142 164.835 47.615 165.239 47.47C165.642 47.325 166.087 47.346 166.476 47.5284L176.85 52.4209L177.846 50.3104L167.52 45.4C167.325 45.3117 167.149 45.1853 167.004 45.0282C166.859 44.8711 166.746 44.6865 166.674 44.4853C166.601 44.2841 166.569 44.0703 166.581 43.8567C166.592 43.6431 166.646 43.4339 166.74 43.2415L169.14 38.1811C169.229 37.9873 169.356 37.8132 169.514 37.6691C169.672 37.525 169.856 37.4136 170.057 37.3416C170.258 37.2696 170.472 37.2384 170.685 37.2497C170.899 37.261 171.107 37.3147 171.3 37.4077L175.698 39.4822L177.39 35.8847C177.48 35.6861 177.611 35.5082 177.773 35.362C177.935 35.2158 178.125 35.1044 178.332 35.0347C178.539 34.965 178.759 34.9385 178.976 34.9568C179.194 34.9751 179.405 35.0379 179.598 35.1413C179.789 35.2279 179.961 35.3529 180.103 35.5086C180.244 35.6644 180.352 35.8475 180.42 36.0466C180.495 36.2467 180.528 36.46 180.518 36.6734C180.507 36.8868 180.454 37.0958 180.36 37.2877L178.668 40.8852L183.174 43.0077C183.371 43.0976 183.548 43.227 183.694 43.3879C183.839 43.5487 183.95 43.7377 184.02 43.943C184.1 44.141 184.139 44.3537 184.132 44.5673C184.126 44.781 184.076 44.991 183.984 45.1841C183.791 45.5782 183.451 45.8814 183.038 46.0292C182.624 46.177 182.169 46.1577 181.77 45.9755L171.396 41.083L170.412 43.1755L180.744 48.0501C180.942 48.14 181.12 48.2693 181.266 48.4301C181.413 48.5909 181.525 48.7798 181.596 48.9854C181.677 49.1848 181.714 49.3991 181.706 49.6141C181.698 49.8291 181.644 50.0399 181.548 50.2325Z" fill="#FAFAFA"/>
</svg>
