<svg width="245" height="276" viewBox="0 0 245 276" fill="none" xmlns="http://www.w3.org/2000/svg">
<path d="M226.983 0.645635L204.391 0.645635L181.642 260.533H204.234C209.395 260.45 214.346 258.478 218.15 254.99C221.953 251.503 224.345 246.744 224.872 241.613L244.31 19.5663C244.575 17.1532 244.321 14.7114 243.567 12.4039C242.812 10.0965 241.573 7.97652 239.933 6.18563C238.293 4.39475 236.29 2.97418 234.057 2.01882C231.823 1.06347 229.412 0.595312 226.983 0.645635Z" fill="#407BFF"/>
<path d="M240.956 26.7039C241.007 26.214 241.235 25.7596 241.599 25.4268C241.962 25.094 242.435 24.9058 242.928 24.8978C243.16 24.8928 243.391 24.9373 243.604 25.0283C243.818 25.1194 244.01 25.2549 244.167 25.4258C244.324 25.5967 244.443 25.7991 244.515 26.0195C244.588 26.2399 244.613 26.4732 244.588 26.7039L243.067 44.1224C243.014 44.6139 242.784 45.0694 242.419 45.4035C242.055 45.7376 241.581 45.9273 241.086 45.9371C240.854 45.9411 240.623 45.8955 240.41 45.8034C240.197 45.7113 240.006 45.5748 239.85 45.403C239.693 45.2313 239.576 45.0282 239.504 44.8074C239.433 44.5866 239.409 44.353 239.435 44.1224L240.956 26.7039Z" fill="#407BFF"/>
<path opacity="0.3" d="M240.956 26.7039C241.007 26.214 241.235 25.7596 241.599 25.4268C241.962 25.094 242.435 24.9058 242.928 24.8978C243.16 24.8928 243.391 24.9373 243.604 25.0283C243.818 25.1194 244.01 25.2549 244.167 25.4258C244.324 25.5967 244.443 25.7991 244.515 26.0195C244.588 26.2399 244.613 26.4732 244.588 26.7039L243.067 44.1224C243.014 44.6139 242.784 45.0694 242.419 45.4035C242.055 45.7376 241.581 45.9273 241.086 45.9371C240.854 45.9411 240.623 45.8955 240.41 45.8034C240.197 45.7113 240.006 45.5748 239.85 45.403C239.693 45.2313 239.576 45.0282 239.504 44.8074C239.433 44.5866 239.409 44.353 239.435 44.1224L240.956 26.7039Z" fill="white"/>
<path d="M199.611 260.542H106.635C104.21 260.585 101.803 260.111 99.575 259.152C97.347 258.193 95.349 256.77 93.7139 254.98C92.0788 253.189 90.8441 251.07 90.0921 248.766C89.34 246.461 89.0878 244.022 89.3523 241.613L108.79 19.5664C109.316 14.4427 111.702 9.68874 115.496 6.2027C119.29 2.71665 124.231 0.739858 129.384 0.645764L222.36 0.645764C224.785 0.6017 227.192 1.07447 229.42 2.03259C231.648 2.99071 233.646 4.41218 235.281 6.20235C236.916 7.99252 238.151 10.1103 238.903 12.4147C239.655 14.719 239.908 17.1571 239.643 19.5664L220.205 241.613C219.681 246.738 217.297 251.494 213.502 254.982C209.708 258.47 204.766 260.448 199.611 260.542Z" fill="#263238"/>
<path d="M221.986 4.98745H197.821C197.032 4.9955 196.269 5.27155 195.658 5.77021C195.047 6.26887 194.624 6.96048 194.458 7.73134L194.293 8.48677C193.876 10.3616 192.841 12.0419 191.353 13.2577C189.866 14.4734 188.012 15.1541 186.091 15.1902H163.116C161.3 15.2117 159.548 14.5224 158.234 13.2697C156.921 12.0169 156.15 10.3002 156.086 8.48677V7.73134C156.068 6.98665 155.755 6.27959 155.216 5.76521C154.677 5.25084 153.955 4.97113 153.21 4.98745H129.019C125.046 5.05617 121.237 6.57788 118.311 9.26457C115.385 11.9513 113.547 15.6165 113.144 19.5665L93.7055 241.613C93.5016 243.469 93.6957 245.347 94.2749 247.122C94.854 248.898 95.805 250.529 97.0645 251.909C98.3239 253.288 99.863 254.383 101.579 255.122C103.295 255.86 105.149 256.225 107.018 256.192H199.993C203.965 256.121 207.772 254.598 210.696 251.912C213.62 249.225 215.457 245.561 215.86 241.613L235.298 19.5665C235.502 17.7104 235.308 15.8322 234.729 14.0569C234.15 12.2816 233.199 10.65 231.939 9.27067C230.68 7.89133 229.141 6.79592 227.425 6.05738C225.708 5.31883 223.854 4.95409 221.986 4.98745Z" fill="#407BFF"/>
<path opacity="0.8" d="M221.986 4.98745H197.821C197.032 4.9955 196.269 5.27155 195.658 5.77021C195.047 6.26887 194.624 6.96048 194.458 7.73134L194.293 8.48677C193.876 10.3616 192.841 12.0419 191.353 13.2577C189.866 14.4734 188.012 15.1541 186.091 15.1902H163.116C161.3 15.2117 159.548 14.5224 158.234 13.2697C156.921 12.0169 156.15 10.3002 156.086 8.48677V7.73134C156.068 6.98665 155.755 6.27959 155.216 5.76521C154.677 5.25084 153.955 4.97113 153.21 4.98745H129.019C125.046 5.05617 121.237 6.57788 118.311 9.26457C115.385 11.9513 113.547 15.6165 113.144 19.5665L93.7055 241.613C93.5016 243.469 93.6957 245.347 94.2749 247.122C94.854 248.898 95.805 250.529 97.0645 251.909C98.3239 253.288 99.863 254.383 101.579 255.122C103.295 255.86 105.149 256.225 107.018 256.192H199.993C203.965 256.121 207.772 254.598 210.696 251.912C213.62 249.225 215.457 245.561 215.86 241.613L235.298 19.5665C235.502 17.7104 235.308 15.8322 234.729 14.0569C234.15 12.2816 233.199 10.65 231.939 9.27067C230.68 7.89133 229.141 6.79592 227.425 6.05738C225.708 5.31883 223.854 4.95409 221.986 4.98745Z" fill="white"/>
<g opacity="0.6">
<path opacity="0.6" d="M169.659 7.44444C169.608 7.94362 169.375 8.40675 169.005 8.74603C168.635 9.08531 168.153 9.27715 167.651 9.28519C167.415 9.28893 167.181 9.2426 166.965 9.14927C166.748 9.05594 166.553 8.91772 166.394 8.74375C166.235 8.56978 166.114 8.36401 166.04 8.14003C165.967 7.91606 165.941 7.67898 165.966 7.44444C166.016 6.94442 166.249 6.48027 166.618 6.13957C166.988 5.79886 167.47 5.60517 167.973 5.59502C168.21 5.58971 168.446 5.63528 168.664 5.72865C168.882 5.82202 169.077 5.96103 169.237 6.13629C169.397 6.31156 169.517 6.51902 169.59 6.74468C169.663 6.97034 169.686 7.20896 169.659 7.44444Z" fill="black"/>
<path opacity="0.6" d="M182.919 5.59509H176.584C176.081 5.60336 175.598 5.79644 175.228 6.13754C174.858 6.47863 174.626 6.9439 174.577 7.44469C174.551 7.67953 174.575 7.91721 174.649 8.14183C174.722 8.36646 174.843 8.57283 175.002 8.74713C175.162 8.92144 175.357 9.05965 175.574 9.15252C175.792 9.24539 176.026 9.29077 176.263 9.28562H182.589C183.091 9.27758 183.572 9.08571 183.942 8.7464C184.312 8.40709 184.545 7.94392 184.596 7.44469C184.623 7.20993 184.6 6.97204 184.528 6.74698C184.455 6.52193 184.336 6.31489 184.177 6.13975C184.018 5.96461 183.824 5.82541 183.607 5.73148C183.39 5.63754 183.155 5.59104 182.919 5.59509Z" fill="black"/>
</g>
<path d="M123.649 15.1465H125.605L125.778 13.1929H123.823L123.649 15.1465Z" fill="#407BFF"/>
<path d="M127.733 13.1928L127.56 15.1465H129.515L129.688 13.1928L129.862 11.2391H127.907L127.733 13.1928Z" fill="#407BFF"/>
<path d="M131.982 9.2854L131.817 11.2391L131.643 13.1928L131.47 15.1465H133.425L133.599 13.1928L133.772 11.2391L133.938 9.2854H131.982Z" fill="#407BFF"/>
<path d="M216.052 9.41565L215.922 10.8484H214.966L214.714 13.7139H215.67L215.548 15.1466H224.15L224.654 9.41565H216.052ZM219.528 13.7573H216.66L216.912 10.8918H219.78L219.528 13.7573Z" fill="#407BFF"/>
<path opacity="0.5" d="M214.131 133.42H114.378C113.665 133.433 112.959 133.294 112.304 133.013C111.65 132.731 111.063 132.314 110.583 131.788C110.103 131.262 109.74 130.64 109.52 129.963C109.299 129.286 109.225 128.57 109.303 127.863L115.325 59.04C115.48 57.5294 116.186 56.1287 117.307 55.1041C118.429 54.0795 119.888 53.5024 121.407 53.4827H221.135C221.847 53.4712 222.553 53.6111 223.206 53.893C223.86 54.1749 224.446 54.5925 224.926 55.118C225.406 55.6435 225.768 56.2649 225.99 56.9411C226.211 57.6172 226.286 58.3327 226.209 59.04L220.179 127.863C220.026 129.368 219.326 130.765 218.211 131.789C217.097 132.814 215.645 133.394 214.131 133.42Z" fill="white"/>
<path d="M114.378 133.42H214.131C215.651 133.4 217.11 132.823 218.231 131.799C219.353 130.774 220.058 129.373 220.214 127.863L223.611 89.1099L221.248 93.4515L218.893 97.7931H216.877L215.278 93.4515L212.454 80.4267L209.065 73.9143H205.103L203.313 71.7435H197.378L193.033 76.0851L191.435 71.7435H187.507L185.152 76.0851L183.553 71.7435L180.999 78.2559L178.826 80.4267L176.663 82.5975H172.7L170.528 84.7683L168.165 89.1099L164.02 91.2807L160.249 89.1099H156.225L153.871 93.4515L152.081 91.2807H150.143L147.971 93.4515L145.798 95.6223L144.008 93.4515H140.055L138.447 89.1099L136.092 93.4515L133.729 97.7931L131.374 102.135L127.029 106.476L123.449 102.135L119.105 106.476L114.76 110.818H110.798L109.303 127.863C109.225 128.571 109.299 129.287 109.52 129.963C109.74 130.64 110.103 131.262 110.583 131.788C111.063 132.314 111.65 132.731 112.304 133.013C112.959 133.294 113.665 133.433 114.378 133.42Z" fill="#407BFF"/>
<path opacity="0.3" d="M114.378 133.42H214.131C215.651 133.4 217.11 132.823 218.231 131.799C219.353 130.774 220.058 129.373 220.214 127.863L223.611 89.1099L221.248 93.4515L218.893 97.7931H216.877L215.278 93.4515L212.454 80.4267L209.065 73.9143H205.103L203.313 71.7435H197.378L193.033 76.0851L191.435 71.7435H187.507L185.152 76.0851L183.553 71.7435L180.999 78.2559L178.826 80.4267L176.663 82.5975H172.7L170.528 84.7683L168.165 89.1099L164.02 91.2807L160.249 89.1099H156.225L153.871 93.4515L152.081 91.2807H150.143L147.971 93.4515L145.798 95.6223L144.008 93.4515H140.055L138.447 89.1099L136.092 93.4515L133.729 97.7931L131.374 102.135L127.029 106.476L123.449 102.135L119.105 106.476L114.76 110.818H110.798L109.303 127.863C109.225 128.571 109.299 129.287 109.52 129.963C109.74 130.64 110.103 131.262 110.583 131.788C111.063 132.314 111.65 132.731 112.304 133.013C112.959 133.294 113.665 133.433 114.378 133.42Z" fill="white"/>
<path d="M114.378 133.42H214.131C215.651 133.4 217.11 132.823 218.231 131.799C219.353 130.774 220.058 129.373 220.214 127.863L223.038 95.6223L220.874 97.7931L218.702 99.9639H214.705L210.933 97.7931L207.353 93.4515L205.181 95.6223H197.265L195.093 97.7931H193.112L190.948 99.9639L189.158 97.7931H185.196L182.45 106.476L178.879 102.135H166.992L164.828 104.305H160.866L158.693 106.476H154.731L152.567 108.647H148.605L146.815 106.476L142.661 108.647H138.699L134.554 110.818L130.401 112.989H126.447L122.294 115.159L118.714 110.818L110.415 115.159L109.303 127.863C109.225 128.57 109.299 129.286 109.52 129.963C109.74 130.64 110.103 131.262 110.583 131.788C111.063 132.314 111.65 132.731 112.304 133.013C112.959 133.294 113.665 133.433 114.378 133.42Z" fill="#407BFF"/>
<path opacity="0.5" d="M114.378 133.42H214.131C215.651 133.4 217.11 132.823 218.231 131.799C219.353 130.774 220.058 129.373 220.214 127.863L223.038 95.6223L220.874 97.7931L218.702 99.9639H214.705L210.933 97.7931L207.353 93.4515L205.181 95.6223H197.265L195.093 97.7931H193.112L190.948 99.9639L189.158 97.7931H185.196L182.45 106.476L178.879 102.135H166.992L164.828 104.305H160.866L158.693 106.476H154.731L152.567 108.647H148.605L146.815 106.476L142.661 108.647H138.699L134.554 110.818L130.401 112.989H126.447L122.294 115.159L118.714 110.818L110.415 115.159L109.303 127.863C109.225 128.57 109.299 129.286 109.52 129.963C109.74 130.64 110.103 131.262 110.583 131.788C111.063 132.314 111.65 132.731 112.304 133.013C112.959 133.294 113.665 133.433 114.378 133.42Z" fill="white"/>
<path opacity="0.5" d="M210.525 174.691H110.763C110.05 174.706 109.343 174.568 108.688 174.287C108.033 174.006 107.446 173.588 106.965 173.062C106.485 172.536 106.122 171.914 105.902 171.236C105.682 170.559 105.609 169.842 105.688 169.134L106.879 155.493C107.032 153.982 107.737 152.58 108.859 151.555C109.981 150.53 111.441 149.953 112.961 149.936H212.706C213.418 149.923 214.125 150.062 214.779 150.343C215.434 150.624 216.021 151.042 216.501 151.568C216.981 152.094 217.343 152.716 217.564 153.392C217.785 154.069 217.859 154.785 217.781 155.493L216.59 169.134C216.437 170.643 215.735 172.042 214.616 173.067C213.498 174.091 212.042 174.669 210.525 174.691Z" fill="white"/>
<path opacity="0.5" d="M208.17 201.522H108.434C107.722 201.535 107.014 201.396 106.36 201.115C105.705 200.833 105.118 200.416 104.637 199.89C104.156 199.365 103.793 198.743 103.571 198.066C103.349 197.389 103.274 196.673 103.351 195.965L104.55 182.324C104.704 180.812 105.409 179.411 106.53 178.386C107.652 177.361 109.113 176.784 110.633 176.766H210.343C211.055 176.754 211.762 176.892 212.416 177.174C213.07 177.455 213.657 177.873 214.137 178.399C214.617 178.925 214.98 179.547 215.2 180.223C215.421 180.9 215.495 181.616 215.417 182.324L214.218 195.965C214.065 197.47 213.365 198.867 212.251 199.892C211.136 200.916 209.684 201.496 208.17 201.522Z" fill="white"/>
<path opacity="0.5" d="M205.824 228.362H106.062C105.35 228.374 104.644 228.234 103.991 227.952C103.337 227.67 102.751 227.252 102.271 226.727C101.791 226.201 101.429 225.58 101.207 224.904C100.986 224.228 100.911 223.512 100.988 222.805L102.187 209.155C102.34 207.644 103.045 206.242 104.167 205.217C105.289 204.192 106.749 203.616 108.269 203.598H208.023C208.735 203.583 209.443 203.721 210.098 204.002C210.753 204.283 211.34 204.701 211.82 205.227C212.301 205.753 212.663 206.376 212.884 207.053C213.104 207.73 213.177 208.447 213.097 209.155L211.837 222.805C211.683 224.304 210.988 225.695 209.881 226.718C208.774 227.741 207.332 228.326 205.824 228.362Z" fill="white"/>
<path d="M118.679 125.744C118.236 126.102 117.692 126.311 117.123 126.343L117.036 127.316H116.324L116.411 126.352C116.002 126.329 115.599 126.25 115.212 126.117C114.892 126.017 114.596 125.852 114.343 125.631L114.812 124.763C115.034 124.95 115.287 125.097 115.559 125.197C115.858 125.321 116.175 125.397 116.498 125.423L116.645 123.686C116.302 123.609 115.968 123.499 115.646 123.356C115.386 123.248 115.163 123.067 115.003 122.835C114.836 122.579 114.765 122.271 114.803 121.967C114.821 121.736 114.885 121.511 114.991 121.306C115.097 121.1 115.243 120.917 115.42 120.769C115.856 120.411 116.395 120.204 116.958 120.178L117.045 119.197H117.758L117.671 120.161C117.989 120.176 118.305 120.232 118.609 120.326C118.886 120.41 119.149 120.533 119.391 120.691L118.957 121.559C118.537 121.308 118.069 121.148 117.584 121.09L117.436 122.827C117.781 122.904 118.118 123.011 118.444 123.148C118.705 123.255 118.93 123.432 119.096 123.66C119.271 123.93 119.342 124.254 119.296 124.572C119.253 125.029 119.031 125.45 118.679 125.744ZM116.115 122.332C116.302 122.471 116.515 122.571 116.741 122.627L116.871 121.081C116.621 121.106 116.382 121.203 116.185 121.359C116.034 121.489 115.94 121.673 115.924 121.871C115.912 121.958 115.923 122.047 115.956 122.128C115.99 122.209 116.045 122.279 116.115 122.332ZM117.914 125.128C117.989 125.067 118.051 124.992 118.096 124.907C118.141 124.822 118.167 124.729 118.175 124.633C118.187 124.543 118.176 124.452 118.142 124.369C118.109 124.285 118.054 124.211 117.984 124.155C117.79 124.016 117.572 123.916 117.341 123.86L117.21 125.379C117.463 125.361 117.707 125.274 117.914 125.128Z" fill="#263238"/>
<path d="M124.866 120.169L124.336 126.248H123.206L123.658 121.116H122.337L122.416 120.169H124.866Z" fill="#263238"/>
<path d="M128.176 120.169L127.646 126.248H126.517L126.969 121.116H125.683L125.761 120.169H128.176Z" fill="#263238"/>
<path d="M130.157 125.093C130.219 125.163 130.265 125.246 130.292 125.336C130.319 125.426 130.327 125.521 130.314 125.614C130.303 125.712 130.28 125.808 130.244 125.9C130.186 126.057 130.119 126.211 130.044 126.361L129.497 127.585H128.793L129.288 126.248C129.17 126.198 129.071 126.109 129.01 125.996C128.947 125.876 128.923 125.74 128.941 125.605C128.95 125.409 129.034 125.225 129.177 125.09C129.32 124.956 129.509 124.882 129.705 124.884C129.791 124.887 129.875 124.907 129.952 124.943C130.03 124.979 130.1 125.03 130.157 125.093Z" fill="#263238"/>
<path d="M135.545 125.318L135.467 126.274H131.026L131.096 125.518L133.703 123.226C133.941 123.031 134.146 122.8 134.311 122.54C134.417 122.366 134.482 122.17 134.502 121.967C134.522 121.848 134.512 121.726 134.472 121.612C134.433 121.499 134.365 121.397 134.276 121.315C134.035 121.148 133.744 121.069 133.451 121.09C133.173 121.077 132.895 121.127 132.639 121.237C132.383 121.347 132.156 121.513 131.973 121.724L131.235 121.116C131.511 120.788 131.863 120.532 132.26 120.369C132.696 120.192 133.163 120.103 133.633 120.109C134.186 120.074 134.732 120.241 135.171 120.577C135.353 120.732 135.492 120.931 135.575 121.154C135.659 121.377 135.684 121.618 135.649 121.854C135.626 122.177 135.531 122.492 135.371 122.774C135.134 123.147 134.841 123.481 134.502 123.764L132.764 125.31L135.545 125.318Z" fill="#263238"/>
<path d="M140.255 123.278C140.39 123.439 140.49 123.626 140.549 123.828C140.607 124.03 140.622 124.242 140.593 124.45C140.568 124.797 140.447 125.131 140.246 125.414C140.022 125.715 139.722 125.952 139.377 126.1C138.952 126.284 138.493 126.373 138.03 126.361C137.608 126.364 137.189 126.3 136.788 126.17C136.431 126.063 136.097 125.889 135.806 125.657L136.37 124.789C136.593 124.984 136.853 125.132 137.135 125.223C137.444 125.335 137.771 125.391 138.1 125.388C138.439 125.403 138.775 125.316 139.064 125.136C139.178 125.064 139.274 124.965 139.343 124.849C139.413 124.733 139.454 124.603 139.464 124.468C139.483 124.342 139.469 124.214 139.421 124.096C139.374 123.979 139.296 123.876 139.194 123.799C138.904 123.618 138.563 123.535 138.221 123.565H137.665L137.735 122.792L139.264 121.151H136.501L136.579 120.204H140.724L140.663 120.96L139.029 122.696C139.497 122.729 139.934 122.937 140.255 123.278Z" fill="#263238"/>
<path d="M146.719 124.893H145.642L145.52 126.274H144.426L144.547 124.893H141.21L141.28 124.112L144.617 120.196H145.798L142.644 123.938H144.634L144.747 122.714H145.798L145.685 123.938H146.763L146.719 124.893Z" fill="#263238"/>
<path d="M148.544 125.093C148.607 125.163 148.653 125.246 148.679 125.336C148.704 125.427 148.709 125.521 148.692 125.614C148.688 125.712 148.668 125.809 148.631 125.9C148.573 126.057 148.506 126.211 148.431 126.361L147.884 127.585H147.18L147.641 126.256C147.522 126.207 147.424 126.118 147.363 126.005C147.3 125.884 147.273 125.749 147.284 125.614C147.299 125.414 147.389 125.228 147.536 125.093C147.677 124.961 147.865 124.889 148.058 124.893C148.148 124.89 148.239 124.907 148.322 124.941C148.406 124.975 148.482 125.027 148.544 125.093Z" fill="#263238"/>
<path d="M153.453 123.043C153.642 123.212 153.787 123.425 153.874 123.663C153.962 123.9 153.991 124.156 153.957 124.407C153.927 124.754 153.811 125.088 153.618 125.379C153.396 125.687 153.096 125.929 152.749 126.083C152.322 126.266 151.859 126.355 151.394 126.343C150.972 126.347 150.553 126.282 150.151 126.152C149.793 126.049 149.459 125.875 149.169 125.64L149.726 124.771C149.953 124.965 150.215 125.112 150.499 125.206C150.808 125.318 151.135 125.374 151.463 125.371C151.803 125.386 152.139 125.298 152.428 125.119C152.543 125.045 152.639 124.946 152.709 124.828C152.778 124.71 152.819 124.578 152.828 124.442C152.849 124.306 152.832 124.168 152.778 124.042C152.724 123.916 152.636 123.808 152.523 123.729C152.138 123.541 151.709 123.46 151.281 123.495H149.795L150.395 120.187H153.966L153.888 121.133H151.281L151.02 122.54H151.602C152.259 122.486 152.914 122.664 153.453 123.043Z" fill="#263238"/>
<path d="M155.765 126.196C155.716 125.827 155.716 125.453 155.765 125.084C155.796 124.703 155.875 124.326 156 123.964C156.11 123.639 156.268 123.331 156.469 123.052H156.99C156.79 123.352 156.629 123.676 156.512 124.016C156.397 124.362 156.325 124.721 156.295 125.084C156.251 125.439 156.251 125.798 156.295 126.152C156.35 126.486 156.452 126.811 156.599 127.116H156.078C155.922 126.829 155.816 126.518 155.765 126.196Z" fill="#263238"/>
<path d="M159.64 125.579H159.102L159.041 126.274H158.493L158.554 125.579H156.886V125.189L158.554 123.235H159.162L157.59 125.102H158.58L158.632 124.494H159.162L159.11 125.102H159.701L159.64 125.579Z" fill="#263238"/>
<path d="M160.005 126.247C159.972 126.213 159.947 126.172 159.932 126.127C159.917 126.082 159.912 126.034 159.918 125.987C159.926 125.888 159.969 125.796 160.04 125.727C160.113 125.659 160.21 125.622 160.309 125.623C160.355 125.621 160.401 125.63 160.443 125.648C160.485 125.666 160.522 125.693 160.553 125.727C160.583 125.762 160.606 125.804 160.619 125.849C160.633 125.894 160.637 125.941 160.631 125.987C160.623 126.086 160.58 126.178 160.509 126.247C160.435 126.313 160.339 126.347 160.24 126.343C160.196 126.346 160.152 126.339 160.111 126.322C160.071 126.306 160.034 126.28 160.005 126.247Z" fill="#263238"/>
<path d="M161.543 126.135C161.356 126.003 161.216 125.814 161.144 125.597C161.043 125.319 161.01 125.021 161.048 124.728C161.06 124.424 161.144 124.126 161.291 123.86C161.407 123.641 161.577 123.455 161.787 123.322C161.988 123.2 162.22 123.137 162.456 123.139C162.681 123.135 162.902 123.198 163.09 123.322C163.28 123.453 163.424 123.641 163.498 123.86C163.595 124.139 163.627 124.435 163.594 124.728C163.573 125.031 163.49 125.327 163.351 125.597C163.235 125.819 163.061 126.005 162.847 126.135C162.645 126.257 162.413 126.32 162.178 126.317C161.953 126.322 161.731 126.258 161.543 126.135ZM162.76 125.553C162.928 125.32 163.019 125.041 163.021 124.754C163.068 124.479 163.025 124.196 162.899 123.947C162.85 123.862 162.779 123.792 162.693 123.745C162.607 123.697 162.51 123.674 162.412 123.678C162.308 123.679 162.205 123.703 162.112 123.75C162.018 123.797 161.937 123.864 161.874 123.947C161.714 124.186 161.626 124.467 161.622 124.754C161.575 125.026 161.615 125.305 161.735 125.553C161.783 125.638 161.855 125.708 161.94 125.755C162.026 125.803 162.123 125.826 162.221 125.822C162.326 125.825 162.43 125.802 162.524 125.755C162.618 125.708 162.699 125.639 162.76 125.553Z" fill="#263238"/>
<path d="M165.88 124.659C165.975 124.742 166.048 124.847 166.092 124.965C166.136 125.084 166.15 125.211 166.132 125.336C166.115 125.513 166.055 125.682 165.958 125.831C165.846 125.985 165.697 126.108 165.523 126.187C165.309 126.278 165.078 126.323 164.846 126.317C164.633 126.317 164.423 126.284 164.22 126.222C164.042 126.169 163.876 126.08 163.733 125.961L164.011 125.527C164.123 125.624 164.253 125.698 164.394 125.744C164.551 125.797 164.715 125.823 164.88 125.822C165.049 125.833 165.216 125.791 165.358 125.701C165.417 125.665 165.466 125.615 165.501 125.556C165.536 125.497 165.555 125.431 165.558 125.362C165.57 125.295 165.563 125.226 165.537 125.162C165.51 125.099 165.467 125.045 165.41 125.006C165.217 124.91 165.001 124.867 164.785 124.885H164.046L164.342 123.235H166.132L166.088 123.704H164.785L164.654 124.407H164.95C165.28 124.376 165.61 124.465 165.88 124.659Z" fill="#263238"/>
<path d="M166.653 124.641C166.53 124.464 166.477 124.248 166.505 124.034C166.519 123.811 166.608 123.6 166.757 123.435C166.826 123.359 166.911 123.299 167.005 123.258C167.1 123.218 167.202 123.198 167.304 123.2C167.402 123.196 167.5 123.215 167.589 123.255C167.678 123.296 167.756 123.358 167.817 123.435C167.943 123.607 167.996 123.822 167.965 124.034C167.951 124.26 167.859 124.475 167.704 124.641C167.634 124.716 167.549 124.775 167.455 124.814C167.36 124.853 167.259 124.871 167.157 124.867C167.061 124.873 166.964 124.856 166.877 124.817C166.789 124.777 166.712 124.717 166.653 124.641ZM167.478 124.424C167.558 124.309 167.603 124.174 167.609 124.034C167.621 123.898 167.59 123.761 167.522 123.643C167.495 123.598 167.456 123.562 167.411 123.537C167.365 123.513 167.313 123.501 167.261 123.504C167.205 123.505 167.15 123.519 167.1 123.544C167.051 123.57 167.007 123.607 166.974 123.652C166.893 123.763 166.848 123.896 166.844 124.034C166.822 124.168 166.846 124.306 166.913 124.424C166.938 124.469 166.975 124.506 167.019 124.53C167.064 124.555 167.114 124.566 167.165 124.563C167.221 124.564 167.275 124.552 167.325 124.528C167.375 124.504 167.418 124.468 167.452 124.424H167.478ZM169.129 123.235H169.555L167.209 126.274H166.783L169.129 123.235ZM168.521 126.074C168.398 125.897 168.345 125.68 168.373 125.466C168.392 125.245 168.48 125.035 168.625 124.867C168.694 124.791 168.779 124.731 168.874 124.691C168.968 124.65 169.07 124.631 169.173 124.633C169.271 124.628 169.368 124.647 169.457 124.688C169.546 124.729 169.625 124.79 169.685 124.867C169.806 125.042 169.859 125.255 169.833 125.466C169.82 125.692 169.731 125.906 169.581 126.074C169.509 126.148 169.422 126.206 169.327 126.245C169.231 126.284 169.128 126.303 169.025 126.3C168.925 126.311 168.823 126.295 168.73 126.256C168.638 126.216 168.557 126.154 168.495 126.074H168.521ZM169.338 125.857C169.421 125.743 169.47 125.607 169.477 125.466C169.499 125.335 169.474 125.2 169.407 125.084C169.382 125.037 169.345 124.999 169.298 124.972C169.252 124.946 169.2 124.934 169.147 124.937C169.092 124.938 169.037 124.951 168.988 124.975C168.938 124.999 168.895 125.033 168.86 125.076C168.783 125.192 168.738 125.327 168.729 125.466C168.708 125.6 168.729 125.736 168.79 125.857C168.818 125.902 168.858 125.939 168.906 125.964C168.953 125.988 169.006 125.999 169.06 125.996C169.109 125.993 169.158 125.979 169.202 125.955C169.245 125.931 169.283 125.898 169.312 125.857H169.338Z" fill="#263238"/>
<path d="M169.815 127.116C170.011 126.811 170.171 126.485 170.293 126.144C170.407 125.8 170.48 125.445 170.511 125.084C170.555 124.73 170.555 124.371 170.511 124.016C170.456 123.682 170.353 123.358 170.206 123.052H170.719C170.875 123.336 170.981 123.645 171.032 123.964C171.095 124.334 171.109 124.711 171.075 125.084C171.044 125.466 170.966 125.842 170.841 126.204C170.731 126.532 170.57 126.84 170.363 127.116H169.815Z" fill="#263238"/>
<path d="M182.224 249.74H125.917C125.205 249.753 124.498 249.614 123.844 249.332C123.19 249.051 122.603 248.633 122.123 248.108C121.643 247.582 121.28 246.96 121.059 246.283C120.839 245.606 120.765 244.89 120.843 244.183L121.19 240.24C121.346 238.73 122.051 237.329 123.173 236.305C124.294 235.28 125.753 234.703 127.273 234.683H183.571C184.283 234.67 184.99 234.809 185.644 235.091C186.298 235.372 186.885 235.79 187.365 236.315C187.845 236.841 188.208 237.463 188.429 238.14C188.649 238.817 188.723 239.533 188.645 240.24L188.307 244.183C188.153 245.694 187.448 247.096 186.326 248.121C185.204 249.146 183.744 249.722 182.224 249.74Z" fill="#407BFF"/>
<path d="M137.795 242.776C137.976 243.06 138.05 243.398 138.004 243.731C137.99 243.977 137.918 244.216 137.794 244.429C137.67 244.641 137.498 244.822 137.291 244.955C136.74 245.271 136.109 245.419 135.475 245.381H132.451L132.99 239.303H135.84C136.411 239.263 136.979 239.413 137.456 239.728C137.637 239.853 137.782 240.025 137.873 240.225C137.965 240.426 138.001 240.647 137.978 240.866C137.956 241.151 137.86 241.427 137.7 241.665C137.541 241.895 137.325 242.08 137.074 242.203C137.371 242.309 137.625 242.51 137.795 242.776ZM134.041 240.171L133.894 241.847H135.492C135.816 241.865 136.138 241.793 136.422 241.638C136.528 241.571 136.617 241.479 136.681 241.37C136.744 241.261 136.781 241.139 136.787 241.013C136.807 240.895 136.794 240.774 136.747 240.663C136.701 240.552 136.625 240.457 136.526 240.388C136.266 240.228 135.963 240.152 135.658 240.171H134.041ZM136.874 243.601C136.926 243.019 136.518 242.733 135.64 242.733H133.815L133.659 244.469H135.484C136.361 244.495 136.822 244.2 136.874 243.618V243.601Z" fill="white"/>
<path d="M139.776 244.765C139.549 244.483 139.384 244.156 139.293 243.806C139.201 243.455 139.185 243.09 139.246 242.733L139.55 239.303H140.68L140.385 242.689C140.28 243.879 140.741 244.478 141.775 244.478C142.809 244.478 143.365 243.879 143.469 242.689L143.765 239.303H144.877L144.573 242.733C144.55 243.495 144.24 244.221 143.704 244.765C143.149 245.251 142.426 245.503 141.688 245.468C141.337 245.495 140.985 245.446 140.655 245.325C140.325 245.204 140.026 245.012 139.776 244.765Z" fill="white"/>
<path d="M148.648 243.236L148.457 245.381H147.327L147.519 243.254L145.477 239.303H146.667L148.188 242.264L150.247 239.303H151.359L148.648 243.236Z" fill="white"/>
<path d="M159.919 239.303L159.38 245.381H158.45L155.461 241.265L155.096 245.381H153.975L154.514 239.303H155.444L158.433 243.419L158.798 239.303H159.919Z" fill="white"/>
<path d="M162.212 245.069C161.748 244.814 161.372 244.423 161.135 243.949C160.888 243.451 160.789 242.894 160.848 242.342C160.896 241.77 161.091 241.22 161.413 240.744C161.737 240.272 162.173 239.887 162.682 239.624C163.219 239.349 163.816 239.209 164.42 239.216C164.991 239.206 165.554 239.346 166.053 239.624C166.517 239.877 166.892 240.265 167.131 240.736C167.378 241.233 167.478 241.79 167.417 242.342C167.371 242.917 167.176 243.471 166.853 243.949C166.529 244.421 166.093 244.806 165.584 245.069C165.046 245.342 164.449 245.48 163.846 245.468C163.276 245.481 162.712 245.343 162.212 245.069ZM165.054 244.2C165.396 244.016 165.686 243.748 165.897 243.422C166.108 243.095 166.234 242.721 166.262 242.333C166.302 241.959 166.239 241.58 166.079 241.239C165.93 240.92 165.688 240.654 165.384 240.475C165.059 240.288 164.69 240.192 164.315 240.197C163.924 240.194 163.539 240.29 163.194 240.475C162.853 240.659 162.564 240.925 162.353 241.25C162.142 241.575 162.016 241.947 161.987 242.333C161.947 242.711 162.01 243.092 162.169 243.436C162.32 243.754 162.562 244.02 162.864 244.2C163.192 244.386 163.565 244.479 163.942 244.47C164.328 244.477 164.711 244.388 165.054 244.209V244.2Z" fill="white"/>
<path d="M177.566 239.303L175.012 245.381H173.813L172.735 240.866L170.806 245.364H169.598L168.121 239.285H169.259L170.363 243.905L172.344 239.285H173.387L174.516 243.931L176.48 239.285L177.566 239.303Z" fill="white"/>
<path d="M137.239 162.795C137.381 163.023 137.44 163.293 137.404 163.559C137.394 163.757 137.336 163.949 137.236 164.119C137.137 164.29 136.997 164.434 136.831 164.541C136.393 164.791 135.892 164.908 135.388 164.879H132.964L133.39 160.017H135.675C136.132 159.984 136.587 160.103 136.97 160.355C137.111 160.461 137.222 160.604 137.289 160.767C137.356 160.931 137.378 161.11 137.352 161.284C137.337 161.511 137.262 161.73 137.135 161.918C137.009 162.103 136.839 162.252 136.639 162.352C136.884 162.427 137.096 162.584 137.239 162.795ZM134.232 160.729L134.12 162.066H135.371C135.628 162.081 135.884 162.024 136.109 161.901C136.196 161.848 136.269 161.774 136.321 161.686C136.372 161.598 136.401 161.499 136.405 161.397C136.422 161.302 136.412 161.204 136.375 161.115C136.338 161.026 136.276 160.949 136.196 160.894C135.981 160.767 135.733 160.709 135.484 160.729H134.232ZM136.5 163.473C136.544 163.004 136.214 162.769 135.519 162.769H134.059L133.928 164.176H135.371C136.092 164.176 136.466 163.941 136.5 163.473Z" fill="#263238"/>
<path d="M139.533 160.781H137.917L137.986 160.016H142.113L142.053 160.781H140.436L140.08 164.879H139.211L139.533 160.781Z" fill="#263238"/>
<path d="M143.244 164.627C142.875 164.43 142.572 164.128 142.375 163.759C142.179 163.361 142.101 162.915 142.149 162.474C142.185 162.014 142.341 161.571 142.601 161.189C142.863 160.82 143.212 160.521 143.618 160.32C144.038 160.109 144.502 159.998 144.973 159.999C145.343 159.994 145.71 160.065 146.051 160.208C146.358 160.341 146.627 160.55 146.833 160.815L146.198 161.362C146.048 161.177 145.857 161.029 145.64 160.93C145.423 160.831 145.186 160.783 144.947 160.789C144.641 160.781 144.337 160.847 144.061 160.98C143.785 161.119 143.551 161.329 143.383 161.588C143.215 161.849 143.113 162.147 143.088 162.456C143.057 162.754 143.108 163.054 143.235 163.325C143.356 163.581 143.553 163.794 143.8 163.933C144.065 164.082 144.365 164.157 144.669 164.15C144.921 164.151 145.17 164.1 145.402 164.002C145.633 163.903 145.842 163.759 146.016 163.577L146.555 164.132C146.31 164.391 146.014 164.595 145.686 164.731C145.332 164.873 144.954 164.944 144.573 164.94C144.11 164.956 143.652 164.848 143.244 164.627Z" fill="#263238"/>
<path d="M134.337 190.955L134.267 191.71H130.618L131.043 186.848H134.597L134.528 187.612H131.921L131.817 188.871H134.163L134.093 189.618H131.747L131.634 190.955H134.337Z" fill="#263238"/>
<path d="M136.623 187.612H135.006L135.076 186.848H139.203L139.134 187.612H137.526L137.17 191.71H136.301L136.623 187.612Z" fill="#263238"/>
<path d="M144.208 186.848L143.782 191.71H142.913L143.096 189.626H140.585L140.402 191.71H139.533L139.959 186.848H140.828L140.645 188.862H143.165L143.339 186.848H144.208Z" fill="#263238"/>
<path d="M128.697 213.679H129.566L129.201 217.786H131.747L131.678 218.541H128.202L128.697 213.679Z" fill="#263238"/>
<path d="M133.329 214.443H131.713L131.782 213.679H135.91L135.84 214.443H134.233L133.868 218.541H132.999L133.329 214.443Z" fill="#263238"/>
<path d="M137.039 218.289C136.671 218.091 136.369 217.789 136.171 217.421C135.976 217.023 135.897 216.577 135.945 216.136C135.979 215.675 136.134 215.232 136.396 214.851C136.656 214.48 137.006 214.181 137.413 213.983C137.831 213.763 138.297 213.649 138.769 213.653C139.138 213.647 139.505 213.718 139.846 213.861C140.149 213.998 140.415 214.207 140.619 214.469L139.994 215.016C139.842 214.833 139.65 214.688 139.433 214.59C139.216 214.492 138.98 214.445 138.743 214.451C138.44 214.453 138.142 214.528 137.874 214.669C137.596 214.811 137.359 215.024 137.189 215.286C137.018 215.548 136.919 215.85 136.9 216.162C136.866 216.459 136.915 216.759 137.039 217.03C137.165 217.283 137.361 217.494 137.604 217.638C137.87 217.785 138.17 217.86 138.473 217.855C138.726 217.856 138.977 217.806 139.21 217.708C139.443 217.609 139.653 217.464 139.829 217.282L140.359 217.838C140.119 218.101 139.822 218.306 139.49 218.437C139.137 218.581 138.759 218.654 138.378 218.654C137.906 218.659 137.443 218.532 137.039 218.289Z" fill="#263238"/>
<path d="M181.859 164.454C181.504 164.736 181.07 164.903 180.617 164.931L180.547 165.704H179.982L180.052 164.931C179.723 164.916 179.398 164.855 179.087 164.749C178.831 164.668 178.594 164.535 178.392 164.358L178.766 163.655C178.946 163.804 179.148 163.924 179.365 164.011C179.605 164.104 179.856 164.163 180.113 164.185L180.234 162.795C179.96 162.733 179.693 162.646 179.435 162.535C179.228 162.444 179.048 162.3 178.913 162.118C178.775 161.902 178.72 161.643 178.757 161.389C178.79 161.018 178.968 160.674 179.252 160.433C179.604 160.15 180.036 159.986 180.486 159.965L180.556 159.174H181.121L181.051 159.947C181.307 159.964 181.56 160.007 181.807 160.077C182.026 160.146 182.234 160.245 182.424 160.373L182.085 161.076C181.751 160.872 181.378 160.742 180.99 160.694L180.869 162.101C181.145 162.164 181.415 162.251 181.677 162.361C181.884 162.448 182.064 162.589 182.198 162.769C182.336 162.986 182.392 163.245 182.354 163.499C182.322 163.87 182.144 164.213 181.859 164.454ZM179.808 161.719C179.957 161.832 180.129 161.912 180.312 161.953L180.417 160.72C180.217 160.739 180.028 160.815 179.869 160.937C179.807 160.988 179.757 161.052 179.721 161.123C179.685 161.195 179.664 161.274 179.661 161.354C179.649 161.424 179.657 161.495 179.683 161.561C179.709 161.627 179.752 161.684 179.808 161.727V161.719ZM181.251 163.959C181.352 163.86 181.414 163.727 181.425 163.585C181.436 163.514 181.427 163.44 181.4 163.373C181.372 163.305 181.327 163.247 181.268 163.203C181.116 163.09 180.941 163.01 180.756 162.969L180.651 164.193C180.868 164.176 181.076 164.097 181.251 163.967V163.959Z" fill="#263238"/>
<path d="M186.812 160.016L186.386 164.879H185.517L185.874 160.772H184.813L184.883 160.016H186.812Z" fill="#263238"/>
<path d="M189.462 160.016L189.037 164.879H188.168L188.524 160.772H187.507L187.568 160.016H189.462Z" fill="#263238"/>
<path d="M191.035 163.933C191.083 163.99 191.119 164.056 191.14 164.128C191.161 164.2 191.167 164.276 191.156 164.35C191.151 164.43 191.134 164.509 191.104 164.584C191.062 164.71 191.01 164.832 190.948 164.949L190.505 165.93H189.94L190.314 164.871C190.22 164.829 190.141 164.759 190.088 164.671C190.039 164.571 190.021 164.46 190.036 164.35C190.038 164.272 190.055 164.196 190.087 164.125C190.119 164.054 190.164 163.99 190.221 163.937C190.277 163.884 190.344 163.842 190.416 163.815C190.489 163.787 190.566 163.774 190.644 163.777C190.716 163.773 190.789 163.785 190.856 163.812C190.924 163.839 190.985 163.88 191.035 163.933Z" fill="#263238"/>
<path d="M195.327 164.115L195.266 164.879H191.678L191.73 164.28L193.824 162.439C194.011 162.284 194.175 162.103 194.311 161.901C194.401 161.76 194.455 161.599 194.467 161.432C194.481 161.337 194.472 161.24 194.44 161.149C194.409 161.058 194.355 160.976 194.285 160.911C194.09 160.781 193.858 160.72 193.624 160.737C193.402 160.728 193.181 160.768 192.976 160.855C192.771 160.942 192.589 161.074 192.442 161.241L191.852 160.755C192.072 160.495 192.352 160.292 192.668 160.164C193.017 160.016 193.393 159.942 193.772 159.947C194.214 159.923 194.651 160.055 195.006 160.321C195.149 160.447 195.258 160.607 195.325 160.785C195.392 160.964 195.413 161.156 195.388 161.345C195.362 161.608 195.282 161.862 195.154 162.092C194.962 162.391 194.724 162.657 194.45 162.882L193.033 164.115H195.327Z" fill="#263238"/>
<path d="M199.125 162.483C199.231 162.612 199.31 162.762 199.356 162.924C199.403 163.085 199.416 163.254 199.394 163.42C199.37 163.699 199.271 163.966 199.108 164.193C198.933 164.44 198.692 164.633 198.412 164.749C198.071 164.888 197.704 164.956 197.335 164.949C196.999 164.949 196.665 164.899 196.344 164.801C196.055 164.717 195.786 164.575 195.554 164.384L196.006 163.689C196.185 163.846 196.395 163.965 196.622 164.037C196.868 164.124 197.127 164.168 197.387 164.167C197.659 164.18 197.929 164.11 198.16 163.967C198.254 163.91 198.331 163.831 198.387 163.738C198.443 163.644 198.476 163.538 198.482 163.429C198.496 163.329 198.484 163.228 198.446 163.135C198.407 163.041 198.345 162.96 198.265 162.899C198.036 162.751 197.763 162.683 197.491 162.708H197.066L197.118 162.092L198.334 160.772H196.11L196.171 160.016H199.49L199.438 160.624L198.134 162.022C198.51 162.048 198.863 162.212 199.125 162.483Z" fill="#263238"/>
<path d="M204.295 163.776H203.426L203.331 164.879H202.462L202.557 163.776H199.881L199.942 163.151L202.609 160.016H203.574L201.054 163.012H202.653L202.731 162.031H203.6L203.513 163.012H204.382L204.295 163.776Z" fill="#263238"/>
<path d="M205.755 163.933C205.849 164.05 205.892 164.2 205.877 164.349C205.868 164.429 205.85 164.508 205.825 164.584C205.778 164.709 205.723 164.831 205.659 164.948L205.225 165.93H204.66L205.034 164.87C204.938 164.831 204.859 164.761 204.808 164.671C204.756 164.572 204.735 164.46 204.747 164.349C204.759 164.19 204.83 164.041 204.947 163.933C205.06 163.828 205.21 163.772 205.364 163.776C205.436 163.774 205.508 163.787 205.576 163.814C205.643 163.841 205.704 163.881 205.755 163.933Z" fill="#263238"/>
<path d="M209.682 162.3C209.833 162.435 209.948 162.604 210.017 162.793C210.087 162.982 210.109 163.186 210.082 163.386C210.059 163.67 209.96 163.943 209.795 164.176C209.621 164.426 209.38 164.621 209.1 164.74C208.76 164.887 208.393 164.958 208.023 164.949C207.684 164.948 207.347 164.898 207.023 164.801C206.736 164.719 206.469 164.577 206.241 164.384L206.684 163.689C206.866 163.844 207.075 163.962 207.301 164.037C207.55 164.124 207.811 164.168 208.075 164.167C208.347 164.178 208.616 164.109 208.848 163.967C208.94 163.907 209.017 163.826 209.072 163.731C209.128 163.636 209.161 163.53 209.17 163.42C209.186 163.312 209.171 163.201 209.126 163.101C209.082 163.001 209.009 162.916 208.918 162.856C208.612 162.7 208.269 162.633 207.927 162.665H206.754L207.232 160.016H210.099L210.03 160.772H207.944L207.736 161.901H208.205C208.729 161.854 209.253 161.996 209.682 162.3Z" fill="#263238"/>
<path d="M179.513 191.293C179.157 191.575 178.723 191.741 178.27 191.771L178.201 192.544H177.627L177.697 191.78C177.371 191.758 177.05 191.694 176.741 191.589C176.485 191.508 176.248 191.375 176.046 191.198L176.42 190.495C176.595 190.646 176.795 190.766 177.01 190.851C177.253 190.943 177.508 191.001 177.766 191.024L177.888 189.635C177.614 189.573 177.346 189.486 177.089 189.375C176.88 189.286 176.7 189.142 176.567 188.958C176.43 188.744 176.374 188.488 176.411 188.237C176.443 187.863 176.621 187.517 176.906 187.273C177.255 186.991 177.684 186.827 178.131 186.804L178.201 186.014H178.818L178.748 186.787C179.001 186.804 179.252 186.847 179.496 186.917C179.718 186.984 179.929 187.083 180.121 187.213L179.774 187.916C179.442 187.708 179.068 187.581 178.679 187.542L178.557 188.94C178.834 189.001 179.105 189.088 179.365 189.201C179.575 189.283 179.756 189.425 179.887 189.609C180.032 189.823 180.091 190.083 180.052 190.338C180.03 190.525 179.971 190.706 179.879 190.87C179.786 191.034 179.662 191.178 179.513 191.293ZM177.462 188.558C177.608 188.672 177.777 188.752 177.958 188.793L178.071 187.56C177.869 187.578 177.679 187.657 177.523 187.786C177.461 187.835 177.41 187.897 177.372 187.967C177.335 188.037 177.312 188.114 177.306 188.194C177.3 188.263 177.312 188.332 177.339 188.395C177.366 188.459 177.409 188.515 177.462 188.558ZM178.896 190.798C179.018 190.699 179.096 190.556 179.113 190.399C179.121 190.329 179.111 190.257 179.083 190.192C179.056 190.127 179.012 190.07 178.957 190.026C178.805 189.909 178.63 189.826 178.444 189.783L178.331 191.016C178.535 190.993 178.73 190.919 178.896 190.798Z" fill="#263238"/>
<path d="M184.465 186.848L184.04 191.71H183.171L183.527 187.612H182.467L182.528 186.848H184.465Z" fill="#263238"/>
<path d="M186.013 191.484C185.708 191.272 185.48 190.968 185.361 190.616C185.213 190.184 185.163 189.724 185.213 189.27C185.249 188.803 185.379 188.348 185.595 187.933C185.781 187.579 186.057 187.279 186.395 187.065C186.717 186.871 187.087 186.768 187.464 186.77C187.824 186.764 188.179 186.867 188.48 187.065C188.785 187.277 189.013 187.581 189.132 187.933C189.287 188.361 189.338 188.819 189.28 189.27C189.25 189.741 189.119 190.2 188.897 190.616C188.715 190.973 188.439 191.273 188.098 191.484C187.777 191.682 187.406 191.785 187.029 191.78C186.668 191.789 186.312 191.686 186.013 191.484ZM187.959 190.564C188.218 190.185 188.36 189.738 188.367 189.279C188.441 188.842 188.377 188.393 188.185 187.994C188.104 187.858 187.988 187.746 187.849 187.671C187.709 187.596 187.552 187.561 187.394 187.568C187.226 187.564 187.059 187.6 186.907 187.674C186.756 187.748 186.625 187.858 186.525 187.994C186.268 188.374 186.123 188.82 186.108 189.279C186.036 189.717 186.103 190.166 186.299 190.564C186.378 190.7 186.492 190.813 186.63 190.889C186.768 190.966 186.924 191.003 187.081 190.998C187.252 191.002 187.421 190.965 187.574 190.889C187.727 190.814 187.859 190.702 187.959 190.564Z" fill="#263238"/>
<path d="M190.635 190.773C190.685 190.829 190.722 190.895 190.743 190.968C190.764 191.04 190.769 191.115 190.757 191.189C190.747 191.266 190.73 191.342 190.705 191.415C190.663 191.541 190.61 191.663 190.549 191.78L190.114 192.761H189.549L189.923 191.702C189.827 191.662 189.748 191.592 189.697 191.502C189.646 191.406 189.624 191.297 189.636 191.189C189.648 191.03 189.719 190.881 189.836 190.773C189.891 190.718 189.956 190.675 190.027 190.647C190.099 190.619 190.176 190.605 190.253 190.608C190.325 190.606 190.396 190.62 190.462 190.648C190.528 190.677 190.588 190.719 190.635 190.773Z" fill="#263238"/>
<path d="M193.294 186.848L192.869 191.71H192L192.365 187.612H191.331L191.4 186.848H193.294Z" fill="#263238"/>
<path d="M195.944 186.848L195.518 191.71H194.65L195.015 187.612H193.98L194.05 186.848H195.944Z" fill="#263238"/>
<path d="M200.923 190.608H200.055L199.959 191.71H199.09L199.186 190.608H196.509L196.57 189.982L199.238 186.848H200.211L197.682 189.843H199.281L199.359 188.862H200.228L200.141 189.843H201.01L200.923 190.608Z" fill="#263238"/>
<path d="M202.383 190.772C202.433 190.829 202.469 190.895 202.49 190.967C202.511 191.039 202.516 191.115 202.505 191.189C202.495 191.266 202.477 191.341 202.453 191.415C202.406 191.54 202.351 191.662 202.287 191.78L201.853 192.761H201.288L201.662 191.701C201.566 191.662 201.487 191.592 201.436 191.502C201.384 191.406 201.363 191.297 201.375 191.189C201.379 191.11 201.399 191.032 201.433 190.961C201.467 190.889 201.516 190.825 201.575 190.772C201.629 190.718 201.695 190.675 201.766 190.647C201.838 190.618 201.915 190.605 201.992 190.607C202.065 190.605 202.138 190.618 202.206 190.647C202.273 190.675 202.334 190.718 202.383 190.772Z" fill="#263238"/>
<path d="M206.424 189.314C206.53 189.444 206.609 189.594 206.655 189.755C206.702 189.916 206.715 190.085 206.693 190.252C206.669 190.53 206.57 190.797 206.406 191.024C206.232 191.271 205.991 191.464 205.711 191.58C205.37 191.722 205.003 191.79 204.634 191.78C204.298 191.784 203.963 191.734 203.643 191.632C203.356 191.548 203.088 191.409 202.853 191.224L203.304 190.521C203.484 190.678 203.694 190.796 203.921 190.868C204.167 190.956 204.425 191 204.686 190.998C204.958 191.011 205.227 190.941 205.459 190.799C205.552 190.741 205.63 190.663 205.686 190.569C205.742 190.475 205.775 190.369 205.781 190.26C205.794 190.161 205.781 190.059 205.743 189.966C205.705 189.873 205.643 189.792 205.564 189.731C205.335 189.582 205.062 189.515 204.79 189.54H204.347L204.399 188.923L205.616 187.612H203.409L203.469 186.848H206.789L206.737 187.456L205.433 188.862C205.808 188.885 206.161 189.046 206.424 189.314Z" fill="#263238"/>
<path d="M177.158 218.125C176.803 218.408 176.369 218.574 175.916 218.602L175.855 219.375H175.281L175.351 218.611C175.025 218.589 174.704 218.525 174.395 218.42C174.139 218.339 173.902 218.206 173.7 218.029L174.073 217.335C174.251 217.48 174.451 217.597 174.664 217.682C174.902 217.779 175.155 217.838 175.412 217.856L175.533 216.466C175.26 216.403 174.992 216.316 174.734 216.206C174.529 216.115 174.352 215.971 174.221 215.789C174.08 215.577 174.022 215.321 174.056 215.068C174.088 214.695 174.266 214.348 174.551 214.104C174.903 213.822 175.335 213.658 175.785 213.635L175.855 212.845H176.419L176.359 213.618C176.612 213.635 176.862 213.679 177.106 213.748C177.328 213.815 177.539 213.914 177.732 214.044L177.384 214.747C177.052 214.542 176.677 214.414 176.289 214.374L176.211 215.772C176.488 215.832 176.759 215.92 177.019 216.032C177.227 216.122 177.407 216.266 177.54 216.449C177.683 216.66 177.739 216.918 177.697 217.17C177.679 217.358 177.622 217.54 177.529 217.705C177.436 217.869 177.31 218.012 177.158 218.125ZM175.107 215.389C175.256 215.503 175.428 215.583 175.611 215.624L175.716 214.391C175.515 214.413 175.326 214.491 175.168 214.617C175.05 214.721 174.975 214.867 174.96 215.025C174.951 215.093 174.96 215.163 174.985 215.227C175.011 215.29 175.053 215.347 175.107 215.389ZM176.55 217.63C176.611 217.582 176.662 217.522 176.698 217.453C176.734 217.384 176.755 217.308 176.758 217.23C176.769 217.161 176.761 217.089 176.735 217.024C176.709 216.958 176.666 216.901 176.611 216.857C176.453 216.746 176.276 216.663 176.089 216.614L175.985 217.847C176.189 217.823 176.383 217.749 176.55 217.63Z" fill="#263238"/>
<path d="M183.927 216.457C184.053 216.666 184.105 216.911 184.075 217.152C184.054 217.436 183.945 217.706 183.762 217.925C183.565 218.161 183.307 218.339 183.015 218.437C182.676 218.564 182.316 218.626 181.955 218.62C181.601 218.628 181.25 218.566 180.921 218.437C180.656 218.342 180.43 218.162 180.278 217.925C180.131 217.695 180.067 217.423 180.095 217.152C180.115 216.899 180.209 216.658 180.365 216.457C180.525 216.249 180.738 216.087 180.982 215.989C180.804 215.894 180.659 215.749 180.565 215.572C180.474 215.383 180.438 215.172 180.46 214.964C180.482 214.702 180.586 214.453 180.756 214.252C180.935 214.038 181.169 213.876 181.433 213.783C181.738 213.664 182.062 213.605 182.389 213.609C182.711 213.602 183.03 213.661 183.328 213.783C183.57 213.877 183.778 214.04 183.927 214.252C184.062 214.464 184.12 214.715 184.092 214.964C184.082 215.179 184.009 215.387 183.884 215.563C183.755 215.742 183.585 215.888 183.389 215.989C183.613 216.084 183.802 216.248 183.927 216.457ZM182.824 217.699C182.923 217.636 183.006 217.55 183.066 217.449C183.127 217.348 183.163 217.235 183.171 217.117C183.185 217.01 183.169 216.901 183.126 216.802C183.084 216.703 183.015 216.617 182.928 216.553C182.7 216.401 182.428 216.328 182.155 216.345C181.87 216.33 181.588 216.402 181.347 216.553C181.251 216.615 181.172 216.698 181.115 216.796C181.057 216.894 181.024 217.004 181.016 217.117C180.998 217.227 181.01 217.339 181.051 217.441C181.093 217.544 181.162 217.633 181.251 217.699C181.475 217.853 181.744 217.927 182.016 217.908C182.3 217.92 182.581 217.847 182.824 217.699ZM181.642 214.504C181.558 214.56 181.488 214.635 181.437 214.722C181.386 214.809 181.355 214.907 181.347 215.007C181.334 215.101 181.347 215.196 181.383 215.283C181.42 215.37 181.479 215.446 181.555 215.502C181.743 215.641 181.974 215.708 182.207 215.693C182.453 215.707 182.697 215.64 182.902 215.502C182.987 215.45 183.059 215.377 183.11 215.291C183.162 215.205 183.191 215.107 183.197 215.007C183.211 214.912 183.198 214.816 183.162 214.727C183.125 214.639 183.065 214.562 182.989 214.504C182.795 214.371 182.563 214.307 182.328 214.321C182.086 214.309 181.846 214.373 181.642 214.504Z" fill="#263238"/>
<path d="M185.639 217.603C185.689 217.659 185.727 217.726 185.75 217.798C185.772 217.869 185.779 217.945 185.769 218.02C185.759 218.097 185.742 218.173 185.717 218.246C185.717 218.333 185.63 218.454 185.552 218.619L185.109 219.592H184.553L184.918 218.533C184.826 218.49 184.75 218.42 184.7 218.333C184.648 218.238 184.627 218.128 184.64 218.02C184.644 217.941 184.663 217.863 184.698 217.792C184.732 217.72 184.78 217.656 184.839 217.603C184.894 217.549 184.959 217.506 185.031 217.478C185.103 217.449 185.179 217.436 185.257 217.438C185.329 217.435 185.4 217.449 185.467 217.477C185.533 217.506 185.592 217.549 185.639 217.603Z" fill="#263238"/>
<path d="M188.307 213.679L187.881 218.541H187.012L187.368 214.443H186.343L186.412 213.679H188.307Z" fill="#263238"/>
<path d="M190.983 213.679L190.557 218.541H189.688L190.044 214.443H189.019L189.08 213.679H190.983Z" fill="#263238"/>
<path d="M193.59 213.679L193.164 218.541H192.295L192.651 214.443H191.626L191.687 213.679H193.59Z" fill="#263238"/>
<path d="M195.18 217.603C195.229 217.66 195.266 217.726 195.287 217.798C195.308 217.87 195.313 217.946 195.301 218.02C195.291 218.097 195.274 218.173 195.249 218.246C195.206 218.374 195.154 218.499 195.093 218.619L194.65 219.592H194.085L194.459 218.533C194.365 218.491 194.286 218.421 194.233 218.333C194.183 218.237 194.165 218.127 194.181 218.02C194.183 217.942 194.201 217.864 194.234 217.793C194.267 217.721 194.314 217.657 194.372 217.603C194.426 217.549 194.491 217.506 194.563 217.478C194.635 217.449 194.712 217.436 194.789 217.438C194.862 217.434 194.936 217.447 195.004 217.475C195.071 217.504 195.132 217.548 195.18 217.603Z" fill="#263238"/>
<path d="M199.499 217.786L199.438 218.541H195.849L195.901 217.942L197.995 216.11C198.185 215.955 198.35 215.77 198.482 215.563C198.564 215.421 198.617 215.265 198.638 215.103C198.653 215.008 198.644 214.911 198.612 214.82C198.58 214.729 198.527 214.647 198.456 214.582C198.264 214.447 198.03 214.382 197.796 214.4C197.573 214.39 197.352 214.43 197.147 214.517C196.943 214.604 196.761 214.736 196.614 214.903L196.023 214.417C196.243 214.157 196.524 213.954 196.84 213.826C197.19 213.682 197.565 213.608 197.943 213.609C198.387 213.584 198.825 213.72 199.177 213.991C199.32 214.116 199.43 214.274 199.496 214.451C199.563 214.629 199.585 214.82 199.559 215.007C199.534 215.27 199.455 215.524 199.325 215.754C199.135 216.057 198.894 216.324 198.612 216.544L197.205 217.786H199.499Z" fill="#263238"/>
<path d="M122.771 43.6969C122.403 43.4987 122.101 43.1968 121.902 42.8286C121.699 42.4295 121.618 41.9797 121.668 41.5348C121.705 41.0707 121.864 40.6247 122.128 40.241C122.392 39.8704 122.744 39.5718 123.153 39.3727C123.582 39.1585 124.056 39.0485 124.535 39.0514C124.921 39.0464 125.303 39.1234 125.656 39.2771C125.973 39.4154 126.249 39.6339 126.455 39.911L125.673 40.5796C125.537 40.3992 125.359 40.2539 125.155 40.1557C124.951 40.0576 124.727 40.0094 124.5 40.0152C124.214 40.0099 123.93 40.0755 123.675 40.2063C123.434 40.3412 123.228 40.5317 123.075 40.762C122.921 41.0054 122.829 41.2825 122.806 41.5695C122.776 41.8455 122.821 42.1245 122.936 42.3771C123.043 42.6072 123.22 42.7984 123.44 42.9241C123.681 43.0602 123.954 43.1292 124.231 43.1239C124.472 43.1221 124.71 43.0702 124.93 42.9715C125.15 42.8729 125.347 42.7296 125.508 42.5508L126.169 43.2107C125.914 43.4939 125.6 43.7164 125.248 43.8619C124.878 44.0112 124.482 44.085 124.083 44.079C123.62 44.0705 123.167 43.9386 122.771 43.6969Z" fill="#263238"/>
<path d="M128.672 40.2842C128.918 40.1867 129.181 40.1395 129.445 40.1452L129.358 41.1438H129.115C128.839 41.1305 128.568 41.2238 128.359 41.4043C128.154 41.614 128.036 41.8931 128.029 42.1858L127.872 43.9225H126.786L127.116 40.18H128.15L128.107 40.6749C128.26 40.5003 128.454 40.3661 128.672 40.2842Z" fill="#263238"/>
<path d="M133.928 40.1975L131.895 44.1656C131.742 44.5293 131.492 44.8445 131.173 45.0773C130.897 45.2552 130.573 45.346 130.244 45.3377C130.049 45.34 129.855 45.3107 129.67 45.2509C129.505 45.2027 129.353 45.1164 129.227 44.9991L129.688 44.2263C129.766 44.3048 129.861 44.3642 129.966 44.4C130.064 44.4436 130.171 44.4672 130.278 44.4695C130.412 44.472 130.543 44.4325 130.652 44.3566C130.77 44.2599 130.865 44.1383 130.93 44.0006L129.644 40.2322H130.765L131.591 42.7676L132.868 40.2322L133.928 40.1975Z" fill="#263238"/>
<path d="M137.517 40.3885C137.786 40.5419 137.998 40.7759 138.126 41.0571C138.269 41.3753 138.323 41.7265 138.282 42.073C138.258 42.4312 138.145 42.7776 137.952 43.0803C137.771 43.3652 137.52 43.5986 137.222 43.7576C136.925 43.9141 136.593 43.9947 136.257 43.992C136.053 44.0058 135.847 43.9722 135.657 43.8939C135.467 43.8156 135.298 43.6947 135.163 43.5405L135.015 45.2771H133.929L134.372 40.1888H135.415L135.371 40.623C135.527 40.4598 135.717 40.3319 135.927 40.248C136.137 40.1642 136.362 40.1262 136.588 40.1367C136.915 40.1314 137.237 40.2187 137.517 40.3885ZM136.848 42.8198C137.054 42.6242 137.175 42.3564 137.187 42.073C137.206 41.9402 137.199 41.8048 137.164 41.675C137.13 41.5452 137.07 41.4236 136.987 41.3176C136.904 41.2255 136.802 41.1522 136.688 41.1028C136.574 41.0534 136.451 41.0289 136.327 41.0311C136.195 41.029 136.064 41.0533 135.942 41.1025C135.819 41.1517 135.708 41.2249 135.614 41.3176C135.413 41.5188 135.295 41.7886 135.284 42.073C135.263 42.2046 135.27 42.3391 135.304 42.4677C135.339 42.5964 135.4 42.7164 135.484 42.8198C135.567 42.9119 135.669 42.9852 135.783 43.0346C135.897 43.0841 136.02 43.1085 136.145 43.1063C136.275 43.1092 136.405 43.0853 136.526 43.036C136.647 42.9867 136.757 42.9131 136.848 42.8198Z" fill="#263238"/>
<path d="M141.271 43.7577C141.147 43.8412 141.009 43.9001 140.863 43.9313C140.701 43.9739 140.535 43.9944 140.367 43.9921C140.187 44.0063 140.005 43.9836 139.833 43.9254C139.661 43.8672 139.503 43.7747 139.368 43.6535C139.249 43.5191 139.162 43.3593 139.114 43.1863C139.066 43.0133 139.057 42.8315 139.09 42.6549L139.22 41.118H138.647L138.717 40.2496H139.299L139.377 39.3379H140.463L140.376 40.2496H141.315L141.236 41.118H140.307L140.176 42.6375C140.165 42.701 140.168 42.7661 140.182 42.8288C140.197 42.8914 140.225 42.9504 140.263 43.0022C140.305 43.0469 140.357 43.0817 140.414 43.1042C140.471 43.1267 140.532 43.1364 140.593 43.1325C140.755 43.1369 140.914 43.0881 141.045 42.9935L141.271 43.7577Z" fill="#263238"/>
<path d="M142.488 43.7576C142.197 43.6032 141.961 43.3639 141.81 43.0716C141.658 42.765 141.598 42.4215 141.636 42.0818C141.664 41.7246 141.784 41.3807 141.984 41.0832C142.188 40.791 142.463 40.555 142.783 40.3973C143.119 40.2353 143.488 40.1522 143.86 40.1541C144.22 40.1491 144.575 40.2326 144.895 40.3973C145.181 40.5543 145.414 40.7932 145.564 41.0832C145.719 41.3918 145.782 41.7383 145.746 42.0818C145.714 42.4366 145.591 42.7773 145.39 43.0716C145.191 43.3656 144.918 43.6021 144.599 43.7576C144.265 43.9244 143.895 44.0078 143.522 44.0007C143.162 44.0098 142.806 43.9261 142.488 43.7576ZM144.312 42.8285C144.512 42.6294 144.63 42.3631 144.643 42.0818C144.664 41.9489 144.657 41.813 144.623 41.6829C144.588 41.5528 144.527 41.4313 144.443 41.3263C144.36 41.2342 144.258 41.1609 144.144 41.1115C144.03 41.0621 143.906 41.0376 143.782 41.0398C143.65 41.0377 143.519 41.062 143.397 41.1112C143.275 41.1604 143.163 41.2336 143.07 41.3263C142.863 41.5246 142.741 41.7955 142.731 42.0818C142.711 42.2139 142.72 42.3486 142.756 42.4772C142.792 42.6058 142.854 42.7255 142.939 42.8285C143.023 42.9206 143.125 42.9939 143.239 43.0433C143.352 43.0927 143.476 43.1172 143.6 43.115C143.732 43.1159 143.864 43.0903 143.986 43.0396C144.108 42.9888 144.219 42.9141 144.312 42.8198V42.8285Z" fill="#263238"/>
<path d="M152.228 39.5204C152.393 39.6745 152.518 39.8665 152.592 40.0799C152.667 40.2932 152.688 40.5214 152.654 40.7447C152.639 40.9804 152.575 41.2105 152.466 41.4199C152.357 41.6293 152.204 41.8134 152.019 41.9603C151.583 42.2732 151.053 42.4293 150.516 42.4032H149.213L149.074 43.9401H148.561L148.987 39.0775H150.812C151.323 39.0416 151.828 39.1997 152.228 39.5204ZM151.672 41.639C151.806 41.5358 151.917 41.4049 151.997 41.255C152.076 41.1052 152.122 40.94 152.132 40.7707C152.16 40.6062 152.147 40.4376 152.096 40.2789C152.044 40.1203 151.956 39.9763 151.837 39.859C151.527 39.6289 151.144 39.5179 150.759 39.5464H149.465L149.247 41.9777H150.542C150.946 41.9935 151.343 41.8744 151.672 41.639Z" fill="#263238"/>
<path d="M153.914 43.7575C153.652 43.6001 153.441 43.3711 153.306 43.0976C153.168 42.7962 153.114 42.4632 153.149 42.1338C153.177 41.7927 153.291 41.4641 153.48 41.1786C153.66 40.9012 153.908 40.6741 154.201 40.5187C154.501 40.3621 154.835 40.2816 155.174 40.2843C155.499 40.2769 155.821 40.3579 156.104 40.5187C156.37 40.6708 156.582 40.9012 156.712 41.1786C156.854 41.4758 156.908 41.807 156.868 42.1338C156.841 42.4763 156.731 42.8071 156.547 43.0976C156.366 43.375 156.118 43.6021 155.826 43.7575C155.528 43.921 155.192 44.0047 154.852 44.0006C154.523 44.0102 154.197 43.9258 153.914 43.7575ZM155.6 43.3841C155.816 43.2636 155.998 43.0904 156.13 42.8805C156.267 42.6541 156.348 42.3979 156.364 42.1338C156.394 41.8829 156.358 41.6285 156.26 41.3957C156.171 41.184 156.016 41.0071 155.817 40.8921C155.613 40.767 155.378 40.7037 155.139 40.7097C154.89 40.7059 154.644 40.7689 154.427 40.8921C154.206 41.0098 154.02 41.1835 153.888 41.3957C153.751 41.6189 153.67 41.8723 153.653 42.1338C153.622 42.3883 153.661 42.6465 153.766 42.8805C153.857 43.0885 154.008 43.2641 154.201 43.3841C154.409 43.5051 154.647 43.5652 154.887 43.5578C155.138 43.5555 155.384 43.4866 155.6 43.3581V43.3841Z" fill="#263238"/>
<path d="M159.014 40.4404C159.285 40.3114 159.583 40.2489 159.883 40.2581V40.7357H159.701C159.53 40.7293 159.359 40.7575 159.199 40.8187C159.04 40.8799 158.894 40.9727 158.771 41.0916C158.513 41.358 158.364 41.7111 158.354 42.0815L158.189 43.9484H157.702L158.015 40.2928H158.493L158.432 41.0048C158.563 40.761 158.766 40.5638 159.014 40.4404Z" fill="#263238"/>
<path d="M162.551 43.7577C162.448 43.8465 162.326 43.9117 162.195 43.9487C162.054 43.9935 161.908 44.017 161.76 44.0182C161.619 44.0288 161.477 44.0095 161.344 43.9616C161.211 43.9137 161.089 43.8383 160.987 43.7403C160.9 43.6299 160.836 43.5028 160.8 43.3669C160.765 43.2309 160.757 43.0891 160.778 42.9501L160.978 40.7445H160.318L160.361 40.3277H161.013L161.083 39.5288H161.578L161.508 40.3277H162.621L162.577 40.7445H161.439L161.248 42.9241C161.234 43.0105 161.238 43.0988 161.259 43.1838C161.28 43.2687 161.317 43.3487 161.369 43.419C161.428 43.4808 161.5 43.5285 161.58 43.5586C161.659 43.5887 161.745 43.6003 161.83 43.5927C161.931 43.5926 162.031 43.5749 162.125 43.5406C162.22 43.5119 162.309 43.4646 162.386 43.4016L162.551 43.7577Z" fill="#263238"/>
<path d="M164.559 39.3381C164.428 39.4773 164.354 39.6597 164.35 39.8504V40.2845H165.471V40.7013H164.359L164.081 43.9401H163.586L163.864 40.7013H163.177V40.2845H163.838V39.833C163.854 39.5344 163.981 39.2526 164.194 39.0428C164.311 38.9378 164.449 38.8575 164.598 38.8068C164.748 38.7561 164.906 38.7359 165.063 38.7476C165.198 38.7495 165.333 38.7699 165.463 38.8084C165.579 38.841 165.686 38.9005 165.775 38.9821L165.576 39.3467C165.432 39.2201 165.245 39.1546 165.054 39.1644C164.873 39.1572 164.696 39.2193 164.559 39.3381Z" fill="#263238"/>
<path d="M166.288 43.7574C166.022 43.6054 165.809 43.3749 165.68 43.0975C165.539 42.797 165.482 42.464 165.514 42.1337C165.542 41.7926 165.656 41.4641 165.845 41.1786C166.025 40.9011 166.273 40.6741 166.566 40.5187C166.861 40.3648 167.189 40.2844 167.522 40.2843C167.85 40.277 168.174 40.358 168.46 40.5187C168.721 40.6738 168.93 40.9037 169.06 41.1786C169.201 41.4757 169.256 41.807 169.216 42.1337C169.193 42.4771 169.082 42.8088 168.895 43.0975C168.714 43.375 168.466 43.6021 168.173 43.7574C167.875 43.9209 167.54 44.0047 167.2 44.0005C166.879 44.0052 166.564 43.9211 166.288 43.7574ZM167.965 43.3841C168.183 43.2658 168.366 43.0921 168.495 42.8805C168.635 42.6547 168.718 42.3986 168.738 42.1337C168.761 41.8822 168.722 41.6289 168.625 41.3957C168.537 41.1862 168.385 41.0099 168.191 40.8921C167.984 40.7681 167.746 40.7049 167.504 40.7097C167.255 40.7072 167.009 40.77 166.792 40.8921C166.574 41.01 166.391 41.1838 166.262 41.3957C166.122 41.6182 166.038 41.8716 166.018 42.1337C165.987 42.3883 166.026 42.6465 166.131 42.8805C166.222 43.0909 166.377 43.2672 166.575 43.3841C166.779 43.5061 167.014 43.5664 167.252 43.5577C167.503 43.5563 167.75 43.4873 167.965 43.358V43.3841Z" fill="#263238"/>
<path d="M170.537 38.7819H170.997L170.546 43.9398H170.128L170.537 38.7819Z" fill="#263238"/>
<path d="M172.344 39.416C172.315 39.3816 172.292 39.3415 172.279 39.2982C172.265 39.2549 172.261 39.2092 172.266 39.1641C172.274 39.0705 172.317 38.9834 172.388 38.921C172.461 38.8532 172.557 38.8159 172.657 38.8168C172.703 38.8153 172.748 38.8239 172.79 38.8419C172.832 38.8599 172.87 38.8869 172.9 38.921C172.932 38.9506 172.957 38.9872 172.972 39.0279C172.987 39.0686 172.992 39.1123 172.987 39.1555C172.98 39.2561 172.933 39.3497 172.857 39.416C172.822 39.4497 172.782 39.4762 172.737 39.4941C172.692 39.512 172.644 39.5208 172.596 39.5202C172.549 39.5223 172.502 39.5141 172.459 39.4961C172.415 39.4781 172.376 39.4507 172.344 39.416ZM172.275 40.2843H172.735L172.414 43.9399H171.918L172.275 40.2843Z" fill="#263238"/>
<path d="M174.386 43.7576C174.12 43.6055 173.907 43.375 173.778 43.0977C173.637 42.7971 173.58 42.4641 173.613 42.1338C173.64 41.7927 173.754 41.4642 173.943 41.1786C174.123 40.9012 174.372 40.6741 174.664 40.5187C174.964 40.3621 175.298 40.2816 175.637 40.2843C175.965 40.277 176.289 40.358 176.576 40.5187C176.837 40.6739 177.046 40.9037 177.175 41.1786C177.317 41.4758 177.371 41.807 177.332 42.1338C177.308 42.4772 177.198 42.8089 177.01 43.0977C176.83 43.3751 176.581 43.6022 176.289 43.7576C175.991 43.9211 175.656 44.0048 175.316 44.0007C174.989 44.0086 174.667 43.9244 174.386 43.7576ZM176.063 43.3842C176.281 43.2659 176.464 43.0922 176.593 42.8806C176.733 42.6548 176.817 42.3987 176.836 42.1338C176.859 41.8823 176.82 41.6289 176.723 41.3957C176.635 41.1862 176.483 41.01 176.289 40.8921C176.082 40.7681 175.844 40.7049 175.602 40.7097C175.353 40.7072 175.107 40.77 174.89 40.8921C174.672 41.01 174.489 41.1838 174.36 41.3957C174.22 41.6183 174.136 41.8717 174.117 42.1338C174.085 42.3884 174.124 42.6466 174.23 42.8806C174.32 43.091 174.475 43.2673 174.673 43.3842C174.877 43.5062 175.113 43.5665 175.35 43.5579C175.602 43.5564 175.848 43.4874 176.063 43.3581V43.3842Z" fill="#263238"/>
<path d="M186.986 62.2961C186.773 62.1974 186.592 62.041 186.464 61.8446L186.96 61.3062C187.039 61.4501 187.154 61.5707 187.294 61.656C187.435 61.7414 187.595 61.7884 187.759 61.7925C188.202 61.7925 188.446 61.532 188.498 61.011L188.689 58.8053H187.177L187.229 58.1454H189.54L189.288 60.9675C189.274 61.3841 189.111 61.7816 188.828 62.0877C188.523 62.3512 188.127 62.4852 187.724 62.4611C187.468 62.4663 187.215 62.4097 186.986 62.2961Z" fill="#263238"/>
<path d="M193.59 59.153L193.312 62.4006H192.582V61.9838C192.448 62.1328 192.282 62.2487 192.095 62.3224C191.906 62.4034 191.702 62.4447 191.496 62.444C191.314 62.4567 191.132 62.4308 190.961 62.3679C190.79 62.305 190.635 62.2067 190.505 62.0793C190.385 61.9316 190.298 61.7598 190.25 61.5755C190.202 61.3912 190.194 61.1988 190.227 61.0112L190.392 59.153H191.148L190.992 60.8897C190.972 61.0026 190.975 61.1183 191 61.23C191.026 61.3418 191.073 61.4475 191.139 61.5409C191.205 61.6174 191.289 61.677 191.382 61.7147C191.476 61.7525 191.578 61.7673 191.678 61.758C191.926 61.7656 192.166 61.6751 192.347 61.5062C192.535 61.3085 192.643 61.0489 192.651 60.7768L192.799 59.1356L193.59 59.153Z" fill="#263238"/>
<path d="M197.421 59.4743C197.541 59.622 197.628 59.7938 197.676 59.9781C197.724 60.1624 197.732 60.3548 197.699 60.5423L197.543 62.4005H196.778L196.935 60.6639C196.972 60.4386 196.919 60.2078 196.787 60.0213C196.717 59.9473 196.632 59.8895 196.537 59.852C196.443 59.8145 196.341 59.7982 196.239 59.8043C195.986 59.7939 195.739 59.8845 195.553 60.0561C195.364 60.2538 195.253 60.5127 195.24 60.7854L195.101 62.4265H194.336L194.623 59.1791H195.327V59.5959C195.467 59.4464 195.64 59.3306 195.831 59.2572C196.039 59.1783 196.26 59.1399 196.483 59.1443C196.653 59.1328 196.825 59.1561 196.986 59.2128C197.147 59.2696 197.295 59.3585 197.421 59.4743Z" fill="#263238"/>
<path d="M201.801 58.1455L201.427 62.4004H200.637L200.949 58.8054H200.081L200.141 58.1455H201.801Z" fill="#263238"/>
<path d="M205.164 60.299C205.259 60.4124 205.33 60.5442 205.372 60.6861C205.414 60.8281 205.426 60.9771 205.408 61.1239C205.384 61.3778 205.29 61.6202 205.136 61.824C204.983 62.0279 204.776 62.1853 204.539 62.2788C204.243 62.4074 203.923 62.4696 203.6 62.4612C203.306 62.463 203.012 62.4191 202.731 62.3309C202.478 62.2556 202.242 62.1317 202.036 61.9662L202.436 61.3584C202.593 61.4902 202.773 61.5931 202.966 61.6623C203.184 61.7391 203.413 61.7773 203.644 61.7752C203.882 61.7843 204.117 61.724 204.321 61.6015C204.401 61.5504 204.468 61.4813 204.516 61.3999C204.564 61.3185 204.593 61.227 204.6 61.1326C204.612 61.0453 204.602 60.9564 204.57 60.8742C204.538 60.7921 204.485 60.7196 204.417 60.6637C204.212 60.5368 203.971 60.479 203.731 60.4987H203.34L203.392 59.9603L204.46 58.8054H202.523L202.584 58.1455H205.486L205.434 58.6752L204.295 59.8995C204.625 59.917 204.936 60.0599 205.164 60.299Z" fill="#263238"/>
<path d="M206.719 61.5756C206.763 61.6245 206.795 61.6828 206.813 61.7459C206.831 61.8091 206.835 61.8755 206.823 61.9402C206.82 62.0088 206.806 62.0764 206.78 62.1399C206.739 62.2495 206.693 62.3567 206.641 62.4612L206.25 63.3295H205.754L206.076 62.4004C205.995 62.3642 205.928 62.3034 205.885 62.2268C205.841 62.141 205.823 62.0446 205.833 61.9489C205.835 61.8794 205.851 61.8112 205.881 61.7484C205.911 61.6857 205.954 61.6298 206.006 61.5843C206.055 61.5376 206.112 61.5012 206.175 61.4773C206.237 61.4535 206.304 61.4426 206.371 61.4453C206.435 61.44 206.5 61.449 206.56 61.4715C206.62 61.494 206.674 61.5296 206.719 61.5756Z" fill="#263238"/>
<path d="M212.115 61.7321L212.054 62.4008H208.917L208.97 61.8711L210.794 60.2646C210.964 60.1295 211.11 59.9683 211.229 59.787C211.304 59.6666 211.349 59.5294 211.359 59.3876C211.373 59.3039 211.366 59.2181 211.339 59.1378C211.312 59.0574 211.265 58.9851 211.203 58.9274C211.032 58.8108 210.827 58.7557 210.621 58.7711C210.426 58.763 210.232 58.7986 210.053 58.8753C209.874 58.9519 209.715 59.0676 209.587 59.2139L209.074 58.7884C209.27 58.5638 209.513 58.3858 209.786 58.2674C210.093 58.1438 210.421 58.0818 210.751 58.0851C211.138 58.0623 211.52 58.1794 211.828 58.415C211.952 58.5208 212.047 58.6554 212.107 58.8069C212.166 58.9583 212.187 59.122 212.167 59.2834C212.145 59.5128 212.074 59.7347 211.959 59.9347C211.793 60.196 211.584 60.4278 211.342 60.6206L210.099 61.7321H212.115Z" fill="#263238"/>
<path d="M213.376 62.2006C213.113 62.0141 212.915 61.7499 212.811 61.4452C212.69 61.0609 212.654 60.655 212.706 60.2556C212.739 59.8433 212.854 59.4417 213.045 59.0748C213.211 58.7717 213.45 58.515 213.74 58.328C214.022 58.1536 214.348 58.0632 214.679 58.0676C214.998 58.059 215.311 58.152 215.573 58.3331C215.836 58.5141 216.034 58.7739 216.139 59.0748C216.265 59.4547 216.31 59.8572 216.269 60.2556C216.238 60.6654 216.122 61.0644 215.93 61.4278C215.767 61.7351 215.528 61.9953 215.235 62.1832C214.954 62.3576 214.628 62.448 214.297 62.4437C213.972 62.4627 213.649 62.3775 213.376 62.2006ZM215.113 61.3931C215.342 61.0632 215.469 60.6739 215.478 60.273C215.542 59.8887 215.484 59.4942 215.313 59.1442C215.242 59.0267 215.141 58.9301 215.021 58.8645C214.9 58.7989 214.764 58.7666 214.627 58.7709C214.482 58.7705 214.339 58.8041 214.209 58.8689C214.079 58.9338 213.966 59.028 213.88 59.1442C213.652 59.4779 213.526 59.8696 213.515 60.273C213.45 60.6544 213.508 61.0465 213.68 61.3931C213.748 61.5135 213.848 61.6128 213.969 61.6802C214.09 61.7476 214.228 61.7804 214.366 61.7751C214.506 61.7704 214.643 61.7335 214.767 61.6673C214.891 61.601 214.997 61.5072 215.079 61.3931H215.113Z" fill="#263238"/>
<path d="M219.701 61.7319L219.64 62.4005H216.503L216.547 61.8708L218.38 60.2644C218.547 60.1268 218.694 59.966 218.815 59.7868C218.89 59.6664 218.935 59.5292 218.945 59.3874C218.959 59.3037 218.952 59.2179 218.925 59.1376C218.898 59.0572 218.851 58.985 218.789 58.9272C218.618 58.8107 218.413 58.7555 218.206 58.7709C218.012 58.7628 217.818 58.7984 217.639 58.8751C217.46 58.9517 217.301 59.0674 217.172 59.2137L216.66 58.7882C216.854 58.5616 217.098 58.3833 217.372 58.2672C217.679 58.1437 218.006 58.0817 218.337 58.0849C218.724 58.0629 219.106 58.18 219.414 58.4149C219.538 58.5207 219.633 58.6552 219.692 58.8067C219.751 58.9581 219.772 59.1218 219.753 59.2832C219.726 59.5117 219.655 59.7328 219.545 59.9344C219.379 60.1958 219.17 60.4276 218.928 60.6204L217.694 61.7058L219.701 61.7319Z" fill="#263238"/>
<path d="M221.943 58.1455L221.569 62.4004H220.778L221.091 58.8054H220.222L220.274 58.1455H221.943Z" fill="#263238"/>
<path d="M223.933 38.651H218.962L219.032 37.9136H223.993L223.933 38.651Z" fill="#263238"/>
<path d="M223.55 42.9843H218.589L218.65 42.2469H223.62L223.55 42.9843Z" fill="#263238"/>
<path d="M223.742 40.8219H218.78L218.841 40.0758H223.803L223.742 40.8219Z" fill="#263238"/>
<path d="M168.39 139.516C168.344 139.933 168.148 140.32 167.838 140.605C167.528 140.889 167.125 141.051 166.705 141.061C166.506 141.066 166.308 141.029 166.125 140.951C165.943 140.873 165.778 140.757 165.644 140.611C165.51 140.464 165.409 140.291 165.347 140.102C165.286 139.913 165.266 139.713 165.288 139.516C165.332 139.096 165.528 138.707 165.838 138.421C166.148 138.135 166.552 137.972 166.974 137.961C167.173 137.957 167.371 137.996 167.554 138.075C167.736 138.154 167.9 138.271 168.034 138.418C168.169 138.565 168.27 138.739 168.331 138.928C168.392 139.118 168.413 139.318 168.39 139.516Z" fill="#407BFF"/>
<path opacity="0.5" d="M155.432 140.566C156.08 139.946 156.146 138.963 155.578 138.37C155.01 137.778 154.025 137.801 153.377 138.421C152.729 139.041 152.663 140.024 153.231 140.617C153.798 141.209 154.784 141.186 155.432 140.566Z" fill="white"/>
<path opacity="0.5" d="M162.169 139.516C162.123 139.935 161.925 140.323 161.614 140.608C161.302 140.892 160.897 141.053 160.475 141.061C160.277 141.065 160.08 141.026 159.898 140.948C159.715 140.87 159.552 140.754 159.418 140.608C159.284 140.462 159.183 140.289 159.121 140.1C159.059 139.912 159.038 139.713 159.059 139.516C159.103 139.095 159.3 138.705 159.612 138.418C159.924 138.132 160.33 137.97 160.753 137.962C160.952 137.959 161.149 137.999 161.331 138.078C161.513 138.157 161.676 138.274 161.81 138.421C161.944 138.568 162.045 138.741 162.107 138.93C162.169 139.119 162.19 139.318 162.169 139.516Z" fill="white"/>
<path opacity="0.5" d="M174.079 140.564C174.727 139.944 174.792 138.961 174.224 138.368C173.657 137.776 172.671 137.799 172.023 138.419C171.375 139.039 171.31 140.022 171.877 140.614C172.445 141.207 173.43 141.184 174.079 140.564Z" fill="white"/>
<path d="M117.054 182.454C115.232 182.488 113.486 183.187 112.145 184.421C110.805 185.655 109.964 187.337 109.781 189.149C109.688 189.998 109.776 190.858 110.04 191.671C110.304 192.483 110.738 193.231 111.313 193.863C111.889 194.495 112.592 194.998 113.376 195.338C114.161 195.678 115.009 195.847 115.864 195.835C117.685 195.802 119.43 195.103 120.77 193.871C122.11 192.639 122.952 190.959 123.137 189.149C123.232 188.299 123.145 187.438 122.881 186.625C122.618 185.811 122.184 185.062 121.609 184.429C121.033 183.796 120.33 183.292 119.544 182.952C118.759 182.611 117.91 182.442 117.054 182.454ZM116.125 192.831L113.648 189.149L116.333 190.069L119.183 189.149L116.125 192.831ZM116.455 189.149L113.77 188.229L116.811 185.007L119.296 188.229L116.455 189.149Z" fill="#407BFF"/>
<path d="M119.409 155.623C117.587 155.654 115.839 156.352 114.497 157.584C113.155 158.816 112.312 160.497 112.127 162.309C112.041 163.157 112.134 164.015 112.4 164.825C112.667 165.635 113.101 166.38 113.675 167.011C114.249 167.643 114.949 168.147 115.73 168.49C116.511 168.833 117.356 169.008 118.21 169.004C120.033 168.971 121.78 168.271 123.122 167.038C124.464 165.804 125.307 164.122 125.491 162.309C125.577 161.461 125.483 160.605 125.215 159.796C124.948 158.987 124.514 158.243 123.94 157.612C123.366 156.982 122.667 156.479 121.886 156.136C121.105 155.794 120.261 155.619 119.409 155.623ZM121.477 161.31C121.405 161.54 121.283 161.75 121.121 161.927C120.947 162.113 120.737 162.26 120.504 162.361C120.616 162.399 120.719 162.459 120.808 162.538C120.896 162.617 120.967 162.714 121.016 162.821C121.109 163.062 121.109 163.328 121.016 163.568C120.954 163.777 120.85 163.972 120.711 164.14C120.572 164.309 120.401 164.448 120.208 164.549C119.714 164.8 119.163 164.92 118.609 164.897H116.003L117.462 160.034H119.947C120.415 159.992 120.882 160.115 121.268 160.381C121.388 160.5 121.471 160.651 121.507 160.816C121.542 160.981 121.529 161.153 121.468 161.31H121.477Z" fill="#407BFF"/>
<path d="M119.469 161.033H118.522L118.244 161.969H119.191C119.652 161.969 119.93 161.813 120.06 161.492C120.191 161.171 119.939 161.033 119.469 161.033Z" fill="#407BFF"/>
<path d="M119.114 162.917H117.993L117.697 163.907H118.862C119.34 163.907 119.635 163.742 119.731 163.412C119.826 163.082 119.592 162.917 119.114 162.917Z" fill="#407BFF"/>
<path d="M114.707 209.285C112.885 209.32 111.138 210.02 109.797 211.254C108.455 212.487 107.612 214.168 107.426 215.98C107.34 216.828 107.434 217.684 107.702 218.493C107.969 219.302 108.403 220.046 108.977 220.676C109.55 221.307 110.25 221.81 111.031 222.153C111.811 222.495 112.655 222.67 113.508 222.666C115.33 222.635 117.078 221.937 118.42 220.705C119.762 219.473 120.605 217.792 120.79 215.98C120.876 215.131 120.783 214.274 120.517 213.464C120.25 212.654 119.816 211.909 119.242 211.277C118.668 210.646 117.968 210.142 117.187 209.799C116.405 209.456 115.561 209.281 114.707 209.285ZM115.924 218.255H112.231L113.691 213.392H115.063L113.934 217.161H116.254L115.924 218.255Z" fill="#407BFF"/>
<g opacity="0.4">
<path opacity="0.4" d="M106.992 256.192H112.466L177.323 15.1899H164.958L100.527 254.603C102.517 255.66 104.738 256.206 106.992 256.192Z" fill="white"/>
<path opacity="0.4" d="M232.031 9.41557C230.767 8.00099 229.213 6.87375 227.476 6.10983C225.739 5.34592 223.858 4.96308 221.96 4.98715H197.795C197.006 4.9952 196.243 5.27125 195.632 5.76991C195.021 6.26857 194.598 6.96018 194.432 7.73104L194.267 8.48647C193.85 10.3613 192.815 12.0416 191.327 13.2574C189.84 14.4731 187.986 15.1538 186.064 15.1899H185.873L121.016 256.191H165.618L232.031 9.41557Z" fill="white"/>
</g>
<path d="M77.9692 259.196L80.6716 269.086L87.8838 267.992L86.6325 257.876L77.9692 259.196Z" fill="#B97964"/>
<path d="M88.7874 266.429C88.7522 266.427 88.7181 266.416 88.6889 266.396C88.6598 266.376 88.6367 266.349 88.6223 266.316C88.6085 266.282 88.6061 266.244 88.6155 266.208C88.6249 266.172 88.6455 266.14 88.6745 266.117C88.77 266.038 91.0032 264.128 92.2632 264.232C92.3806 264.237 92.4959 264.266 92.6019 264.317C92.708 264.367 92.8026 264.439 92.8801 264.527C92.9778 264.618 93.0452 264.737 93.0732 264.868C93.1011 264.998 93.0883 265.134 93.0365 265.257C92.8106 265.7 91.9156 266.038 91.0293 266.212C90.2897 266.349 89.5396 266.422 88.7874 266.429ZM89.3001 266.091C90.6643 266.004 92.4717 265.648 92.715 265.118C92.7585 265.049 92.7845 264.936 92.6107 264.753C92.5672 264.696 92.5104 264.651 92.4453 264.62C92.3802 264.59 92.3088 264.576 92.2371 264.58C92.1248 264.562 92.0105 264.562 91.8982 264.58C90.9498 264.915 90.074 265.428 89.3175 266.091H89.3001Z" fill="#407BFF"/>
<path d="M88.7006 266.438C88.6714 266.426 88.6456 266.408 88.6258 266.383C88.6061 266.359 88.5929 266.33 88.5876 266.299C88.5876 266.203 88.4051 264.232 89.1785 263.303C89.2846 263.171 89.4162 263.061 89.5654 262.981C89.7147 262.9 89.8786 262.85 90.0474 262.834C90.5253 262.791 90.7165 262.999 90.7773 263.19C91.0814 263.972 89.6564 265.856 88.8657 266.403H88.7961C88.7685 266.424 88.7352 266.436 88.7006 266.438ZM90.0127 263.173C89.7974 263.216 89.6039 263.333 89.4652 263.503C89.0496 264.223 88.8646 265.054 88.9352 265.882C89.7259 265.187 90.6209 263.755 90.4906 263.277C90.4906 263.234 90.4211 263.121 90.1082 263.147H90.0127V263.173Z" fill="#407BFF"/>
<path d="M87.8669 265.561L80.0465 267.054C79.9029 267.083 79.7733 267.16 79.6787 267.272C79.5841 267.384 79.53 267.524 79.5252 267.671L79.3253 274.313C79.3159 274.595 79.4184 274.869 79.6105 275.076C79.8026 275.283 80.0687 275.405 80.3506 275.416C80.4257 275.425 80.5015 275.425 80.5766 275.416C83.4006 274.826 85.8857 274.192 89.4049 273.523C93.5584 272.733 92.5939 273.428 97.4947 272.568C100.44 272.047 100.345 268.6 99.0588 268.678C93.2195 269.043 92.2985 267.436 89.7004 265.813C89.1406 265.507 88.4883 265.418 87.8669 265.561Z" fill="#263238"/>
<path d="M42.8731 257.876L41.6914 268.061H34.401L34.1143 257.876H42.8731Z" fill="#B97964"/>
<path d="M42.3258 267.888C42.2904 267.882 42.2577 267.866 42.232 267.841C42.2063 267.816 42.1889 267.783 42.1822 267.748C42.1756 267.713 42.1799 267.677 42.1948 267.644C42.2096 267.612 42.2341 267.584 42.265 267.566C42.378 267.506 44.8718 266.004 46.1318 266.325C46.2444 266.35 46.3508 266.398 46.4448 266.465C46.5388 266.532 46.6185 266.617 46.6792 266.716C46.759 266.825 46.802 266.958 46.802 267.093C46.802 267.229 46.759 267.361 46.6792 267.471C46.062 267.92 45.3022 268.13 44.5416 268.061C43.7994 268.067 43.058 268.009 42.3258 267.888ZM42.8819 267.644C44.2462 267.792 46.0883 267.757 46.4272 267.271C46.4706 267.21 46.5141 267.106 46.4272 266.898C46.3914 266.834 46.3415 266.779 46.2813 266.736C46.2211 266.694 46.1522 266.666 46.0796 266.655C45.97 266.642 45.8591 266.642 45.7494 266.655C44.7402 266.803 43.7676 267.139 42.8819 267.644Z" fill="#407BFF"/>
<path d="M42.2386 267.879C42.2106 267.864 42.1876 267.842 42.1721 267.814C42.1567 267.786 42.1496 267.755 42.1517 267.723C42.1517 267.636 42.3255 265.656 43.2466 264.884C43.3753 264.768 43.5268 264.68 43.6914 264.626C43.856 264.572 44.0301 264.554 44.2024 264.571C44.6803 264.571 44.8367 264.849 44.8541 265.049C45.0279 265.865 43.29 267.48 42.4298 267.879C42.4044 267.888 42.3769 267.888 42.3516 267.879C42.315 267.892 42.2752 267.892 42.2386 267.879ZM44.0981 264.901C43.8768 264.897 43.6623 264.978 43.4986 265.127C42.9654 265.767 42.6409 266.555 42.5688 267.384C43.4377 266.829 44.5934 265.578 44.5413 265.083C44.5413 265.031 44.5413 264.91 44.1937 264.892L44.0981 264.901Z" fill="#407BFF"/>
<path d="M41.5264 266.915L33.5496 267.045C33.4028 267.048 33.2611 267.1 33.1476 267.193C33.034 267.286 32.9552 267.414 32.9239 267.558L31.5858 274.061C31.5569 274.202 31.5567 274.347 31.5851 274.487C31.6135 274.628 31.6699 274.761 31.751 274.879C31.8321 274.998 31.9362 275.099 32.0571 275.176C32.178 275.253 32.3132 275.305 32.4547 275.329C32.5298 275.338 32.6056 275.338 32.6806 275.329C35.5568 275.234 38.1115 275.034 41.7001 274.982C45.9232 274.912 44.8631 275.442 49.8334 275.433C52.8225 275.433 53.3091 272.012 52.0491 271.865C46.2273 271.222 45.593 269.485 43.3598 267.436C42.8364 267.037 42.1814 266.851 41.5264 266.915Z" fill="#263238"/>
<path d="M52.0924 145.351L60.0605 174.066L60.7557 176.315C63.2164 184.109 64.6078 192.2 64.8918 200.367C64.9961 203.684 65.2828 207.184 65.6999 210.787C68.5152 234.866 78.3603 262.409 78.3603 262.409L87.5796 261.367L72.2517 110.106H48.4776C48.4776 110.106 41.3871 136.285 52.0924 145.351Z" fill="#263238"/>
<path opacity="0.6" d="M60.2869 174.709L55.2036 157.021L58.3926 140.74L58.7576 136.399C58.7576 136.399 62.7894 151.316 60.2869 174.709Z" fill="black"/>
<path d="M62.381 110.106C62.381 110.106 56.2985 166.486 53.3876 191.649C50.4766 216.813 42.9604 262.374 42.9604 262.374H33.5846C33.5846 262.374 31.5773 230.567 34.0625 207.418C34.5317 203.076 35.0531 199.152 35.6353 195.939C36.5672 190.746 36.9024 185.465 36.6345 180.196C36.4781 176.853 36.2957 172.902 36.1219 168.752C35.6179 156.83 36.3825 143.223 36.3825 137.536C36.4951 128.333 37.3905 119.157 39.0589 110.106H62.381Z" fill="#263238"/>
<path d="M59.5829 56.053C55.2382 55.011 54.1086 52.1803 54.4301 49.2106C54.508 48.466 54.6298 47.7266 54.7951 46.9964L49.3468 42.4464L45.3497 39.1294C46.4272 43.9746 47.6437 52.3105 44.3418 55.5407C47.9644 57.4765 51.6888 59.2157 55.4989 60.7506C59.5829 58.5885 59.5829 56.053 59.5829 56.053Z" fill="#B97964"/>
<path opacity="0.2" d="M54.795 46.9963C54.6298 47.7266 54.5079 48.4659 54.4301 49.2105C54.4301 49.4189 54.4301 49.6273 54.4301 49.8444C51.1803 49.0282 46.6879 46.2149 46.2534 42.6983C46.2783 41.8223 46.383 40.9504 46.5662 40.0934L49.399 42.4378L54.795 46.9963Z" fill="black"/>
<path d="M43.742 32.5303C43.742 32.5303 41.3003 34.701 39.6406 34.7271C39.6406 34.7271 40.6051 38.3913 43.1164 37.5143C45.6276 36.6373 43.742 32.5303 43.742 32.5303Z" fill="#263238"/>
<path d="M64.2139 27.4247C64.2139 27.4247 63.206 30.6982 67.0553 31.0628C67.0553 31.0628 65.1263 34.9875 61.9199 32.0353C61.0134 31.3006 60.3552 30.3047 60.035 29.183C59.7147 28.0614 59.7479 26.8684 60.1299 25.7662L62.98 26.9384L64.2139 27.4247Z" fill="#263238"/>
<path opacity="0.5" d="M64.2139 27.4247C64.2139 27.4247 63.206 30.6982 67.0553 31.0628C67.0553 31.0628 65.1263 34.9875 61.9199 32.0353C61.0134 31.3006 60.3552 30.3047 60.035 29.183C59.7147 28.0614 59.7479 26.8684 60.1299 25.7662L62.98 26.9384L64.2139 27.4247Z" fill="black"/>
<path d="M45.7669 29.3522C44.8979 35.882 44.1072 39.6592 46.7575 43.6621C50.685 49.6883 59.1311 48.4292 61.8595 42.3162C64.3447 36.8198 65.231 27.0512 59.4526 23.1438C58.2129 22.2618 56.763 21.7206 55.2483 21.5744C53.7335 21.4282 52.2068 21.6821 50.8211 22.3108C49.4354 22.9394 48.2391 23.9207 47.3522 25.1564C46.4652 26.3922 45.9185 27.839 45.7669 29.3522Z" fill="#B97964"/>
<path d="M55.2119 33.3378C55.1163 33.8675 55.3162 34.3451 55.655 34.4233C55.9939 34.5014 56.3502 34.128 56.524 33.5549C56.6978 32.9818 56.4284 32.5477 56.0895 32.4695C55.7506 32.3913 55.3162 32.8168 55.2119 33.3378Z" fill="#2E353A"/>
<path d="M61.3471 34.5012C61.2516 35.0222 61.4514 35.5171 61.7903 35.5779C62.1292 35.6386 62.4855 35.2913 62.6592 34.7096C62.833 34.1279 62.5637 33.6937 62.2248 33.6243C61.8859 33.5548 61.4514 33.9716 61.3471 34.5012Z" fill="#2E353A"/>
<path d="M58.905 34.4318C59.1978 35.9249 59.6553 37.381 60.2692 38.7733C59.9093 38.9324 59.5201 39.0146 59.1265 39.0146C58.733 39.0146 58.3438 38.9324 57.9839 38.7733L58.905 34.4318Z" fill="#A24E3F"/>
<path d="M57.1152 42.3334C56.5015 42.3032 55.9003 42.1491 55.3477 41.8805C54.7952 41.6119 54.3028 41.2343 53.9002 40.7705C53.8715 40.7399 53.8555 40.6995 53.8555 40.6576C53.8555 40.6157 53.8715 40.5753 53.9002 40.5447C53.9132 40.5299 53.9293 40.5181 53.9472 40.51C53.9652 40.5019 53.9847 40.4977 54.0044 40.4977C54.0242 40.4977 54.0437 40.5019 54.0616 40.51C54.0796 40.5181 54.0957 40.5299 54.1087 40.5447C54.5539 41.0465 55.1077 41.4403 55.728 41.6961C56.3484 41.9518 57.0189 42.0629 57.6887 42.0208C57.7275 42.0182 57.7659 42.03 57.7964 42.0541C57.8269 42.0782 57.8474 42.1127 57.8538 42.1511C57.854 42.192 57.839 42.2315 57.8117 42.262C57.7844 42.2925 57.7468 42.3118 57.7061 42.3161C57.51 42.3392 57.3123 42.345 57.1152 42.3334Z" fill="#2E353A"/>
<path d="M54.4127 30.4543C54.374 30.4232 54.3415 30.3849 54.3171 30.3416C54.2996 30.3052 54.2895 30.2657 54.2875 30.2253C54.2855 30.185 54.2915 30.1447 54.3053 30.1067C54.319 30.0687 54.3402 30.0339 54.3676 30.0042C54.395 29.9745 54.4281 29.9506 54.4649 29.9338C54.9048 29.7206 55.3901 29.6171 55.8789 29.6322C56.3677 29.6473 56.8456 29.7806 57.2715 30.0205C57.3383 30.0664 57.3847 30.1363 57.401 30.2156C57.4172 30.2949 57.4019 30.3774 57.3584 30.4457C57.3123 30.5144 57.2413 30.5627 57.1604 30.5805C57.0794 30.5983 56.9947 30.5842 56.9239 30.5411C56.5887 30.3443 56.2093 30.2348 55.8206 30.2227C55.4319 30.2106 55.0464 30.2962 54.6995 30.4717C54.6539 30.4926 54.6039 30.502 54.5539 30.4989C54.5039 30.4959 54.4554 30.4806 54.4127 30.4543Z" fill="#2E353A"/>
<path d="M64.5183 32.0267C64.4691 32.04 64.4174 32.0414 64.3676 32.0308C64.3177 32.0203 64.2711 31.998 64.2315 31.9659C63.9259 31.7102 63.5657 31.5278 63.1786 31.433C62.7914 31.3382 62.3877 31.3333 61.9984 31.4188C61.9189 31.4408 61.834 31.4315 61.7612 31.3927C61.6884 31.3539 61.6333 31.2886 61.6074 31.2104C61.5869 31.1321 61.596 31.0491 61.6329 30.977C61.6697 30.905 61.7317 30.849 61.8072 30.8197C62.2954 30.704 62.804 30.705 63.2916 30.8227C63.7793 30.9404 64.2324 31.1714 64.6139 31.497C64.6796 31.5485 64.7226 31.6235 64.734 31.7061C64.7453 31.7888 64.7241 31.8726 64.6747 31.9398C64.6306 31.9813 64.5768 32.0112 64.5183 32.0267Z" fill="#2E353A"/>
<path d="M46.6703 34.9789C46.6703 34.9789 49.7724 33.824 50.0157 26.9556C51.5149 27.441 53.0963 27.6212 54.6664 27.4855C56.2364 27.3498 57.7633 26.9009 59.1569 26.1654C59.1569 26.1654 67.0468 31.1583 67.5334 24.6546C66.8717 24.8538 66.1598 24.8028 65.5333 24.5114C64.9067 24.2199 64.4094 23.7084 64.1359 23.0742C64.7066 22.5532 65.0797 21.8513 65.1921 21.0871C65.3045 20.3228 65.1493 19.5433 64.7528 18.8802C64.7528 18.8802 61.4943 21.19 59.1569 19.2449C56.8194 17.2999 46.4878 15.2333 45.3321 21.7978C45.3321 21.7978 41.3698 21.4852 41.561 26.1394C41.7521 30.7936 41.1352 31.8356 39.6406 31.5143C39.6406 31.5143 41.196 35.526 43.8115 33.4507C43.8115 33.4507 45.2105 37.5405 41.6218 38.018C41.6218 38.0354 46.4009 43.089 46.6703 34.9789Z" fill="#263238"/>
<path d="M45.9664 22.1108C45.5946 21.5681 45.3674 20.9396 45.3066 20.2847C45.2458 19.6297 45.3533 18.9701 45.6189 18.3683C45.6502 18.3125 45.6606 18.2473 45.6482 18.1845C45.6357 18.1217 45.6013 18.0654 45.5511 18.0257C45.5009 17.9859 45.4381 17.9654 45.3741 17.9677C45.3101 17.97 45.249 17.9951 45.2018 18.0384C43.2641 19.7229 40.7615 22.5189 45.9664 22.1108Z" fill="#263238"/>
<path d="M42.9688 36.0643C43.3253 37.6539 44.2296 39.0677 45.5234 40.0586C47.1831 41.2742 48.4344 39.7981 48.3388 37.7228C48.2606 35.8472 47.2961 32.9557 45.4626 32.5823C43.6292 32.209 42.5169 34.0672 42.9688 36.0643Z" fill="#B97964"/>
<path d="M72.382 57.7808V109.88L37.6854 110.444L32.1416 59.4393C31.8897 57.1382 33.8795 55.0977 36.5384 55.0108L67.5246 53.717C70.2009 53.6215 72.382 55.471 72.382 57.7808Z" fill="#407BFF"/>
<path opacity="0.5" d="M72.382 57.7808V109.88L37.6854 110.444L32.1416 59.4393C31.8897 57.1382 33.8795 55.0977 36.5384 55.0108L67.5246 53.717C70.2009 53.6215 72.382 55.471 72.382 57.7808Z" fill="white"/>
<path d="M56.7323 53.04L52.3876 54.9677L44.7844 53.3874L43.4028 55.7839L47.9213 60.2558C48.039 60.3695 48.1791 60.4574 48.3326 60.5141C48.4861 60.5709 48.6497 60.5951 48.8131 60.5853C48.9765 60.5755 49.1361 60.5319 49.2817 60.4572C49.4273 60.3826 49.5559 60.2785 49.6591 60.1516L52.3702 56.6783L57.1407 59.7261C57.325 59.8417 57.5377 59.9042 57.7553 59.9067C57.9729 59.9092 58.187 59.8515 58.3739 59.7402C58.5608 59.6288 58.7133 59.4681 58.8147 59.2756C58.916 59.0831 58.9621 58.8664 58.948 58.6494L58.6352 54.3946L56.7323 53.04Z" fill="#407BFF"/>
<path opacity="0.8" d="M56.7323 53.04L52.3876 54.9677L44.7844 53.3874L43.4028 55.7839L47.9213 60.2558C48.039 60.3695 48.1791 60.4574 48.3326 60.5141C48.4861 60.5709 48.6497 60.5951 48.8131 60.5853C48.9765 60.5755 49.1361 60.5319 49.2817 60.4572C49.4273 60.3826 49.5559 60.2785 49.6591 60.1516L52.3702 56.6783L57.1407 59.7261C57.325 59.8417 57.5377 59.9042 57.7553 59.9067C57.9729 59.9092 58.187 59.8515 58.3739 59.7402C58.5608 59.6288 58.7133 59.4681 58.8147 59.2756C58.916 59.0831 58.9621 58.8664 58.948 58.6494L58.6352 54.3946L56.7323 53.04Z" fill="white"/>
<path d="M88.136 258.562L88.5705 263.347L78.4735 265.326L76.9702 260.75L88.136 258.562Z" fill="#263238"/>
<path opacity="0.3" d="M88.136 258.562L88.5705 263.347L78.4735 265.326L76.9702 260.75L88.136 258.562Z" fill="white"/>
<path d="M44.1677 260.186L43.3596 264.97H32.8195L32.5327 260.186H44.1677Z" fill="#263238"/>
<path opacity="0.3" d="M44.1677 260.186L43.3596 264.97H32.8195L32.5327 260.186H44.1677Z" fill="white"/>
<path d="M43.6811 54.0299C43.6811 54.0299 51.936 73.0722 53.4479 79.8016C54.9077 86.2619 55.1076 102.56 55.1076 110.749C55.1076 113.232 52.5008 115.09 49.6941 114.491L35.5132 111.773C35.5132 111.773 34.1316 92.3141 33.3234 85.8538C32.4545 78.6207 29.0917 60.0127 30.482 56.8607C32.3155 52.7188 43.6811 54.0299 43.6811 54.0299Z" fill="#407BFF"/>
<path opacity="0.1" d="M32.3069 82.9362C38.3894 73.2632 37.6247 64.9883 37.6247 64.9883L34.8094 64.12L30.7949 70.2763C31.2033 74.3052 31.7768 78.8464 32.3069 82.9362Z" fill="black"/>
<path d="M36.7905 57.0256C36.2323 56.1747 35.369 55.5699 34.3782 55.3357C33.3874 55.1015 32.3444 55.2557 31.4639 55.7665C28.7528 57.3382 24.8253 61.0633 20.6544 69.894C13.0338 86.036 13.3553 96.8118 20.1678 104.731C26.9802 112.65 38.0504 121.081 38.0504 121.081L42.9165 115.489C42.9165 115.489 26.2156 100.728 26.4067 91.4196C26.5371 83.8913 32.2025 74.8521 35.4871 69.894C37.3466 66.9765 40.2141 62.8607 36.7905 57.0256Z" fill="#407BFF"/>
<path d="M90.2998 67.48L92.9066 61.5321L98.6068 53.7173L102.604 56.8953L100.77 61.3584C100.626 61.6901 100.413 61.988 100.147 62.2332C99.8809 62.4784 99.5664 62.6655 99.2237 62.7825L96.4953 63.781L94.9573 69.3035L90.2998 67.48Z" fill="#B97964"/>
<path d="M72.869 55.6536C76.7096 61.0719 80.4113 78.5251 83.4526 78.5251C85.7639 78.5251 90.6213 64.5452 90.6213 64.5452L96.4605 67.0546C96.4605 67.0546 92.6893 90.3169 84.7907 91.8017C76.8921 93.2865 69.8451 73.923 68.7328 66.3166C68.3157 63.4511 68.7763 49.8793 72.869 55.6536Z" fill="#407BFF"/>
<path opacity="0.1" d="M70.7224 61.5234L68.6543 65.4309C68.6543 65.7782 68.6977 66.0821 68.7325 66.2992C69.5145 71.6741 73.2596 82.9101 78.1778 88.5281C74.2242 80.1141 73.2509 63.6248 73.2509 63.6248L70.7224 61.5234Z" fill="black"/>
<path d="M58.6445 53.5523C58.6445 53.5523 59.8002 72.6987 60.1999 79.1677C60.5996 85.7843 62.2506 102.057 63.1022 110.306C63.3628 112.824 66.2825 114.439 69.0022 113.579L74.2158 112.199L73.7292 82.0939C73.7292 82.0939 73.8769 58.0936 72.8603 55.6536C71.0703 51.4423 58.6445 53.5523 58.6445 53.5523Z" fill="#407BFF"/>
<path d="M95.8347 61.2022H92.3155C92.1999 61.2141 92.0832 61.1953 91.9772 61.1478C91.8712 61.1002 91.7796 61.0255 91.7118 60.9312C91.6439 60.837 91.6021 60.7265 91.5906 60.6109C91.5792 60.4954 91.5984 60.3789 91.6464 60.2731L98.2677 48.412C98.4314 48.1389 98.6651 47.9145 98.9447 47.7619C99.2242 47.6092 99.5394 47.5339 99.8578 47.5436H103.377C103.493 47.5289 103.612 47.5458 103.719 47.5925C103.827 47.6393 103.92 47.7142 103.988 47.8093C104.057 47.9044 104.098 48.0163 104.108 48.1331C104.119 48.2498 104.097 48.3672 104.046 48.4727L97.4248 60.3339C97.2597 60.6057 97.0257 60.8291 96.7465 60.9816C96.4673 61.134 96.1527 61.2102 95.8347 61.2022Z" fill="#407BFF"/>
<path opacity="0.2" d="M104.089 47.9256C104.022 47.8065 103.923 47.708 103.804 47.6407C103.684 47.5735 103.549 47.5399 103.412 47.5436H99.8925C99.5741 47.5338 99.2589 47.6092 98.9793 47.7618C98.6998 47.9144 98.4661 48.1389 98.3023 48.4119L93.332 57.3209L104.089 47.9256Z" fill="white"/>
<path d="M103.377 47.5435H103.264C103.256 47.6104 103.235 47.6751 103.203 47.7345L96.5732 59.5959C96.4081 59.8677 96.1741 60.0911 95.8949 60.2436C95.6157 60.3961 95.3012 60.4722 94.9831 60.4642H91.5769C91.569 60.5632 91.5827 60.6626 91.6171 60.7557C91.6514 60.8488 91.7056 60.9334 91.7758 61.0035C91.846 61.0737 91.9306 61.1278 92.0238 61.1621C92.1169 61.1965 92.2165 61.2102 92.3154 61.2023H95.8346C96.1527 61.2103 96.4673 61.1342 96.7465 60.9817C97.0257 60.8292 97.2597 60.6058 97.4248 60.334L104.089 48.4726C104.144 48.3634 104.167 48.2411 104.155 48.1197C104.143 47.9982 104.098 47.8825 104.024 47.7856C103.949 47.6888 103.849 47.6147 103.735 47.5719C103.621 47.5291 103.497 47.5193 103.377 47.5435Z" fill="#407BFF"/>
<path opacity="0.2" d="M103.377 47.5435H103.264C103.256 47.6104 103.235 47.6751 103.203 47.7345L96.5732 59.5959C96.4081 59.8677 96.1741 60.0911 95.8949 60.2436C95.6157 60.3961 95.3012 60.4722 94.9831 60.4642H91.5769C91.569 60.5632 91.5827 60.6626 91.6171 60.7557C91.6514 60.8488 91.7056 60.9334 91.7758 61.0035C91.846 61.0737 91.9306 61.1278 92.0238 61.1621C92.1169 61.1965 92.2165 61.2102 92.3154 61.2023H95.8346C96.1527 61.2103 96.4673 61.1342 96.7465 60.9817C97.0257 60.8292 97.2597 60.6058 97.4248 60.334L104.089 48.4726C104.144 48.3634 104.167 48.2411 104.155 48.1197C104.143 47.9982 104.098 47.8825 104.024 47.7856C103.949 47.6888 103.849 47.6147 103.735 47.5719C103.621 47.5291 103.497 47.5193 103.377 47.5435Z" fill="black"/>
<path d="M102.021 56.5392L100.475 54.8025C100.384 54.7066 100.272 54.6326 100.149 54.5862C100.025 54.5399 99.8924 54.5223 99.7608 54.5348C99.6293 54.5474 99.5024 54.5898 99.3897 54.6587C99.277 54.7277 99.1815 54.8214 99.1106 54.9328L97.8332 56.9734C97.7474 57.1175 97.7051 57.2834 97.7116 57.451L97.8419 63.1387L100.032 62.7826L102.273 59.0488C102.502 58.6575 102.601 58.2039 102.556 57.7531C102.51 57.3022 102.323 56.8773 102.021 56.5392Z" fill="#B97964"/>
<path d="M88.1358 33.1294C93.5827 33.1294 97.9982 28.717 97.9982 23.2739C97.9982 17.8309 93.5827 13.4185 88.1358 13.4185C82.689 13.4185 78.2734 17.8309 78.2734 23.2739C78.2734 28.717 82.689 33.1294 88.1358 33.1294Z" fill="#407BFF"/>
<path d="M89.3175 33.1294C94.7643 33.1294 99.1799 28.717 99.1799 23.2739C99.1799 17.8309 94.7643 13.4185 89.3175 13.4185C83.8706 13.4185 79.4551 17.8309 79.4551 23.2739C79.4551 28.717 83.8706 33.1294 89.3175 33.1294Z" fill="#407BFF"/>
<path opacity="0.3" d="M89.3175 33.1294C94.7643 33.1294 99.1799 28.717 99.1799 23.2739C99.1799 17.8309 94.7643 13.4185 89.3175 13.4185C83.8706 13.4185 79.4551 17.8309 79.4551 23.2739C79.4551 28.717 83.8706 33.1294 89.3175 33.1294Z" fill="white"/>
<path d="M89.3177 30.6458C93.392 30.6458 96.6949 27.3452 96.6949 23.2737C96.6949 19.2023 93.392 15.9017 89.3177 15.9017C85.2433 15.9017 81.9404 19.2023 81.9404 23.2737C81.9404 27.3452 85.2433 30.6458 89.3177 30.6458Z" fill="white"/>
<path d="M93.3322 23.8472C93.0442 23.4874 92.6531 23.2238 92.2113 23.0918C92.545 22.9195 92.8268 22.6618 93.0281 22.345C93.2239 22.0169 93.3261 21.6416 93.3236 21.2596C93.3312 20.9476 93.2604 20.6387 93.1177 20.3611C92.975 20.0835 92.765 19.8461 92.5068 19.6706C92.0219 19.3569 91.4664 19.1689 90.8905 19.1235V18.5244H89.9608V19.0888H89.031V18.5244H88.1013V19.0888H86.0767V27.4333H88.1013V28.0238H89.031V27.4333H89.9608V28.0238H90.8905V27.4073C91.5926 27.4019 92.2802 27.2069 92.8804 26.8429C93.1588 26.6613 93.3852 26.4106 93.5375 26.1153C93.6898 25.82 93.7628 25.4903 93.7493 25.1584C93.7608 24.687 93.614 24.2254 93.3322 23.8472ZM87.997 20.5389H89.9173C90.2962 20.5152 90.6738 20.6027 91.0035 20.7907C91.1266 20.8666 91.2265 20.9746 91.2923 21.1032C91.3582 21.2318 91.3875 21.376 91.3771 21.5201C91.3863 21.6652 91.3565 21.8102 91.2908 21.9399C91.2251 22.0697 91.1259 22.1796 91.0035 22.2582C90.6738 22.4462 90.2962 22.5337 89.9173 22.51H87.997V20.5389ZM91.4032 25.7488C91.0516 25.9372 90.6545 26.0244 90.2562 26.0006H87.997V23.934H90.2562C91.2816 23.934 91.7942 24.2814 91.7942 24.9673C91.8009 25.1176 91.7683 25.2671 91.6998 25.401C91.6313 25.535 91.529 25.6488 91.4032 25.7314V25.7488Z" fill="#407BFF"/>
<path d="M11.9044 55.8531C18.479 55.8531 23.8088 50.5271 23.8088 43.9572C23.8088 37.3872 18.479 32.0612 11.9044 32.0612C5.32978 32.0612 0 37.3872 0 43.9572C0 50.5271 5.32978 55.8531 11.9044 55.8531Z" fill="#407BFF"/>
<path d="M13.3297 55.8531C19.9043 55.8531 25.234 50.5271 25.234 43.9572C25.234 37.3872 19.9043 32.0612 13.3297 32.0612C6.75507 32.0612 1.42529 37.3872 1.42529 43.9572C1.42529 50.5271 6.75507 55.8531 13.3297 55.8531Z" fill="#407BFF"/>
<path opacity="0.3" d="M13.3297 55.8531C19.9043 55.8531 25.234 50.5271 25.234 43.9572C25.234 37.3872 19.9043 32.0612 13.3297 32.0612C6.75507 32.0612 1.42529 37.3872 1.42529 43.9572C1.42529 50.5271 6.75507 55.8531 13.3297 55.8531Z" fill="white"/>
<path d="M19.6313 50.2609C23.113 46.7817 23.1129 41.1409 19.6313 37.6617C16.1497 34.1825 10.5049 34.1825 7.02327 37.6617C3.54165 41.1409 3.54165 46.7817 7.02327 50.2609C10.5049 53.7401 16.1497 53.7401 19.6313 50.2609Z" fill="white"/>
<path d="M18.1783 44.6259C17.8359 44.1847 17.3607 43.8651 16.8228 43.7142C17.2266 43.5213 17.5694 43.2209 17.8133 42.8459C18.0513 42.4503 18.1746 41.9964 18.1696 41.5348C18.1805 41.1573 18.0953 40.7832 17.922 40.4476C17.7488 40.112 17.4931 39.8258 17.179 39.6158C16.5958 39.2364 15.9265 39.0095 15.2326 38.9559V38.2266H14.1117V38.9125H12.9821V38.2266H11.8611V38.9125H9.41943V48.9674H11.8611V49.6794H12.9821V48.9674H14.1117V49.6794H15.2326V48.9674C16.0813 48.9625 16.913 48.7285 17.6395 48.2902C17.9725 48.0672 18.2425 47.7624 18.4236 47.405C18.6047 47.0477 18.6908 46.6498 18.6736 46.2496C18.7008 45.6675 18.5258 45.0939 18.1783 44.6259ZM11.7395 40.6317H14.0595C14.5163 40.6011 14.9721 40.7037 15.3716 40.927C15.5136 41.0218 15.6289 41.1514 15.7064 41.3034C15.784 41.4554 15.8213 41.6248 15.8148 41.7953C15.8197 41.9655 15.7817 42.1343 15.7042 42.286C15.6268 42.4377 15.5124 42.5676 15.3716 42.6636C14.973 42.8899 14.5171 42.9955 14.0595 42.9675H11.7395V40.6317ZM15.8495 46.9009C15.4224 47.1261 14.9411 47.2283 14.4593 47.1961H11.7395V44.7041H14.4593C15.7018 44.7041 16.3188 45.1295 16.3188 45.9631C16.3343 46.1511 16.299 46.3397 16.2164 46.5093C16.1338 46.6789 16.0071 46.8231 15.8495 46.9269V46.9009Z" fill="#407BFF"/>
<path d="M22.1928 19.766C27.4813 19.766 31.7685 15.4818 31.7685 10.1971C31.7685 4.91232 27.4813 0.628174 22.1928 0.628174C16.9044 0.628174 12.6172 4.91232 12.6172 10.1971C12.6172 15.4818 16.9044 19.766 22.1928 19.766Z" fill="#407BFF"/>
<path d="M23.3398 19.766C28.6283 19.766 32.9154 15.4818 32.9154 10.1971C32.9154 4.91232 28.6283 0.628174 23.3398 0.628174C18.0513 0.628174 13.7642 4.91232 13.7642 10.1971C13.7642 15.4818 18.0513 19.766 23.3398 19.766Z" fill="#407BFF"/>
<path opacity="0.3" d="M23.3398 19.766C28.6283 19.766 32.9154 15.4818 32.9154 10.1971C32.9154 4.91232 28.6283 0.628174 23.3398 0.628174C18.0513 0.628174 13.7642 4.91232 13.7642 10.1971C13.7642 15.4818 18.0513 19.766 23.3398 19.766Z" fill="white"/>
<path d="M26.0887 16.8173C29.7465 15.3033 31.4835 11.1128 29.9684 7.45755C28.4533 3.80234 24.2598 2.06658 20.602 3.58062C16.9442 5.09465 15.2072 9.28515 16.7223 12.9404C18.2375 16.5956 22.4309 18.3313 26.0887 16.8173Z" fill="white"/>
<path d="M27.2412 10.7616C26.9665 10.4069 26.5861 10.1484 26.155 10.0235C26.4836 9.86188 26.7583 9.60852 26.9458 9.29411C27.1395 8.97832 27.239 8.61381 27.2325 8.24344C27.2412 7.94018 27.1733 7.63961 27.0351 7.36948C26.8969 7.09935 26.6929 6.86835 26.4418 6.69782C25.9706 6.39826 25.4341 6.21657 24.8777 6.16815V5.55164H24.0088V6.09868H23.0964V5.55164H22.2275V6.09868H20.2637V14.2349H22.2275V14.808H23.0964V14.2349H24.0088V14.808H24.8777V14.2349C25.5582 14.229 26.2246 14.04 26.8067 13.6878C27.0816 13.5132 27.3063 13.27 27.4587 12.9823C27.611 12.6945 27.6858 12.3721 27.6757 12.0467C27.6853 11.5808 27.5316 11.1262 27.2412 10.7616ZM22.0276 7.54879H23.8958C24.2615 7.52509 24.6263 7.60644 24.9472 7.78323C25.0653 7.85938 25.1612 7.9653 25.2253 8.0903C25.2894 8.21531 25.3193 8.35499 25.3122 8.49526C25.32 8.63683 25.2904 8.77797 25.2263 8.90448C25.1623 9.031 25.066 9.13843 24.9472 9.21597C24.6289 9.40008 24.2627 9.48476 23.8958 9.4591H22.0624L22.0276 7.54879ZM25.3382 12.5851C24.995 12.7701 24.6064 12.8544 24.2173 12.8282H22.0624V10.8224H24.2521C25.2513 10.8224 25.7466 11.161 25.7466 11.8296C25.7522 11.9754 25.7208 12.1203 25.6555 12.2508C25.5902 12.3813 25.4931 12.4933 25.373 12.5764L25.3382 12.5851Z" fill="#407BFF"/>
</svg>
