<svg width="420" height="292" viewBox="0 0 420 292" fill="none" xmlns="http://www.w3.org/2000/svg">
<path d="M420 253.526H0V253.736H420V253.526Z" fill="#E6E6E6"/>
<path d="M317.234 262.415H288.338V262.625H317.234V262.415Z" fill="#E6E6E6"/>
<path d="M93.2736 262.516H77.0112V262.726H93.2736V262.516Z" fill="#E6E6E6"/>
<path d="M210.84 262.029H177.878V262.239H210.84V262.029Z" fill="#E6E6E6"/>
<path d="M177.038 259.041H162.305V259.251H177.038V259.041Z" fill="#E6E6E6"/>
<path d="M356.63 259.15H312.119V259.36H356.63V259.15Z" fill="#E6E6E6"/>
<path d="M301.073 121.983L326.634 0H341.771L316.21 121.983H301.073Z" fill="white"/>
<path d="M237.603 117.685V45.4373H250.203C250.203 45.4373 257.427 60.0262 264.625 76.7975C266.54 81.2598 267.316 86.1272 266.885 90.9632C266.453 95.7992 264.826 100.452 262.151 104.505C259.476 108.558 255.835 111.884 251.557 114.184C247.278 116.485 242.495 117.688 237.636 117.685H237.603Z" fill="#E0E0E0"/>
<path d="M249.799 41.6096H238.064C237.368 41.6096 236.804 42.1734 236.804 42.8688V44.1783C236.804 44.8737 237.368 45.4375 238.064 45.4375H249.799C250.495 45.4375 251.059 44.8737 251.059 44.1783V42.8688C251.059 42.1734 250.495 41.6096 249.799 41.6096Z" fill="#F5F5F5"/>
<path d="M349.818 45.4373H361.553C362.249 45.4373 362.813 44.8736 362.813 44.1782V42.8689C362.813 42.1735 362.249 41.6099 361.553 41.6099H349.818C349.122 41.6099 348.558 42.1735 348.558 42.8689V44.1782C348.558 44.8736 349.122 45.4373 349.818 45.4373Z" fill="#F5F5F5"/>
<path d="M175.837 53.0676H121.052V108.224H175.837V53.0676Z" fill="#FAFAFA"/>
<path d="M170.184 102.593V58.7251H126.697V102.593H170.184Z" fill="white"/>
<path d="M136.92 80.65C136.922 77.9021 138.016 75.2674 139.961 73.3251C141.907 71.3828 144.544 70.2917 147.294 70.2917H149.629C152.378 70.294 155.013 71.386 156.956 73.3281C158.9 75.2701 159.992 77.9035 159.995 80.65C159.995 82.0103 159.727 83.3572 159.206 84.614C158.685 85.8707 157.921 87.0126 156.959 87.9744C155.996 88.9363 154.853 89.6993 153.596 90.2198C152.338 90.7404 150.99 91.0083 149.629 91.0083H147.294C145.932 91.0094 144.583 90.7423 143.325 90.2222C142.066 89.7022 140.922 88.9394 139.959 87.9774C138.995 87.0154 138.231 85.8732 137.71 84.6159C137.188 83.3586 136.92 82.011 136.92 80.65Z" fill="#F5F5F5"/>
<path d="M295.966 159.177H259.921V256.497H295.966V159.177Z" fill="#E0E0E0"/>
<path d="M286.339 256.497H295.966V240.381H276.251L286.339 256.497Z" fill="#FAFAFA"/>
<path d="M81.102 256.497H71.4756V240.381H91.1904L81.102 256.497Z" fill="#FAFAFA"/>
<path d="M288.507 209.012H78.9434V242.789H288.507V209.012Z" fill="#F0F0F0"/>
<path d="M134.013 171.625H123.135C123.135 171.625 125.025 178.147 125.025 181.984C125.025 185.82 116.751 200.853 128.579 200.853C140.406 200.853 132.123 185.82 132.123 181.984C132.123 178.147 134.013 171.625 134.013 171.625Z" fill="#FAFAFA"/>
<path d="M91.1904 182.957V188.892C91.1904 195.473 97.5576 200.853 105.336 200.853H112.35C120.128 200.853 126.496 195.473 126.496 188.892V182.957H91.1904Z" fill="#F0F0F0"/>
<path d="M179.382 242.186H196.132V214.309H179.382V242.186Z" fill="white"/>
<path d="M193.519 242.614H194.662V214.737H193.519V242.614Z" fill="#E6E6E6"/>
<path d="M194.745 242.823H197.669C197.891 242.823 198.072 242.643 198.072 242.42V214.921C198.072 214.699 197.891 214.519 197.669 214.519H194.745C194.523 214.519 194.342 214.699 194.342 214.921V242.42C194.342 242.643 194.523 242.823 194.745 242.823Z" fill="#EBEBEB"/>
<path d="M194.342 227.597H198.072V220.982H194.342V227.597Z" fill="white"/>
<path d="M194.342 233.724H198.072V229.645H194.342V233.724Z" fill="white"/>
<path d="M178.525 242.823H193.62C193.843 242.823 194.023 242.643 194.023 242.42V214.921C194.023 214.699 193.843 214.519 193.62 214.519H178.525C178.303 214.519 178.122 214.699 178.122 214.921V242.42C178.122 242.643 178.303 242.823 178.525 242.823Z" fill="#EBEBEB"/>
<path d="M171.209 242.11H189.689V211.354H171.209V242.11Z" fill="white"/>
<path d="M186.825 242.597H188.076V211.841H186.825V242.597Z" fill="#E6E6E6"/>
<path d="M188.169 242.832H191.394C191.64 242.832 191.839 242.633 191.839 242.387V212.051C191.839 211.805 191.64 211.606 191.394 211.606H188.169C187.923 211.606 187.723 211.805 187.723 212.051V242.387C187.723 242.633 187.923 242.832 188.169 242.832Z" fill="#F0F0F0"/>
<path d="M187.723 222.619H191.839V221.553H187.723V222.619Z" fill="white"/>
<path d="M187.723 225.7H191.839V224.633H187.723V225.7Z" fill="white"/>
<path d="M187.723 228.78H191.839V227.714H187.723V228.78Z" fill="white"/>
<path d="M170.276 242.832H186.925C187.171 242.832 187.37 242.633 187.37 242.387V212.051C187.37 211.805 187.171 211.606 186.925 211.606H170.276C170.03 211.606 169.831 211.805 169.831 212.051V242.387C169.831 242.633 170.03 242.832 170.276 242.832Z" fill="#F0F0F0"/>
<path d="M148.445 232.113C148.447 233.049 148.17 233.966 147.651 234.745C147.131 235.525 146.392 236.133 145.526 236.493C144.661 236.852 143.708 236.947 142.788 236.766C141.869 236.584 141.024 236.134 140.36 235.472C139.697 234.81 139.245 233.966 139.061 233.048C138.878 232.129 138.971 231.177 139.33 230.311C139.688 229.446 140.295 228.706 141.074 228.185C141.854 227.665 142.77 227.387 143.707 227.387C144.962 227.387 146.166 227.884 147.054 228.77C147.943 229.656 148.443 230.859 148.445 232.113Z" fill="#FAFAFA"/>
<path d="M140.372 234.371C140.372 235.103 140.155 235.819 139.748 236.427C139.341 237.036 138.762 237.511 138.085 237.791C137.408 238.071 136.664 238.144 135.945 238.001C135.226 237.859 134.566 237.506 134.048 236.988C133.53 236.471 133.177 235.811 133.035 235.093C132.892 234.375 132.965 233.631 133.245 232.954C133.526 232.278 134.001 231.7 134.61 231.293C135.219 230.886 135.935 230.669 136.668 230.669C137.65 230.671 138.59 231.062 139.285 231.756C139.979 232.45 140.37 233.39 140.372 234.371Z" fill="#FAFAFA"/>
<path d="M156.551 234.371C156.551 235.307 156.273 236.222 155.752 237.001C155.232 237.779 154.492 238.386 153.626 238.745C152.761 239.103 151.808 239.197 150.889 239.014C149.97 238.831 149.126 238.38 148.463 237.718C147.801 237.056 147.35 236.213 147.167 235.294C146.984 234.376 147.078 233.424 147.436 232.559C147.795 231.694 148.402 230.954 149.181 230.434C149.96 229.914 150.876 229.636 151.813 229.636C153.069 229.638 154.273 230.138 155.161 231.025C156.049 231.913 156.549 233.116 156.551 234.371Z" fill="#FAFAFA"/>
<path d="M164.313 232.985C164.313 233.922 164.035 234.837 163.514 235.615C162.994 236.394 162.254 237.001 161.388 237.359C160.522 237.717 159.57 237.811 158.651 237.629C157.732 237.446 156.888 236.995 156.225 236.333C155.562 235.671 155.111 234.827 154.928 233.909C154.746 232.991 154.839 232.039 155.198 231.174C155.557 230.309 156.164 229.569 156.943 229.049C157.722 228.529 158.638 228.251 159.575 228.251C160.831 228.251 162.037 228.75 162.925 229.638C163.813 230.526 164.313 231.73 164.313 232.985Z" fill="#FAFAFA"/>
<path d="M123.631 233.598C123.631 233.598 124.278 242.832 149.201 242.832C174.124 242.832 174.771 233.598 174.771 233.598H123.631Z" fill="#F5F5F5"/>
<path d="M193.519 191.62C193.519 191.62 194.552 200.853 234.049 200.853C273.546 200.853 274.571 191.62 274.571 191.62H193.519Z" fill="white"/>
<path d="M210 291.433C299.949 291.433 372.868 287.179 372.868 281.931C372.868 276.684 299.949 272.429 210 272.429C120.051 272.429 47.1323 276.684 47.1323 281.931C47.1323 287.179 120.051 291.433 210 291.433Z" fill="#F5F5F5"/>
<path d="M123.414 156.092C141.181 138.338 141.181 109.553 123.414 91.7987C105.647 74.0446 76.8418 74.0446 59.0752 91.7987C41.3085 109.553 41.3085 138.338 59.0752 156.092C76.8418 173.846 105.647 173.846 123.414 156.092Z" fill="#407BFF"/>
<path opacity="0.4" d="M123.414 156.092C141.181 138.338 141.181 109.553 123.414 91.7987C105.647 74.0446 76.8418 74.0446 59.0752 91.7987C41.3085 109.553 41.3085 138.338 59.0752 156.092C76.8418 173.846 105.647 173.846 123.414 156.092Z" fill="black"/>
<path opacity="0.2" d="M128.907 130.365C132.455 109.581 118.47 89.8581 97.6717 86.3129C76.873 82.7677 57.1364 96.7425 53.5887 117.526C50.041 138.31 64.0257 158.033 84.8243 161.578C105.623 165.124 125.36 151.149 128.907 130.365Z" fill="black"/>
<path d="M130.733 127.601C132.151 107.361 116.881 89.8046 96.6262 88.3878C76.3715 86.971 58.8024 102.23 57.3846 122.471C55.9668 142.711 71.2371 160.267 91.4918 161.684C111.747 163.101 129.316 147.842 130.733 127.601Z" fill="#407BFF"/>
<path opacity="0.4" d="M130.733 127.601C132.151 107.361 116.881 89.8046 96.6262 88.3878C76.3715 86.971 58.8024 102.23 57.3846 122.471C55.9668 142.711 71.2371 160.267 91.4918 161.684C111.747 163.101 129.316 147.842 130.733 127.601Z" fill="black"/>
<path d="M106.352 120.446L108.746 130.813C108.848 131.209 108.866 131.621 108.799 132.024C108.733 132.428 108.583 132.813 108.36 133.155C108.143 133.505 107.858 133.807 107.521 134.045C107.185 134.283 106.805 134.451 106.402 134.54L97.2801 136.647L98.9601 143.941C99.0589 144.335 99.0741 144.746 99.0046 145.146C98.9352 145.547 98.7827 145.928 98.5569 146.266C98.3399 146.61 98.054 146.906 97.7171 147.134C97.3803 147.362 96.9998 147.518 96.5997 147.592C96.1988 147.693 95.7819 147.712 95.3736 147.648C94.9653 147.585 94.5739 147.44 94.2225 147.223C93.8724 147.017 93.5691 146.741 93.3319 146.411C93.0947 146.082 92.9288 145.706 92.8449 145.309L91.1649 137.931L82.1181 140.021C81.7282 140.115 81.3233 140.129 80.9278 140.063C80.5322 139.997 80.1542 139.851 79.8165 139.635C79.4655 139.429 79.1611 139.153 78.9225 138.823C78.6839 138.494 78.5164 138.119 78.4305 137.721C78.335 137.329 78.3199 136.921 78.3864 136.523C78.4528 136.125 78.5992 135.744 78.8169 135.404C79.0245 135.057 79.3019 134.756 79.6314 134.52C79.961 134.285 80.3357 134.12 80.7321 134.036L101.9 129.159L100.909 124.853L79.7997 129.713C79.4089 129.813 79.0019 129.832 78.6035 129.77C78.205 129.708 77.8232 129.566 77.4813 129.352C77.1307 129.142 76.8278 128.861 76.592 128.527C76.3563 128.193 76.1928 127.814 76.1121 127.413L73.7265 117.089C73.5429 116.295 73.6822 115.461 74.1138 114.77C74.5454 114.079 75.234 113.587 76.0281 113.404L85.0329 111.33L83.3529 104.028C83.2555 103.641 83.2365 103.24 83.2971 102.846C83.3577 102.452 83.4966 102.075 83.7057 101.736C83.9272 101.369 84.2247 101.053 84.5781 100.81C84.9316 100.567 85.3329 100.402 85.7553 100.326C86.1437 100.231 86.5473 100.217 86.9416 100.283C87.3358 100.35 87.7124 100.496 88.0485 100.712C88.3934 100.924 88.6918 101.204 88.9257 101.534C89.1596 101.864 89.3241 102.239 89.4093 102.634L91.0893 109.929L100.329 107.813C100.729 107.717 101.144 107.702 101.55 107.769C101.955 107.837 102.343 107.986 102.69 108.208C103.04 108.409 103.345 108.681 103.585 109.006C103.825 109.331 103.995 109.702 104.084 110.096C104.261 110.908 104.113 111.757 103.672 112.461C103.231 113.166 102.532 113.67 101.724 113.865L80.5557 118.742L81.4797 123.023L102.572 118.163C102.972 118.066 103.387 118.051 103.793 118.119C104.198 118.187 104.586 118.336 104.932 118.558C105.289 118.755 105.599 119.025 105.844 119.351C106.088 119.676 106.262 120.049 106.352 120.446Z" fill="#407BFF"/>
<g opacity="0.7">
<path opacity="0.7" d="M106.352 120.446L108.746 130.813C108.848 131.209 108.866 131.621 108.799 132.024C108.733 132.428 108.583 132.813 108.36 133.155C108.143 133.505 107.858 133.807 107.521 134.045C107.185 134.283 106.805 134.451 106.402 134.54L97.2801 136.647L98.9601 143.941C99.0589 144.335 99.0741 144.746 99.0046 145.146C98.9352 145.547 98.7827 145.928 98.5569 146.266C98.3399 146.61 98.054 146.906 97.7171 147.134C97.3803 147.362 96.9998 147.518 96.5997 147.592C96.1988 147.693 95.7819 147.712 95.3736 147.648C94.9653 147.585 94.5739 147.44 94.2225 147.223C93.8724 147.017 93.5691 146.741 93.3319 146.411C93.0947 146.082 92.9288 145.706 92.8449 145.309L91.1649 137.931L82.1181 140.021C81.7282 140.115 81.3233 140.129 80.9278 140.063C80.5322 139.997 80.1542 139.851 79.8165 139.635C79.4655 139.429 79.1611 139.153 78.9225 138.823C78.6839 138.494 78.5164 138.119 78.4305 137.721C78.335 137.329 78.3199 136.921 78.3864 136.523C78.4528 136.125 78.5992 135.744 78.8169 135.404C79.0245 135.057 79.3019 134.756 79.6314 134.52C79.961 134.285 80.3357 134.12 80.7321 134.036L101.9 129.159L100.909 124.853L79.7997 129.713C79.4089 129.813 79.0019 129.832 78.6035 129.77C78.205 129.708 77.8232 129.566 77.4813 129.352C77.1307 129.142 76.8278 128.861 76.592 128.527C76.3563 128.193 76.1928 127.814 76.1121 127.413L73.7265 117.089C73.5429 116.295 73.6822 115.461 74.1138 114.77C74.5454 114.079 75.234 113.587 76.0281 113.404L85.0329 111.33L83.3529 104.028C83.2555 103.641 83.2365 103.24 83.2971 102.846C83.3577 102.452 83.4966 102.075 83.7057 101.736C83.9272 101.369 84.2247 101.053 84.5781 100.81C84.9316 100.567 85.3329 100.402 85.7553 100.326C86.1437 100.231 86.5473 100.217 86.9416 100.283C87.3358 100.35 87.7124 100.496 88.0485 100.712C88.3934 100.924 88.6918 101.204 88.9257 101.534C89.1596 101.864 89.3241 102.239 89.4093 102.634L91.0893 109.929L100.329 107.813C100.729 107.717 101.144 107.702 101.55 107.769C101.955 107.837 102.343 107.986 102.69 108.208C103.04 108.409 103.345 108.681 103.585 109.006C103.825 109.331 103.995 109.702 104.084 110.096C104.261 110.908 104.113 111.757 103.672 112.461C103.231 113.166 102.532 113.67 101.724 113.865L80.5557 118.742L81.4797 123.023L102.572 118.163C102.972 118.066 103.387 118.051 103.793 118.119C104.198 118.187 104.586 118.336 104.932 118.558C105.289 118.755 105.599 119.025 105.844 119.351C106.088 119.676 106.262 120.049 106.352 120.446Z" fill="white"/>
</g>
<path d="M188.327 87.7917C199.646 74.4071 197.963 54.3875 184.569 43.0767C171.175 31.7659 151.142 33.4469 139.823 46.8315C128.504 60.2161 130.186 80.2356 143.58 91.5465C156.974 102.857 177.008 101.176 188.327 87.7917Z" fill="#407BFF"/>
<path opacity="0.4" d="M188.327 87.7917C199.646 74.4071 197.963 54.3875 184.569 43.0767C171.175 31.7659 151.142 33.4469 139.823 46.8315C128.504 60.2161 130.186 80.2356 143.58 91.5465C156.974 102.857 177.008 101.176 188.327 87.7917Z" fill="black"/>
<path opacity="0.2" d="M184.626 84.2632C194.008 72.9224 192.413 56.1286 181.064 46.7533C169.715 37.378 152.91 38.9714 143.528 50.3123C134.146 61.6531 135.74 78.4469 147.089 87.8221C158.438 97.1974 175.244 95.6041 184.626 84.2632Z" fill="black"/>
<path d="M185.431 84.5418C194.014 73.3187 191.868 57.2671 180.637 48.6895C169.406 40.1119 153.343 42.2565 144.759 53.4796C136.176 64.7027 138.322 80.7543 149.553 89.3319C160.784 97.9095 176.847 95.7649 185.431 84.5418Z" fill="#407BFF"/>
<path opacity="0.4" d="M185.431 84.5418C194.014 73.3187 191.868 57.2671 180.637 48.6895C169.406 40.1119 153.343 42.2565 144.759 53.4796C136.176 64.7027 138.322 80.7543 149.553 89.3319C160.784 97.9095 176.847 95.7649 185.431 84.5418Z" fill="black"/>
<path d="M174.569 69.9141L172.763 77.1162C172.697 77.3901 172.575 77.6472 172.405 77.8713C172.234 78.0953 172.018 78.2813 171.772 78.4173C171.523 78.5687 171.245 78.6684 170.957 78.7102C170.668 78.752 170.374 78.7352 170.092 78.6607L163.8 77.0742L162.523 82.1106C162.458 82.3858 162.337 82.6444 162.166 82.8699C161.995 83.0954 161.779 83.2828 161.532 83.4201C161.294 83.5679 161.028 83.6657 160.751 83.7076C160.474 83.7494 160.191 83.7344 159.919 83.6635C159.64 83.5979 159.376 83.4772 159.144 83.3086C158.912 83.14 158.716 82.9268 158.567 82.6814C158.415 82.4418 158.315 82.1736 158.271 81.8934C158.228 81.6133 158.243 81.3272 158.315 81.053L159.6 75.9326L153.3 74.3965C153.027 74.3313 152.77 74.2113 152.545 74.0439C152.32 73.8766 152.131 73.6653 151.99 73.4228C151.838 73.1849 151.737 72.9181 151.694 72.6392C151.65 72.3604 151.665 72.0756 151.738 71.8028C151.8 71.5268 151.919 71.2667 152.087 71.0385C152.255 70.8104 152.467 70.6191 152.712 70.4765C152.954 70.3292 153.223 70.2324 153.503 70.192C153.783 70.1516 154.068 70.1685 154.342 70.2415L169.042 73.9265L169.798 70.9382L155.14 67.2616C154.865 67.2002 154.606 67.0828 154.379 66.9167C154.152 66.7506 153.962 66.5394 153.821 66.2963C153.669 66.0569 153.569 65.788 153.529 65.5073C153.488 65.2266 153.507 64.9405 153.586 64.6679L155.383 57.491C155.451 57.2175 155.572 56.96 155.74 56.7336C155.908 56.5072 156.119 56.3162 156.361 56.1718C156.603 56.0274 156.872 55.9324 157.151 55.8923C157.43 55.8522 157.714 55.8678 157.987 55.9381L164.22 57.4994L165.497 52.463C165.559 52.1787 165.679 51.9103 165.849 51.6746C166.02 51.439 166.238 51.2412 166.489 51.0937C166.74 50.9463 167.018 50.8523 167.307 50.8178C167.596 50.7833 167.889 50.809 168.168 50.8933C168.439 50.956 168.694 51.0741 168.916 51.2403C169.139 51.4065 169.325 51.617 169.462 51.8586C169.61 52.098 169.709 52.3651 169.75 52.6436C169.792 52.9221 169.777 53.2063 169.705 53.4787L168.429 58.5151L174.813 60.1183C175.093 60.1852 175.356 60.3082 175.587 60.4799C175.818 60.6516 176.012 60.8684 176.157 61.1172C176.31 61.353 176.412 61.6178 176.459 61.8951C176.505 62.1724 176.494 62.4562 176.425 62.7289C176.355 63.0085 176.23 63.2713 176.057 63.502C175.884 63.7326 175.666 63.9264 175.417 64.0719C175.169 64.2262 174.892 64.3281 174.603 64.3714C174.314 64.4147 174.02 64.3985 173.737 64.3237L159.029 60.6388L158.29 63.6102L172.939 67.2784C173.219 67.3453 173.483 67.4683 173.714 67.64C173.945 67.8117 174.139 68.0285 174.283 68.2773C174.445 68.5139 174.554 68.7824 174.604 69.0648C174.653 69.3471 174.641 69.6368 174.569 69.9141Z" fill="#407BFF"/>
<g opacity="0.7">
<path opacity="0.7" d="M174.569 69.9141L172.763 77.1162C172.697 77.3901 172.575 77.6472 172.405 77.8713C172.234 78.0953 172.018 78.2813 171.772 78.4173C171.523 78.5687 171.245 78.6684 170.957 78.7102C170.668 78.752 170.374 78.7352 170.092 78.6607L163.8 77.0742L162.523 82.1106C162.458 82.3858 162.337 82.6444 162.166 82.8699C161.995 83.0954 161.779 83.2828 161.532 83.4201C161.294 83.5679 161.028 83.6657 160.751 83.7076C160.474 83.7494 160.191 83.7344 159.919 83.6635C159.64 83.5979 159.376 83.4772 159.144 83.3086C158.912 83.14 158.716 82.9268 158.567 82.6814C158.415 82.4418 158.315 82.1736 158.271 81.8934C158.228 81.6133 158.243 81.3272 158.315 81.053L159.6 75.9326L153.3 74.3965C153.027 74.3313 152.77 74.2113 152.545 74.0439C152.32 73.8766 152.131 73.6653 151.99 73.4228C151.838 73.1849 151.737 72.9181 151.694 72.6392C151.65 72.3604 151.665 72.0756 151.738 71.8028C151.8 71.5268 151.919 71.2667 152.087 71.0385C152.255 70.8104 152.467 70.6191 152.712 70.4765C152.954 70.3292 153.223 70.2324 153.503 70.192C153.783 70.1516 154.068 70.1685 154.342 70.2415L169.042 73.9265L169.798 70.9382L155.14 67.2616C154.865 67.2002 154.606 67.0828 154.379 66.9167C154.152 66.7506 153.962 66.5394 153.821 66.2963C153.669 66.0569 153.569 65.788 153.529 65.5073C153.488 65.2266 153.507 64.9405 153.586 64.6679L155.383 57.491C155.451 57.2175 155.572 56.96 155.74 56.7336C155.908 56.5072 156.119 56.3162 156.361 56.1718C156.603 56.0274 156.872 55.9324 157.151 55.8923C157.43 55.8522 157.714 55.8678 157.987 55.9381L164.22 57.4994L165.497 52.463C165.559 52.1787 165.679 51.9103 165.849 51.6746C166.02 51.439 166.238 51.2412 166.489 51.0937C166.74 50.9463 167.018 50.8523 167.307 50.8178C167.596 50.7833 167.889 50.809 168.168 50.8933C168.439 50.956 168.694 51.0741 168.916 51.2403C169.139 51.4065 169.325 51.617 169.462 51.8586C169.61 52.098 169.709 52.3651 169.75 52.6436C169.792 52.9221 169.777 53.2063 169.705 53.4787L168.429 58.5151L174.813 60.1183C175.093 60.1852 175.356 60.3082 175.587 60.4799C175.818 60.6516 176.012 60.8684 176.157 61.1172C176.31 61.353 176.412 61.6178 176.459 61.8951C176.505 62.1724 176.494 62.4562 176.425 62.7289C176.355 63.0085 176.23 63.2713 176.057 63.502C175.884 63.7326 175.666 63.9264 175.417 64.0719C175.169 64.2262 174.892 64.3281 174.603 64.3714C174.314 64.4147 174.02 64.3985 173.737 64.3237L159.029 60.6388L158.29 63.6102L172.939 67.2784C173.219 67.3453 173.483 67.4683 173.714 67.64C173.945 67.8117 174.139 68.0285 174.283 68.2773C174.445 68.5139 174.554 68.7824 174.604 69.0648C174.653 69.3471 174.641 69.6368 174.569 69.9141Z" fill="white"/>
</g>
<path d="M86.7384 259.041H85.8984V268.518H86.7384V259.041Z" fill="#407BFF"/>
<path opacity="0.1" d="M86.7384 259.041H85.8984V268.518H86.7384V259.041Z" fill="black"/>
<path d="M334.102 183.965H333.262V196.95H334.102V183.965Z" fill="#407BFF"/>
<path d="M334.102 203.758H333.262V210.801H334.102V203.758Z" fill="#407BFF"/>
<path opacity="0.1" d="M334.102 183.965H333.262V196.95H334.102V183.965Z" fill="black"/>
<path d="M318.528 127.649H101.48C94.4984 127.649 88.8384 133.305 88.8384 140.282V267.242C88.8384 274.219 94.4984 279.875 101.48 279.875H318.528C325.51 279.875 331.17 274.219 331.17 267.242V140.282C331.17 133.305 325.51 127.649 318.528 127.649Z" fill="#407BFF"/>
<path opacity="0.2" d="M318.528 127.649H101.48C94.4984 127.649 88.8384 133.305 88.8384 140.282V267.242C88.8384 274.219 94.4984 279.875 101.48 279.875H318.528C325.51 279.875 331.17 274.219 331.17 267.242V140.282C331.17 133.305 325.51 127.649 318.528 127.649Z" fill="black"/>
<path opacity="0.2" d="M291.942 180.657C300.603 180.657 307.625 173.641 307.625 164.985C307.625 156.33 300.603 149.314 291.942 149.314C283.281 149.314 276.259 156.33 276.259 164.985C276.259 173.641 283.281 180.657 291.942 180.657Z" fill="black"/>
<path d="M271.698 180.657C280.359 180.657 287.381 173.641 287.381 164.985C287.381 156.33 280.359 149.314 271.698 149.314C263.037 149.314 256.015 156.33 256.015 164.985C256.015 173.641 263.037 180.657 271.698 180.657Z" fill="#407BFF"/>
<path d="M155.182 180.657H117.827C114.821 180.657 112.384 183.092 112.384 186.096V210.498C112.384 213.502 114.821 215.938 117.827 215.938H155.182C158.188 215.938 160.625 213.502 160.625 210.498V186.096C160.625 183.092 158.188 180.657 155.182 180.657Z" fill="#407BFF"/>
<path opacity="0.3" d="M155.182 180.657H117.827C114.821 180.657 112.384 183.092 112.384 186.096V210.498C112.384 213.502 114.821 215.938 117.827 215.938H155.182C158.188 215.938 160.625 213.502 160.625 210.498V186.096C160.625 183.092 158.188 180.657 155.182 180.657Z" fill="white"/>
<path d="M181.029 145.469H116.239C114.11 145.469 112.384 147.192 112.384 149.318C112.384 151.444 114.11 153.167 116.239 153.167H181.029C183.158 153.167 184.884 151.444 184.884 149.318C184.884 147.192 183.158 145.469 181.029 145.469Z" fill="#407BFF"/>
<path opacity="0.3" d="M181.029 145.469H116.239C114.11 145.469 112.384 147.192 112.384 149.318C112.384 151.444 114.11 153.167 116.239 153.167H181.029C183.158 153.167 184.884 151.444 184.884 149.318C184.884 147.192 183.158 145.469 181.029 145.469Z" fill="white"/>
<path d="M147.177 233.448H118.037C114.915 233.448 112.384 235.977 112.384 239.097V244.376C112.384 247.496 114.915 250.025 118.037 250.025H147.177C150.299 250.025 152.83 247.496 152.83 244.376V239.097C152.83 235.977 150.299 233.448 147.177 233.448Z" fill="#407BFF"/>
<path opacity="0.3" d="M147.177 233.448H118.037C114.915 233.448 112.384 235.977 112.384 239.097V244.376C112.384 247.496 114.915 250.025 118.037 250.025H147.177C150.299 250.025 152.83 247.496 152.83 244.376V239.097C152.83 235.977 150.299 233.448 147.177 233.448Z" fill="white"/>
<path d="M198.769 233.448H169.63C166.508 233.448 163.977 235.977 163.977 239.097V244.376C163.977 247.496 166.508 250.025 169.63 250.025H198.769C201.892 250.025 204.423 247.496 204.423 244.376V239.097C204.423 235.977 201.892 233.448 198.769 233.448Z" fill="#407BFF"/>
<path opacity="0.3" d="M198.769 233.448H169.63C166.508 233.448 163.977 235.977 163.977 239.097V244.376C163.977 247.496 166.508 250.025 169.63 250.025H198.769C201.892 250.025 204.423 247.496 204.423 244.376V239.097C204.423 235.977 201.892 233.448 198.769 233.448Z" fill="white"/>
<path d="M250.37 233.448H221.231C218.109 233.448 215.578 235.977 215.578 239.097V244.376C215.578 247.496 218.109 250.025 221.231 250.025H250.37C253.493 250.025 256.024 247.496 256.024 244.376V239.097C256.024 235.977 253.493 233.448 250.37 233.448Z" fill="#407BFF"/>
<path opacity="0.3" d="M250.37 233.448H221.231C218.109 233.448 215.578 235.977 215.578 239.097V244.376C215.578 247.496 218.109 250.025 221.231 250.025H250.37C253.493 250.025 256.024 247.496 256.024 244.376V239.097C256.024 235.977 253.493 233.448 250.37 233.448Z" fill="white"/>
<path d="M301.963 233.448H272.824C269.701 233.448 267.17 235.977 267.17 239.097V244.376C267.17 247.496 269.701 250.025 272.824 250.025H301.963C305.085 250.025 307.616 247.496 307.616 244.376V239.097C307.616 235.977 305.085 233.448 301.963 233.448Z" fill="#407BFF"/>
<path opacity="0.3" d="M301.963 233.448H272.824C269.701 233.448 267.17 235.977 267.17 239.097V244.376C267.17 247.496 269.701 250.025 272.824 250.025H301.963C305.085 250.025 307.616 247.496 307.616 244.376V239.097C307.616 235.977 305.085 233.448 301.963 233.448Z" fill="white"/>
<path d="M246.12 72.5669C244.129 78.1824 241.92 83.6134 239.576 89.0443C237.204 94.567 234.483 99.9333 231.428 105.11C231.017 105.774 230.588 106.437 230.143 107.1L229.816 107.595L229.37 108.208C229.068 108.594 228.782 108.93 228.53 109.257C227.472 110.436 226.35 111.557 225.17 112.615C222.927 114.688 220.643 116.568 218.333 118.423C213.696 122.1 208.958 125.541 204.053 128.807L201.121 125.172L213.469 113.009C215.51 110.986 217.535 108.946 219.425 106.907C220.357 105.891 221.264 104.85 222.012 103.893C222.197 103.658 222.356 103.423 222.499 103.222L222.675 102.936L222.919 102.5C223.247 101.921 223.591 101.358 223.91 100.762C226.481 95.9357 228.749 90.6895 230.933 85.3677C233.117 80.0459 235.217 74.6821 237.233 69.3604L246.12 72.5669Z" fill="#E4897B"/>
<path d="M248.48 68.5211C250.387 74.0948 239.182 90.4885 239.182 90.4885L228.48 84.5371C230.304 79.4219 232.458 74.4309 234.931 69.5956C238.678 62.5109 246.389 62.4018 248.48 68.5211Z" fill="#407BFF"/>
<path opacity="0.7" d="M248.48 68.5211C250.387 74.0948 239.182 90.4885 239.182 90.4885L228.48 84.5371C230.304 79.4219 232.458 74.4309 234.931 69.5956C238.678 62.5109 246.389 62.4018 248.48 68.5211Z" fill="white"/>
<path opacity="0.31" d="M248.64 69.218C246.237 68.068 243.474 69.0333 240.559 73.6332C237.644 78.233 235.166 85.9135 234.897 88.1043L239.19 90.4797C239.19 90.4797 249.53 75.3372 248.64 69.218Z" fill="#407BFF"/>
<path d="M241.231 64.2572C241.231 64.2572 233.235 83.0515 238.997 118.046H272.303C272.715 112.934 270.363 88.0124 276.133 63.9382C272.467 63.2249 268.757 62.7538 265.029 62.528C260.314 62.2592 255.589 62.2592 250.875 62.528C247.621 62.8582 244.397 63.4362 241.231 64.2572Z" fill="#407BFF"/>
<path opacity="0.7" d="M241.231 64.2572C241.231 64.2572 233.235 83.0515 238.997 118.046H272.303C272.715 112.934 270.363 88.0124 276.133 63.9382C272.467 63.2249 268.757 62.7538 265.029 62.528C260.314 62.2592 255.589 62.2592 250.875 62.528C247.621 62.8582 244.397 63.4362 241.231 64.2572Z" fill="white"/>
<path d="M284.097 267.15L279.166 271.565L269.766 261.786L274.705 257.37L284.097 267.15Z" fill="#E4897B"/>
<path d="M267.187 276.333H260.963L260.156 261.928H266.381L267.187 276.333Z" fill="#E4897B"/>
<path d="M269.774 261.786L274.613 266.83L279.552 262.407L274.714 257.37L269.774 261.786Z" fill="#CE6F64"/>
<path d="M266.381 261.928H260.156L260.576 269.357H266.801L266.381 261.928Z" fill="#CE6F64"/>
<path d="M238.997 118.046C238.997 118.046 232.436 163.424 230.202 188.119C228.404 207.938 271.286 267.023 271.286 267.023L279.577 259.225C279.577 259.225 248.262 206.25 250.673 184.191C253.008 162.828 260.921 118.021 260.921 118.021L238.997 118.046Z" fill="#407BFF"/>
<path opacity="0.7" d="M238.997 118.046C238.997 118.046 232.436 163.424 230.202 188.119C228.404 207.938 271.286 267.023 271.286 267.023L279.577 259.225C279.577 259.225 248.262 206.25 250.673 184.191C253.008 162.828 260.921 118.021 260.921 118.021L238.997 118.046Z" fill="black"/>
<path opacity="0.2" d="M250.673 184.216C251.874 173.212 254.562 155.97 256.872 141.851C255.662 139.484 252.269 134.691 252.269 134.691C249.228 145.192 242.617 184.779 252.05 238.24C261.878 254.072 271.286 267.049 271.286 267.049L272.571 246.634C263.491 229.561 249.001 199.468 250.673 184.216Z" fill="black"/>
<path d="M250.841 118.046C250.841 118.046 250.253 165.598 251.261 183.419C252.361 202.927 257.905 267.569 257.905 267.569H269.312C269.312 267.569 268.968 204.505 269.64 185.198C270.388 164.213 272.32 118.046 272.32 118.046H250.841Z" fill="#407BFF"/>
<path opacity="0.7" d="M250.841 118.046C250.841 118.046 250.253 165.598 251.261 183.419C252.361 202.927 257.905 267.569 257.905 267.569H269.312C269.312 267.569 268.968 204.505 269.64 185.198C270.388 164.213 272.32 118.046 272.32 118.046H250.841Z" fill="black"/>
<path d="M260.635 275.619H267.632C267.749 275.614 267.863 275.656 267.949 275.734C268.036 275.813 268.088 275.922 268.094 276.039L268.439 281.57C268.44 281.715 268.412 281.858 268.358 281.992C268.304 282.126 268.224 282.248 268.122 282.351C268.021 282.453 267.9 282.535 267.767 282.592C267.634 282.648 267.491 282.677 267.347 282.679C264.911 282.637 263.743 282.494 260.669 282.494C258.779 282.494 250.732 282.695 248.119 282.695C245.507 282.695 245.599 280.11 246.683 279.875C251.647 278.826 257.804 277.357 259.568 275.997C259.872 275.757 260.248 275.624 260.635 275.619Z" fill="#263238"/>
<path d="M277.805 269.794L283.802 265.756C283.9 265.678 284.022 265.636 284.147 265.636C284.272 265.636 284.393 265.678 284.491 265.756L289.078 270.381C289.167 270.483 289.233 270.603 289.271 270.733C289.309 270.863 289.318 270.999 289.297 271.133C289.276 271.267 289.226 271.395 289.15 271.507C289.075 271.619 288.975 271.713 288.859 271.783C285.029 274.729 282.265 276.954 280.081 279.405C277.561 282.267 276.2 282.678 270.32 282.678C267.599 282.678 266.062 280.387 267.17 280.034C276.965 276.937 274.344 275.585 276.73 271.044C276.978 270.545 277.348 270.115 277.805 269.794Z" fill="#263238"/>
<path d="M202.532 124.392L196.039 124.618L197.4 129.705C197.4 129.705 204.187 130.31 204.792 128.262L202.532 124.392Z" fill="#E4897B"/>
<path d="M189.034 127.649L193.587 130.302L197.4 129.706L196.039 124.619L189.034 127.649Z" fill="#E4897B"/>
<path opacity="0.31" d="M268.691 69.8809C268.002 73.8429 268.918 83.3114 272.32 94.2742C272.586 84.8817 273.679 75.5309 275.587 66.3301V66.2798C273.403 66.0615 269.354 66.1623 268.691 69.8809Z" fill="#407BFF"/>
<path d="M264.18 46.5959C263.13 51.1456 261.946 59.4893 265.02 62.5448C265.02 62.5448 263.693 66.3137 255.226 66.3137C245.918 66.3137 250.866 62.5448 250.866 62.5448C255.99 61.336 255.99 57.5671 255.226 54.0331L264.18 46.5959Z" fill="#E4897B"/>
<path d="M254.991 66.2969L252.471 68.9746L253.706 71.56L255.713 71.6523L257.427 69.1845L254.991 66.2969Z" fill="#407BFF"/>
<path d="M260.534 49.626L255.234 54.0075C255.425 54.835 255.543 55.6776 255.587 56.5256C257.535 56.2486 260.274 54.1166 260.551 52.0853C260.699 51.2717 260.694 50.4375 260.534 49.626Z" fill="#CE6F64"/>
<path d="M253.134 31.1672C249.95 32.2501 247.405 40.6862 251.118 42.919C254.831 45.1519 259.182 29.1106 253.134 31.1672Z" fill="#263238"/>
<path d="M266.171 41.8278C264.272 47.7036 263.466 51.2543 259.636 53.6633C258.4 54.457 256.971 54.8979 255.502 54.9383C254.034 54.9788 252.583 54.6173 251.305 53.893C250.027 53.1687 248.972 52.109 248.254 50.8288C247.535 49.5485 247.181 48.0962 247.229 46.6292C247.304 40.98 250.396 32.2839 256.906 31.1927C258.309 30.922 259.758 31.0245 261.109 31.4897C262.46 31.955 263.665 32.7668 264.603 33.8438C265.542 34.9208 266.18 36.2252 266.455 37.6264C266.73 39.0276 266.632 40.4764 266.171 41.8278Z" fill="#E4897B"/>
<path d="M270.875 32.0071C268.976 36.5903 273.395 32.7625 272.252 38.2019C271.513 41.7442 265.112 50.2307 262.643 49.4584C260.173 48.6862 260.198 42.6676 263.348 38.4118C265.163 35.9691 261.24 33.199 252.428 33.4928C243.617 33.7866 238.291 28.8341 250.001 25.1995C250.001 25.1995 245.683 27.7177 248.245 28.5571C251.874 29.9086 274.68 22.8239 270.875 32.0071Z" fill="#263238"/>
<path d="M269.195 34.1054C269.102 34.1054 271.169 33.5933 272.269 29.9082C272.269 29.967 271.908 35.3981 269.195 34.1054Z" fill="#263238"/>
<path d="M252.706 26.0127C247.288 27.6916 249.53 29.5804 251.773 30.0505L256.914 28.0358C249.102 29.0684 252.706 26.0127 252.706 26.0127Z" fill="#263238"/>
<path d="M267.213 49.0047C266.086 50.0987 264.583 50.7204 263.013 50.7422C260.938 50.7422 260.493 48.778 261.61 47.1329C262.601 45.6556 264.869 43.8761 266.7 44.6735C268.531 45.4709 268.59 47.6533 267.213 49.0047Z" fill="#E4897B"/>
<path d="M256.603 41.5007C256.477 41.9876 256.116 42.3401 255.763 42.2562C255.41 42.1722 255.284 41.7274 255.41 41.2405C255.536 40.7537 255.898 40.4012 256.25 40.4935C256.603 40.5858 256.729 41.0139 256.603 41.5007Z" fill="#263238"/>
<path d="M251.059 40.2834C250.933 40.7703 250.572 41.1228 250.219 41.0389C249.867 40.9549 249.74 40.5184 249.866 40.0316C249.993 39.5447 250.345 39.1921 250.707 39.2761C251.068 39.36 251.16 39.7965 251.059 40.2834Z" fill="#263238"/>
<path d="M252.756 40.9131C251.801 42.2721 250.671 43.4997 249.396 44.5644C249.677 44.8759 250.022 45.1223 250.408 45.2861C250.794 45.45 251.211 45.5274 251.63 45.5129L252.756 40.9131Z" fill="#DE5753"/>
<path d="M253.68 47.2839C253.332 47.2835 252.986 47.2441 252.647 47.1663C252.61 47.1564 252.578 47.1327 252.557 47.0999C252.537 47.0671 252.53 47.0278 252.538 46.9901C252.548 46.9528 252.571 46.9208 252.604 46.9005C252.637 46.8802 252.676 46.8732 252.714 46.8809C253.333 47.0186 253.974 47.0146 254.591 46.8692C255.208 46.7238 255.784 46.4408 256.276 46.0414C256.304 46.0142 256.342 45.999 256.381 45.999C256.42 45.999 256.458 46.0142 256.486 46.0414C256.513 46.0696 256.528 46.1072 256.528 46.1463C256.528 46.1855 256.513 46.2231 256.486 46.2513C255.706 46.9224 254.709 47.2891 253.68 47.2839Z" fill="#263238"/>
<path d="M258.804 40.0988C258.746 40.0998 258.69 40.0835 258.642 40.0521C258.594 40.0206 258.557 39.9755 258.535 39.9226C258.397 39.5858 258.18 39.2872 257.902 39.052C257.624 38.8167 257.294 38.6518 256.939 38.5711C256.9 38.566 256.863 38.5532 256.829 38.5334C256.795 38.5137 256.766 38.4874 256.742 38.4561C256.719 38.4249 256.702 38.3892 256.692 38.3513C256.683 38.3134 256.681 38.274 256.687 38.2353C256.699 38.1581 256.741 38.0886 256.804 38.0416C256.867 37.9947 256.945 37.9738 257.023 37.9835C257.475 38.0757 257.899 38.2768 258.256 38.5693C258.613 38.8619 258.893 39.237 259.073 39.6623C259.089 39.6975 259.098 39.7356 259.1 39.7744C259.101 39.8131 259.094 39.8518 259.08 39.8879C259.066 39.9241 259.045 39.957 259.017 39.9846C258.99 40.0122 258.957 40.0339 258.921 40.0485C258.886 40.0737 258.846 40.0909 258.804 40.0988Z" fill="#263238"/>
<path d="M249.186 37.8743C249.119 37.8737 249.054 37.85 249.001 37.8071C248.941 37.7564 248.903 37.6842 248.895 37.6058C248.887 37.5274 248.91 37.4491 248.959 37.3874C249.255 37.0195 249.632 36.7245 250.06 36.5251C250.488 36.3257 250.957 36.2273 251.429 36.2375C251.468 36.2407 251.505 36.2515 251.54 36.2693C251.574 36.287 251.605 36.3115 251.63 36.3411C251.655 36.3707 251.674 36.405 251.685 36.442C251.697 36.479 251.701 36.5179 251.698 36.5565C251.696 36.5955 251.686 36.6338 251.668 36.6688C251.651 36.7038 251.627 36.7348 251.597 36.76C251.567 36.7852 251.532 36.804 251.494 36.8152C251.457 36.8264 251.418 36.8297 251.379 36.8251C251.001 36.8211 250.627 36.9038 250.286 37.0668C249.946 37.2297 249.647 37.4687 249.413 37.7651C249.386 37.7994 249.352 37.8271 249.312 37.846C249.273 37.8649 249.23 37.8746 249.186 37.8743Z" fill="#263238"/>
<path d="M277.746 68.2275C278.401 69.2432 278.947 70.1414 279.501 71.1151C280.056 72.0888 280.585 73.0289 281.106 74.0026C282.131 75.9416 283.097 77.9226 283.979 79.9456C285.829 84.087 287.218 88.4192 288.12 92.864L288.204 93.2921L288.246 93.5019L288.305 93.8545C288.376 94.324 288.413 94.7981 288.414 95.2731C288.406 96.0683 288.321 96.861 288.162 97.6402C287.877 98.9254 287.467 100.179 286.936 101.384C285.992 103.494 284.868 105.519 283.576 107.436C281.132 111.081 278.354 114.489 275.276 117.618L271.622 114.688C273.655 111.146 275.679 107.47 277.376 103.869C278.21 102.146 278.923 100.368 279.51 98.5467C279.75 97.787 279.913 97.0053 279.997 96.2132C280.026 95.9538 280.026 95.6919 279.997 95.4325C279.997 95.357 279.997 95.2898 279.947 95.2815C279.896 95.2731 279.947 95.2815 279.947 95.2395L279.896 95.0716L279.796 94.7274C279.265 92.8759 278.634 91.0546 277.906 89.2713C277.166 87.4498 276.343 85.6367 275.478 83.832C274.613 82.0273 273.68 80.2478 272.723 78.4682C272.252 77.5785 271.757 76.6971 271.261 75.8241L269.783 73.3059L277.746 68.2275Z" fill="#E4897B"/>
<path d="M258.435 276.693C258.015 276.736 257.596 276.619 257.259 276.366C257.164 276.261 257.097 276.133 257.065 275.995C257.032 275.857 257.035 275.713 257.074 275.577C257.092 275.485 257.134 275.399 257.194 275.328C257.254 275.256 257.331 275.2 257.418 275.166C258.183 274.863 259.938 276.072 260.14 276.207C260.165 276.222 260.184 276.245 260.195 276.272C260.205 276.3 260.207 276.33 260.199 276.358C260.194 276.386 260.182 276.412 260.162 276.433C260.143 276.454 260.117 276.469 260.089 276.475C259.547 276.606 258.992 276.679 258.435 276.693ZM257.704 275.409C257.645 275.4 257.586 275.4 257.527 275.409C257.485 275.424 257.447 275.451 257.419 275.487C257.391 275.523 257.373 275.565 257.368 275.61C257.337 275.698 257.331 275.793 257.348 275.884C257.366 275.976 257.407 276.061 257.469 276.131C257.754 276.416 258.569 276.45 259.686 276.232C259.092 275.82 258.416 275.542 257.704 275.417V275.409Z" fill="white"/>
<path d="M260.056 276.484H259.98C259.358 276.115 258.434 274.805 258.577 274.133C258.602 274.01 258.668 273.899 258.764 273.818C258.86 273.738 258.981 273.692 259.106 273.689C259.217 273.674 259.33 273.685 259.436 273.72C259.542 273.755 259.639 273.813 259.72 273.89C260.35 274.503 260.207 276.291 260.207 276.366C260.204 276.391 260.195 276.415 260.18 276.436C260.165 276.456 260.146 276.473 260.123 276.484H260.056ZM259.216 273.966H259.148C258.938 273.966 258.888 274.091 258.871 274.175C258.779 274.62 259.392 275.602 259.93 276.056C260.007 275.375 259.866 274.687 259.526 274.091C259.484 274.05 259.434 274.018 259.38 273.997C259.325 273.975 259.266 273.964 259.207 273.966H259.216Z" fill="white"/>
<path d="M273.773 273.168C273.618 273.173 273.463 273.144 273.32 273.084C273.209 273.04 273.11 272.969 273.033 272.879C272.955 272.788 272.901 272.68 272.874 272.564C272.853 272.493 272.85 272.418 272.866 272.346C272.883 272.274 272.917 272.207 272.967 272.152C273.53 271.473 276.478 271.674 276.814 271.699C276.845 271.7 276.875 271.711 276.9 271.731C276.924 271.751 276.941 271.778 276.948 271.808C276.955 271.839 276.952 271.87 276.94 271.899C276.928 271.927 276.907 271.951 276.881 271.968C275.943 272.586 274.883 272.995 273.773 273.168ZM275.554 271.943C274.521 271.943 273.437 272.043 273.194 272.337C273.179 272.36 273.172 272.386 273.172 272.413C273.172 272.439 273.179 272.466 273.194 272.488C273.208 272.561 273.24 272.629 273.286 272.686C273.333 272.743 273.394 272.788 273.462 272.815C273.933 273.009 274.991 272.69 276.327 271.976L275.554 271.943Z" fill="white"/>
<path d="M276.805 271.993C275.965 271.993 274.075 271.346 273.933 270.675C273.933 270.507 273.933 270.272 274.336 270.079C275.781 269.399 276.898 271.682 276.948 271.758C276.958 271.782 276.964 271.807 276.964 271.833C276.964 271.859 276.958 271.885 276.948 271.909C276.934 271.934 276.914 271.956 276.889 271.971C276.863 271.985 276.835 271.993 276.805 271.993ZM274.865 270.255C274.723 270.253 274.582 270.285 274.453 270.347C274.277 270.431 274.193 270.524 274.21 270.608C274.294 271.002 275.655 271.556 276.545 271.674C276.276 271.22 275.629 270.255 274.865 270.255Z" fill="white"/>
<path d="M273.286 113.328L267.12 112.246L270.304 119.422C270.304 119.422 275.957 119.422 275.705 116.468L273.286 113.328Z" fill="#E4897B"/>
<path d="M262.458 115.855L265.373 121.647L270.27 119.422L267.086 112.246L262.458 115.855Z" fill="#E4897B"/>
<path d="M280.081 258.781L270.782 267.527L267.784 264.312L278.426 254.625L280.081 258.781Z" fill="#407BFF"/>
<path opacity="0.6" d="M280.081 258.781L270.782 267.527L267.784 264.312L278.426 254.625L280.081 258.781Z" fill="white"/>
<path d="M269.766 267.569H257.443L256.763 263.238L270.362 263.918L269.766 267.569Z" fill="#407BFF"/>
<path opacity="0.6" d="M269.766 267.569H257.443L256.763 263.238L270.362 263.918L269.766 267.569Z" fill="white"/>
<path d="M276.133 63.9379C282.013 64.7773 288.036 85.1917 288.036 85.1917L275.436 92.1755C275.436 92.1755 270.32 82.472 267.876 75.2699C265.314 67.7236 269.842 63.0145 276.133 63.9379Z" fill="#407BFF"/>
<path opacity="0.7" d="M276.133 63.9379C282.013 64.7773 288.036 85.1917 288.036 85.1917L275.436 92.1755C275.436 92.1755 270.32 82.472 267.876 75.2699C265.314 67.7236 269.842 63.0145 276.133 63.9379Z" fill="white"/>
<path opacity="0.2" d="M254.991 66.2969L252.471 68.9746L253.706 71.56L255.713 71.6523L257.427 69.1845L254.991 66.2969Z" fill="black"/>
<path d="M253.924 71.0981C253.924 71.0981 249.144 90.8827 248.959 94.9957C248.699 100.653 251.068 110.315 251.068 110.315C251.068 110.315 254.428 102.282 255.117 94.8195C255.805 87.3572 255.293 75.2867 255.604 71.0981H253.924Z" fill="#407BFF"/>
<path opacity="0.2" d="M253.924 71.0981C253.924 71.0981 249.144 90.8827 248.959 94.9957C248.699 100.653 251.068 110.315 251.068 110.315C251.068 110.315 254.428 102.282 255.117 94.8195C255.805 87.3572 255.293 75.2867 255.604 71.0981H253.924Z" fill="black"/>
<path d="M254.99 66.2965C255.947 67.845 256.502 69.6081 256.603 71.4253C256.603 71.4253 267.086 67.7319 266.591 62.3178C266.591 62.3178 265.104 61.4364 264.163 60.7229C264.163 60.7229 263.81 64.1309 254.99 66.2965Z" fill="#407BFF"/>
<path opacity="0.6" d="M254.99 66.2965C255.947 67.845 256.502 69.6081 256.603 71.4253C256.603 71.4253 267.086 67.7319 266.591 62.3178C266.591 62.3178 265.104 61.4364 264.163 60.7229C264.163 60.7229 263.81 64.1309 254.99 66.2965Z" fill="white"/>
<path d="M254.99 66.2966C254.027 67.7624 253.333 69.3884 252.941 71.0979C252.941 71.0979 248.195 67.8914 249.623 62.5445C250.492 62.1943 251.388 61.9136 252.302 61.7051C252.302 61.7051 251.681 65.1634 254.99 66.2966Z" fill="#407BFF"/>
<path opacity="0.6" d="M254.99 66.2966C254.027 67.7624 253.333 69.3884 252.941 71.0979C252.941 71.0979 248.195 67.8914 249.623 62.5445C250.492 62.1943 251.388 61.9136 252.302 61.7051C252.302 61.7051 251.681 65.1634 254.99 66.2966Z" fill="white"/>
</svg>
