<svg width="18" height="17" viewBox="0 0 18 17" fill="none" xmlns="http://www.w3.org/2000/svg">
<path d="M16.5478 0.202326C16.3271 0.218372 16.1105 0.270113 15.9064 0.355531H15.9036C15.7077 0.433164 14.7761 0.824764 13.3599 1.41835L8.28479 3.55428C4.64311 5.08633 1.06331 6.59502 1.06331 6.59502L1.10593 6.57853C1.10593 6.57853 0.859119 6.6596 0.601307 6.83617C0.442033 6.93745 0.304977 7.06997 0.198433 7.2257C0.0719332 7.4112 -0.0298165 7.69494 0.00799591 7.98829C0.0698708 8.48432 0.39162 8.7818 0.622619 8.946C0.856369 9.11225 1.07912 9.18989 1.07912 9.18989H1.08462L4.44167 10.32C4.59224 10.803 5.46467 13.6692 5.67436 14.3295C5.79811 14.7238 5.91842 14.9705 6.06898 15.1587C6.14186 15.2549 6.22711 15.3353 6.32954 15.3998C6.3828 15.4308 6.43958 15.4552 6.49867 15.4727L6.46429 15.4644C6.4746 15.4672 6.48285 15.4754 6.49042 15.4782C6.51792 15.4857 6.53648 15.4885 6.57154 15.494C7.10298 15.6547 7.52991 15.325 7.52991 15.325L7.55398 15.3057L9.53604 13.5023L12.858 16.0491L12.9337 16.0814C13.626 16.385 14.3272 16.216 14.6978 15.9178C15.0711 15.6176 15.2161 15.2336 15.2161 15.2336L15.2402 15.1717L17.8073 2.02979C17.8802 1.70552 17.8988 1.40186 17.8183 1.10713C17.7354 0.808842 17.5439 0.552298 17.2814 0.387821C17.061 0.253931 16.8054 0.189306 16.5478 0.202326ZM16.4784 1.61071C16.4756 1.65399 16.4839 1.64918 16.4646 1.73231V1.73987L13.9216 14.7451C13.9106 14.7637 13.892 14.8042 13.8411 14.8447C13.7875 14.8873 13.7449 14.9141 13.5215 14.8255L9.45835 11.7126L7.00398 13.9482L7.5196 10.6574L14.1581 4.4742C14.4317 4.22 14.3403 4.16642 14.3403 4.16642C14.3595 3.85451 13.9271 4.07504 13.9271 4.07504L5.55611 9.25722L5.55336 9.24347L1.54112 7.89349V7.89074L1.5308 7.88868C1.53784 7.88634 1.54473 7.88359 1.55143 7.88043L1.57343 7.86944L1.59474 7.86188C1.59474 7.86188 5.1773 6.35319 8.81897 4.82114C10.6422 4.05375 12.4792 3.28085 13.892 2.68452C15.3048 2.09162 16.3491 1.65674 16.4083 1.63338C16.4646 1.6114 16.4378 1.6114 16.4784 1.6114V1.61071Z" fill="black"/>
</svg>
