<svg width="22" height="19" viewBox="0 0 22 19" fill="none" xmlns="http://www.w3.org/2000/svg">
<path d="M22 2.33874C21.1819 2.69736 20.3101 2.93507 19.4013 3.05049C20.3363 2.49263 21.0499 1.61601 21.3854 0.559383C20.5136 1.07876 19.5511 1.44563 18.5254 1.65036C17.6976 0.769608 16.5179 0.224121 15.2309 0.224121C12.7339 0.224121 10.7236 2.24943 10.7236 4.73229C10.7236 5.08954 10.7539 5.43304 10.8281 5.76006C7.0785 5.57732 3.76062 3.78147 1.53175 1.04579C1.14262 1.72043 0.914375 2.49263 0.914375 3.32392C0.914375 4.88481 1.71875 6.26845 2.91775 7.06951C2.19312 7.05577 1.48225 6.84554 0.88 6.5144C0.88 6.52814 0.88 6.546 0.88 6.56387C0.88 8.75406 2.44338 10.5733 4.4935 10.9923C4.12638 11.0926 3.72625 11.1407 3.311 11.1407C3.02225 11.1407 2.73075 11.1242 2.45712 11.0638C3.0415 12.8486 4.69975 14.1608 6.6715 14.2034C5.137 15.403 3.18863 16.1257 1.07938 16.1257C0.7095 16.1257 0.35475 16.1092 0 16.0639C1.99787 17.3513 4.36563 18.0864 6.919 18.0864C15.2185 18.0864 19.756 11.2163 19.756 5.26129C19.756 5.06206 19.7491 4.86969 19.7395 4.6787C20.6346 4.04391 21.3867 3.25109 22 2.33874Z" fill="black"/>
</svg>
