<svg width="24" height="18" viewBox="0 0 24 18" fill="none" xmlns="http://www.w3.org/2000/svg">
<path d="M23.441 8.65116C23.441 8.59365 23.441 8.52829 23.4384 8.45248C23.4358 8.24072 23.4306 8.00281 23.4253 7.74923C23.4044 7.01983 23.3678 6.29306 23.3102 5.60811C23.2317 4.66434 23.1166 3.87743 22.9597 3.2866C22.794 2.67001 22.4693 2.10767 22.018 1.65578C21.5667 1.20389 21.0046 0.878285 20.3879 0.711502C19.6476 0.512814 18.1982 0.389942 16.1576 0.314127C15.187 0.277526 14.1483 0.253997 13.1097 0.240926C12.7461 0.235697 12.4086 0.233083 12.1051 0.230469H11.3359C11.0325 0.233083 10.695 0.235697 10.3313 0.240926C9.2927 0.253997 8.25407 0.277526 7.28347 0.314127C5.24284 0.392556 3.79086 0.515428 3.05309 0.711502C2.4362 0.877875 1.8739 1.20335 1.42254 1.6553C0.971178 2.10725 0.646617 2.66981 0.481379 3.2866C0.321791 3.87743 0.209295 4.66434 0.130809 5.60811C0.0732533 6.29306 0.0366266 7.01983 0.0156971 7.74923C0.00784852 8.00281 0.00523234 8.24072 0.00261615 8.45248C0.00261615 8.52829 0 8.59365 0 8.65116V8.79757C0 8.85508 -3.9814e-08 8.92044 0.00261615 8.99625C0.00523234 9.20801 0.0104647 9.44591 0.0156971 9.6995C0.0366266 10.4289 0.0732533 11.1557 0.130809 11.8406C0.209295 12.7844 0.324407 13.5713 0.481379 14.1621C0.816251 15.4144 1.79994 16.4026 3.05309 16.7372C3.79086 16.9359 5.24284 17.0588 7.28347 17.1346C8.25407 17.1712 9.2927 17.1947 10.3313 17.2078C10.695 17.213 11.0325 17.2156 11.3359 17.2183H12.1051C12.4086 17.2156 12.7461 17.213 13.1097 17.2078C14.1483 17.1947 15.187 17.1712 16.1576 17.1346C18.1982 17.0562 19.6502 16.9333 20.3879 16.7372C21.6411 16.4026 22.6248 15.417 22.9597 14.1621C23.1192 13.5713 23.2317 12.7844 23.3102 11.8406C23.3678 11.1557 23.4044 10.4289 23.4253 9.6995C23.4332 9.44591 23.4358 9.20801 23.4384 8.99625C23.4384 8.92044 23.441 8.85508 23.441 8.79757V8.65116ZM21.5574 8.78711C21.5574 8.84201 21.5574 8.90214 21.5548 8.97272C21.5522 9.17664 21.5469 9.40147 21.5417 9.6446C21.5234 10.34 21.4867 11.0354 21.4318 11.6811C21.3612 12.523 21.2618 13.2131 21.1388 13.6759C20.9766 14.2798 20.5004 14.7582 19.8987 14.9177C19.3493 15.0641 17.9654 15.1817 16.0843 15.2523C15.132 15.2889 14.1065 15.3124 13.0836 15.3255C12.7251 15.3307 12.3929 15.3333 12.0946 15.3333H11.3464L10.3575 15.3255C9.33456 15.3124 8.31163 15.2889 7.35672 15.2523C5.47568 15.1791 4.0891 15.0641 3.54232 14.9177C2.94059 14.7556 2.46445 14.2798 2.30224 13.6759C2.17928 13.2131 2.07987 12.523 2.00923 11.6811C1.95429 11.0354 1.92028 10.34 1.89935 9.6446C1.8915 9.40147 1.88889 9.17403 1.88627 8.97272C1.88627 8.90214 1.88366 8.83939 1.88366 8.78711V8.66162C1.88366 8.60672 1.88366 8.54659 1.88627 8.476C1.88889 8.27209 1.89412 8.04726 1.89935 7.80413C1.91767 7.10872 1.95429 6.41331 2.00923 5.76758C2.07987 4.92577 2.17928 4.23559 2.30224 3.77286C2.46445 3.16895 2.94059 2.69054 3.54232 2.53106C4.09172 2.38466 5.47568 2.26702 7.35672 2.19643C8.30901 2.15983 9.33456 2.1363 10.3575 2.12323C10.7159 2.118 11.0482 2.11539 11.3464 2.11539H12.0946L13.0836 2.12323C14.1065 2.1363 15.1294 2.15983 16.0843 2.19643C17.9654 2.26963 19.3519 2.38466 19.8987 2.53106C20.5004 2.69315 20.9766 3.16895 21.1388 3.77286C21.2618 4.23559 21.3612 4.92577 21.4318 5.76758C21.4867 6.41331 21.5208 7.10872 21.5417 7.80413C21.5495 8.04726 21.5522 8.2747 21.5548 8.476C21.5548 8.54659 21.5574 8.60933 21.5574 8.66162V8.78711ZM9.39211 12.2275L15.4617 8.69822L9.39211 5.22119V12.2275Z" fill="black"/>
</svg>
