<svg width="689" height="644" viewBox="0 0 689 644" fill="none" xmlns="http://www.w3.org/2000/svg">
<path opacity="0.35" fill-rule="evenodd" clip-rule="evenodd" d="M579.69 211.05C624.92 301.129 633.499 415.054 541.85 490.021C447.527 567.175 309.788 563.891 207.048 515.861C110.854 470.892 63.0348 377.543 91.0959 279.301C119.914 178.407 214.603 90.9383 333.15 74.3786C447.567 58.3961 536.49 125.013 579.69 211.05Z" fill="#8EC2F2"/>
<path opacity="0.4" fill-rule="evenodd" clip-rule="evenodd" d="M408.284 82.1674C511.39 103.56 613.043 167.131 622.416 282.029C632.063 400.279 547.851 501.699 446.396 549.337C351.404 593.941 243.996 572.483 177.299 491.034C108.801 407.387 90.6256 282.524 146.67 183.32C200.761 87.5739 309.805 61.7347 408.284 82.1674Z" fill="#23A6F0"/>
<path d="M358 500.948C440.843 500.948 508 496.2 508 490.343C508 484.486 440.843 479.738 358 479.738C275.157 479.738 208 484.486 208 490.343C208 496.2 275.157 500.948 358 500.948Z" fill="white"/>
<path d="M477.419 185H236.885C234.876 185 233.247 186.627 233.247 188.635V364.104C233.247 366.112 234.876 367.739 236.885 367.739H477.419C479.428 367.739 481.056 366.112 481.056 364.104V188.635C481.056 186.627 479.428 185 477.419 185Z" fill="#407BFF"/>
<path opacity="0.6" d="M477.419 185H236.885C234.876 185 233.247 186.627 233.247 188.635V364.104C233.247 366.112 234.876 367.739 236.885 367.739H477.419C479.428 367.739 481.056 366.112 481.056 364.104V188.635C481.056 186.627 479.428 185 477.419 185Z" fill="white"/>
<path opacity="0.3" d="M281.538 185H237.888C236.644 185 235.452 185.494 234.573 186.372C233.694 187.25 233.2 188.442 233.2 189.684V363.111C233.213 364.345 233.712 365.525 234.59 366.393C235.467 367.262 236.653 367.749 237.888 367.749H281.538V185Z" fill="#181818"/>
<path d="M476.425 185H237.888C236.644 185 235.452 185.494 234.573 186.372C233.694 187.25 233.2 188.442 233.2 189.684V201.769H481.056V189.637C481.044 188.413 480.553 187.242 479.687 186.375C478.821 185.508 477.651 185.015 476.425 185Z" fill="white"/>
<path d="M241.347 190.94C241.233 190.952 241.118 190.94 241.009 190.905C240.9 190.87 240.8 190.812 240.715 190.736C240.63 190.659 240.562 190.566 240.515 190.461C240.468 190.357 240.444 190.244 240.444 190.129C240.444 190.015 240.468 189.902 240.515 189.797C240.562 189.693 240.63 189.599 240.715 189.523C240.8 189.446 240.9 189.389 241.009 189.354C241.118 189.318 241.233 189.307 241.347 189.319H247.732C247.932 189.34 248.117 189.435 248.251 189.585C248.386 189.734 248.46 189.928 248.46 190.129C248.46 190.33 248.386 190.524 248.251 190.674C248.117 190.823 247.932 190.918 247.732 190.94H241.347Z" fill="#181818"/>
<path d="M241.347 194.172C241.233 194.184 241.118 194.172 241.009 194.137C240.9 194.102 240.8 194.044 240.715 193.968C240.63 193.891 240.562 193.798 240.515 193.693C240.468 193.589 240.444 193.476 240.444 193.361C240.444 193.247 240.468 193.134 240.515 193.029C240.562 192.925 240.63 192.831 240.715 192.755C240.8 192.678 240.9 192.621 241.009 192.586C241.118 192.551 241.233 192.539 241.347 192.551H247.732C247.932 192.572 248.117 192.667 248.251 192.817C248.386 192.966 248.46 193.16 248.46 193.361C248.46 193.562 248.386 193.756 248.251 193.906C248.117 194.055 247.932 194.15 247.732 194.172H241.347Z" fill="#181818"/>
<path d="M241.347 197.413C241.233 197.425 241.118 197.413 241.009 197.378C240.9 197.343 240.8 197.286 240.715 197.209C240.63 197.133 240.562 197.039 240.515 196.935C240.468 196.83 240.444 196.717 240.444 196.603C240.444 196.488 240.468 196.375 240.515 196.271C240.562 196.166 240.63 196.073 240.715 195.996C240.8 195.92 240.9 195.862 241.009 195.827C241.118 195.792 241.233 195.78 241.347 195.792H247.732C247.932 195.814 248.117 195.909 248.251 196.058C248.386 196.208 248.46 196.402 248.46 196.603C248.46 196.804 248.386 196.998 248.251 197.147C248.117 197.297 247.932 197.392 247.732 197.413H241.347Z" fill="#181818"/>
<path opacity="0.7" d="M308.903 212.477H292.122C290.988 212.477 290.069 213.396 290.069 214.529V268.266C290.069 269.399 290.988 270.318 292.122 270.318H308.903C310.037 270.318 310.956 269.399 310.956 268.266V214.529C310.956 213.396 310.037 212.477 308.903 212.477Z" fill="#407BFF"/>
<path opacity="0.4" d="M335.013 212.477H318.231C317.097 212.477 316.178 213.396 316.178 214.529V268.266C316.178 269.399 317.097 270.318 318.231 270.318H335.013C336.146 270.318 337.066 269.399 337.066 268.266V214.529C337.066 213.396 336.146 212.477 335.013 212.477Z" fill="#181818"/>
<path opacity="0.7" d="M361.122 212.477H344.341C343.207 212.477 342.288 213.396 342.288 214.529V268.266C342.288 269.399 343.207 270.318 344.341 270.318H361.122C362.256 270.318 363.175 269.399 363.175 268.266V214.529C363.175 213.396 362.256 212.477 361.122 212.477Z" fill="#407BFF"/>
<path opacity="0.4" d="M387.231 212.477H370.45C369.316 212.477 368.397 213.396 368.397 214.529V268.266C368.397 269.399 369.316 270.318 370.45 270.318H387.231C388.365 270.318 389.284 269.399 389.284 268.266V214.529C389.284 213.396 388.365 212.477 387.231 212.477Z" fill="#181818"/>
<path opacity="0.7" d="M413.341 212.477H396.559C395.426 212.477 394.506 213.396 394.506 214.529V268.266C394.506 269.399 395.426 270.318 396.559 270.318H413.341C414.475 270.318 415.394 269.399 415.394 268.266V214.529C415.394 213.396 414.475 212.477 413.341 212.477Z" fill="#407BFF"/>
<path opacity="0.4" d="M439.45 212.477H422.669C421.535 212.477 420.616 213.396 420.616 214.529V268.266C420.616 269.399 421.535 270.318 422.669 270.318H439.45C440.584 270.318 441.503 269.399 441.503 268.266V214.529C441.503 213.396 440.584 212.477 439.45 212.477Z" fill="#181818"/>
<path opacity="0.7" d="M465.559 212.477H448.778C447.644 212.477 446.725 213.396 446.725 214.529V268.266C446.725 269.399 447.644 270.318 448.778 270.318H465.559C466.693 270.318 467.613 269.399 467.613 268.266V214.529C467.613 213.396 466.693 212.477 465.559 212.477Z" fill="#407BFF"/>
<path d="M344.547 305.777H343.797V306.714H342.728V305.777H340.272V305.065L342.428 302.17H343.534L341.538 304.915H342.766V304.062H343.759V304.915H344.509L344.547 305.777Z" fill="white"/>
<path d="M347.838 304.269C347.989 304.393 348.109 304.551 348.189 304.73C348.268 304.909 348.305 305.104 348.297 305.299C348.302 305.567 348.231 305.83 348.091 306.058C347.934 306.298 347.713 306.489 347.453 306.611C347.121 306.751 346.763 306.818 346.403 306.807C346.087 306.808 345.772 306.767 345.466 306.686C345.183 306.614 344.916 306.49 344.678 306.32L345.091 305.515C345.271 305.65 345.474 305.751 345.691 305.814C345.917 305.89 346.155 305.928 346.394 305.927C346.614 305.936 346.833 305.881 347.022 305.768C347.094 305.72 347.153 305.654 347.192 305.577C347.231 305.5 347.25 305.414 347.247 305.327C347.25 305.24 347.23 305.153 347.189 305.076C347.148 304.998 347.087 304.933 347.013 304.887C346.752 304.765 346.465 304.713 346.178 304.737H345.016L345.25 302.17H348.063V303.013H346.188L346.113 303.884H346.488C346.967 303.863 347.441 303.998 347.838 304.269Z" fill="white"/>
<path d="M348.907 304.287C348.701 304.027 348.588 303.706 348.588 303.374C348.588 303.042 348.701 302.72 348.907 302.46C349.012 302.351 349.139 302.264 349.279 302.205C349.419 302.145 349.57 302.115 349.722 302.115C349.874 302.115 350.025 302.145 350.165 302.205C350.305 302.264 350.432 302.351 350.538 302.46C350.738 302.723 350.846 303.044 350.846 303.374C350.846 303.704 350.738 304.025 350.538 304.287C350.432 304.397 350.305 304.484 350.165 304.543C350.025 304.602 349.874 304.633 349.722 304.633C349.57 304.633 349.419 304.602 349.279 304.543C349.139 304.484 349.012 304.397 348.907 304.287ZM350.069 303.913C350.165 303.752 350.211 303.566 350.2 303.379C350.213 303.188 350.167 302.999 350.069 302.835C350.032 302.777 349.981 302.729 349.92 302.696C349.859 302.663 349.791 302.647 349.722 302.648C349.653 302.648 349.586 302.665 349.525 302.697C349.464 302.73 349.413 302.778 349.375 302.835C349.277 302.999 349.231 303.188 349.244 303.379C349.233 303.566 349.279 303.752 349.375 303.913C349.413 303.97 349.464 304.018 349.525 304.05C349.586 304.083 349.653 304.1 349.722 304.1C349.791 304.101 349.859 304.084 349.92 304.052C349.981 304.019 350.032 303.971 350.069 303.913ZM352.441 302.17H353.219L350.097 306.732H349.291L352.441 302.17ZM352.235 306.629C352.062 306.525 351.925 306.372 351.841 306.189C351.736 305.984 351.684 305.755 351.691 305.524C351.685 305.293 351.737 305.065 351.841 304.859C351.928 304.678 352.064 304.525 352.235 304.418C352.414 304.316 352.618 304.264 352.825 304.269C352.977 304.264 353.129 304.291 353.27 304.349C353.41 304.407 353.537 304.495 353.641 304.606C353.753 304.733 353.839 304.882 353.894 305.043C353.948 305.203 353.971 305.373 353.96 305.543C353.972 305.712 353.95 305.882 353.895 306.043C353.84 306.204 353.754 306.353 353.641 306.48C353.539 306.594 353.413 306.684 353.272 306.744C353.131 306.804 352.978 306.832 352.825 306.826C352.614 306.817 352.409 306.749 352.235 306.629ZM353.172 306.067C353.267 305.903 353.31 305.713 353.294 305.524C353.308 305.338 353.265 305.152 353.172 304.99C353.133 304.934 353.082 304.888 353.021 304.856C352.961 304.825 352.894 304.808 352.825 304.808C352.757 304.808 352.69 304.825 352.63 304.856C352.569 304.888 352.517 304.934 352.478 304.99C352.38 305.154 352.335 305.343 352.347 305.533C352.331 305.724 352.377 305.915 352.478 306.077C352.515 306.135 352.567 306.183 352.627 306.216C352.688 306.248 352.756 306.265 352.825 306.264C352.895 306.263 352.963 306.245 353.024 306.21C353.085 306.176 353.136 306.127 353.172 306.067Z" fill="white"/>
<path d="M415.394 304.044C415.62 304.16 415.813 304.33 415.956 304.54C416.096 304.765 416.168 305.025 416.163 305.29C416.169 305.575 416.091 305.855 415.938 306.095C415.782 306.325 415.569 306.509 415.319 306.629C415.042 306.752 414.741 306.813 414.438 306.807C414.16 306.825 413.883 306.782 413.624 306.681C413.365 306.581 413.131 306.426 412.938 306.227C412.548 305.758 412.354 305.158 412.394 304.55C412.384 304.089 412.483 303.633 412.685 303.219C412.865 302.859 413.154 302.565 413.51 302.376C413.885 302.178 414.304 302.079 414.728 302.086C414.965 302.085 415.201 302.114 415.431 302.17C415.631 302.216 415.821 302.295 415.994 302.404L415.61 303.182C415.353 303.017 415.052 302.935 414.747 302.948C414.576 302.936 414.404 302.961 414.243 303.019C414.082 303.077 413.934 303.167 413.81 303.285C413.569 303.559 413.438 303.913 413.444 304.278C413.595 304.136 413.774 304.026 413.969 303.955C414.164 303.884 414.371 303.854 414.578 303.866C414.86 303.863 415.139 303.924 415.394 304.044ZM414.935 305.842C415.066 305.711 415.14 305.532 415.14 305.346C415.14 305.16 415.066 304.981 414.935 304.849C414.774 304.717 414.57 304.65 414.363 304.662C414.159 304.656 413.96 304.722 413.8 304.849C413.73 304.911 413.674 304.987 413.636 305.071C413.598 305.156 413.578 305.248 413.578 305.341C413.578 305.434 413.598 305.526 413.636 305.611C413.674 305.696 413.73 305.772 413.8 305.833C413.967 305.952 414.167 306.016 414.372 306.016C414.577 306.016 414.777 305.952 414.944 305.833L414.935 305.842Z" fill="white"/>
<path d="M419.547 304.269C419.697 304.395 419.816 304.553 419.895 304.731C419.975 304.91 420.013 305.104 420.007 305.299C420.008 305.566 419.936 305.828 419.8 306.058C419.643 306.298 419.423 306.489 419.163 306.611C418.828 306.751 418.467 306.818 418.104 306.807C417.787 306.808 417.472 306.767 417.166 306.686C416.881 306.612 416.611 306.488 416.369 306.32L416.791 305.515C416.97 305.651 417.174 305.753 417.391 305.814C417.615 305.889 417.849 305.927 418.085 305.927C418.305 305.939 418.525 305.883 418.713 305.768C418.787 305.721 418.848 305.656 418.889 305.579C418.931 305.502 418.951 305.415 418.947 305.327C418.949 305.239 418.927 305.152 418.884 305.075C418.841 304.997 418.779 304.933 418.704 304.887C418.447 304.765 418.162 304.713 417.879 304.737H416.716L416.95 302.17H419.763V303.013H417.888L417.813 303.884H418.188C418.671 303.862 419.148 303.997 419.547 304.269Z" fill="white"/>
<path d="M420.607 304.287C420.407 304.025 420.298 303.704 420.298 303.374C420.298 303.044 420.407 302.723 420.607 302.46C420.713 302.351 420.841 302.264 420.982 302.204C421.123 302.145 421.274 302.114 421.427 302.114C421.58 302.114 421.731 302.145 421.872 302.204C422.013 302.264 422.141 302.351 422.247 302.46C422.447 302.723 422.555 303.044 422.555 303.374C422.555 303.704 422.447 304.025 422.247 304.287C422.141 304.397 422.013 304.484 421.872 304.544C421.731 304.603 421.58 304.634 421.427 304.634C421.274 304.634 421.123 304.603 420.982 304.544C420.841 304.484 420.713 304.397 420.607 304.287ZM421.778 303.913C421.871 303.751 421.914 303.565 421.9 303.379C421.916 303.189 421.873 303 421.778 302.835C421.741 302.777 421.69 302.729 421.629 302.696C421.569 302.663 421.501 302.646 421.432 302.646C421.363 302.646 421.295 302.663 421.234 302.696C421.173 302.729 421.122 302.777 421.085 302.835C420.987 302.999 420.941 303.188 420.953 303.379C420.943 303.566 420.988 303.752 421.085 303.913C421.122 303.971 421.173 304.018 421.234 304.051C421.295 304.084 421.363 304.102 421.432 304.102C421.501 304.102 421.569 304.084 421.629 304.051C421.69 304.018 421.741 303.971 421.778 303.913ZM424.15 302.17H424.928L421.807 306.732H421.028L424.15 302.17ZM423.944 306.629C423.771 306.523 423.632 306.371 423.541 306.189C423.443 305.981 423.395 305.754 423.4 305.524C423.396 305.294 423.444 305.067 423.541 304.859C423.634 304.679 423.773 304.527 423.944 304.418C424.168 304.295 424.425 304.246 424.678 304.28C424.931 304.314 425.167 304.428 425.35 304.606C425.573 304.866 425.687 305.201 425.669 305.543C425.688 305.884 425.574 306.22 425.35 306.48C425.247 306.594 425.119 306.684 424.976 306.744C424.834 306.804 424.68 306.832 424.525 306.826C424.317 306.817 424.115 306.748 423.944 306.629ZM424.882 306.067C424.976 305.903 425.019 305.713 425.004 305.524C425.017 305.338 424.975 305.152 424.882 304.99C424.843 304.931 424.79 304.883 424.728 304.85C424.666 304.817 424.596 304.801 424.525 304.803C424.459 304.803 424.394 304.819 424.335 304.85C424.276 304.881 424.226 304.926 424.188 304.981C424.09 305.144 424.044 305.334 424.057 305.524C424.04 305.714 424.086 305.905 424.188 306.067C424.223 306.125 424.273 306.172 424.332 306.205C424.391 306.238 424.458 306.255 424.525 306.255C424.596 306.256 424.666 306.24 424.728 306.207C424.79 306.175 424.843 306.126 424.882 306.067Z" fill="white"/>
<path d="M429.325 195.811C429.01 196.09 428.611 196.255 428.191 196.279V197.01H427.544V196.298C427.226 196.282 426.91 196.225 426.606 196.13C426.355 196.052 426.118 195.935 425.903 195.783L426.269 194.987C426.447 195.114 426.643 195.215 426.85 195.286C427.069 195.372 427.3 195.426 427.535 195.446V194.331C427.265 194.269 427.002 194.184 426.747 194.078C426.536 193.994 426.351 193.855 426.213 193.675C426.061 193.477 425.985 193.231 425.997 192.982C425.995 192.807 426.029 192.634 426.096 192.472C426.164 192.311 426.264 192.166 426.391 192.045C426.708 191.764 427.111 191.599 427.535 191.577V190.855H428.181V191.567C428.651 191.585 429.109 191.72 429.513 191.961L429.185 192.766C428.875 192.588 428.535 192.471 428.181 192.42V193.535C428.447 193.591 428.707 193.669 428.96 193.769C429.166 193.861 429.349 193.999 429.494 194.172C429.645 194.37 429.722 194.616 429.71 194.865C429.716 195.041 429.685 195.216 429.619 195.379C429.553 195.542 429.452 195.689 429.325 195.811ZM427.178 193.225C427.289 193.303 427.413 193.361 427.544 193.394V192.457C427.406 192.477 427.279 192.539 427.178 192.635C427.139 192.674 427.108 192.721 427.087 192.773C427.066 192.824 427.055 192.879 427.056 192.935C427.058 192.985 427.069 193.034 427.09 193.079C427.111 193.124 427.141 193.164 427.178 193.197V193.225ZM428.547 195.249C428.584 195.212 428.613 195.168 428.632 195.12C428.651 195.072 428.661 195.02 428.66 194.968C428.661 194.919 428.652 194.87 428.632 194.824C428.613 194.779 428.584 194.738 428.547 194.706C428.441 194.621 428.321 194.557 428.191 194.518V195.455C428.33 195.414 428.454 195.332 428.547 195.221V195.249Z" fill="#181818"/>
<path d="M431.847 191.633V196.205H430.788V192.457H429.85V191.605L431.847 191.633Z" fill="#181818"/>
<path d="M436.057 195.343V196.205H432.607V195.511L434.369 193.853C434.519 193.722 434.646 193.567 434.744 193.394C434.809 193.276 434.844 193.144 434.847 193.01C434.85 192.93 434.835 192.851 434.802 192.777C434.77 192.704 434.721 192.64 434.66 192.588C434.497 192.487 434.307 192.438 434.116 192.448C433.929 192.444 433.743 192.483 433.572 192.56C433.41 192.635 433.271 192.751 433.169 192.898L432.4 192.401C432.584 192.133 432.837 191.92 433.132 191.783C433.47 191.628 433.838 191.552 434.21 191.558C434.515 191.551 434.819 191.609 435.1 191.726C435.342 191.82 435.551 191.983 435.7 192.195C435.843 192.405 435.915 192.654 435.907 192.907C435.909 193.146 435.858 193.383 435.757 193.6C435.598 193.883 435.392 194.137 435.147 194.35L434.097 195.343H436.057Z" fill="#181818"/>
<path d="M436.713 196.073C436.652 196.013 436.605 195.942 436.572 195.863C436.54 195.784 436.524 195.7 436.525 195.614C436.523 195.53 436.538 195.447 436.57 195.369C436.603 195.292 436.651 195.222 436.713 195.165C436.774 195.102 436.847 195.053 436.927 195.019C437.008 194.985 437.094 194.968 437.181 194.968C437.269 194.968 437.355 194.985 437.436 195.019C437.516 195.053 437.589 195.102 437.65 195.165C437.711 195.222 437.758 195.293 437.788 195.37C437.819 195.448 437.833 195.531 437.828 195.614C437.831 195.699 437.817 195.783 437.786 195.862C437.756 195.941 437.709 196.013 437.65 196.073C437.589 196.136 437.516 196.185 437.436 196.219C437.355 196.253 437.269 196.27 437.181 196.27C437.094 196.27 437.008 196.253 436.927 196.219C436.847 196.185 436.774 196.136 436.713 196.073Z" fill="#181818"/>
<path d="M439.132 195.998C438.828 195.798 438.587 195.515 438.438 195.183C438.271 194.781 438.185 194.35 438.185 193.914C438.185 193.478 438.271 193.047 438.438 192.645C438.59 192.317 438.83 192.038 439.132 191.839C439.435 191.651 439.787 191.553 440.144 191.558C440.501 191.553 440.853 191.651 441.157 191.839C441.461 192.035 441.702 192.315 441.85 192.645C442.017 193.047 442.103 193.478 442.103 193.914C442.103 194.35 442.017 194.781 441.85 195.183C441.74 195.429 441.579 195.648 441.376 195.826C441.174 196.003 440.936 196.135 440.678 196.213C440.42 196.29 440.148 196.311 439.881 196.274C439.614 196.237 439.359 196.143 439.132 195.998ZM440.8 195.062C440.986 194.724 441.07 194.34 441.044 193.956C441.071 193.572 440.987 193.188 440.8 192.851C440.733 192.738 440.637 192.645 440.523 192.58C440.409 192.516 440.28 192.482 440.149 192.482C440.017 192.482 439.888 192.516 439.774 192.58C439.66 192.645 439.565 192.738 439.497 192.851C439.327 193.186 439.256 193.563 439.291 193.937C439.265 194.322 439.349 194.705 439.535 195.043C439.602 195.155 439.698 195.249 439.812 195.313C439.926 195.378 440.055 195.412 440.186 195.412C440.317 195.412 440.447 195.378 440.561 195.313C440.675 195.249 440.77 195.155 440.838 195.043L440.8 195.062Z" fill="#181818"/>
<path d="M445.722 192.139C446.113 192.607 446.308 193.207 446.266 193.816C446.28 194.276 446.18 194.733 445.975 195.146C445.801 195.507 445.515 195.803 445.16 195.989C444.785 196.189 444.365 196.289 443.941 196.28C443.704 196.28 443.468 196.252 443.238 196.195C443.038 196.151 442.847 196.072 442.675 195.961L443.06 195.193C443.318 195.353 443.619 195.431 443.922 195.418C444.094 195.429 444.267 195.405 444.428 195.345C444.59 195.285 444.737 195.192 444.86 195.071C445.092 194.814 445.221 194.48 445.225 194.134C445.074 194.275 444.895 194.385 444.7 194.455C444.505 194.526 444.298 194.557 444.091 194.546C443.815 194.553 443.541 194.492 443.294 194.368C443.062 194.258 442.864 194.087 442.722 193.872C442.581 193.648 442.51 193.387 442.516 193.122C442.511 192.838 442.59 192.558 442.741 192.317C442.898 192.087 443.115 191.905 443.369 191.792C443.64 191.66 443.939 191.596 444.241 191.605C444.511 191.585 444.783 191.623 445.038 191.715C445.293 191.807 445.526 191.951 445.722 192.139ZM444.916 193.516C444.986 193.454 445.041 193.377 445.078 193.291C445.115 193.206 445.134 193.113 445.132 193.019C445.135 192.928 445.118 192.837 445.082 192.753C445.047 192.669 444.993 192.593 444.925 192.532C444.755 192.405 444.547 192.339 444.335 192.345C444.134 192.339 443.938 192.406 443.782 192.532C443.713 192.593 443.658 192.668 443.623 192.752C443.587 192.837 443.571 192.928 443.575 193.019C443.569 193.114 443.585 193.208 443.621 193.296C443.656 193.383 443.711 193.462 443.782 193.525C443.944 193.654 444.147 193.72 444.353 193.713C444.559 193.719 444.76 193.649 444.916 193.516Z" fill="#181818"/>
<path d="M450.419 194.247C450.544 194.432 450.609 194.651 450.607 194.874C450.611 195.141 450.525 195.402 450.363 195.614C450.186 195.839 449.948 196.008 449.678 196.102C449.028 196.339 448.314 196.339 447.663 196.102C447.396 196.007 447.161 195.838 446.988 195.614C446.842 195.396 446.773 195.136 446.791 194.874C446.785 194.652 446.847 194.433 446.969 194.247C447.097 194.053 447.275 193.897 447.485 193.797C447.321 193.703 447.185 193.567 447.091 193.403C446.995 193.239 446.947 193.051 446.95 192.86C446.946 192.61 447.025 192.366 447.175 192.167C447.336 191.962 447.55 191.807 447.794 191.717C448.094 191.604 448.412 191.55 448.732 191.558C449.051 191.552 449.369 191.606 449.669 191.717C449.917 191.804 450.135 191.96 450.297 192.167C450.441 192.369 450.516 192.612 450.513 192.86C450.515 193.049 450.47 193.236 450.382 193.403C450.284 193.568 450.145 193.703 449.978 193.797C450.162 193.906 450.314 194.061 450.419 194.247ZM449.303 195.324C449.376 195.267 449.433 195.195 449.472 195.112C449.512 195.029 449.531 194.938 449.529 194.846C449.533 194.754 449.515 194.663 449.476 194.579C449.436 194.496 449.377 194.424 449.303 194.368C449.117 194.239 448.892 194.177 448.666 194.19C448.446 194.179 448.228 194.241 448.047 194.368C447.98 194.426 447.926 194.498 447.889 194.579C447.852 194.66 447.832 194.748 447.832 194.837C447.832 194.926 447.852 195.014 447.889 195.094C447.926 195.175 447.98 195.247 448.047 195.305C448.228 195.432 448.446 195.495 448.666 195.483C448.89 195.502 449.115 195.446 449.303 195.324ZM448.16 192.513C448.1 192.565 448.052 192.629 448.02 192.701C447.987 192.773 447.97 192.851 447.97 192.93C447.97 193.009 447.987 193.087 448.02 193.159C448.052 193.231 448.1 193.295 448.16 193.347C448.311 193.451 448.492 193.503 448.675 193.497C448.862 193.505 449.046 193.452 449.2 193.347C449.264 193.3 449.316 193.237 449.35 193.166C449.384 193.094 449.401 193.015 449.397 192.935C449.401 192.854 449.384 192.774 449.35 192.7C449.316 192.627 449.265 192.563 449.2 192.513C449.048 192.405 448.862 192.352 448.675 192.364C448.495 192.344 448.313 192.387 448.16 192.485V192.513Z" fill="#181818"/>
<path d="M451.3 196.073C451.241 196.013 451.195 195.941 451.164 195.862C451.133 195.783 451.119 195.699 451.122 195.614C451.118 195.531 451.131 195.448 451.162 195.37C451.193 195.293 451.24 195.222 451.3 195.165C451.361 195.102 451.434 195.053 451.515 195.019C451.595 194.985 451.681 194.968 451.769 194.968C451.856 194.968 451.943 194.985 452.023 195.019C452.104 195.053 452.176 195.102 452.238 195.165C452.299 195.222 452.348 195.292 452.38 195.369C452.412 195.447 452.428 195.53 452.425 195.614C452.426 195.7 452.41 195.784 452.378 195.863C452.346 195.942 452.298 196.013 452.238 196.073C452.176 196.136 452.104 196.185 452.023 196.219C451.943 196.253 451.856 196.27 451.769 196.27C451.681 196.27 451.595 196.253 451.515 196.219C451.434 196.185 451.361 196.136 451.3 196.073Z" fill="#181818"/>
<path d="M455.856 193.731C456.005 193.858 456.124 194.016 456.204 194.194C456.283 194.373 456.321 194.567 456.316 194.762C456.322 195.04 456.245 195.313 456.094 195.546C455.944 195.78 455.727 195.963 455.472 196.073C455.139 196.222 454.777 196.292 454.413 196.28C454.096 196.277 453.78 196.233 453.475 196.148C453.191 196.075 452.922 195.955 452.678 195.792L453.1 194.977C453.281 195.113 453.484 195.218 453.7 195.286C453.925 195.353 454.159 195.388 454.394 195.39C454.614 195.404 454.832 195.351 455.022 195.24C455.095 195.191 455.154 195.126 455.195 195.049C455.236 194.972 455.257 194.886 455.256 194.799C455.261 194.711 455.24 194.622 455.197 194.544C455.154 194.467 455.09 194.402 455.013 194.359C454.757 194.233 454.472 194.178 454.188 194.2H453.016L453.259 191.633H456.072V192.485H454.197L454.122 193.347H454.497C454.98 193.325 455.457 193.46 455.856 193.731Z" fill="#181818"/>
<path d="M457.694 195.998C457.386 195.803 457.144 195.519 457 195.183C456.833 194.781 456.748 194.35 456.748 193.914C456.748 193.478 456.833 193.047 457 192.645C457.145 192.315 457.384 192.036 457.688 191.842C457.992 191.649 458.346 191.55 458.707 191.558C459.064 191.553 459.415 191.651 459.719 191.839C460.02 192.038 460.26 192.317 460.413 192.645C460.58 193.047 460.666 193.478 460.666 193.914C460.666 194.35 460.58 194.781 460.413 195.183C460.263 195.515 460.023 195.798 459.719 195.998C459.415 196.187 459.064 196.284 458.707 196.28C458.349 196.284 457.998 196.187 457.694 195.998ZM459.363 195.062C459.544 194.723 459.626 194.339 459.597 193.956C459.627 193.573 459.545 193.189 459.363 192.851C459.295 192.738 459.199 192.644 459.084 192.58C458.969 192.516 458.838 192.483 458.707 192.485C458.574 192.482 458.444 192.514 458.329 192.579C458.213 192.643 458.117 192.737 458.05 192.851C457.868 193.189 457.786 193.573 457.816 193.956C457.787 194.339 457.869 194.723 458.05 195.062C458.117 195.175 458.213 195.269 458.329 195.334C458.444 195.398 458.574 195.43 458.707 195.427C458.842 195.425 458.975 195.387 459.09 195.316C459.206 195.245 459.3 195.144 459.363 195.024V195.062Z" fill="#181818"/>
<path d="M462.897 191.633V196.205H461.838V192.457H460.9V191.605L462.897 191.633Z" fill="#181818"/>
<path d="M463.844 196.073C463.785 196.013 463.739 195.941 463.708 195.862C463.677 195.783 463.663 195.699 463.666 195.614C463.661 195.531 463.675 195.448 463.706 195.37C463.737 195.293 463.784 195.222 463.844 195.165C463.905 195.102 463.978 195.053 464.059 195.019C464.139 194.985 464.225 194.968 464.313 194.968C464.4 194.968 464.487 194.985 464.567 195.019C464.647 195.053 464.72 195.102 464.782 195.165C464.843 195.222 464.892 195.292 464.924 195.369C464.956 195.447 464.972 195.53 464.969 195.614C464.97 195.7 464.954 195.784 464.922 195.863C464.89 195.942 464.842 196.013 464.782 196.073C464.72 196.136 464.647 196.185 464.567 196.219C464.487 196.253 464.4 196.27 464.313 196.27C464.225 196.27 464.139 196.253 464.059 196.219C463.978 196.185 463.905 196.136 463.844 196.073Z" fill="#181818"/>
<path d="M466.263 195.998C465.959 195.798 465.718 195.515 465.569 195.183C465.244 194.368 465.244 193.46 465.569 192.645C465.721 192.317 465.962 192.038 466.263 191.839C466.567 191.651 466.918 191.553 467.275 191.558C467.635 191.55 467.99 191.649 468.293 191.842C468.597 192.036 468.837 192.315 468.981 192.645C469.148 193.047 469.234 193.478 469.234 193.914C469.234 194.35 469.148 194.781 468.981 195.183C468.838 195.519 468.596 195.803 468.288 195.998C467.984 196.187 467.633 196.284 467.275 196.28C466.918 196.284 466.567 196.187 466.263 195.998ZM467.931 195.062C468.117 194.724 468.201 194.34 468.175 193.956C468.202 193.572 468.118 193.188 467.931 192.851C467.864 192.738 467.769 192.645 467.654 192.58C467.54 192.516 467.411 192.482 467.28 192.482C467.149 192.482 467.02 192.516 466.905 192.58C466.791 192.645 466.696 192.738 466.628 192.851C466.446 193.189 466.364 193.573 466.394 193.956C466.365 194.339 466.447 194.723 466.628 195.062C466.696 195.174 466.791 195.267 466.905 195.332C467.02 195.397 467.149 195.431 467.28 195.431C467.411 195.431 467.54 195.397 467.654 195.332C467.769 195.267 467.864 195.174 467.931 195.062Z" fill="#181818"/>
<path d="M470.697 195.998C470.393 195.798 470.153 195.515 470.003 195.183C469.836 194.781 469.75 194.35 469.75 193.914C469.75 193.478 469.836 193.047 470.003 192.645C470.156 192.317 470.396 192.038 470.697 191.839C471.001 191.651 471.352 191.553 471.709 191.558C472.067 191.553 472.418 191.651 472.722 191.839C473.026 192.035 473.267 192.315 473.416 192.645C473.583 193.047 473.668 193.478 473.668 193.914C473.668 194.35 473.583 194.781 473.416 195.183C473.306 195.429 473.144 195.648 472.942 195.826C472.739 196.003 472.501 196.135 472.243 196.213C471.985 196.29 471.713 196.311 471.447 196.274C471.18 196.237 470.924 196.143 470.697 195.998ZM472.366 195.062C472.551 194.724 472.636 194.34 472.61 193.956C472.637 193.572 472.552 193.188 472.366 192.851C472.298 192.738 472.203 192.645 472.089 192.58C471.974 192.516 471.845 192.482 471.714 192.482C471.583 192.482 471.454 192.516 471.34 192.58C471.225 192.645 471.13 192.738 471.063 192.851C470.876 193.188 470.792 193.572 470.819 193.956C470.793 194.34 470.877 194.724 471.063 195.062C471.13 195.174 471.225 195.267 471.34 195.332C471.454 195.397 471.583 195.431 471.714 195.431C471.845 195.431 471.974 195.397 472.089 195.332C472.203 195.267 472.298 195.174 472.366 195.062Z" fill="#181818"/>
<path d="M298.554 277.541V282.112H297.494V278.365H296.557V277.513L298.554 277.541Z" fill="white"/>
<path d="M299.604 277.541H301.675C302.13 277.53 302.58 277.63 302.988 277.831C303.356 278.005 303.665 278.281 303.878 278.627C304.087 278.993 304.197 279.406 304.197 279.827C304.197 280.247 304.087 280.66 303.878 281.026C303.665 281.372 303.356 281.648 302.988 281.822C302.58 282.023 302.13 282.123 301.675 282.112H299.604V277.541ZM301.619 281.241C302.021 281.26 302.414 281.123 302.716 280.857C302.982 280.58 303.13 280.211 303.13 279.827C303.13 279.442 302.982 279.073 302.716 278.796C302.568 278.663 302.394 278.56 302.206 278.494C302.018 278.428 301.818 278.4 301.619 278.412H300.682V281.222L301.619 281.241Z" fill="white"/>
<path d="M323.566 277.541V282.112H322.506V278.365H321.569V277.513L323.566 277.541Z" fill="white"/>
<path d="M331.553 277.541L330.062 282.112H328.919L327.916 279.021L326.884 282.112H325.75L324.25 277.541H325.347L326.378 280.754L327.456 277.541H328.394L329.444 280.782L330.503 277.541H331.553Z" fill="white"/>
<path d="M350.35 277.541V282.112H349.291V278.365H348.354V277.513L350.35 277.541Z" fill="white"/>
<path d="M355.591 282.112V279.367L354.241 281.625H353.762L352.431 279.433V282.112H351.438V277.541H352.309L354.025 280.351L355.703 277.541H356.575V282.112H355.591Z" fill="white"/>
<path d="M383.575 274.73H374.106C372.035 274.73 370.356 276.408 370.356 278.477V281.419C370.356 283.489 372.035 285.166 374.106 285.166H383.575C385.646 285.166 387.325 283.489 387.325 281.419V278.477C387.325 276.408 385.646 274.73 383.575 274.73Z" fill="#407BFF"/>
<path d="M377.107 279.845C377.319 280.085 377.433 280.396 377.425 280.717C377.425 280.976 377.35 281.229 377.21 281.447C377.06 281.686 376.841 281.872 376.582 281.981C376.252 282.129 375.893 282.199 375.532 282.187C375.214 282.19 374.898 282.146 374.594 282.056C374.308 281.989 374.038 281.868 373.797 281.7L374.21 280.885C374.391 281.021 374.594 281.126 374.81 281.194C375.037 281.266 375.275 281.301 375.513 281.297C375.733 281.31 375.951 281.258 376.141 281.147C376.213 281.102 376.272 281.038 376.311 280.962C376.351 280.886 376.37 280.802 376.366 280.717C376.366 280.342 376.085 280.154 375.513 280.154H375.035V279.452L375.972 278.393H374.022V277.541H377.219V278.253L376.188 279.433C376.531 279.468 376.853 279.613 377.107 279.845Z" fill="#181818"/>
<path d="M382.357 282.112V279.367L381.016 281.625H380.538L379.197 279.433V282.112H378.213V277.541H379.085L380.791 280.351L382.479 277.541H383.35V282.112H382.357Z" fill="#181818"/>
<path d="M403.01 279.424C403.239 279.534 403.434 279.706 403.572 279.92C403.716 280.143 403.791 280.404 403.788 280.67C403.788 280.95 403.708 281.224 403.556 281.46C403.405 281.696 403.189 281.883 402.935 282C402.658 282.126 402.357 282.19 402.053 282.187C401.775 282.203 401.498 282.158 401.239 282.056C400.98 281.954 400.746 281.798 400.553 281.597C400.16 281.13 399.965 280.529 400.01 279.92C399.999 279.459 400.102 279.002 400.31 278.59C400.49 278.235 400.775 277.944 401.125 277.756C401.499 277.555 401.919 277.455 402.344 277.466C402.581 277.465 402.817 277.493 403.047 277.55C403.249 277.593 403.442 277.669 403.619 277.775L403.225 278.552C402.969 278.395 402.672 278.317 402.372 278.328C402.201 278.317 402.03 278.341 401.868 278.399C401.707 278.457 401.56 278.548 401.435 278.665C401.192 278.934 401.061 279.286 401.069 279.649C401.221 279.508 401.4 279.4 401.595 279.331C401.79 279.262 401.997 279.233 402.203 279.246C402.482 279.24 402.759 279.301 403.01 279.424ZM402.55 281.213C402.62 281.152 402.675 281.075 402.711 280.989C402.747 280.903 402.762 280.81 402.756 280.717C402.761 280.624 402.745 280.531 402.709 280.445C402.673 280.359 402.619 280.282 402.55 280.22C402.389 280.089 402.185 280.023 401.978 280.033C401.773 280.026 401.572 280.096 401.416 280.229C401.343 280.288 401.285 280.362 401.246 280.446C401.207 280.531 401.188 280.623 401.191 280.717C401.189 280.81 401.207 280.903 401.244 280.988C401.281 281.074 401.337 281.151 401.406 281.213C401.576 281.341 401.785 281.407 401.997 281.4C402.198 281.407 402.395 281.341 402.55 281.213Z" fill="white"/>
<path d="M408.616 282.112V279.367L407.275 281.625H406.797L405.457 279.433V282.112H404.463V277.541H405.344L407.05 280.351L408.738 277.541H409.6V282.112H408.616Z" fill="white"/>
<path d="M429.597 277.541V282.112H428.538V278.365H427.6V277.513L429.597 277.541Z" fill="white"/>
<path d="M432.869 280.492V282.112H431.791V280.482L430.028 277.541H431.144L432.372 279.574L433.591 277.541H434.631L432.869 280.492Z" fill="white"/>
<path d="M456.382 279.845C456.594 280.085 456.707 280.396 456.7 280.717C456.7 280.976 456.625 281.229 456.485 281.447C456.331 281.686 456.109 281.872 455.847 281.981C455.521 282.129 455.165 282.2 454.807 282.187C454.489 282.189 454.174 282.144 453.869 282.056C453.587 281.987 453.32 281.867 453.082 281.7L453.494 280.885C453.675 281.021 453.878 281.126 454.094 281.194C454.321 281.266 454.559 281.301 454.797 281.297C455.017 281.309 455.235 281.257 455.425 281.147C455.497 281.102 455.556 281.038 455.595 280.962C455.635 280.886 455.654 280.802 455.65 280.717C455.65 280.342 455.369 280.154 454.797 280.154H454.291V279.452L455.228 278.393H453.278V277.541H456.475V278.253L455.444 279.433C455.793 279.464 456.123 279.609 456.382 279.845Z" fill="white"/>
<path d="M459.597 280.492V282.112H458.547V280.482L456.775 277.541H457.9L459.119 279.574L460.338 277.541H461.379L459.597 280.492Z" fill="white"/>
<path d="M287.416 253.352C287.391 253.182 287.399 253.01 287.441 252.844C287.482 252.678 287.556 252.522 287.658 252.384C287.76 252.247 287.888 252.131 288.034 252.043C288.181 251.955 288.344 251.897 288.513 251.871L313.179 248.124L339.429 237.229L365.847 233.706L391.769 242.775L417.663 231.533H443.829L468.504 223.317C468.666 223.262 468.838 223.241 469.009 223.253C469.18 223.265 469.346 223.31 469.5 223.387C469.653 223.463 469.79 223.569 469.902 223.699C470.014 223.828 470.1 223.978 470.154 224.141C470.208 224.303 470.23 224.475 470.218 224.646C470.206 224.816 470.16 224.983 470.083 225.136C470.007 225.29 469.901 225.426 469.771 225.538C469.642 225.65 469.491 225.736 469.329 225.79L444.326 234.221H418.282L391.947 245.623L365.651 236.423L340.019 239.842L313.769 250.738L288.954 254.485C288.778 254.516 288.597 254.51 288.424 254.469C288.25 254.428 288.086 254.353 287.942 254.247C287.799 254.141 287.678 254.007 287.588 253.853C287.497 253.699 287.439 253.529 287.416 253.352Z" fill="#407BFF"/>
<path d="M313.197 259.085L287.641 238.231C287.504 238.121 287.391 237.985 287.307 237.831C287.224 237.677 287.172 237.508 287.155 237.333C287.137 237.159 287.155 236.983 287.206 236.815C287.257 236.648 287.341 236.492 287.453 236.357C287.562 236.219 287.697 236.103 287.852 236.018C288.006 235.933 288.176 235.881 288.351 235.863C288.526 235.846 288.703 235.864 288.871 235.916C289.039 235.969 289.195 236.055 289.328 236.17L313.975 256.274L339.382 252.049L365.379 242.522L391.629 229.874L417.991 222.848L443.979 226.361L468.569 217.761C468.895 217.647 469.253 217.667 469.564 217.816C469.875 217.966 470.114 218.232 470.229 218.557C470.342 218.883 470.323 219.24 470.173 219.551C470.024 219.862 469.757 220.101 469.432 220.216L444.26 229.022L418.094 225.537L392.35 232.395L366.354 244.948L339.916 254.635L313.197 259.085Z" fill="#263238"/>
<path d="M264.315 218.125C265.217 214.308 262.851 210.483 259.032 209.582C255.212 208.682 251.385 211.046 250.483 214.863C249.581 218.68 251.947 222.504 255.767 223.405C259.587 224.306 263.414 221.942 264.315 218.125Z" fill="#407BFF"/>
<path opacity="0.5" d="M274.553 228.6H240.241C239.443 228.6 238.797 229.246 238.797 230.043V237.247C238.797 238.044 239.443 238.69 240.241 238.69H274.553C275.351 238.69 275.997 238.044 275.997 237.247V230.043C275.997 229.246 275.351 228.6 274.553 228.6Z" fill="white"/>
<path d="M243.625 235.149L242.144 235.926L242.425 234.278L241.225 233.107L242.884 232.863L243.625 231.364L244.366 232.863L246.025 233.107L244.825 234.278L245.106 235.926L243.625 235.149Z" fill="#407BFF"/>
<path d="M250.516 235.149L249.034 235.926L249.316 234.278L248.116 233.107L249.775 232.863L250.516 231.364L251.256 232.863L252.916 233.107L251.716 234.278L251.997 235.926L250.516 235.149Z" fill="#407BFF"/>
<path d="M257.406 235.149L255.916 235.926L256.206 234.278L255.006 233.107L256.656 232.863L257.406 231.364L258.147 232.863L259.797 233.107L258.597 234.278L258.888 235.926L257.406 235.149Z" fill="#407BFF"/>
<path opacity="0.9" d="M264.288 235.149L262.806 235.926L263.088 234.278L261.888 233.107L263.547 232.863L264.288 231.364L265.028 232.863L266.688 233.107L265.488 234.278L265.769 235.926L264.288 235.149Z" fill="#181818"/>
<path opacity="0.9" d="M271.178 235.149L269.697 235.926L269.978 234.278L268.778 233.107L270.438 232.863L271.178 231.364L271.919 232.863L273.578 233.107L272.378 234.278L272.66 235.926L271.178 235.149Z" fill="#181818"/>
<path d="M264.311 257.188C265.212 253.371 262.846 249.546 259.027 248.645C255.207 247.744 251.38 250.108 250.478 253.926C249.577 257.743 251.942 261.567 255.762 262.468C259.582 263.369 263.409 261.005 264.311 257.188Z" fill="#263238"/>
<path opacity="0.7" d="M264.311 257.188C265.212 253.371 262.846 249.546 259.027 248.645C255.207 247.744 251.38 250.108 250.478 253.926C249.577 257.743 251.942 261.567 255.762 262.468C259.582 263.369 263.409 261.005 264.311 257.188Z" fill="#181818"/>
<path opacity="0.5" d="M274.553 267.666H240.241C239.443 267.666 238.797 268.312 238.797 269.109V276.313C238.797 277.11 239.443 277.756 240.241 277.756H274.553C275.351 277.756 275.997 277.11 275.997 276.313V269.109C275.997 268.312 275.351 267.666 274.553 267.666Z" fill="white"/>
<path d="M243.625 274.206L242.144 274.983L242.425 273.334L241.225 272.173L242.884 271.929L243.625 270.43L244.366 271.929L246.025 272.173L244.825 273.334L245.106 274.983L243.625 274.206Z" fill="#407BFF"/>
<path d="M250.516 274.206L249.034 274.983L249.316 273.334L248.116 272.173L249.775 271.929L250.516 270.43L251.256 271.929L252.916 272.173L251.716 273.334L251.997 274.983L250.516 274.206Z" fill="#407BFF"/>
<path opacity="0.9" d="M257.406 274.206L255.916 274.983L256.206 273.334L255.006 272.173L256.656 271.929L257.406 270.43L258.147 271.929L259.797 272.173L258.597 273.334L258.888 274.983L257.406 274.206Z" fill="#181818"/>
<path opacity="0.9" d="M264.288 274.206L262.806 274.983L263.088 273.334L261.888 272.173L263.547 271.929L264.288 270.43L265.028 271.929L266.688 272.173L265.488 273.334L265.769 274.983L264.288 274.206Z" fill="#181818"/>
<path opacity="0.9" d="M271.178 274.206L269.697 274.983L269.978 273.334L268.778 272.173L270.438 271.929L271.178 270.43L271.919 271.929L273.578 272.173L272.378 273.334L272.66 274.983L271.178 274.206Z" fill="#181818"/>
<path d="M262.42 299.642C265.195 296.869 265.195 292.373 262.42 289.599C259.645 286.826 255.146 286.826 252.371 289.599C249.595 292.373 249.595 296.869 252.371 299.642C255.146 302.415 259.645 302.415 262.42 299.642Z" fill="#407BFF"/>
<path opacity="0.3" d="M262.42 299.642C265.195 296.869 265.195 292.373 262.42 289.599C259.645 286.826 255.146 286.826 252.371 289.599C249.595 292.373 249.595 296.869 252.371 299.642C255.146 302.415 259.645 302.415 262.42 299.642Z" fill="#181818"/>
<path opacity="0.5" d="M274.553 306.723H240.241C239.443 306.723 238.797 307.369 238.797 308.166V315.37C238.797 316.167 239.443 316.813 240.241 316.813H274.553C275.351 316.813 275.997 316.167 275.997 315.37V308.166C275.997 307.369 275.351 306.723 274.553 306.723Z" fill="#181818"/>
<path d="M243.625 313.272L242.144 314.049L242.425 312.4L241.225 311.239L242.884 310.995L243.625 309.496L244.366 310.995L246.025 311.239L244.825 312.4L245.106 314.049L243.625 313.272Z" fill="#407BFF"/>
<path d="M250.516 313.272L249.034 314.049L249.316 312.4L248.116 311.239L249.775 310.995L250.516 309.496L251.256 310.995L252.916 311.239L251.716 312.4L251.997 314.049L250.516 313.272Z" fill="#407BFF"/>
<path d="M257.406 313.272L255.916 314.049L256.206 312.4L255.006 311.239L256.656 310.995L257.406 309.496L258.147 310.995L259.797 311.239L258.597 312.4L258.888 314.049L257.406 313.272Z" fill="#407BFF"/>
<path d="M264.288 313.272L262.806 314.049L263.088 312.4L261.888 311.239L263.547 310.995L264.288 309.496L265.028 310.995L266.688 311.239L265.488 312.4L265.769 314.049L264.288 313.272Z" fill="#407BFF"/>
<path opacity="0.9" d="M271.178 313.272L269.697 314.049L269.978 312.4L268.778 311.239L270.438 310.995L271.178 309.496L271.919 310.995L273.578 311.239L272.378 312.4L272.66 314.049L271.178 313.272Z" fill="#181818"/>
<path d="M262.427 338.714C265.202 335.941 265.202 331.445 262.427 328.671C259.652 325.898 255.152 325.898 252.377 328.671C249.602 331.445 249.602 335.941 252.377 338.714C255.152 341.487 259.652 341.487 262.427 338.714Z" fill="#263238"/>
<path opacity="0.5" d="M262.427 338.714C265.202 335.941 265.202 331.445 262.427 328.671C259.652 325.898 255.152 325.898 252.377 328.671C249.602 331.445 249.602 335.941 252.377 338.714C255.152 341.487 259.652 341.487 262.427 338.714Z" fill="#181818"/>
<path opacity="0.5" d="M274.553 345.789H240.241C239.443 345.789 238.797 346.435 238.797 347.232V354.436C238.797 355.233 239.443 355.879 240.241 355.879H274.553C275.351 355.879 275.997 355.233 275.997 354.436V347.232C275.997 346.435 275.351 345.789 274.553 345.789Z" fill="#181818"/>
<path d="M243.625 352.338L242.144 353.115L242.425 351.466L241.225 350.295L242.884 350.052L243.625 348.553L244.366 350.052L246.025 350.295L244.825 351.466L245.106 353.115L243.625 352.338Z" fill="#407BFF"/>
<path d="M250.516 352.338L249.034 353.115L249.316 351.466L248.116 350.295L249.775 350.052L250.516 348.553L251.256 350.052L252.916 350.295L251.716 351.466L251.997 353.115L250.516 352.338Z" fill="#407BFF"/>
<path opacity="0.9" d="M257.406 352.338L255.916 353.115L256.206 351.466L255.006 350.295L256.656 350.052L257.406 348.553L258.147 350.052L259.797 350.295L258.597 351.466L258.888 353.115L257.406 352.338Z" fill="#181818"/>
<path d="M257.406 352.338L255.916 353.115L256.206 351.466L255.006 350.295L256.656 350.052L257.406 348.553V352.338Z" fill="#407BFF"/>
<path opacity="0.9" d="M264.288 352.338L262.806 353.115L263.088 351.466L261.888 350.295L263.547 350.052L264.288 348.553L265.028 350.052L266.688 350.295L265.488 351.466L265.769 353.115L264.288 352.338Z" fill="#181818"/>
<path opacity="0.9" d="M271.178 352.338L269.697 353.115L269.978 351.466L268.778 350.295L270.438 350.052L271.178 348.553L271.919 350.052L273.578 350.295L272.378 351.466L272.66 353.115L271.178 352.338Z" fill="#181818"/>
<path d="M297.672 340.037H290.069V354.417H297.672V340.037Z" fill="#407BFF"/>
<path d="M316.028 334.547H308.425V354.417H316.028V334.547Z" fill="#407BFF"/>
<path d="M334.375 324.457H326.772V354.417H334.375V324.457Z" fill="#407BFF"/>
<path d="M306.85 331.783H299.247V354.427H306.85V331.783Z" fill="#263238"/>
<path d="M325.197 329.498H317.594V354.417H325.197V329.498Z" fill="#263238"/>
<path d="M343.553 330.088H335.95V354.417H343.553V330.088Z" fill="#263238"/>
<g opacity="0.6">
<path opacity="0.6" d="M306.85 331.783H299.247V354.427H306.85V331.783Z" fill="white"/>
<path opacity="0.6" d="M325.197 329.498H317.594V354.417H325.197V329.498Z" fill="white"/>
<path opacity="0.6" d="M343.553 330.087H335.95V354.417H343.553V330.087Z" fill="white"/>
</g>
<path d="M352.732 321.572H345.128V354.417H352.732V321.572Z" fill="#407BFF"/>
<path d="M425.838 354.417H363.175L367.422 340.037L376.15 331.783L385.328 344.478L394.507 329.498L403.685 339.437L412.863 330.088L422.041 321.572H425.838V354.417Z" fill="#407BFF"/>
<path opacity="0.8" d="M425.838 354.417H363.175L367.422 344.815L376.15 337.751L385.328 344.478L394.507 336.664L403.685 339.437L412.863 337.255L422.041 333.517L425.838 321.572V354.417Z" fill="white"/>
<path d="M451.91 307.06H467.182C467.083 303.077 465.43 299.29 462.576 296.508C459.722 293.726 455.892 292.168 451.905 292.168C447.918 292.168 444.088 293.726 441.234 296.508C438.38 299.29 436.727 303.077 436.628 307.06H451.91Z" fill="#407BFF"/>
<path opacity="0.5" d="M451.91 307.06H467.182C467.083 303.077 465.43 299.29 462.576 296.508C459.722 293.726 455.892 292.168 451.905 292.168C447.918 292.168 444.088 293.726 441.234 296.508C438.38 299.29 436.727 303.077 436.628 307.06H451.91Z" fill="#181818"/>
<path opacity="0.7" d="M462.728 296.268C460.591 294.135 457.869 292.682 454.906 292.094C451.944 291.505 448.873 291.808 446.082 292.963C443.291 294.118 440.905 296.073 439.226 298.582C437.547 301.092 436.649 304.042 436.647 307.06H451.928L462.728 296.268Z" fill="#181818"/>
<path opacity="0.2" d="M441.1 296.249L451.91 307.042V291.771C449.901 291.77 447.913 292.165 446.058 292.933C444.203 293.702 442.518 294.829 441.1 296.249Z" fill="white"/>
<path d="M441.1 296.249L451.91 307.042V291.771C449.901 291.77 447.913 292.165 446.058 292.933C444.203 293.702 442.518 294.829 441.1 296.249Z" fill="#407BFF"/>
<path opacity="0.5" d="M441.1 296.249L451.91 307.042V291.771C449.901 291.77 447.913 292.165 446.058 292.933C444.203 293.702 442.518 294.829 441.1 296.249Z" fill="#181818"/>
<path d="M460.328 299.744L459.231 298.638L452.322 305.524C452.104 305.464 451.876 305.452 451.652 305.488C451.429 305.524 451.216 305.607 451.028 305.732C450.839 305.857 450.68 306.021 450.56 306.212C450.44 306.404 450.363 306.619 450.333 306.843C450.303 307.067 450.322 307.295 450.388 307.511C450.453 307.727 450.565 307.927 450.714 308.097C450.863 308.266 451.047 308.402 451.254 308.495C451.46 308.588 451.683 308.635 451.91 308.634C452.332 308.634 452.738 308.466 453.037 308.168C453.335 307.869 453.503 307.464 453.503 307.042C453.495 306.901 453.467 306.762 453.419 306.629L460.328 299.744Z" fill="white"/>
<path d="M451.909 331.053H467.181C467.232 329.016 466.874 326.99 466.129 325.094C465.384 323.198 464.267 321.469 462.843 320.011C461.42 318.553 459.719 317.394 457.84 316.603C455.961 315.812 453.943 315.404 451.905 315.404C449.866 315.404 447.848 315.812 445.97 316.603C444.091 317.394 442.39 318.553 440.966 320.011C439.543 321.469 438.426 323.198 437.681 325.094C436.936 326.99 436.578 329.016 436.628 331.053H451.909Z" fill="#407BFF"/>
<path opacity="0.5" d="M451.909 331.053H467.181C467.232 329.016 466.874 326.99 466.129 325.094C465.384 323.198 464.267 321.469 462.843 320.011C461.42 318.553 459.719 317.394 457.84 316.603C455.961 315.812 453.943 315.404 451.905 315.404C449.866 315.404 447.848 315.812 445.97 316.603C444.091 317.394 442.39 318.553 440.966 320.011C439.543 321.469 438.426 323.198 437.681 325.094C436.936 326.99 436.578 329.016 436.628 331.053H451.909Z" fill="#181818"/>
<path opacity="0.7" d="M462.728 320.251C460.591 318.117 457.868 316.664 454.904 316.076C451.94 315.488 448.869 315.791 446.077 316.947C443.286 318.103 440.9 320.06 439.222 322.571C437.543 325.082 436.647 328.033 436.647 331.053H451.928L462.728 320.251Z" fill="#181818"/>
<path d="M441.1 320.232L451.91 331.025V315.726C449.899 315.728 447.91 316.127 446.054 316.9C444.199 317.674 442.516 318.806 441.1 320.232Z" fill="#407BFF"/>
<path opacity="0.5" d="M441.1 320.232L451.91 331.025V315.726C449.899 315.728 447.91 316.127 446.054 316.9C444.199 317.674 442.516 318.806 441.1 320.232Z" fill="#181818"/>
<path d="M452.678 329.666V320.794H451.131V329.666C450.884 329.798 450.677 329.993 450.532 330.232C450.387 330.471 450.309 330.745 450.306 331.025C450.29 331.245 450.318 331.466 450.391 331.674C450.464 331.883 450.579 332.074 450.729 332.236C450.879 332.398 451.061 332.527 451.263 332.615C451.466 332.703 451.684 332.749 451.905 332.749C452.126 332.749 452.344 332.703 452.547 332.615C452.749 332.527 452.931 332.398 453.081 332.236C453.231 332.074 453.346 331.883 453.419 331.674C453.491 331.466 453.52 331.245 453.503 331.025C453.501 330.745 453.423 330.471 453.278 330.232C453.132 329.993 452.925 329.798 452.678 329.666Z" fill="white"/>
<path d="M451.91 355.073H467.182C467.083 351.09 465.43 347.303 462.576 344.521C459.722 341.738 455.892 340.181 451.905 340.181C447.918 340.181 444.088 341.738 441.234 344.521C438.38 347.303 436.727 351.09 436.628 355.073H451.91Z" fill="#407BFF"/>
<path opacity="0.5" d="M451.91 355.073H467.182C467.083 351.09 465.43 347.303 462.576 344.521C459.722 341.738 455.892 340.181 451.905 340.181C447.918 340.181 444.088 341.738 441.234 344.521C438.38 347.303 436.727 351.09 436.628 355.073H451.91Z" fill="#181818"/>
<path opacity="0.7" d="M462.728 344.243C460.59 342.101 457.863 340.642 454.894 340.051C451.924 339.461 448.846 339.765 446.05 340.925C443.253 342.085 440.865 344.049 439.187 346.568C437.51 349.087 436.619 352.048 436.628 355.073H451.91L462.728 344.243Z" fill="#181818"/>
<path d="M441.1 344.225L451.91 355.017V339.756C449.902 339.753 447.914 340.146 446.059 340.913C444.204 341.68 442.519 342.805 441.1 344.225Z" fill="#407BFF"/>
<path opacity="0.5" d="M441.1 344.225L451.91 355.017V339.756C449.902 339.753 447.914 340.146 446.059 340.913C444.204 341.68 442.519 342.805 441.1 344.225Z" fill="#181818"/>
<path d="M460.329 347.719L459.232 346.642L452.322 353.537C452.103 353.472 451.872 353.455 451.645 353.488C451.419 353.521 451.202 353.602 451.01 353.727C450.818 353.851 450.656 354.016 450.533 354.209C450.411 354.402 450.332 354.62 450.302 354.846C450.272 355.073 450.291 355.303 450.359 355.522C450.426 355.74 450.54 355.942 450.693 356.112C450.846 356.282 451.034 356.417 451.244 356.508C451.454 356.599 451.681 356.643 451.91 356.638C452.332 356.638 452.738 356.47 453.037 356.171C453.336 355.873 453.504 355.468 453.504 355.045C453.495 354.904 453.467 354.766 453.419 354.633L460.329 347.719Z" fill="white"/>
<path d="M472.675 200.364L462.41 200.477C462.075 200.48 461.744 200.55 461.436 200.681C461.128 200.813 460.849 201.003 460.615 201.243C460.381 201.482 460.196 201.765 460.071 202.076C459.946 202.386 459.884 202.718 459.888 203.053L459.982 211.634C459.984 211.969 460.052 212.3 460.183 212.608C460.313 212.916 460.503 213.196 460.742 213.431C460.98 213.666 461.263 213.851 461.573 213.977C461.883 214.103 462.215 214.166 462.55 214.164H465.522L466.807 216.14C466.903 216.304 467.04 216.439 467.204 216.533C467.369 216.627 467.555 216.676 467.744 216.676C467.934 216.676 468.12 216.627 468.284 216.533C468.449 216.439 468.586 216.304 468.682 216.14L469.9 214.107H472.854C473.19 214.106 473.522 214.038 473.832 213.908C474.141 213.778 474.422 213.587 474.657 213.347C474.893 213.108 475.078 212.824 475.203 212.512C475.328 212.2 475.39 211.867 475.385 211.531L475.291 202.969C475.3 202.623 475.239 202.28 475.11 201.959C474.982 201.638 474.789 201.347 474.545 201.103C474.3 200.86 474.008 200.668 473.686 200.541C473.365 200.414 473.021 200.354 472.675 200.364Z" fill="#8EC2F2"/>
<path d="M464.782 207.315C464.954 207.395 465.1 207.522 465.203 207.681C465.303 207.844 465.355 208.033 465.353 208.224C465.358 208.433 465.299 208.639 465.185 208.814C465.073 208.985 464.913 209.119 464.725 209.199C464.527 209.294 464.308 209.342 464.088 209.339C463.884 209.348 463.68 209.314 463.489 209.24C463.299 209.166 463.126 209.053 462.982 208.908C462.699 208.564 462.558 208.125 462.588 207.681C462.586 207.356 462.659 207.035 462.803 206.744C462.937 206.483 463.146 206.267 463.403 206.126C463.678 205.982 463.984 205.911 464.294 205.92C464.468 205.919 464.64 205.938 464.81 205.976C464.959 206.007 465.102 206.064 465.232 206.144L464.941 206.716C464.753 206.598 464.534 206.539 464.313 206.547C464.19 206.542 464.067 206.56 463.951 206.602C463.835 206.644 463.729 206.708 463.638 206.791C463.464 206.99 463.37 207.248 463.375 207.512C463.486 207.41 463.616 207.332 463.758 207.282C463.9 207.232 464.05 207.212 464.2 207.222C464.399 207.205 464.599 207.237 464.782 207.315ZM464.444 208.627C464.495 208.581 464.535 208.524 464.563 208.461C464.59 208.398 464.604 208.33 464.604 208.262C464.604 208.193 464.59 208.125 464.563 208.062C464.535 207.999 464.495 207.943 464.444 207.896C464.327 207.802 464.182 207.751 464.032 207.751C463.881 207.751 463.736 207.802 463.619 207.896C463.565 207.938 463.521 207.992 463.492 208.054C463.462 208.116 463.448 208.184 463.45 208.252C463.449 208.32 463.463 208.387 463.49 208.448C463.518 208.51 463.559 208.564 463.61 208.608C463.731 208.707 463.885 208.757 464.041 208.749C464.186 208.757 464.328 208.714 464.444 208.627Z" fill="white"/>
<path d="M466.329 209.133C466.106 208.986 465.93 208.777 465.822 208.533C465.685 208.241 465.62 207.919 465.635 207.596C465.623 207.274 465.687 206.953 465.822 206.66C465.928 206.417 466.102 206.21 466.324 206.065C466.545 205.92 466.804 205.842 467.069 205.842C467.334 205.842 467.593 205.92 467.815 206.065C468.036 206.21 468.211 206.417 468.316 206.66C468.447 206.954 468.511 207.274 468.504 207.596C468.513 207.919 468.449 208.239 468.316 208.533C468.234 208.711 468.115 208.87 467.967 208.999C467.819 209.127 467.645 209.223 467.457 209.28C467.269 209.336 467.072 209.353 466.877 209.327C466.683 209.302 466.496 209.236 466.329 209.133ZM467.547 208.421C467.664 208.165 467.725 207.887 467.725 207.606C467.725 207.325 467.664 207.047 467.547 206.791C467.497 206.71 467.427 206.643 467.343 206.597C467.259 206.551 467.165 206.527 467.069 206.529C466.974 206.528 466.88 206.552 466.796 206.598C466.713 206.644 466.642 206.71 466.591 206.791C466.48 207.048 466.422 207.325 466.422 207.606C466.422 207.886 466.48 208.164 466.591 208.421C466.641 208.503 466.711 208.57 466.795 208.616C466.879 208.662 466.973 208.685 467.069 208.683C467.165 208.686 467.26 208.664 467.344 208.618C467.428 208.571 467.499 208.504 467.547 208.421Z" fill="white"/>
<path d="M469.057 207.493C468.905 207.301 468.822 207.064 468.822 206.819C468.822 206.574 468.905 206.336 469.057 206.144C469.133 206.063 469.226 205.998 469.33 205.956C469.433 205.914 469.545 205.895 469.657 205.901C469.768 205.896 469.88 205.915 469.983 205.957C470.087 205.999 470.18 206.063 470.257 206.144C470.403 206.339 470.482 206.576 470.482 206.819C470.482 207.062 470.403 207.299 470.257 207.493C470.18 207.575 470.087 207.639 469.983 207.681C469.88 207.723 469.768 207.742 469.657 207.737C469.545 207.742 469.433 207.724 469.33 207.681C469.226 207.639 469.133 207.575 469.057 207.493ZM469.91 207.212C469.972 207.09 470.004 206.956 470.004 206.819C470.004 206.682 469.972 206.547 469.91 206.425C469.883 206.383 469.845 206.348 469.801 206.324C469.757 206.299 469.707 206.287 469.657 206.287C469.606 206.287 469.556 206.299 469.512 206.324C469.468 206.348 469.431 206.383 469.403 206.425C469.342 206.547 469.309 206.682 469.309 206.819C469.309 206.956 469.342 207.09 469.403 207.212C469.431 207.255 469.468 207.29 469.512 207.314C469.556 207.339 469.606 207.351 469.657 207.351C469.707 207.351 469.757 207.339 469.801 207.314C469.845 207.29 469.883 207.255 469.91 207.212ZM471.644 205.938H472.216L469.928 209.283H469.366L471.644 205.938ZM471.494 209.208C471.36 209.148 471.246 209.05 471.166 208.927C471.096 208.774 471.061 208.608 471.063 208.44C471.062 208.272 471.097 208.106 471.166 207.952C471.229 207.82 471.33 207.709 471.457 207.634C471.588 207.559 471.737 207.52 471.888 207.522C472 207.517 472.112 207.538 472.216 207.581C472.32 207.625 472.412 207.691 472.488 207.774C472.65 207.957 472.734 208.196 472.722 208.44C472.736 208.687 472.652 208.929 472.488 209.114C472.412 209.198 472.32 209.264 472.216 209.307C472.112 209.351 472 209.371 471.888 209.367C471.745 209.348 471.61 209.294 471.494 209.208ZM472.178 208.786C472.251 208.669 472.284 208.531 472.272 208.393C472.281 208.255 472.249 208.118 472.178 207.999C472.15 207.959 472.112 207.926 472.068 207.903C472.024 207.88 471.975 207.868 471.925 207.868C471.876 207.868 471.827 207.88 471.783 207.903C471.739 207.926 471.701 207.959 471.672 207.999C471.602 208.118 471.569 208.255 471.578 208.393C471.568 208.533 471.601 208.674 471.672 208.796C471.701 208.836 471.739 208.869 471.783 208.892C471.827 208.915 471.876 208.927 471.925 208.927C471.977 208.93 472.027 208.918 472.072 208.893C472.117 208.868 472.154 208.831 472.178 208.786Z" fill="white"/>
<path d="M462.588 245.248L472.853 245.136C473.188 245.132 473.519 245.062 473.827 244.931C474.135 244.799 474.414 244.609 474.648 244.369C474.882 244.13 475.067 243.847 475.192 243.537C475.317 243.226 475.379 242.894 475.375 242.559L475.281 233.968C475.279 233.634 475.21 233.304 475.08 232.996C474.949 232.688 474.759 232.409 474.521 232.175C474.282 231.941 473.999 231.756 473.689 231.632C473.379 231.507 473.047 231.445 472.713 231.448H469.741L468.456 229.537C468.362 229.372 468.226 229.234 468.061 229.138C467.897 229.042 467.709 228.992 467.519 228.992C467.328 228.992 467.141 229.042 466.976 229.138C466.812 229.234 466.675 229.372 466.581 229.537L465.363 231.57H462.409C462.073 231.571 461.741 231.639 461.431 231.77C461.122 231.9 460.841 232.091 460.606 232.33C460.37 232.57 460.185 232.854 460.06 233.165C459.935 233.477 459.873 233.811 459.878 234.146L459.963 242.709C459.965 243.049 460.035 243.385 460.169 243.697C460.303 244.01 460.498 244.293 460.742 244.529C460.986 244.765 461.275 244.951 461.592 245.074C461.909 245.198 462.248 245.257 462.588 245.248Z" fill="white"/>
<path d="M464.885 238.906C464.995 238.998 465.084 239.114 465.142 239.246C465.201 239.377 465.228 239.52 465.222 239.664C465.222 239.86 465.166 240.051 465.063 240.217C464.952 240.393 464.792 240.533 464.603 240.62C464.358 240.725 464.092 240.776 463.825 240.77C463.591 240.767 463.358 240.735 463.132 240.676C462.925 240.621 462.728 240.533 462.55 240.414L462.86 239.814C462.991 239.917 463.14 239.993 463.3 240.039C463.464 240.093 463.635 240.118 463.807 240.114C463.967 240.123 464.127 240.084 464.266 240.002C464.32 239.968 464.364 239.921 464.394 239.865C464.423 239.809 464.437 239.746 464.435 239.683C464.437 239.618 464.422 239.552 464.391 239.495C464.359 239.437 464.313 239.389 464.257 239.355C464.068 239.274 463.862 239.238 463.657 239.252H462.803L462.972 237.379H465.016V237.969H463.666L463.61 238.606H463.882C464.24 238.591 464.593 238.697 464.885 238.906Z" fill="#181818"/>
<path d="M466.225 240.517C466.003 240.37 465.827 240.161 465.719 239.917C465.586 239.623 465.522 239.303 465.532 238.98C465.524 238.658 465.588 238.338 465.719 238.044C465.824 237.8 466.001 237.595 466.225 237.453C466.447 237.314 466.704 237.242 466.966 237.247C467.228 237.241 467.486 237.312 467.707 237.453C467.931 237.597 468.11 237.802 468.222 238.044C468.35 238.339 468.411 238.659 468.4 238.98C468.413 239.302 468.352 239.623 468.222 239.917C468.108 240.16 467.93 240.367 467.707 240.517C467.486 240.658 467.228 240.73 466.966 240.723C466.704 240.728 466.447 240.656 466.225 240.517ZM467.416 239.842C467.553 239.594 467.615 239.311 467.594 239.027C467.617 238.747 467.555 238.466 467.416 238.222C467.368 238.14 467.3 238.072 467.217 238.025C467.135 237.978 467.042 237.954 466.947 237.954C466.853 237.954 466.759 237.978 466.677 238.025C466.595 238.072 466.527 238.14 466.479 238.222C466.34 238.466 466.278 238.747 466.3 239.027C466.279 239.311 466.341 239.594 466.479 239.842C466.53 239.92 466.6 239.983 466.681 240.027C466.763 240.071 466.854 240.094 466.947 240.094C467.04 240.094 467.131 240.071 467.213 240.027C467.295 239.983 467.365 239.92 467.416 239.842Z" fill="#181818"/>
<path d="M468.954 238.906C468.802 238.714 468.719 238.476 468.719 238.231C468.719 237.986 468.802 237.748 468.954 237.556C469.032 237.477 469.125 237.415 469.228 237.373C469.332 237.331 469.442 237.31 469.554 237.313C469.665 237.309 469.776 237.329 469.879 237.371C469.983 237.413 470.076 237.476 470.154 237.556C470.3 237.751 470.379 237.988 470.379 238.231C470.379 238.474 470.3 238.711 470.154 238.906C470.077 238.987 469.984 239.051 469.881 239.094C469.777 239.136 469.665 239.155 469.554 239.149C469.442 239.154 469.331 239.135 469.227 239.093C469.124 239.051 469.03 238.987 468.954 238.906ZM469.807 238.624C469.869 238.502 469.901 238.368 469.901 238.231C469.901 238.094 469.869 237.959 469.807 237.838C469.782 237.793 469.745 237.756 469.7 237.731C469.656 237.706 469.605 237.694 469.554 237.697C469.503 237.697 469.453 237.71 469.409 237.735C469.365 237.759 469.327 237.795 469.3 237.838C469.239 237.959 469.207 238.094 469.207 238.231C469.207 238.368 469.239 238.502 469.3 238.624C469.327 238.667 469.365 238.703 469.409 238.727C469.453 238.752 469.503 238.765 469.554 238.765C469.608 238.765 469.661 238.749 469.706 238.719C469.751 238.689 469.786 238.646 469.807 238.596V238.624ZM471.55 237.35H472.104L469.816 240.695H469.291L471.55 237.35ZM471.4 240.62C471.271 240.542 471.167 240.428 471.1 240.292C471.03 240.139 470.995 239.973 470.997 239.805C470.996 239.637 471.031 239.471 471.1 239.318C471.167 239.184 471.271 239.074 471.4 238.999C471.528 238.923 471.674 238.884 471.822 238.887C471.935 238.882 472.047 238.902 472.151 238.946C472.255 238.989 472.347 239.056 472.422 239.14C472.584 239.322 472.668 239.561 472.657 239.805C472.671 240.052 472.587 240.294 472.422 240.479C472.347 240.563 472.255 240.63 472.151 240.673C472.047 240.717 471.935 240.737 471.822 240.732C471.671 240.727 471.525 240.678 471.4 240.592V240.62ZM472.085 240.198C472.154 240.079 472.186 239.942 472.179 239.805C472.184 239.668 472.151 239.532 472.085 239.411C472.055 239.37 472.015 239.337 471.97 239.314C471.924 239.291 471.873 239.279 471.822 239.28C471.773 239.28 471.724 239.292 471.68 239.315C471.636 239.338 471.598 239.371 471.569 239.411C471.499 239.53 471.466 239.667 471.475 239.805C471.465 239.946 471.498 240.086 471.569 240.208C471.598 240.248 471.636 240.281 471.68 240.304C471.724 240.327 471.773 240.339 471.822 240.339C471.881 240.341 471.938 240.326 471.988 240.296C472.038 240.266 472.078 240.223 472.104 240.17L472.085 240.198Z" fill="#181818"/>
<path d="M364.994 304.194C364.686 304.167 364.399 304.025 364.189 303.797C363.98 303.569 363.864 303.271 363.864 302.962C363.864 302.652 363.98 302.354 364.189 302.126C364.399 301.898 364.686 301.757 364.994 301.73H403.132C403.303 301.715 403.475 301.736 403.637 301.791C403.8 301.846 403.949 301.934 404.075 302.05C404.202 302.166 404.303 302.307 404.372 302.464C404.441 302.621 404.477 302.79 404.477 302.962C404.477 303.133 404.441 303.303 404.372 303.46C404.303 303.617 404.202 303.758 404.075 303.873C403.949 303.989 403.8 304.078 403.637 304.133C403.475 304.188 403.303 304.209 403.132 304.194H364.994Z" fill="#263238"/>
<path d="M364.994 313.075C364.686 313.048 364.399 312.907 364.189 312.678C363.98 312.45 363.864 312.152 363.864 311.843C363.864 311.534 363.98 311.235 364.189 311.007C364.399 310.779 364.686 310.638 364.994 310.611H395.697C395.868 310.596 396.04 310.617 396.203 310.672C396.365 310.727 396.515 310.815 396.641 310.931C396.768 311.047 396.869 311.188 396.938 311.345C397.007 311.502 397.042 311.671 397.042 311.843C397.042 312.014 397.007 312.184 396.938 312.341C396.869 312.498 396.768 312.639 396.641 312.755C396.515 312.87 396.365 312.959 396.203 313.014C396.04 313.069 395.868 313.09 395.697 313.075H364.994Z" fill="#263238"/>
<path d="M364.994 308.634C364.686 308.607 364.399 308.466 364.189 308.238C363.98 308.01 363.864 307.712 363.864 307.402C363.864 307.093 363.98 306.795 364.189 306.567C364.399 306.339 364.686 306.197 364.994 306.17H392.566C392.874 306.197 393.162 306.339 393.371 306.567C393.58 306.795 393.696 307.093 393.696 307.402C393.696 307.712 393.58 308.01 393.371 308.238C393.162 308.466 392.874 308.607 392.566 308.634H364.994Z" fill="#263238"/>
<g opacity="0.5">
<path opacity="0.5" d="M364.994 304.194C364.686 304.167 364.399 304.025 364.189 303.797C363.98 303.569 363.864 303.271 363.864 302.962C363.864 302.652 363.98 302.354 364.189 302.126C364.399 301.898 364.686 301.757 364.994 301.73H403.132C403.303 301.715 403.475 301.736 403.637 301.791C403.8 301.846 403.949 301.934 404.075 302.05C404.202 302.166 404.303 302.307 404.372 302.464C404.441 302.621 404.477 302.79 404.477 302.962C404.477 303.133 404.441 303.303 404.372 303.46C404.303 303.617 404.202 303.758 404.075 303.873C403.949 303.989 403.8 304.078 403.637 304.133C403.475 304.188 403.303 304.209 403.132 304.194H364.994Z" fill="#181818"/>
<path opacity="0.5" d="M364.994 313.075C364.686 313.048 364.399 312.907 364.189 312.678C363.98 312.45 363.864 312.152 363.864 311.843C363.864 311.534 363.98 311.235 364.189 311.007C364.399 310.779 364.686 310.638 364.994 310.611H395.697C395.868 310.596 396.04 310.617 396.203 310.672C396.365 310.727 396.515 310.815 396.641 310.931C396.768 311.047 396.869 311.188 396.938 311.345C397.007 311.502 397.042 311.671 397.042 311.843C397.042 312.014 397.007 312.184 396.938 312.341C396.869 312.498 396.768 312.639 396.641 312.755C396.515 312.87 396.365 312.959 396.203 313.014C396.04 313.069 395.868 313.09 395.697 313.075H364.994Z" fill="#181818"/>
<path opacity="0.5" d="M364.994 308.634C364.686 308.607 364.399 308.466 364.189 308.238C363.98 308.01 363.864 307.712 363.864 307.402C363.864 307.093 363.98 306.795 364.189 306.567C364.399 306.339 364.686 306.197 364.994 306.17H392.566C392.874 306.197 393.162 306.339 393.371 306.567C393.58 306.795 393.696 307.093 393.696 307.402C393.696 307.712 393.58 308.01 393.371 308.238C393.162 308.466 392.874 308.607 392.566 308.634H364.994Z" fill="#181818"/>
</g>
<path d="M291.297 304.194C290.988 304.167 290.701 304.025 290.492 303.797C290.283 303.569 290.167 303.271 290.167 302.962C290.167 302.652 290.283 302.354 290.492 302.126C290.701 301.898 290.988 301.757 291.297 301.73H329.434C329.605 301.715 329.777 301.736 329.94 301.791C330.102 301.846 330.252 301.934 330.378 302.05C330.505 302.166 330.606 302.307 330.675 302.464C330.744 302.621 330.779 302.79 330.779 302.962C330.779 303.133 330.744 303.303 330.675 303.46C330.606 303.617 330.505 303.758 330.378 303.873C330.252 303.989 330.102 304.078 329.94 304.133C329.777 304.188 329.605 304.209 329.434 304.194H291.297Z" fill="#263238"/>
<path d="M291.297 313.075C290.988 313.048 290.701 312.906 290.492 312.678C290.283 312.45 290.167 312.152 290.167 311.843C290.167 311.534 290.283 311.235 290.492 311.007C290.701 310.779 290.988 310.638 291.297 310.611H313.666C313.974 310.638 314.261 310.779 314.47 311.007C314.68 311.235 314.796 311.534 314.796 311.843C314.796 312.152 314.68 312.45 314.47 312.678C314.261 312.906 313.974 313.048 313.666 313.075H291.297Z" fill="#263238"/>
<path d="M291.297 308.634C290.988 308.607 290.701 308.466 290.492 308.238C290.283 308.01 290.167 307.712 290.167 307.402C290.167 307.093 290.283 306.795 290.492 306.567C290.701 306.339 290.988 306.197 291.297 306.17H323.65C323.958 306.197 324.246 306.339 324.455 306.567C324.664 306.795 324.78 307.093 324.78 307.402C324.78 307.712 324.664 308.01 324.455 308.238C324.246 308.466 323.958 308.607 323.65 308.634H291.297Z" fill="#263238"/>
<g opacity="0.5">
<path opacity="0.5" d="M291.297 304.194C290.988 304.167 290.701 304.025 290.492 303.797C290.283 303.569 290.167 303.271 290.167 302.962C290.167 302.652 290.283 302.354 290.492 302.126C290.701 301.898 290.988 301.757 291.297 301.73H329.434C329.605 301.715 329.777 301.736 329.94 301.791C330.102 301.846 330.252 301.934 330.378 302.05C330.505 302.166 330.606 302.307 330.675 302.464C330.744 302.621 330.779 302.79 330.779 302.962C330.779 303.133 330.744 303.303 330.675 303.46C330.606 303.617 330.505 303.758 330.378 303.873C330.252 303.989 330.102 304.078 329.94 304.133C329.777 304.188 329.605 304.209 329.434 304.194H291.297Z" fill="#181818"/>
<path opacity="0.5" d="M291.297 313.075C290.988 313.048 290.701 312.906 290.492 312.678C290.283 312.45 290.167 312.152 290.167 311.843C290.167 311.534 290.283 311.235 290.492 311.007C290.701 310.779 290.988 310.638 291.297 310.611H313.666C313.974 310.638 314.261 310.779 314.47 311.007C314.68 311.235 314.796 311.534 314.796 311.843C314.796 312.152 314.68 312.45 314.47 312.678C314.261 312.906 313.974 313.048 313.666 313.075H291.297Z" fill="#181818"/>
<path opacity="0.5" d="M291.297 308.634C290.988 308.607 290.701 308.466 290.492 308.238C290.283 308.01 290.167 307.712 290.167 307.402C290.167 307.093 290.283 306.795 290.492 306.567C290.701 306.339 290.988 306.197 291.297 306.17H323.65C323.958 306.197 324.246 306.339 324.455 306.567C324.664 306.795 324.78 307.093 324.78 307.402C324.78 307.712 324.664 308.01 324.455 308.238C324.246 308.466 323.958 308.607 323.65 308.634H291.297Z" fill="#181818"/>
</g>
<path d="M453.653 313.731H437.36C436.963 313.724 436.582 313.573 436.288 313.305C435.995 313.038 435.809 312.673 435.766 312.279L433.666 288.024C433.644 287.838 433.663 287.649 433.721 287.471C433.778 287.293 433.873 287.129 433.999 286.991C434.125 286.852 434.28 286.743 434.452 286.669C434.624 286.595 434.81 286.559 434.997 286.562H451.291C451.689 286.571 452.07 286.725 452.363 286.994C452.656 287.262 452.841 287.629 452.885 288.024L455.003 312.279C455.024 312.465 455.003 312.654 454.944 312.833C454.885 313.011 454.788 313.175 454.66 313.313C454.532 313.45 454.376 313.559 454.202 313.631C454.028 313.703 453.841 313.737 453.653 313.731Z" fill="#407BFF"/>
<path d="M454.591 313.731H438.297C437.9 313.724 437.519 313.573 437.226 313.305C436.932 313.038 436.747 312.673 436.703 312.279L434.603 288.024C434.582 287.838 434.601 287.649 434.658 287.471C434.716 287.293 434.81 287.129 434.937 286.991C435.063 286.852 435.217 286.743 435.389 286.669C435.561 286.595 435.747 286.559 435.935 286.562H452.228C452.626 286.571 453.007 286.725 453.3 286.994C453.594 287.262 453.779 287.629 453.822 288.024L455.941 312.279C455.961 312.465 455.941 312.654 455.882 312.833C455.822 313.011 455.726 313.175 455.598 313.313C455.47 313.45 455.313 313.559 455.14 313.631C454.966 313.703 454.779 313.737 454.591 313.731Z" fill="#407BFF"/>
<path opacity="0.5" d="M454.591 313.731H438.297C437.9 313.724 437.519 313.573 437.226 313.305C436.932 313.038 436.747 312.673 436.703 312.279L434.603 288.024C434.582 287.838 434.601 287.649 434.658 287.471C434.716 287.293 434.81 287.129 434.937 286.991C435.063 286.852 435.217 286.743 435.389 286.669C435.561 286.595 435.747 286.559 435.935 286.562H452.228C452.626 286.571 453.007 286.725 453.3 286.994C453.594 287.262 453.779 287.629 453.822 288.024L455.941 312.279C455.961 312.465 455.941 312.654 455.882 312.833C455.822 313.011 455.726 313.175 455.598 313.313C455.47 313.45 455.313 313.559 455.14 313.631C454.966 313.703 454.779 313.737 454.591 313.731Z" fill="white"/>
<path opacity="0.6" d="M452.294 287.499H436C435.933 287.497 435.866 287.51 435.804 287.536C435.742 287.563 435.686 287.602 435.641 287.652C435.595 287.702 435.561 287.761 435.541 287.825C435.52 287.889 435.514 287.957 435.522 288.024L437.641 312.279C437.657 312.419 437.724 312.549 437.829 312.644C437.934 312.739 438.071 312.792 438.213 312.794H454.506C454.573 312.795 454.639 312.783 454.7 312.757C454.761 312.731 454.817 312.693 454.862 312.644C454.907 312.595 454.941 312.537 454.962 312.474C454.984 312.411 454.991 312.345 454.984 312.279L452.866 288.024C452.85 287.882 452.783 287.751 452.678 287.654C452.573 287.558 452.436 287.503 452.294 287.499Z" fill="#181818"/>
<path opacity="0.3" d="M454.985 312.279L452.894 288.352L437.847 312.653C437.949 312.742 438.078 312.791 438.213 312.794H454.507C454.573 312.795 454.639 312.783 454.7 312.757C454.762 312.731 454.817 312.693 454.862 312.644C454.907 312.595 454.942 312.537 454.963 312.474C454.984 312.411 454.991 312.345 454.985 312.279Z" fill="#181818"/>
<path opacity="0.9" d="M449.734 300.146H441.297C441.037 300.142 440.788 300.045 440.594 299.874C440.4 299.702 440.273 299.466 440.237 299.21L439.806 294.235C439.797 294.114 439.813 293.993 439.853 293.879C439.894 293.765 439.957 293.661 440.04 293.573C440.123 293.485 440.224 293.415 440.335 293.367C440.446 293.32 440.566 293.297 440.687 293.298H449.125C449.384 293.302 449.634 293.399 449.828 293.571C450.022 293.743 450.149 293.978 450.184 294.235L450.616 299.21C450.625 299.33 450.609 299.451 450.568 299.565C450.528 299.68 450.464 299.784 450.381 299.872C450.299 299.96 450.198 300.03 450.087 300.077C449.975 300.125 449.855 300.148 449.734 300.146Z" fill="white"/>
<path opacity="0.9" d="M450.484 308.812H442.047C441.787 308.808 441.538 308.711 441.344 308.539C441.15 308.368 441.023 308.132 440.987 307.875L440.556 302.901C440.547 302.78 440.563 302.659 440.603 302.545C440.644 302.431 440.707 302.327 440.79 302.238C440.873 302.15 440.974 302.08 441.085 302.033C441.196 301.986 441.316 301.962 441.437 301.964H449.875C450.134 301.968 450.384 302.065 450.578 302.237C450.772 302.409 450.899 302.644 450.934 302.901L451.366 307.875C451.375 307.996 451.359 308.117 451.318 308.231C451.278 308.345 451.214 308.45 451.131 308.538C451.049 308.626 450.948 308.696 450.837 308.743C450.725 308.79 450.605 308.814 450.484 308.812Z" fill="white"/>
<path d="M441.428 295.218C441.349 295.216 441.273 295.186 441.214 295.133C441.156 295.079 441.118 295.007 441.109 294.928C441.105 294.89 441.11 294.852 441.121 294.816C441.133 294.779 441.153 294.746 441.178 294.718C441.204 294.689 441.235 294.667 441.27 294.652C441.305 294.636 441.343 294.628 441.381 294.629H448.159C448.241 294.63 448.319 294.662 448.38 294.717C448.44 294.772 448.478 294.847 448.487 294.928C448.49 294.965 448.485 295.003 448.472 295.038C448.46 295.073 448.44 295.105 448.415 295.132C448.389 295.159 448.358 295.181 448.324 295.196C448.29 295.211 448.253 295.218 448.216 295.218H441.428Z" fill="#263238"/>
<path d="M441.616 297.364C441.535 297.361 441.458 297.33 441.399 297.275C441.34 297.219 441.304 297.144 441.297 297.064C441.293 297.026 441.297 296.988 441.309 296.952C441.321 296.915 441.34 296.882 441.366 296.854C441.391 296.825 441.423 296.803 441.458 296.787C441.493 296.772 441.531 296.764 441.569 296.764H447.194C447.275 296.766 447.354 296.798 447.414 296.853C447.474 296.908 447.513 296.983 447.522 297.064C447.526 297.102 447.522 297.14 447.51 297.177C447.498 297.213 447.479 297.246 447.453 297.274C447.427 297.303 447.396 297.325 447.361 297.341C447.326 297.356 447.288 297.364 447.25 297.364H441.616Z" fill="#263238"/>
<path d="M441.522 296.296C441.442 296.292 441.366 296.259 441.307 296.204C441.249 296.15 441.212 296.076 441.203 295.996C441.199 295.958 441.203 295.92 441.215 295.884C441.227 295.847 441.246 295.814 441.272 295.786C441.298 295.757 441.329 295.735 441.364 295.72C441.399 295.704 441.437 295.696 441.475 295.697H445.956C446.037 295.699 446.114 295.73 446.173 295.785C446.232 295.841 446.268 295.916 446.275 295.996C446.279 296.034 446.275 296.072 446.263 296.109C446.251 296.145 446.232 296.178 446.206 296.206C446.18 296.235 446.149 296.257 446.114 296.273C446.079 296.288 446.041 296.296 446.003 296.296H441.522Z" fill="#263238"/>
<g opacity="0.5">
<path opacity="0.5" d="M441.428 295.218C441.349 295.216 441.273 295.186 441.214 295.133C441.156 295.079 441.118 295.007 441.109 294.928C441.105 294.89 441.11 294.852 441.121 294.816C441.133 294.779 441.153 294.746 441.178 294.718C441.204 294.689 441.235 294.667 441.27 294.652C441.305 294.636 441.343 294.628 441.381 294.629H448.159C448.241 294.63 448.319 294.662 448.38 294.717C448.44 294.772 448.478 294.847 448.487 294.928C448.49 294.965 448.485 295.003 448.472 295.038C448.46 295.073 448.44 295.105 448.415 295.132C448.389 295.159 448.358 295.181 448.324 295.196C448.29 295.211 448.253 295.218 448.216 295.218H441.428Z" fill="white"/>
<path opacity="0.5" d="M441.616 297.364C441.535 297.361 441.458 297.33 441.399 297.275C441.34 297.219 441.304 297.144 441.297 297.064C441.293 297.026 441.297 296.988 441.309 296.952C441.321 296.915 441.34 296.882 441.366 296.854C441.391 296.825 441.423 296.803 441.458 296.787C441.493 296.772 441.531 296.764 441.569 296.764H447.194C447.275 296.766 447.354 296.798 447.414 296.853C447.474 296.908 447.513 296.983 447.522 297.064C447.526 297.102 447.522 297.14 447.51 297.177C447.498 297.213 447.479 297.246 447.453 297.274C447.427 297.303 447.396 297.325 447.361 297.341C447.326 297.356 447.288 297.364 447.25 297.364H441.616Z" fill="white"/>
<path opacity="0.5" d="M441.522 296.296C441.442 296.292 441.366 296.259 441.307 296.204C441.249 296.15 441.212 296.076 441.203 295.996C441.199 295.958 441.203 295.92 441.215 295.884C441.227 295.847 441.246 295.814 441.272 295.786C441.298 295.757 441.329 295.735 441.364 295.72C441.399 295.704 441.437 295.696 441.475 295.697H445.956C446.037 295.699 446.114 295.73 446.173 295.785C446.232 295.841 446.268 295.916 446.275 295.996C446.279 296.034 446.275 296.072 446.263 296.109C446.251 296.145 446.232 296.178 446.206 296.206C446.18 296.235 446.149 296.257 446.114 296.273C446.079 296.288 446.041 296.296 446.003 296.296H441.522Z" fill="white"/>
</g>
<path d="M442.206 304.015C442.124 304.013 442.046 303.982 441.986 303.927C441.925 303.872 441.887 303.797 441.878 303.716C441.876 303.678 441.881 303.64 441.893 303.605C441.905 303.569 441.925 303.536 441.95 303.508C441.976 303.48 442.006 303.458 442.041 303.442C442.075 303.426 442.112 303.417 442.15 303.416H448.928C449.01 303.418 449.088 303.449 449.148 303.504C449.209 303.559 449.247 303.634 449.256 303.716C449.26 303.754 449.256 303.792 449.244 303.828C449.232 303.864 449.213 303.898 449.187 303.926C449.162 303.954 449.13 303.977 449.095 303.992C449.06 304.007 449.022 304.015 448.984 304.015H442.206Z" fill="#263238"/>
<path d="M442.3 305.083C442.218 305.081 442.14 305.05 442.08 304.995C442.019 304.94 441.981 304.865 441.972 304.784C441.969 304.746 441.974 304.709 441.987 304.674C441.999 304.639 442.019 304.607 442.045 304.579C442.07 304.552 442.101 304.53 442.135 304.516C442.169 304.501 442.206 304.493 442.244 304.493H446.725C446.804 304.495 446.88 304.525 446.939 304.579C446.997 304.632 447.035 304.705 447.044 304.784C447.049 304.822 447.046 304.861 447.035 304.898C447.024 304.935 447.004 304.969 446.978 304.997C446.952 305.026 446.92 305.048 446.885 305.063C446.849 305.078 446.81 305.085 446.772 305.083H442.3Z" fill="#263238"/>
<g opacity="0.5">
<path opacity="0.5" d="M442.206 304.015C442.124 304.013 442.046 303.982 441.986 303.927C441.925 303.872 441.887 303.797 441.878 303.716C441.876 303.678 441.881 303.64 441.893 303.605C441.905 303.569 441.925 303.536 441.95 303.508C441.976 303.48 442.006 303.458 442.041 303.442C442.075 303.426 442.112 303.417 442.15 303.416H448.928C449.01 303.418 449.088 303.449 449.148 303.504C449.209 303.559 449.247 303.634 449.256 303.716C449.26 303.754 449.256 303.792 449.244 303.828C449.232 303.864 449.213 303.898 449.187 303.926C449.162 303.954 449.13 303.977 449.095 303.992C449.06 304.007 449.022 304.015 448.984 304.015H442.206Z" fill="white"/>
<path opacity="0.5" d="M442.3 305.083C442.218 305.081 442.14 305.05 442.08 304.995C442.019 304.94 441.981 304.865 441.972 304.784C441.969 304.746 441.974 304.709 441.987 304.674C441.999 304.639 442.019 304.607 442.045 304.579C442.07 304.552 442.101 304.53 442.135 304.516C442.169 304.501 442.206 304.493 442.244 304.493H446.725C446.804 304.495 446.88 304.525 446.939 304.579C446.997 304.632 447.035 304.705 447.044 304.784C447.049 304.822 447.046 304.861 447.035 304.898C447.024 304.935 447.004 304.969 446.978 304.997C446.952 305.026 446.92 305.048 446.885 305.063C446.849 305.078 446.81 305.085 446.772 305.083H442.3Z" fill="white"/>
</g>
<path d="M468.231 271.929C468.381 271.386 468.231 270.861 467.866 270.758C467.5 270.655 467.097 271.02 466.928 271.564C466.759 272.107 466.928 272.622 467.284 272.725C467.641 272.828 468.072 272.472 468.231 271.929Z" fill="#263238"/>
<path d="M467.519 272.744L463.375 275.442C463.687 275.925 464.109 276.329 464.605 276.62C465.102 276.911 465.66 277.082 466.234 277.119L467.519 272.744Z" fill="#DE5753"/>
<path d="M486.775 277.812C483.963 284.37 482.96 287.181 478.338 289.448C471.935 291.115 463.966 287.977 464.725 280.726C465.419 274.168 469.835 264.603 477.353 264.21C479.006 264.132 480.651 264.477 482.133 265.211C483.615 265.946 484.885 267.046 485.824 268.408C486.762 269.769 487.338 271.347 487.496 272.993C487.654 274.638 487.39 276.297 486.728 277.812H486.775Z" fill="#E4897B"/>
<path d="M469.544 270.917C469.492 270.901 469.445 270.874 469.406 270.836C469.367 270.799 469.337 270.753 469.319 270.702C469.207 270.303 469.003 269.937 468.723 269.632C468.443 269.328 468.094 269.094 467.706 268.95C467.622 268.925 467.551 268.868 467.508 268.79C467.466 268.713 467.456 268.622 467.481 268.538C467.506 268.453 467.564 268.382 467.641 268.34C467.718 268.298 467.809 268.288 467.894 268.313C468.388 268.487 468.833 268.777 469.192 269.159C469.55 269.54 469.813 270.002 469.956 270.505C469.984 270.585 469.98 270.672 469.945 270.749C469.91 270.825 469.847 270.886 469.769 270.917C469.696 270.945 469.616 270.945 469.544 270.917Z" fill="#263238"/>
<path opacity="0.2" d="M471.494 286.366C471.494 286.366 466.722 287.302 464.837 283.171C465.484 286.506 468.259 288.642 471.606 289.476L472.75 288.67L472.131 286.975L471.494 286.366Z" fill="white"/>
<path d="M480.156 297.233C480.156 297.233 476.041 295.219 479.013 287.368C479.013 287.368 475.722 284.108 472.3 285.494C468.878 286.881 471.747 294.104 467.725 295.219C467.725 295.219 469.825 298.132 480.156 297.233Z" fill="#E4897B"/>
<path d="M468.053 270.87C467.845 270.816 467.648 270.721 467.476 270.591C467.304 270.461 467.159 270.298 467.05 270.112C467.085 270.344 467.182 270.562 467.333 270.742C467.484 270.922 467.681 271.058 467.903 271.133L468.053 270.87Z" fill="#263238"/>
<path d="M465.766 295.547C465.766 295.547 468.222 291.715 474.841 292.474C481.46 293.233 480.156 297.233 480.156 297.233L465.766 295.547Z" fill="#407BFF"/>
<path opacity="0.3" d="M465.766 295.547C465.766 295.547 468.222 291.715 474.841 292.474C481.46 293.233 480.156 297.233 480.156 297.233L465.766 295.547Z" fill="#181818"/>
<path d="M471.1 276.032C471.227 274.092 471.875 272.221 472.975 270.617C474.85 267.807 473.8 265.98 473.913 264.2C474.025 262.42 483.166 260.621 486.681 266.711C486.681 266.711 493.01 272.173 488.556 278.73C484.103 285.288 482.303 290.3 476.913 289.476C471.522 288.652 474.616 279.742 471.1 276.032Z" fill="#263238"/>
<path opacity="0.4" d="M486.709 266.711C485.977 265.508 484.962 264.502 483.754 263.779C482.545 263.056 481.178 262.638 479.772 262.561C478.375 265.671 482.069 269.119 482.069 269.119C482.069 269.119 476.65 270.458 477.512 274.899C478.375 279.339 484.694 276.997 484.694 276.997C484.694 276.997 480.709 280.857 483.625 283.134C483.87 283.349 484.163 283.503 484.478 283.584C484.794 283.666 485.125 283.672 485.444 283.602C486.381 282.141 487.384 280.501 488.584 278.73C493.037 272.173 486.709 266.711 486.709 266.711Z" fill="white"/>
<path d="M486.709 266.711C486.329 266.056 485.855 265.46 485.303 264.94C484.048 265.579 482.994 266.553 482.258 267.753C481.521 268.953 481.132 270.334 481.131 271.742C481.131 278.056 486.756 279.236 488.163 279.358L488.584 278.73C493.038 272.173 486.709 266.711 486.709 266.711Z" fill="#407BFF"/>
<path d="M471.55 273.971C470.369 274.819 469.57 276.098 469.329 277.531C469.029 279.405 470.791 280.182 472.479 279.48C474.007 278.843 475.975 277.091 475.507 275.255C475.401 274.855 475.196 274.488 474.912 274.188C474.627 273.888 474.272 273.664 473.878 273.536C473.485 273.408 473.066 273.381 472.659 273.457C472.252 273.533 471.871 273.71 471.55 273.971Z" fill="#E4897B"/>
<path d="M484.375 269.624C484.375 269.624 479.51 264.219 483.578 261.09C486.86 258.57 489.391 264.959 489.391 264.959C489.391 264.959 488.856 257.811 493.891 258.635C498.925 259.46 495.888 265.662 495.888 265.662C495.888 265.662 500.341 262.851 502.216 265.896C504.091 268.941 498.635 270.945 498.635 270.945C498.635 270.945 504.794 274.571 501.86 277.082C498.925 279.592 496.122 276.594 496.122 276.594C496.122 276.594 497.875 281.466 494.594 282.215C491.622 282.909 490.731 278.403 490.731 278.403C490.731 278.403 488.5 283.789 485.81 281.681C483.119 279.574 485.922 276.014 485.922 276.014C485.922 276.014 480.963 278.168 480.156 274.074C479.35 269.98 484.375 269.624 484.375 269.624Z" fill="#263238"/>
<path d="M492.841 312.7C492.841 312.7 501.756 331.84 497.463 333.582C493.169 335.325 480.072 338.266 480.072 338.266L473.763 340.543L470.106 338.173L471.044 332.027L480.269 334.041L491.341 329.085L486.11 317.45L492.841 312.7Z" fill="#E4897B"/>
<path d="M488.585 302.423C488.654 302.347 488.741 302.29 488.839 302.257C488.936 302.223 489.04 302.214 489.141 302.231C489.243 302.248 489.338 302.29 489.419 302.353C489.501 302.415 489.565 302.498 489.606 302.592C491.65 307.323 501.26 330.041 498.578 333.348C496.581 335.803 486.935 337.095 486.935 337.095L484.881 331.587L490.731 328.898L484.169 313.909C484.169 313.909 483.456 308.175 488.585 302.423Z" fill="#407BFF"/>
<path opacity="0.2" d="M484.15 313.909L487.656 321.9C490.562 304.625 488.594 302.423 488.594 302.423C483.456 308.175 484.15 313.909 484.15 313.909Z" fill="white"/>
<path d="M485.519 466.416L490.544 483.495L495.644 483.195L494.566 464.655L485.519 466.416Z" fill="#E4897B"/>
<path d="M459.063 339.962C459.063 339.962 452.866 352.422 458.828 375.337C464.791 398.252 488.65 478.08 488.65 478.08L495.372 477.274C495.372 477.274 495.794 448.626 486.344 425.514C486.344 425.514 481.807 386.214 484.01 376.976C485.557 370.522 486.494 365.125 483.832 355.336C482.784 351.15 481.343 347.072 479.528 343.157C477.775 339.662 478.291 338.313 478.291 338.313L459.063 339.962Z" fill="#263238"/>
<path opacity="0.5" d="M488.65 478.08L495.372 477.274C495.372 477.274 495.372 476.169 495.372 474.229L487.872 475.25L488.65 478.08Z" fill="white"/>
<path opacity="0.4" d="M467.003 404.538C475.628 380.602 473.256 363.233 473.256 363.233L467.866 362.53L463.647 370.025L460.703 382.307C462.372 388.368 464.603 396.097 467.003 404.538Z" fill="white"/>
<path d="M490.412 483.007L496.478 482.155C496.606 482.139 496.735 482.168 496.844 482.236C496.954 482.304 497.036 482.408 497.078 482.53L499.975 488.066C500.018 488.183 500.037 488.307 500.032 488.432C500.026 488.556 499.996 488.678 499.943 488.791C499.889 488.903 499.814 489.004 499.722 489.087C499.629 489.17 499.521 489.234 499.403 489.275C499.343 489.3 499.28 489.316 499.216 489.322C496.684 489.584 494.425 489.715 491.275 490.099C487.572 490.549 488.566 490.886 484.216 491.467C481.591 491.823 480.747 488.9 481.844 488.657C486.869 487.392 487.206 485.79 488.95 483.729C489.332 483.316 489.853 483.059 490.412 483.007Z" fill="#181818"/>
<path d="M487.169 476.843L496.488 475.672L496.338 478.445L488.125 479.457L487.169 476.843Z" fill="#263238"/>
<path d="M459.766 467.568L461.959 484.591H467.116L468.447 467.887L459.766 467.568Z" fill="#E4897B"/>
<path d="M450.869 338.051C450.665 339.594 450.238 341.099 449.603 342.52C445.701 352.193 444.364 362.71 445.722 373.051C448.459 396.575 461.05 478.914 461.05 478.914H467.828C467.828 478.914 472.469 450.921 466.984 426.273C466.984 426.273 465.044 391.61 467.922 382.513C469.928 376.218 475.628 370.119 474.166 356.816C472.703 343.513 469.169 338.95 469.169 338.95L450.869 338.051Z" fill="#263238"/>
<path opacity="0.5" d="M460.591 475.869L461.06 478.932H467.838C467.838 478.932 468.016 477.817 468.269 475.869H460.591Z" fill="white"/>
<path d="M461.847 484.057L467.885 484.188C468.011 484.188 468.134 484.232 468.231 484.312C468.329 484.392 468.395 484.504 468.419 484.628L469.581 490.324C469.632 490.566 469.584 490.818 469.448 491.026C469.313 491.233 469.102 491.378 468.86 491.43H468.663C466.15 491.336 463.919 491.158 460.788 491.111C457.094 491.046 458.022 491.495 453.682 491.486C451.066 491.486 450.644 488.488 451.76 488.366C456.841 487.813 458.322 486.296 460.328 484.516C460.763 484.186 461.302 484.023 461.847 484.057Z" fill="#181818"/>
<path d="M459.766 477.499H469.159L468.634 480.225H460.347L459.766 477.499Z" fill="#263238"/>
<path d="M484.047 349.855C474.428 336.627 491.191 307.229 489.232 301.73C487.272 296.231 456.738 287.087 452.725 302.667C448.713 318.246 450.85 328.898 450.241 335.69C449.36 345.639 445.253 349.621 445.253 349.621C445.253 349.621 466.478 357.584 484.047 349.855Z" fill="#407BFF"/>
<path opacity="0.2" d="M450.606 314.789C450.206 319.356 450.1 323.943 450.287 328.523C461.641 315.408 459.128 302.92 459.128 302.92L458.191 303.5L454.084 306.901C454.084 306.901 452.472 310.377 450.606 314.789Z" fill="white"/>
<path d="M432.897 312.803C432.897 312.803 436.075 329.385 439.703 332.261C443.331 335.137 455.875 314.639 455.875 314.639L449.678 310.892L441.081 322.434L436.009 310.545L437.013 304.212L435.363 300.324C435.24 300.104 435.059 299.922 434.839 299.799C434.619 299.676 434.369 299.617 434.117 299.627C433.865 299.638 433.621 299.718 433.412 299.86C433.203 300.001 433.038 300.198 432.934 300.428L431.059 304.578C430.667 305.443 430.627 306.428 430.947 307.323L432.897 312.803Z" fill="#E4897B"/>
<path d="M441.072 321.431L438.11 314.246L434.144 320.11C434.144 320.11 436.113 334.088 441.157 332.786C445.966 331.549 456.841 315.183 459.203 308.878C461.566 302.573 458.369 296.427 458.369 296.427C458.369 296.427 454.516 295.425 449.557 307.051C445.291 317.038 441.072 321.431 441.072 321.431Z" fill="#407BFF"/>
<path d="M237.353 289.663C237.1 289.455 236.804 289.304 236.486 289.223C236.168 289.142 235.836 289.132 235.513 289.194C235.191 289.255 234.886 289.387 234.621 289.58C234.355 289.773 234.136 290.022 233.978 290.31C230.172 297.158 219.24 317.862 222.728 323.624C226.928 330.566 246.831 330.003 246.831 330.003L247.769 324.12L234.99 317.515C234.99 317.515 238.928 309.665 240.128 306.995C241.984 302.891 244.731 295.893 237.353 289.663Z" fill="#263238"/>
<path opacity="0.4" d="M235.009 317.515C235.009 317.515 238.947 309.665 240.147 306.995C241.478 304.025 243.278 299.556 241.394 294.947L238.131 291.49L235.009 292.474C235.009 292.474 228.681 322.968 235.009 329.226C237.184 329.563 239.331 329.76 241.187 329.872C243.419 328.58 245.041 325.788 246.119 323.314L235.009 317.515Z" fill="white"/>
<path d="M256.056 260.809C255.887 260.2 256.056 259.6 256.469 259.488C256.881 259.375 257.35 259.778 257.528 260.425C257.706 261.071 257.528 261.633 257.115 261.755C256.703 261.877 256.234 261.39 256.056 260.809Z" fill="#263238"/>
<path d="M256.872 261.755L261.559 264.781C261.199 265.325 260.716 265.778 260.15 266.103C259.583 266.429 258.949 266.617 258.297 266.655L256.872 261.755Z" fill="#A24E3F"/>
<path d="M234.915 267.526C238.084 275.021 239.265 278.243 244.515 280.801C251.828 282.675 260.912 279.124 260.04 270.842C259.262 263.404 254.218 252.452 245.64 252.012C243.752 251.916 241.871 252.303 240.175 253.138C238.479 253.972 237.024 255.227 235.95 256.781C234.875 258.335 234.216 260.139 234.035 262.019C233.854 263.9 234.157 265.795 234.915 267.526Z" fill="#B97964"/>
<path d="M254.603 259.666C254.662 259.647 254.716 259.615 254.761 259.573C254.807 259.531 254.842 259.48 254.865 259.422C254.993 258.962 255.23 258.539 255.556 258.19C255.883 257.841 256.289 257.576 256.74 257.417C256.834 257.389 256.913 257.325 256.961 257.239C257.008 257.154 257.02 257.053 256.993 256.958C256.963 256.863 256.898 256.784 256.811 256.735C256.724 256.686 256.622 256.672 256.525 256.696C255.962 256.895 255.456 257.224 255.046 257.658C254.637 258.091 254.337 258.616 254.172 259.188C254.138 259.281 254.143 259.384 254.186 259.473C254.228 259.563 254.304 259.632 254.397 259.666C254.464 259.687 254.536 259.687 254.603 259.666Z" fill="#263238"/>
<path opacity="0.2" d="M252.334 277.316C252.334 277.316 257.772 278.421 259.928 273.672C259.197 277.475 256.028 279.911 252.212 280.857L250.9 279.92L251.603 277.981L252.334 277.316Z" fill="white"/>
<path d="M241.797 291.275C241.797 291.275 247.047 288.708 243.269 278.702C243.269 278.702 247.459 274.552 251.809 276.313C256.159 278.075 252.513 287.284 257.641 288.708C257.641 288.708 254.959 292.408 241.797 291.275Z" fill="#B97964"/>
<path d="M242.79 286.235C242.79 286.235 241.853 282.834 247.675 281.41C253.497 279.986 258.344 281.728 259.112 284.286C259.881 286.843 242.79 286.235 242.79 286.235Z" fill="#263238"/>
<path opacity="0.2" d="M242.79 286.235C242.79 286.235 241.853 282.834 247.675 281.41C253.497 279.986 258.344 281.728 259.112 284.286C259.881 286.843 242.79 286.235 242.79 286.235Z" fill="#181818"/>
<path d="M254.603 265.69C254.86 265.493 255.068 265.24 255.211 264.95C255.354 264.66 255.428 264.341 255.428 264.017C255.428 263.694 255.354 263.375 255.211 263.085C255.068 262.795 254.86 262.542 254.603 262.345C252.728 260.593 249.915 259.104 250.712 256.677C251.509 254.251 247.787 252.593 247.787 252.593C247.787 252.593 251.453 250.204 249.306 248.293C247.159 246.382 246.175 249.96 241.019 252.04C235.075 254.382 228.428 260.031 232.487 267.442C236.547 274.852 240.137 281.054 245.003 279.864C249.869 278.674 252.175 269.268 252.175 269.268L254.603 265.69Z" fill="#263238"/>
<path d="M253.225 263.151C253.894 263.626 254.462 264.23 254.896 264.926C255.331 265.622 255.623 266.398 255.756 267.207C256.103 269.381 254.087 270.233 252.165 269.428C250.431 268.706 248.172 266.702 248.715 264.612C248.834 264.156 249.067 263.736 249.391 263.393C249.715 263.049 250.12 262.793 250.569 262.647C251.019 262.502 251.497 262.471 251.961 262.559C252.426 262.647 252.86 262.851 253.225 263.151Z" fill="#B97964"/>
<path d="M264.662 471.681L266.509 484.179L274.028 483.898L274.6 470.969L264.662 471.681Z" fill="#B97964"/>
<path d="M273.615 483.008L266.2 483.167C266.042 483.17 265.891 483.226 265.77 483.327C265.649 483.427 265.566 483.566 265.534 483.72L264.118 490.708C264.087 490.855 264.084 491.007 264.112 491.155C264.139 491.303 264.195 491.444 264.277 491.57C264.359 491.696 264.465 491.805 264.589 491.89C264.713 491.976 264.852 492.036 265 492.067C265.081 492.076 265.162 492.076 265.243 492.067C268.328 491.964 271.075 491.739 274.918 491.673C279.456 491.598 278.312 492.16 283.646 492.142C286.862 492.142 287.396 488.46 286.018 488.301C279.765 487.635 277.937 485.762 275.49 483.616C274.959 483.194 274.293 482.978 273.615 483.008Z" fill="#181818"/>
<path d="M227.988 471.681L227.5 482.755L235.309 483.776L237.925 470.969L227.988 471.681Z" fill="#B97964"/>
<path d="M234.859 481.771L227.453 481.302C227.297 481.294 227.142 481.338 227.015 481.429C226.887 481.519 226.794 481.649 226.75 481.799L224.743 488.647C224.659 488.938 224.692 489.25 224.836 489.517C224.979 489.783 225.222 489.982 225.512 490.071C225.593 490.08 225.675 490.08 225.756 490.071C228.84 490.221 231.587 490.23 235.431 490.493C239.959 490.783 238.768 491.252 244.093 491.683C247.29 491.936 248.125 488.329 246.775 488.057C240.596 486.867 238.928 484.853 236.678 482.436C236.169 482.006 235.525 481.77 234.859 481.771Z" fill="#181818"/>
<path d="M245.894 324.429L250.497 325.535L258.278 323.567L259.534 326.996L260.5 331.812L254.312 332.87L249.222 329.807L242.734 329.676L245.894 324.429Z" fill="#B97964"/>
<path d="M234.915 290.919L238.665 344.253L279.465 344.571C279.465 344.571 284.443 329.844 278.293 308.972L272.284 288.848C272.036 288.016 271.575 287.262 270.947 286.661C270.319 286.06 269.546 285.632 268.703 285.42C262.656 283.93 247.947 282.15 236.472 288.071C235.963 288.343 235.545 288.757 235.268 289.263C234.992 289.769 234.869 290.344 234.915 290.919Z" fill="#263238"/>
<path d="M237.775 344.674C235.487 355.242 234.887 362.652 234.962 367.599C234.962 369.351 235.065 370.793 235.187 371.955C235.573 375.461 235.664 378.992 235.459 382.513L235.403 383.45C234.775 393.605 234.662 403.976 234.681 410.815V410.956C234.701 415.433 233.998 419.883 232.6 424.137C232.384 424.793 232.168 425.476 231.971 426.16C226.206 445.928 226.693 477.462 226.693 477.462L237.887 478.089L268.665 342.735H240.062C239.516 342.747 238.991 342.946 238.574 343.3C238.158 343.653 237.875 344.138 237.775 344.674Z" fill="#407BFF"/>
<path opacity="0.2" d="M254.5 365.172L250.666 364.292L248.303 361.425C248.303 361.425 248.547 382.85 254.763 403.723L260.819 377.098L254.5 365.172Z" fill="white"/>
<path d="M225.671 475.26L225.831 478.548L238.562 479.073L239.134 475.728L225.671 475.26Z" fill="#407BFF"/>
<path opacity="0.3" d="M225.671 475.26L225.831 478.548L238.562 479.073L239.134 475.728L225.671 475.26Z" fill="white"/>
<path d="M248.978 342.735C246.362 358.38 247.975 367.299 249.709 371.964C249.878 372.414 250.047 372.836 250.216 373.21C251.499 376.04 252.361 379.041 252.775 382.12C252.775 382.26 252.775 382.41 252.841 382.56C254.4 393.316 256.591 403.97 259.403 414.469V414.572C260.235 417.673 260.445 420.907 260.022 424.09C259.881 425.13 259.769 426.245 259.694 427.416C258.456 445.628 264.447 478.829 264.447 478.829L275.453 477.799L280.244 344.3C280.255 344.1 280.227 343.901 280.16 343.713C280.093 343.525 279.989 343.352 279.855 343.205C279.72 343.057 279.558 342.938 279.377 342.854C279.196 342.77 278.999 342.724 278.8 342.716L248.978 342.735Z" fill="#407BFF"/>
<path d="M263.087 477.152L264.025 480.366L276.334 479.298L276.512 475.916L263.087 477.152Z" fill="#407BFF"/>
<path opacity="0.3" d="M263.087 477.152L264.025 480.366L276.334 479.298L276.512 475.916L263.087 477.152Z" fill="white"/>
<g opacity="0.7">
<path opacity="0.7" d="M269.903 345.012H249.231V347.878H269.903V345.012Z" fill="#181818"/>
<path opacity="0.7" d="M246.503 345.012H238.562L238.131 347.878H246.503V345.012Z" fill="#181818"/>
<path opacity="0.7" d="M278.996 345.012H272.696V347.878H278.996V345.012Z" fill="#181818"/>
</g>
<path opacity="0.4" d="M278.322 308.972L275.078 298.104L272.856 295.013L269.987 292.811L268.666 296.156C269.202 299.746 270.455 303.192 272.35 306.288C274.246 309.385 276.745 312.069 279.7 314.18C279.287 312.494 278.847 310.761 278.322 308.972Z" fill="white"/>
<path d="M297.784 290.9L299.762 286.6L299.415 279.92C299.368 279.066 299.653 278.226 300.212 277.578L301.356 276.257C301.668 275.895 302.054 275.604 302.488 275.405C302.923 275.205 303.395 275.102 303.873 275.102C304.351 275.102 304.824 275.205 305.258 275.405C305.693 275.604 306.079 275.895 306.39 276.257L307.047 277.025C307.582 277.646 307.863 278.446 307.834 279.264L307.74 283.012C307.72 283.807 307.414 284.569 306.878 285.157L303.719 288.633L302.331 294.975L297.784 290.9Z" fill="#B97964"/>
<path d="M272.125 286.431L291.381 301.917L298.103 288.914L303.887 291.322C303.887 291.322 299.772 314.424 294.512 314.799C289.253 315.173 276.072 308.934 270.653 301.524C266.706 296.137 268.497 289.972 269.772 287.012C269.866 286.798 270.008 286.608 270.187 286.457C270.366 286.306 270.578 286.198 270.805 286.142C271.032 286.086 271.27 286.083 271.499 286.133C271.727 286.183 271.942 286.285 272.125 286.431Z" fill="#263238"/>
</svg>
