<svg width="303" height="276" viewBox="0 0 303 276" fill="none" xmlns="http://www.w3.org/2000/svg">
<g filter="url(#filter0_d_29_265)">
<path d="M150.294 54.638C113.201 49.9211 85.4921 37.8538 53.9029 65.3767C32.5572 83.9612 17.762 115.517 26.077 143.417C41.1143 193.896 122.492 261.74 175.349 219.587C201.168 198.998 209.951 170.846 241.158 153.975C272.365 137.105 298.278 121.342 294.093 79.771C291.415 53.1443 270.795 24.3085 241.9 24.5994C206.961 24.9453 191.979 59.913 150.294 54.638Z" fill="#90CEF7"/>
</g>
<path d="M151.38 275.624C234.984 275.624 302.759 271.639 302.759 266.724C302.759 261.81 234.984 257.825 151.38 257.825C67.775 257.825 0 261.81 0 266.724C0 271.639 67.775 275.624 151.38 275.624Z" fill="#F5F5F5"/>
<path d="M148.717 8.67993C148.007 4.34034 150.919 0.818359 155.229 0.818359H123.741C119.431 0.818359 116.519 4.33248 117.23 8.67993H148.717Z" fill="#407BFF"/>
<path opacity="0.3" d="M148.717 8.67993C148.007 4.34034 150.919 0.818359 155.229 0.818359H123.741C119.431 0.818359 116.519 4.33248 117.23 8.67993H148.717Z" fill="black"/>
<path d="M155.229 0.818359H123.741C125.92 0.891255 128.009 1.70978 129.664 3.13893C131.319 4.56809 132.441 6.52251 132.845 8.67987L139.739 50.5975C140.144 52.7542 141.266 54.7078 142.921 56.1367C144.575 57.5656 146.664 58.3847 148.842 58.459H164.723C169.033 58.459 171.945 54.937 171.234 50.5975L164.332 8.67987C163.929 6.52251 162.807 4.56809 161.152 3.13893C159.497 1.70978 157.408 0.891255 155.229 0.818359Z" fill="#407BFF"/>
<path d="M155.354 50.6211C156.064 54.9607 153.152 58.4826 148.842 58.4826H180.33C181.31 58.516 182.285 58.3236 183.18 57.9202C184.074 57.5167 184.866 56.9129 185.494 56.1546C186.122 55.3963 186.57 54.5037 186.804 53.5448C187.037 52.5858 187.05 51.5859 186.841 50.6211H155.354Z" fill="#407BFF"/>
<path opacity="0.3" d="M155.354 50.6211C156.064 54.9607 153.152 58.4826 148.842 58.4826H180.33C181.31 58.516 182.285 58.3236 183.18 57.9202C184.074 57.5167 184.866 56.9129 185.494 56.1546C186.122 55.3963 186.57 54.5037 186.804 53.5448C187.037 52.5858 187.05 51.5859 186.841 50.6211H155.354Z" fill="black"/>
<path d="M160.421 12.3189H137.943C137.812 12.3142 137.687 12.265 137.588 12.1794C137.489 12.0938 137.421 11.9768 137.397 11.8477C137.383 11.7898 137.383 11.7296 137.397 11.6718C137.411 11.6139 137.438 11.5601 137.475 11.5145C137.513 11.4688 137.561 11.4326 137.615 11.4086C137.669 11.3847 137.728 11.3736 137.787 11.3764H160.265C160.395 11.3811 160.521 11.4303 160.62 11.5159C160.719 11.6015 160.787 11.7185 160.811 11.8477C160.825 11.9055 160.824 11.9658 160.811 12.0236C160.797 12.0814 160.77 12.1352 160.733 12.1809C160.695 12.2265 160.647 12.2627 160.593 12.2867C160.539 12.3106 160.48 12.3217 160.421 12.3189Z" fill="white"/>
<path d="M147.968 15.59H138.482C138.351 15.5853 138.226 15.536 138.127 15.4503C138.027 15.3647 137.96 15.2476 137.935 15.1183C137.922 15.0604 137.922 15.0001 137.936 14.9423C137.949 14.8844 137.976 14.8305 138.014 14.7848C138.052 14.7392 138.1 14.7029 138.154 14.6789C138.208 14.655 138.267 14.6439 138.326 14.6467H147.812C147.942 14.6514 148.068 14.7006 148.167 14.7863C148.266 14.872 148.334 14.989 148.358 15.1183C148.37 15.1761 148.369 15.2358 148.354 15.293C148.34 15.3501 148.313 15.4034 148.276 15.4487C148.238 15.494 148.191 15.5302 148.138 15.5546C148.084 15.5791 148.026 15.5912 147.968 15.59Z" fill="white"/>
<path d="M156.744 15.5902H150.185C150.056 15.5851 149.931 15.5356 149.833 15.4498C149.735 15.364 149.67 15.2472 149.647 15.1185C149.633 15.0613 149.633 15.0017 149.647 14.9445C149.66 14.8872 149.686 14.8338 149.723 14.7883C149.76 14.7428 149.807 14.7063 149.86 14.6818C149.913 14.6573 149.971 14.6454 150.029 14.6469H156.587C156.717 14.6519 156.841 14.7015 156.939 14.7872C157.037 14.873 157.103 14.9899 157.126 15.1185C157.139 15.1758 157.139 15.2353 157.126 15.2926C157.113 15.3498 157.087 15.4033 157.05 15.4488C157.013 15.4943 156.966 15.5307 156.913 15.5552C156.86 15.5797 156.802 15.5917 156.744 15.5902Z" fill="white"/>
<path d="M161.529 18.8992H139.02C138.89 18.8962 138.765 18.8486 138.666 18.7644C138.566 18.6801 138.499 18.5641 138.474 18.4358C138.46 18.3779 138.461 18.3177 138.474 18.2599C138.488 18.2021 138.515 18.1482 138.553 18.1026C138.59 18.0569 138.638 18.0207 138.692 17.9968C138.746 17.9728 138.805 17.9618 138.864 17.9645H161.342C161.473 17.9693 161.598 18.0185 161.697 18.1041C161.796 18.1897 161.864 18.3066 161.888 18.4358C161.9 18.4905 161.899 18.5471 161.887 18.6016C161.874 18.6561 161.85 18.7071 161.816 18.7513C161.781 18.7954 161.738 18.8315 161.689 18.857C161.639 18.8825 161.585 18.8969 161.529 18.8992Z" fill="white"/>
<path d="M159.82 22.1379H139.559C139.429 22.1332 139.303 22.084 139.204 21.9984C139.105 21.9128 139.037 21.7959 139.013 21.6668C139.001 21.6091 139.002 21.5495 139.017 21.4923C139.031 21.4352 139.058 21.3821 139.095 21.3368C139.133 21.2916 139.18 21.2554 139.233 21.231C139.287 21.2065 139.345 21.1944 139.403 21.1956H159.703C159.833 21.2004 159.959 21.2496 160.058 21.3352C160.157 21.4207 160.225 21.5376 160.249 21.6668C160.262 21.7279 160.26 21.7913 160.244 21.8516C160.228 21.912 160.197 21.9675 160.155 22.0135C160.113 22.0596 160.061 22.095 160.002 22.1166C159.944 22.1382 159.881 22.1456 159.82 22.1379Z" fill="white"/>
<path d="M153.722 25.4084H140.098C139.967 25.4036 139.842 25.3544 139.743 25.2688C139.644 25.1832 139.576 25.0663 139.552 24.9371C139.54 24.8798 139.541 24.8205 139.555 24.7637C139.57 24.7069 139.597 24.6541 139.634 24.6094C139.672 24.5647 139.719 24.5293 139.772 24.5058C139.826 24.4822 139.884 24.4713 139.942 24.4737H153.574C153.703 24.4794 153.827 24.528 153.926 24.6118C154.024 24.6956 154.093 24.81 154.12 24.9371C154.132 24.9955 154.131 25.0559 154.116 25.1136C154.101 25.1713 154.074 25.2249 154.035 25.2703C153.997 25.3157 153.949 25.3518 153.895 25.3757C153.84 25.3996 153.781 25.4108 153.722 25.4084Z" fill="white"/>
<path d="M163.091 28.6867H140.636C140.506 28.6819 140.381 28.6327 140.281 28.5472C140.182 28.4616 140.115 28.3446 140.09 28.2155C140.078 28.1577 140.08 28.0981 140.094 28.041C140.108 27.9839 140.135 27.9307 140.173 27.8854C140.21 27.8402 140.257 27.804 140.31 27.7795C140.364 27.7551 140.422 27.743 140.48 27.7442H162.958C163.089 27.749 163.214 27.7982 163.313 27.8838C163.412 27.9694 163.48 28.0863 163.505 28.2155C163.519 28.2754 163.518 28.3379 163.503 28.3977C163.489 28.4574 163.46 28.5127 163.419 28.5589C163.378 28.6051 163.328 28.6408 163.27 28.663C163.213 28.6853 163.152 28.6934 163.091 28.6867Z" fill="white"/>
<path d="M163.653 31.9569H141.176C141.045 31.9521 140.92 31.9029 140.82 31.8173C140.721 31.7318 140.654 31.6148 140.629 31.4857C140.617 31.428 140.619 31.3683 140.633 31.3112C140.647 31.2541 140.674 31.2009 140.712 31.1557C140.749 31.1104 140.796 31.0742 140.849 31.0498C140.903 31.0254 140.961 31.0133 141.019 31.0145H163.505C163.635 31.0196 163.759 31.069 163.857 31.1547C163.955 31.2404 164.021 31.3572 164.044 31.4857C164.057 31.5436 164.057 31.6038 164.043 31.6615C164.03 31.7193 164.003 31.7732 163.965 31.8188C163.927 31.8645 163.879 31.9007 163.825 31.9246C163.771 31.9486 163.712 31.9596 163.653 31.9569Z" fill="white"/>
<path d="M155.346 35.2274H141.714C141.585 35.2217 141.461 35.1732 141.362 35.0894C141.264 35.0055 141.195 34.8912 141.168 34.7641C141.156 34.7063 141.157 34.6467 141.171 34.5896C141.186 34.5324 141.213 34.4793 141.25 34.434C141.288 34.3888 141.335 34.3526 141.388 34.3281C141.441 34.3037 141.499 34.2916 141.558 34.2928H155.19C155.321 34.2976 155.446 34.3467 155.545 34.4323C155.644 34.5179 155.712 34.6349 155.736 34.7641C155.748 34.8214 155.747 34.8807 155.733 34.9375C155.718 34.9943 155.691 35.0471 155.654 35.0917C155.616 35.1364 155.569 35.1719 155.516 35.1954C155.462 35.2189 155.404 35.2299 155.346 35.2274Z" fill="white"/>
<path d="M168.251 44.2292L169.657 45.1077L191.234 10.0804L189.828 9.20191L168.251 44.2292Z" fill="#263238"/>
<path opacity="0.3" d="M168.251 44.2292L169.657 45.1077L191.234 10.0804L189.828 9.20191L168.251 44.2292Z" fill="black"/>
<path d="M165.443 42.478L166.85 43.3564L188.427 8.32942L187.02 7.45093L165.443 42.478Z" fill="#263238"/>
<path opacity="0.3" d="M165.443 42.478L166.85 43.3564L188.427 8.32942L187.02 7.45093L165.443 42.478Z" fill="black"/>
<path d="M166.857 43.3498L168.264 44.2283L189.84 9.20172L188.434 8.32324L166.857 43.3498Z" fill="#263238"/>
<path d="M165.41 45.8491L166.675 46.6431L169.665 45.1101L165.449 42.4766L165.41 45.8491Z" fill="#FF8B7B"/>
<path d="M165.395 47.3035L166.675 46.643L165.41 45.8489L165.395 47.3035Z" fill="#263238"/>
<path d="M164.652 47.5945H164.598C163.551 47.1605 162.626 46.4749 161.904 45.5977C161.451 45.1084 160.957 44.6586 160.428 44.2533C160.348 44.1862 160.248 44.1494 160.143 44.1494C160.039 44.1494 159.938 44.1862 159.858 44.2533C159.795 44.323 159.759 44.4142 159.759 44.5088C159.759 44.6035 159.795 44.6947 159.858 44.7643C160.046 45.0474 160.257 45.3146 160.467 45.5505C160.552 45.644 160.605 45.7626 160.618 45.8886C160.63 46.0146 160.602 46.1414 160.538 46.2502C160.47 46.3458 160.373 46.4166 160.262 46.452C160.151 46.4875 160.031 46.4856 159.921 46.4467C159.624 46.3491 159.332 46.2363 159.046 46.1087C159.021 46.086 158.988 46.074 158.954 46.075C158.921 46.076 158.888 46.09 158.864 46.1141C158.841 46.1382 158.827 46.1706 158.826 46.2046C158.825 46.2387 158.837 46.2719 158.859 46.2973L158.898 46.3995C158.944 46.5032 158.963 46.6171 158.952 46.7302C158.941 46.8433 158.901 46.9515 158.836 47.0442C158.769 47.133 158.681 47.2033 158.58 47.2487C158.479 47.294 158.368 47.3129 158.258 47.3036C154.822 47.1404 151.379 47.1535 147.944 47.3429C147.892 47.3429 147.843 47.3222 147.806 47.2854C147.77 47.2485 147.749 47.1985 147.749 47.1464C147.749 47.0942 147.77 47.0443 147.806 47.0074C147.843 46.9705 147.892 46.9498 147.944 46.9498C151.392 46.7604 154.848 46.7473 158.297 46.9105C158.341 46.918 158.386 46.9132 158.427 46.8965C158.469 46.8799 158.505 46.8521 158.531 46.8162C158.554 46.7756 158.567 46.7295 158.567 46.6825C158.567 46.6356 158.554 46.5895 158.531 46.5489L158.492 46.4624C158.438 46.3625 158.417 46.2473 158.433 46.1344C158.448 46.0214 158.5 45.9167 158.581 45.8361C158.661 45.7554 158.765 45.7031 158.877 45.687C158.989 45.671 159.103 45.692 159.203 45.747C159.471 45.8741 159.747 45.9818 160.03 46.0693C160.055 46.0885 160.085 46.0988 160.116 46.0988C160.147 46.0988 160.177 46.0885 160.202 46.0693C160.222 46.0324 160.228 45.9899 160.221 45.9486C160.214 45.9073 160.194 45.8696 160.163 45.8414C159.937 45.5741 159.726 45.2911 159.531 45.0081C159.418 44.8607 159.361 44.678 159.37 44.4923C159.378 44.3067 159.452 44.1301 159.577 43.9939C159.722 43.8591 159.911 43.7842 160.108 43.7842C160.305 43.7842 160.495 43.8591 160.639 43.9939C161.202 44.4075 161.725 44.8734 162.201 45.3854C162.868 46.1725 163.707 46.794 164.652 47.2014C164.677 47.2094 164.7 47.2223 164.72 47.2393C164.74 47.2564 164.756 47.2773 164.767 47.3007C164.779 47.3241 164.786 47.3497 164.788 47.3758C164.789 47.402 164.786 47.4282 164.777 47.453C164.77 47.4853 164.755 47.5151 164.733 47.5399C164.711 47.5646 164.683 47.5834 164.652 47.5945Z" fill="white"/>
<path d="M161.303 76.3987L166.526 67.3027H156.087L161.303 76.3987Z" fill="#407BFF"/>
<path d="M219.914 49.6853C217.694 47.7077 214.803 46.6661 211.841 46.7766C209.944 42.9244 206.032 40.676 201.894 41.4386C195.961 42.5314 194.149 49.7089 198.272 52.3267C199.635 53.1965 201.112 53.8712 202.659 54.3314V54.5201C200.235 55.4004 198.115 56.9665 196.553 59.0303C194.99 61.0941 194.053 63.568 193.853 66.1551C193.244 75.0543 202.738 80.2585 207.906 75.3058C208.621 74.6226 209.299 73.9009 209.936 73.1439C210.935 74.559 212.013 76.0055 213.176 77.5149C226.09 71.5245 228.268 56.9414 219.914 49.6853Z" fill="#263238"/>
<path d="M193.954 84.2837C193.876 85.3843 193.782 86.3434 193.642 87.3497C193.501 88.3559 193.369 89.3307 193.205 90.3134C192.877 92.2866 192.424 94.2441 191.963 96.1702C191.013 100.088 189.685 103.904 187.997 107.561L187.833 107.907C187.771 108.041 187.755 108.088 187.638 108.324C187.443 108.713 187.21 109.081 186.943 109.425C186.44 110.047 185.835 110.579 185.155 110.997C184.031 111.671 182.792 112.127 181.501 112.341C179.374 112.671 177.211 112.7 175.076 112.428C171.122 111.94 167.238 110.998 163.497 109.621L164.356 106.477C166.159 106.752 168.041 107.003 169.884 107.168C171.699 107.367 173.523 107.462 175.349 107.451C177.025 107.482 178.698 107.302 180.33 106.917C180.921 106.773 181.479 106.52 181.977 106.17C182.101 106.08 182.205 105.964 182.282 105.832C182.303 105.792 182.319 105.75 182.329 105.706L182.547 105.14C182.875 104.299 183.195 103.45 183.469 102.577C183.742 101.705 184.031 100.84 184.304 99.9673C184.796 98.1984 185.28 96.4296 185.678 94.6215C186.076 92.8134 186.404 91.0052 186.709 89.1814C187.013 87.3575 187.255 85.4708 187.435 83.7727L193.954 84.2837Z" fill="#FFB573"/>
<path d="M189.512 76.4144C186.873 77.0826 185.03 88.0021 185.03 88.0021L192.291 92.9705C192.291 92.9705 199.256 81.9645 197.226 79.0479C195.102 76.0056 193.353 75.4238 189.512 76.4144Z" fill="#263238"/>
<path opacity="0.2" d="M189.746 78.8513L187.724 89.8499L191.799 92.6409L189.746 78.8513Z" fill="black"/>
<path d="M161.639 106.618L156.712 108.521L162.279 111.901C162.279 111.901 165.832 109.834 165.738 107.184L165.191 106.87C164.655 106.565 164.058 106.384 163.443 106.34C162.829 106.297 162.212 106.392 161.639 106.618Z" fill="#FFB573"/>
<path opacity="0.1" d="M161.272 106.862L158.836 107.734C158.36 107.896 157.893 108.085 157.438 108.301C157.438 108.301 159.047 108.977 159.851 108.521C161.071 108.613 162.297 108.539 163.497 108.301L161.272 106.862Z" fill="black"/>
<path d="M153.644 112.208L157.837 115.722L162.271 111.933L156.712 108.552L153.644 112.208Z" fill="#FFB573"/>
<path d="M203.76 260.153H197.374L196.944 245.247H203.339L203.76 260.153Z" fill="#FFB573"/>
<path d="M197.155 259.406H204.331C204.455 259.403 204.577 259.446 204.672 259.527C204.767 259.608 204.829 259.722 204.846 259.846L205.627 265.569C205.642 265.713 205.627 265.859 205.582 265.997C205.538 266.135 205.465 266.262 205.369 266.369C205.272 266.477 205.154 266.563 205.022 266.621C204.89 266.68 204.748 266.71 204.604 266.709C202.105 266.67 200.895 266.52 197.733 266.52C195.797 266.52 190.215 266.725 187.529 266.725C184.843 266.725 184.702 264.052 185.819 263.808C190.831 262.723 194.407 261.23 196.055 259.799C196.364 259.541 196.754 259.402 197.155 259.406Z" fill="#263238"/>
<g opacity="0.2">
<path opacity="0.2" d="M196.944 245.247L197.163 252.936H203.557L203.339 245.247H196.944Z" fill="black"/>
</g>
<path d="M189.512 76.4139C189.512 76.4139 186.467 77.491 192.564 115.258H218.524C218.087 104.621 218.079 98.0566 223.131 76.2253C219.496 75.4678 215.812 74.9791 212.107 74.763C208.182 74.4797 204.242 74.4797 200.317 74.763C195.25 75.2269 189.512 76.4139 189.512 76.4139Z" fill="#263238"/>
<path d="M207.391 86.7678C205.246 86.7035 203.162 86.0393 201.371 84.8496C201.35 84.8355 201.333 84.8172 201.319 84.796C201.305 84.7748 201.296 84.7509 201.291 84.726C201.287 84.7011 201.288 84.6755 201.293 84.6508C201.299 84.6261 201.31 84.6028 201.324 84.5824C201.339 84.5605 201.357 84.5417 201.378 84.527C201.4 84.5124 201.424 84.5022 201.449 84.4971C201.475 84.492 201.501 84.492 201.527 84.4972C201.552 84.5024 201.576 84.5126 201.598 84.5273C203.512 85.7909 205.767 86.4279 208.054 86.3512C208.905 85.8087 214.792 81.8544 215.237 75.0072C215.239 74.9813 215.246 74.9561 215.258 74.933C215.27 74.91 215.286 74.8894 215.305 74.8726C215.325 74.8558 215.348 74.8431 215.372 74.8351C215.397 74.8272 215.423 74.8242 215.448 74.8264C215.474 74.8283 215.499 74.8354 215.522 74.8472C215.545 74.8589 215.565 74.8751 215.582 74.8949C215.598 74.9146 215.611 74.9375 215.619 74.9621C215.627 74.9868 215.63 75.0128 215.628 75.0386C215.175 82.0431 209.382 85.9895 208.218 86.7049C208.19 86.7126 208.161 86.7126 208.133 86.7049C207.883 86.76 207.633 86.7678 207.391 86.7678Z" fill="white"/>
<path d="M196.343 85.5574C196.31 85.5688 196.275 85.5688 196.242 85.5574C195.957 85.3346 195.724 85.0516 195.559 84.7283C195.395 84.4051 195.303 84.0494 195.289 83.6863C194.922 81.2886 195.805 77.0983 197.632 74.9286C197.65 74.9095 197.672 74.8944 197.696 74.8841C197.72 74.8737 197.746 74.8684 197.772 74.8684C197.798 74.8684 197.824 74.8737 197.849 74.8841C197.873 74.8944 197.895 74.9095 197.913 74.9286C197.948 74.9653 197.969 75.0147 197.969 75.0661C197.969 75.1176 197.948 75.167 197.913 75.2037C196.179 77.2398 195.282 81.3357 195.633 83.647C195.668 84.245 195.927 84.8071 196.359 85.2193C197.44 85.0302 198.491 84.6943 199.482 84.2209C199.53 84.2019 199.583 84.202 199.631 84.2209C199.679 84.2399 199.718 84.2764 199.74 84.3231C199.75 84.3469 199.756 84.3724 199.756 84.3983C199.757 84.4242 199.752 84.45 199.743 84.4741C199.733 84.4982 199.719 84.5202 199.701 84.5388C199.683 84.5574 199.662 84.5723 199.638 84.5826C198.591 85.0632 197.482 85.3915 196.343 85.5574Z" fill="white"/>
<path d="M210.935 61.3994C210.194 65.2122 209.452 72.2167 212.106 74.7637C212.106 74.7637 211.068 78.6394 204.018 78.6394C196.265 78.6394 200.317 74.7637 200.317 74.7637C204.541 73.7418 204.432 70.5815 203.698 67.6178L210.935 61.3994Z" fill="#FFB573"/>
<path d="M212.099 74.763C208.174 74.4797 204.234 74.4797 200.31 74.763L199.529 74.8416C198.584 76.6341 198.35 79.3934 200.606 83.4893C200.606 83.4893 210.943 79.2912 213.637 74.9045C213.137 74.8259 212.622 74.7866 212.099 74.763Z" fill="#FFB573"/>
<path opacity="0.2" d="M207.985 63.9385L203.69 67.6412C203.876 68.3308 203.999 69.036 204.057 69.748C205.674 69.5122 207.891 67.7277 208.063 66.0218C208.165 65.3285 208.139 64.622 207.985 63.9385Z" fill="black"/>
<path d="M215.027 54.7797C213.583 60.9981 213.098 63.6632 209.398 66.344C203.839 70.3848 196.57 67.2402 196.125 60.7073C195.735 54.8347 198.171 45.6446 204.713 44.1981C206.152 43.8715 207.65 43.9203 209.065 44.34C210.479 44.7597 211.764 45.5363 212.797 46.5962C213.83 47.6562 214.577 48.9642 214.968 50.3964C215.358 51.8286 215.378 53.3374 215.027 54.7797Z" fill="#FFB573"/>
<path d="M192.565 115.258C192.565 115.258 187.521 164.84 187.943 184.439C188.38 204.879 195.805 251.411 195.805 251.411H204.471C204.471 251.411 203.105 206.042 203.87 185.996C204.705 164.133 211.599 115.243 211.599 115.243L192.565 115.258Z" fill="#407BFF"/>
<path opacity="0.3" d="M192.565 115.258C192.565 115.258 187.521 164.84 187.943 184.439C188.38 204.879 195.805 251.411 195.805 251.411H204.471C204.471 251.411 203.105 206.042 203.87 185.996C204.705 164.133 211.599 115.243 211.599 115.243L192.565 115.258Z" fill="white"/>
<path d="M205.197 251.756H195.055L194.313 248.502L205.673 248.101L205.197 251.756Z" fill="#263238"/>
<path opacity="0.2" d="M203.76 127.593C197.39 140.509 202.48 164.07 204.736 172.835C205.892 159.675 207.859 143.575 209.366 131.759C208.375 125.077 206.704 121.641 203.76 127.593Z" fill="black"/>
<path d="M233.64 260.153H227.246L224.903 245.247H231.29L233.64 260.153Z" fill="#FFB573"/>
<path d="M226.933 259.406H234.14C234.268 259.408 234.392 259.452 234.494 259.532C234.595 259.611 234.668 259.721 234.702 259.846L236.263 265.569C236.301 265.704 236.307 265.847 236.28 265.985C236.254 266.123 236.195 266.253 236.109 266.364C236.023 266.475 235.912 266.564 235.786 266.624C235.66 266.684 235.521 266.713 235.381 266.709C232.875 266.67 231.649 266.52 228.487 266.52C226.543 266.52 220.992 266.725 218.337 266.725C215.683 266.725 215.167 264.052 216.253 263.808C221.125 262.723 224.466 261.23 225.973 259.799C226.236 259.556 226.577 259.416 226.933 259.406Z" fill="#263238"/>
<g opacity="0.2">
<path opacity="0.2" d="M224.903 245.247L226.113 252.936H232.508L231.298 245.247H224.903Z" fill="black"/>
</g>
<path d="M199.787 115.258C199.787 115.258 205.15 164.84 208.102 184.439C211.17 204.879 224.599 251.411 224.599 251.411H233.203C233.203 251.411 225.989 206.042 224.169 185.996C222.186 164.133 218.759 115.243 218.759 115.243L199.787 115.258Z" fill="#407BFF"/>
<path opacity="0.3" d="M199.787 115.258C199.787 115.258 205.15 164.84 208.102 184.439C211.17 204.879 224.599 251.411 224.599 251.411H233.203C233.203 251.411 225.989 206.042 224.169 185.996C222.186 164.133 218.759 115.243 218.759 115.243L199.787 115.258Z" fill="white"/>
<path d="M233.991 251.756H223.849L222.686 248.502L233.991 248.101V251.756Z" fill="#263238"/>
<path d="M224.677 260.53C224.115 260.575 223.554 260.437 223.076 260.137C222.963 260.049 222.871 259.935 222.807 259.806C222.743 259.677 222.71 259.534 222.709 259.39C222.7 259.311 222.715 259.23 222.751 259.159C222.787 259.088 222.843 259.029 222.912 258.989C223.638 258.557 226.355 259.862 226.66 260.019C226.69 260.032 226.716 260.054 226.735 260.082C226.753 260.11 226.762 260.143 226.761 260.176C226.762 260.206 226.752 260.235 226.733 260.258C226.715 260.281 226.688 260.296 226.66 260.302C226.007 260.442 225.343 260.518 224.677 260.53ZM223.365 259.201C223.271 259.195 223.176 259.214 223.092 259.256C223.063 259.272 223.04 259.297 223.026 259.326C223.012 259.356 223.008 259.389 223.014 259.422C223.015 259.515 223.036 259.607 223.077 259.692C223.117 259.776 223.176 259.85 223.248 259.909C223.685 260.263 224.739 260.318 226.129 260.082C225.26 259.642 224.327 259.345 223.365 259.201Z" fill="#407BFF"/>
<path d="M226.628 260.302H226.566C225.785 259.948 224.075 258.565 224.099 257.833C224.099 257.66 224.2 257.448 224.614 257.401C224.926 257.375 225.237 257.47 225.481 257.668C226.135 258.353 226.579 259.213 226.761 260.145C226.766 260.17 226.765 260.197 226.757 260.222C226.748 260.247 226.734 260.269 226.714 260.286C226.688 260.3 226.658 260.305 226.628 260.302ZM224.77 257.692H224.684C224.411 257.692 224.403 257.833 224.403 257.865C224.403 258.305 225.551 259.398 226.386 259.87C226.225 259.12 225.854 258.432 225.317 257.888C225.162 257.763 224.969 257.694 224.77 257.692Z" fill="#407BFF"/>
<path d="M204.791 54.7409C204.705 55.2518 204.361 55.6213 204.01 55.527C203.659 55.4327 203.471 55.0081 203.565 54.4971C203.659 53.9862 203.987 53.6167 204.346 53.6717C204.705 53.7267 204.877 54.2299 204.791 54.7409Z" fill="#263238"/>
<path d="M199.045 53.7577C198.959 54.2687 198.615 54.6382 198.264 54.5438C197.913 54.4495 197.733 54.0329 197.819 53.514C197.905 52.9952 198.241 52.6335 198.6 52.7279C198.959 52.8222 199.131 53.2467 199.045 53.7577Z" fill="#263238"/>
<path d="M198.74 52.7827L197.577 52.2173C197.577 52.2173 198.045 53.2854 198.74 52.7827Z" fill="#263238"/>
<path d="M200.661 54.9839C200.017 56.0722 199.229 57.0668 198.318 57.94C198.547 58.1695 198.823 58.3466 199.126 58.4592C199.429 58.5718 199.753 58.6173 200.075 58.5926L200.661 54.9839Z" fill="#ED893E"/>
<path d="M202.48 61.0686C202.218 61.0688 201.957 61.0451 201.699 60.9979C201.68 60.995 201.661 60.9882 201.644 60.9779C201.627 60.9676 201.612 60.954 201.601 60.9379C201.589 60.9218 201.581 60.9035 201.576 60.8841C201.572 60.8647 201.571 60.8446 201.574 60.8249C201.582 60.7845 201.605 60.7486 201.639 60.7251C201.672 60.7016 201.714 60.6923 201.754 60.6992C202.383 60.8207 203.032 60.7915 203.647 60.614C204.263 60.4364 204.829 60.1156 205.299 59.6773C205.312 59.662 205.329 59.6499 205.348 59.6415C205.367 59.6332 205.387 59.6289 205.408 59.6289C205.428 59.6289 205.449 59.6332 205.468 59.6415C205.486 59.6499 205.503 59.662 205.517 59.6773C205.531 59.6912 205.542 59.7077 205.55 59.7259C205.557 59.7441 205.561 59.7637 205.561 59.7834C205.561 59.8031 205.557 59.8227 205.55 59.8409C205.542 59.8591 205.531 59.8756 205.517 59.8895C204.7 60.6715 203.608 61.0955 202.48 61.0686Z" fill="#263238"/>
<path d="M218.04 45.0946C217.307 44.5768 216.475 44.2181 215.596 44.0412C214.886 37.9093 210.006 34.01 204.564 35.2442C198.397 36.6436 196.249 44.3478 200.395 46.9735C202.834 48.4739 205.588 49.376 208.437 49.6071C208.546 54.6934 211.693 59.0408 213.902 59.2766C220.211 56.7452 221.842 47.7911 218.04 45.0946Z" fill="#263238"/>
<path d="M215.745 60.8331C215.123 61.8975 214.111 62.6738 212.927 62.9951C211.365 63.396 210.584 61.9731 211.068 60.4951C211.482 59.1665 212.809 57.3505 214.379 57.5942C214.72 57.6569 215.04 57.8039 215.31 58.0218C215.58 58.2398 215.793 58.522 215.928 58.8431C216.064 59.1641 216.118 59.5141 216.086 59.8614C216.054 60.2087 215.937 60.5426 215.745 60.8331Z" fill="#FFB573"/>
<path d="M207.297 53.9542C207.233 53.954 207.17 53.9334 207.118 53.8953C207.067 53.8571 207.028 53.8035 207.008 53.7419C206.594 52.3975 204.885 51.8157 204.869 51.8157C204.792 51.7905 204.729 51.7358 204.692 51.6636C204.656 51.5914 204.649 51.5076 204.674 51.4305C204.685 51.3917 204.704 51.3557 204.73 51.3246C204.756 51.2935 204.788 51.2681 204.823 51.2497C204.859 51.2313 204.898 51.2204 204.938 51.2177C204.978 51.215 205.018 51.2205 205.056 51.2339C205.134 51.2339 207.086 51.9179 207.586 53.5925C207.611 53.6697 207.604 53.7535 207.567 53.8257C207.531 53.8979 207.467 53.9526 207.391 53.9778L207.297 53.9542Z" fill="#263238"/>
<path d="M197.772 50.7852C197.719 50.7852 197.666 50.7714 197.62 50.7453C197.573 50.7192 197.534 50.6816 197.506 50.636C197.467 50.5652 197.457 50.4816 197.479 50.4035C197.501 50.3255 197.553 50.2594 197.623 50.2198C198.035 49.9696 198.499 49.822 198.979 49.7892C199.458 49.7564 199.938 49.8394 200.379 50.0313C200.441 50.0732 200.485 50.1361 200.503 50.2082C200.522 50.2803 200.513 50.3568 200.48 50.4232C200.446 50.4897 200.39 50.5415 200.321 50.5691C200.252 50.5968 200.176 50.5982 200.106 50.5732C199.754 50.4281 199.372 50.3681 198.993 50.3982C198.613 50.4282 198.246 50.5473 197.92 50.746C197.876 50.7734 197.824 50.7871 197.772 50.7852Z" fill="#263238"/>
<path d="M226.113 83.718C226.894 87.4207 227.409 91.0606 227.847 94.779C228.308 98.5119 228.569 102.267 228.627 106.029C228.627 106.217 228.627 106.61 228.627 106.956C228.627 107.302 228.573 107.585 228.534 107.876C228.44 108.45 228.339 108.984 228.206 109.448C227.956 110.455 227.659 111.39 227.347 112.31C226.722 114.142 225.981 115.879 225.231 117.593C223.704 120.992 222.008 124.311 220.148 127.537L217.213 126.162L218.954 120.989C219.54 119.275 220.102 117.546 220.625 115.824C221.148 114.102 221.655 112.396 222.093 110.714C222.303 109.873 222.483 109.04 222.608 108.253C222.67 107.86 222.717 107.467 222.748 107.153C222.748 106.988 222.748 106.838 222.748 106.705L222.709 106.257C222.569 104.496 222.366 102.727 222.155 100.95L221.421 95.6044C220.882 92.0511 220.281 88.4506 219.68 84.9365L226.113 83.718Z" fill="#FFB573"/>
<path d="M223.131 76.2259C225.731 77.0121 228.854 86.0369 228.854 86.0369L218.758 93.3008C218.758 93.3008 215.081 85.7775 216.174 82.3892C217.314 78.8673 220.156 75.314 223.131 76.2259Z" fill="#263238"/>
<path d="M194.751 260.53C194.201 260.585 193.649 260.446 193.189 260.137C193.085 260.045 193.006 259.929 192.958 259.798C192.911 259.668 192.896 259.528 192.916 259.39C192.92 259.307 192.944 259.227 192.988 259.156C193.032 259.086 193.093 259.029 193.166 258.989C193.946 258.557 196.5 259.862 196.788 260.019C196.816 260.033 196.839 260.056 196.853 260.085C196.867 260.113 196.872 260.145 196.867 260.176C196.862 260.207 196.849 260.235 196.828 260.258C196.807 260.28 196.779 260.296 196.749 260.302C196.092 260.44 195.422 260.516 194.751 260.53ZM193.611 259.201C193.514 259.196 193.417 259.215 193.33 259.256C193.3 259.272 193.274 259.296 193.256 259.325C193.238 259.354 193.229 259.387 193.228 259.422C193.216 259.511 193.226 259.601 193.256 259.686C193.285 259.771 193.335 259.847 193.4 259.909C193.79 260.263 194.844 260.318 196.258 260.082C195.432 259.637 194.537 259.34 193.611 259.201Z" fill="#407BFF"/>
<path d="M196.734 260.302H196.663C195.882 259.948 194.391 258.564 194.516 257.833C194.516 257.66 194.665 257.448 195.078 257.401C195.23 257.386 195.382 257.402 195.527 257.448C195.672 257.494 195.806 257.569 195.922 257.668C196.702 258.344 196.874 260.074 196.874 260.144C196.878 260.172 196.875 260.199 196.864 260.225C196.853 260.25 196.835 260.271 196.812 260.286C196.787 260.298 196.76 260.303 196.734 260.302ZM195.211 257.692H195.102C194.828 257.692 194.813 257.833 194.805 257.865C194.735 258.305 195.758 259.398 196.531 259.869C196.48 259.144 196.207 258.451 195.75 257.888C195.601 257.757 195.409 257.686 195.211 257.692Z" fill="#407BFF"/>
<path d="M204.471 53.7656L203.308 53.1992C203.308 53.1992 203.792 54.277 204.471 53.7656Z" fill="#263238"/>
<path d="M218.915 113.725L219.578 116.084C219.672 116.272 219.453 116.453 219.157 116.453H192.432C192.197 116.453 192.01 116.335 191.994 116.194L191.76 113.835C191.76 113.669 191.948 113.536 192.197 113.536H218.524C218.6 113.534 218.674 113.55 218.742 113.583C218.81 113.616 218.869 113.664 218.915 113.725Z" fill="#407BFF"/>
<path d="M215.401 116.681H216.104C216.245 116.681 216.346 116.61 216.338 116.524L216.01 113.481C216.01 113.394 215.878 113.316 215.737 113.316H215.034C214.894 113.316 214.785 113.394 214.792 113.481L215.128 116.524C215.12 116.61 215.245 116.681 215.401 116.681Z" fill="#407BFF"/>
<g opacity="0.3">
<path opacity="0.3" d="M215.401 116.681H216.104C216.245 116.681 216.346 116.61 216.338 116.524L216.01 113.481C216.01 113.394 215.878 113.316 215.737 113.316H215.034C214.894 113.316 214.785 113.394 214.792 113.481L215.128 116.524C215.12 116.61 215.245 116.681 215.401 116.681Z" fill="white"/>
</g>
<path d="M194.415 116.681H195.117C195.258 116.681 195.367 116.61 195.359 116.524L195.024 113.481C195.024 113.394 194.891 113.316 194.75 113.316H194.048C193.907 113.316 193.798 113.394 193.813 113.481L194.141 116.524C194.149 116.61 194.274 116.681 194.415 116.681Z" fill="#407BFF"/>
<path opacity="0.3" d="M194.415 116.681H195.117C195.258 116.681 195.367 116.61 195.359 116.524L195.024 113.481C195.024 113.394 194.891 113.316 194.75 113.316H194.048C193.907 113.316 193.798 113.394 193.813 113.481L194.141 116.524C194.149 116.61 194.274 116.681 194.415 116.681Z" fill="white"/>
<path d="M204.901 116.681H205.603C205.744 116.681 205.853 116.61 205.838 116.524L205.51 113.481C205.51 113.394 205.377 113.316 205.236 113.316H204.534C204.393 113.316 204.284 113.394 204.299 113.481L204.627 116.524C204.635 116.61 204.76 116.681 204.901 116.681Z" fill="#407BFF"/>
<path opacity="0.3" d="M204.901 116.681H205.603C205.744 116.681 205.853 116.61 205.838 116.524L205.51 113.481C205.51 113.394 205.377 113.316 205.236 113.316H204.534C204.393 113.316 204.284 113.394 204.299 113.481L204.627 116.524C204.635 116.61 204.76 116.681 204.901 116.681Z" fill="white"/>
<path d="M217.33 125.58L212.372 130.423L218.837 131.075C218.837 131.075 221.179 127.671 219.953 125.297L217.33 125.58Z" fill="#FFB573"/>
<path d="M211.638 135.784L217.088 136.036L218.837 131.075L212.372 130.423L211.638 135.784Z" fill="#FFB573"/>
<path d="M85.2499 261.12C85.8655 261.192 86.4864 261.039 86.9988 260.688C87.0699 260.607 87.1154 260.507 87.1294 260.401C87.1433 260.294 87.125 260.186 87.0768 260.09C87.0415 260.011 86.9887 259.94 86.9224 259.884C86.8562 259.829 86.7781 259.789 86.6943 259.768C85.773 259.508 83.5713 260.656 83.5089 260.711C83.4823 260.724 83.4599 260.744 83.4446 260.769C83.4293 260.794 83.4218 260.823 83.423 260.853C83.4242 260.879 83.4341 260.904 83.451 260.924C83.468 260.944 83.4911 260.957 83.5167 260.963C84.0887 261.066 84.6687 261.119 85.2499 261.12ZM86.3273 260.003C86.4128 259.991 86.4995 259.991 86.585 260.003C86.6361 260.014 86.684 260.036 86.7248 260.069C86.7655 260.102 86.7979 260.144 86.8192 260.192C86.8895 260.365 86.8192 260.452 86.8192 260.499C86.4991 260.868 85.0469 260.876 84.0007 260.727C84.7282 260.35 85.5157 260.105 86.3273 260.003Z" fill="#407BFF"/>
<path d="M83.5403 260.963H83.6028C84.3367 260.648 85.8903 259.39 85.8825 258.746C85.8825 258.589 85.7967 258.4 85.4297 258.361C85.1497 258.341 84.8721 258.425 84.649 258.597C84.0475 259.21 83.6283 259.981 83.4388 260.821C83.431 260.844 83.4306 260.868 83.4376 260.891C83.4446 260.913 83.4588 260.933 83.4779 260.947C83.4967 260.958 83.5184 260.964 83.5403 260.963ZM85.2814 258.604H85.3673C85.6015 258.604 85.6093 258.722 85.6093 258.754C85.6093 259.147 84.5397 260.129 83.7667 260.554C83.9399 259.88 84.2906 259.267 84.7817 258.777C84.9277 258.673 85.1025 258.618 85.2814 258.62V258.604Z" fill="#407BFF"/>
<path d="M77.2549 260.829H82.9934L85.5153 247.448H79.7767L77.2549 260.829Z" fill="#B55B52"/>
<path d="M83.0486 260.161H76.8026C76.6833 260.165 76.5679 260.205 76.4707 260.274C76.3735 260.344 76.2989 260.441 76.2561 260.554L74.3745 265.687C74.3219 265.798 74.2988 265.921 74.3074 266.044C74.316 266.167 74.356 266.286 74.4236 266.389C74.4912 266.492 74.5839 266.575 74.693 266.631C74.802 266.687 74.9236 266.714 75.046 266.709C77.3179 266.709 80.5971 266.544 83.439 266.544C86.7572 266.544 86.4527 266.725 90.3487 266.725C92.6909 266.725 93.7059 264.327 92.7534 264.107C88.4124 263.124 87.9049 263.014 84.3837 260.609C83.9948 260.325 83.5288 260.169 83.0486 260.161Z" fill="#263238"/>
<path opacity="0.2" d="M85.5155 247.456L84.2117 254.351H78.4731L79.777 247.456H85.5155Z" fill="black"/>
<path d="M85.9446 116.736L89.7 120.706L83.6414 122.836C83.6414 122.836 81.4397 119.598 83.1339 117.381L85.9446 116.736Z" fill="#B55B52"/>
<path d="M90.8245 126.256L84.8283 127.136L83.6416 122.837L89.7002 120.706L90.8245 126.256Z" fill="#B55B52"/>
<path d="M63.4358 149.683L92.6983 150.973C93.3859 150.983 94.0561 150.755 94.5954 150.325C95.1346 149.895 95.5098 149.291 95.6573 148.614L99.1551 130.612C99.2277 130.307 99.2313 129.989 99.1655 129.682C99.0997 129.376 98.9663 129.088 98.7751 128.84C98.584 128.593 98.3399 128.392 98.061 128.252C97.7822 128.112 97.4757 128.037 97.1642 128.033L67.9017 126.736C67.2154 126.727 66.547 126.957 66.0094 127.386C65.4717 127.816 65.0977 128.419 64.9504 129.094L61.4449 147.097C61.3709 147.403 61.3663 147.721 61.4314 148.029C61.4965 148.336 61.6297 148.625 61.8211 148.874C62.0124 149.122 62.257 149.324 62.5365 149.464C62.8161 149.605 63.1235 149.679 63.4358 149.683Z" fill="#263238"/>
<path d="M65.4424 155.218L101.591 156.79C102.411 156.822 103.212 156.535 103.828 155.99C104.444 155.444 104.828 154.681 104.902 153.858L106.814 131.516C106.853 131.119 106.81 130.718 106.689 130.338C106.568 129.958 106.37 129.608 106.109 129.308C105.848 129.008 105.528 128.765 105.17 128.595C104.812 128.424 104.423 128.329 104.027 128.316L67.8862 126.744C67.0664 126.716 66.267 127.004 65.6505 127.548C65.0341 128.093 64.647 128.854 64.568 129.676L62.6552 152.018C62.6177 152.415 62.6611 152.816 62.7828 153.195C62.9046 153.574 63.102 153.924 63.363 154.224C63.6241 154.524 63.9432 154.766 64.3007 154.937C64.6583 155.108 65.0468 155.204 65.4424 155.218Z" fill="#407BFF"/>
<path opacity="0.2" d="M65.4424 155.218L101.591 156.79C102.411 156.822 103.212 156.535 103.828 155.99C104.444 155.444 104.828 154.681 104.902 153.858L106.814 131.516C106.853 131.119 106.81 130.718 106.689 130.338C106.568 129.958 106.37 129.608 106.109 129.308C105.848 129.008 105.528 128.765 105.17 128.595C104.812 128.424 104.423 128.329 104.027 128.316L67.8862 126.744C67.0664 126.716 66.267 127.004 65.6505 127.548C65.0341 128.093 64.647 128.854 64.568 129.676L62.6552 152.018C62.6177 152.415 62.6611 152.816 62.7828 153.195C62.9046 153.574 63.102 153.924 63.363 154.224C63.6241 154.524 63.9432 154.766 64.3007 154.937C64.6583 155.108 65.0468 155.204 65.4424 155.218Z" fill="black"/>
<path d="M91.9648 134.236H91.8711L81.3778 133.772C81.1044 133.763 80.8358 133.697 80.5885 133.579C80.3412 133.461 80.1205 133.294 79.9399 133.087C79.7593 132.88 79.6226 132.638 79.5382 132.376C79.4539 132.114 79.4236 131.837 79.4493 131.563L79.8631 126.744C79.965 125.759 80.4327 124.849 81.1724 124.196C81.9121 123.543 82.8694 123.195 83.8528 123.222L90.8795 123.529C91.3873 123.549 91.8857 123.673 92.3443 123.893C92.803 124.114 93.2124 124.426 93.5476 124.81C93.8828 125.195 94.1368 125.644 94.2942 126.13C94.4516 126.617 94.5091 127.131 94.4632 127.64L94.065 132.31C94.0129 132.835 93.7696 133.323 93.3818 133.678C92.994 134.034 92.4893 134.233 91.9648 134.236ZM81.815 131.422L91.7384 131.862L92.1209 127.428C92.1426 127.234 92.1241 127.037 92.0667 126.851C92.0092 126.664 91.9141 126.492 91.7872 126.344C91.6604 126.197 91.5045 126.077 91.3295 125.993C91.1545 125.909 90.964 125.862 90.7702 125.856L83.7434 125.541C83.361 125.538 82.9908 125.677 82.7029 125.93C82.4151 126.184 82.2297 126.535 82.1819 126.917L81.815 131.422Z" fill="#407BFF"/>
<path d="M105.456 156.987L69.315 155.414C68.489 155.366 67.7109 155.008 67.1332 154.412C66.5554 153.816 66.2197 153.024 66.1919 152.191L65.7079 129.747C65.6919 129.351 65.7586 128.955 65.9036 128.587C66.0485 128.218 66.2686 127.884 66.5496 127.606C66.8306 127.329 67.1663 127.113 67.535 126.974C67.9037 126.835 68.2973 126.775 68.6903 126.799L104.839 128.371C105.666 128.418 106.445 128.775 107.023 129.371C107.601 129.968 107.936 130.761 107.962 131.594L108.438 154.039C108.453 154.435 108.386 154.829 108.24 155.197C108.095 155.565 107.875 155.899 107.594 156.176C107.313 156.454 106.978 156.669 106.61 156.809C106.242 156.948 105.849 157.009 105.456 156.987Z" fill="#407BFF"/>
<path d="M94.752 72.7671C94.3694 73.5533 93.9166 74.4495 93.5106 75.3064C93.1046 76.1633 92.7298 77.0752 92.3004 77.9635C91.5196 79.7481 90.7389 81.5405 90.0674 83.3407C89.396 85.141 88.7714 86.957 88.2171 88.7573C87.9594 89.6613 87.694 90.5575 87.4988 91.4459C87.3817 91.894 87.2802 92.3421 87.2021 92.7744L87.0772 93.4348C87.0303 93.6628 86.9835 93.8908 86.9679 94.048C86.9679 94.3939 86.8742 94.7083 86.8586 95.1722C86.8429 95.636 86.8039 96.0133 86.8039 96.4929C86.8039 97.4127 86.8039 98.3796 86.8039 99.3466C86.8429 101.304 86.9601 103.277 87.0772 105.306C87.3036 109.323 87.6393 113.403 87.9516 117.428L80.7999 118.591C79.8318 114.496 79.0667 110.439 78.3796 106.28C78.0517 104.205 77.7706 102.114 77.5364 99.9912C77.4271 98.9063 77.3178 97.8293 77.2631 96.6894C77.2163 96.147 77.2085 95.5338 77.2007 94.9363C77.1929 94.3389 77.2007 93.6628 77.2709 92.9867C77.2865 92.6787 77.3178 92.3717 77.3646 92.0669L77.4739 91.2022C77.5364 90.6204 77.6223 90.0544 77.7238 89.5041C77.9112 88.372 78.1454 87.2793 78.3796 86.1866C78.8871 84.0247 79.4649 81.8942 80.1519 79.8346C80.839 77.7749 81.5651 75.7309 82.3771 73.7341C82.783 72.7357 83.1578 71.7452 83.6419 70.7546C84.1259 69.7641 84.5085 68.8207 85.0472 67.7358L94.752 72.7671Z" fill="#407BFF"/>
<path d="M110.398 113.922C110.398 113.922 104.878 157.105 101.685 174.714C98.3588 193.032 86.5773 253.014 86.5773 253.014H76.8257C76.8257 253.014 81.7756 194.101 83.9696 176.114C86.3665 156.46 90.2156 113.922 90.2156 113.922H110.398Z" fill="#263238"/>
<path d="M88.9819 249.115C89.0288 249.115 87.842 253.179 87.842 253.179H76.0215L76.2323 249.555L88.9819 249.115Z" fill="#407BFF"/>
<path d="M115.098 42.2093C115.098 42.6967 115.356 43.0977 115.676 43.0977C115.996 43.0977 116.246 42.6967 116.246 42.2093C116.246 41.7219 115.988 41.3289 115.676 41.3289C115.364 41.3289 115.098 41.6983 115.098 42.2093Z" fill="#263238"/>
<path d="M115.309 43.0977C115.895 44.5934 116.684 46.0007 117.651 47.2799C117.317 47.5215 116.934 47.6862 116.529 47.7622C116.124 47.8383 115.708 47.8239 115.309 47.7201V43.0977Z" fill="#A02724"/>
<path d="M113.381 39.497C113.439 39.4973 113.496 39.481 113.545 39.4498C113.828 39.2283 114.161 39.0785 114.514 39.0128C114.867 38.9472 115.231 38.9677 115.575 39.0726C115.645 39.0984 115.723 39.0956 115.791 39.0648C115.86 39.034 115.914 38.9776 115.942 38.9075C115.955 38.8724 115.962 38.835 115.961 38.7973C115.96 38.7596 115.952 38.7224 115.937 38.688C115.921 38.6536 115.9 38.6226 115.872 38.5969C115.845 38.5711 115.813 38.5511 115.778 38.538C115.346 38.3979 114.887 38.3647 114.44 38.4414C113.992 38.518 113.57 38.7022 113.209 38.9782C113.149 39.0237 113.108 39.091 113.097 39.1659C113.085 39.2408 113.103 39.3173 113.146 39.3791C113.173 39.4164 113.208 39.4467 113.249 39.4672C113.29 39.4877 113.335 39.498 113.381 39.497Z" fill="#263238"/>
<path d="M99.7252 47.6099C100.506 51.8394 101.365 59.5829 98.4292 62.3974C98.4292 62.3974 99.5769 66.6819 107.377 66.6819C115.965 66.6819 111.468 62.3974 111.468 62.3974C106.783 61.2732 106.916 57.7827 107.728 54.4965L99.7252 47.6099Z" fill="#B55B52"/>
<path d="M97.3051 63.8678C96.6961 62.5156 96.0168 60.9591 97.4144 60.4717C98.9759 59.9371 107.385 59.3946 110.289 60.4009C110.672 60.5078 111.03 60.6902 111.343 60.9375C111.656 61.1848 111.916 61.4921 112.11 61.8416C112.304 62.1911 112.427 62.5759 112.472 62.9736C112.518 63.3713 112.484 63.7741 112.374 64.1587L97.3051 63.8678Z" fill="#263238"/>
<path d="M87.1315 64.0565C82.1113 66.352 78.9883 83.7573 78.9883 83.7573L88.8336 86.9019C90.7679 82.3057 92.3751 77.5769 93.643 72.7512C95.4309 65.4872 92.2689 61.7137 87.1315 64.0565Z" fill="#407BFF"/>
<path d="M148.257 107.153H154.315L153.253 114.448C153.253 114.448 148.506 114.275 146.352 110.675L148.257 107.153Z" fill="#B55B52"/>
<path d="M160.015 109.692L156.97 115.329L153.222 114.464L154.284 107.169L160.015 109.692Z" fill="#B55B52"/>
<path d="M98.8975 41.1718C99.2644 47.1778 99.1785 50.7154 102.192 53.797C106.721 58.4352 114.083 55.6838 115.504 49.6856C116.792 44.2927 115.972 35.378 110.132 32.9881C108.848 32.4552 107.449 32.2617 106.07 32.4259C104.69 32.5902 103.375 33.1068 102.249 33.9267C101.124 34.7466 100.225 35.8426 99.6384 37.1106C99.0517 38.3786 98.7967 39.7766 98.8975 41.1718Z" fill="#B55B52"/>
<path d="M98.2104 49.3395C98.2104 49.3395 92.8075 41.1794 93.9787 35.8572C95.0483 30.991 105.955 29.2536 110.484 29.741C115.293 30.2678 117.167 32.351 114.528 36.549C112.971 37.2921 111.333 37.8514 109.648 38.2156C109.648 38.2156 112.326 41.5253 112.35 43.7186C111.569 44.1274 109.157 45.1022 109.157 45.1022C109.157 45.1022 105.737 53.6003 105.635 53.5846C104.316 53.4274 101.263 53.3802 100.17 53.7969C99.3956 52.3682 98.7401 50.8773 98.2104 49.3395Z" fill="#263238"/>
<path d="M106.791 44.222C107.185 45.6587 108.035 46.9261 109.211 47.8305C110.773 49.0097 111.936 47.8934 111.819 46.1245C111.717 44.5522 110.781 42.0129 109.063 41.5176C107.345 41.0223 106.338 42.4846 106.791 44.222Z" fill="#B55B52"/>
<path opacity="0.3" d="M106.26 130.061C98.5851 131.854 100.014 159.809 101.489 175.744C101.56 175.383 101.614 175.044 101.677 174.714C103.582 164.227 106.307 144.683 108.204 130.58C107.613 130.236 106.942 130.057 106.26 130.061Z" fill="black"/>
<path d="M113.685 261.119C114.419 261.119 115.129 261.017 115.371 260.687C115.434 260.6 115.467 260.496 115.467 260.388C115.467 260.281 115.434 260.177 115.371 260.09C115.325 260.01 115.263 259.94 115.19 259.884C115.116 259.829 115.032 259.789 114.942 259.768C113.99 259.508 111.983 260.656 111.897 260.711C111.873 260.725 111.855 260.746 111.843 260.771C111.832 260.797 111.829 260.825 111.835 260.852C111.84 260.879 111.854 260.904 111.873 260.924C111.892 260.943 111.917 260.957 111.944 260.962C112.519 261.064 113.101 261.116 113.685 261.119ZM114.598 260.003C114.684 259.991 114.771 259.991 114.856 260.003C114.911 260.014 114.963 260.037 115.009 260.069C115.055 260.102 115.093 260.144 115.122 260.192C115.223 260.365 115.184 260.451 115.122 260.499C114.856 260.868 113.404 260.876 112.334 260.726C113.035 260.339 113.804 260.094 114.598 260.003Z" fill="#407BFF"/>
<path d="M111.952 260.963H112.006C112.701 260.648 114.075 259.39 113.966 258.746C113.966 258.588 113.833 258.4 113.458 258.36C113.319 258.343 113.178 258.355 113.044 258.396C112.909 258.436 112.785 258.505 112.678 258.596C111.944 259.202 111.795 260.758 111.788 260.821C111.785 260.845 111.788 260.869 111.798 260.892C111.807 260.914 111.823 260.933 111.842 260.947C111.875 260.966 111.915 260.972 111.952 260.963ZM113.349 258.604H113.435C113.677 258.604 113.693 258.722 113.7 258.753C113.763 259.147 112.826 260.129 112.139 260.554C112.211 259.894 112.483 259.274 112.92 258.777C113.042 258.679 113.193 258.624 113.349 258.62V258.604Z" fill="#407BFF"/>
<path d="M105.644 260.829H111.382L111.952 247.448H106.221L105.644 260.829Z" fill="#B55B52"/>
<path d="M111.343 260.161H105.097C104.983 260.161 104.872 260.2 104.783 260.271C104.694 260.343 104.631 260.442 104.605 260.554L103.473 265.687C103.446 265.811 103.447 265.939 103.476 266.063C103.505 266.186 103.561 266.301 103.641 266.399C103.721 266.498 103.821 266.577 103.935 266.63C104.05 266.684 104.174 266.711 104.3 266.709C106.557 266.709 109.82 266.544 112.662 266.544C115.988 266.544 118.853 266.725 122.749 266.725C125.092 266.725 125.755 264.327 124.772 264.107C120.282 263.124 116.621 263.014 112.74 260.609C112.325 260.331 111.841 260.175 111.343 260.161Z" fill="#263238"/>
<path opacity="0.2" d="M111.952 247.456L111.655 254.351H105.917L106.213 247.456H111.952Z" fill="black"/>
<path d="M120.634 113.922C120.634 113.922 121.414 157.105 120.798 174.714C120.15 193.032 113.771 253.014 113.771 253.014H104.082C104.082 253.014 103.723 194.101 103.301 176.114C102.825 156.46 100.475 113.922 100.475 113.922H120.634Z" fill="#263238"/>
<path d="M115.668 249.115C115.707 249.115 115.114 253.179 115.114 253.179H103.301L102.973 249.555L115.668 249.115Z" fill="#407BFF"/>
<path d="M120.29 64.0013C120.29 64.0013 127.176 74.5671 121.406 117.546H89.0053C88.7945 112.829 92.7061 86.0448 88.1621 63.7026C91.5529 63.0451 94.9823 62.6092 98.429 62.3976C102.772 62.1458 107.125 62.1458 111.468 62.3976C114.445 62.6997 117.395 63.2359 120.29 64.0013Z" fill="#407BFF"/>
<path opacity="0.2" d="M123.71 85.9898L116.917 74.6536C116.917 74.6536 119.471 90.7224 123.382 97.9707C123.647 93.4346 123.741 89.4567 123.71 85.9898Z" fill="black"/>
<path d="M126.607 72.2717C127.723 75.8644 128.949 79.5435 130.206 83.1441C131.463 86.7446 132.775 90.3216 134.211 93.757L134.758 95.0305C134.805 95.1251 134.846 95.2222 134.883 95.3214C134.914 95.3945 134.951 95.4653 134.992 95.5337C135.338 96.0543 135.742 96.5342 136.194 96.9645C137.426 98.1196 138.75 99.1713 140.153 100.109C141.62 101.131 143.174 102.122 144.775 103.057C146.375 103.993 148.03 104.952 149.608 105.777L146.57 112.915C142.727 111.495 138.997 109.782 135.414 107.79C133.496 106.712 131.668 105.479 129.948 104.103C128.923 103.271 127.994 102.327 127.177 101.288C126.942 100.95 126.716 100.651 126.49 100.274C126.263 99.8968 126.013 99.4251 125.943 99.2679L125.256 97.8921C123.468 94.2287 121.867 90.5653 120.392 86.8861C118.916 83.207 117.542 79.5042 116.223 75.6757L126.607 72.2717Z" fill="#407BFF"/>
<path d="M112.639 66.6113C110.632 71.7527 122.835 92.4519 122.835 92.4519L130.776 84.8027C130.776 84.8027 129.042 78.3013 126.731 70.4713C124.452 62.775 114.552 61.6979 112.639 66.6113Z" fill="#407BFF"/>
<defs>
<filter id="filter0_d_29_265" x="19.7261" y="24.5972" width="278.812" height="216.196" filterUnits="userSpaceOnUse" color-interpolation-filters="sRGB">
<feFlood flood-opacity="0" result="BackgroundImageFix"/>
<feColorMatrix in="SourceAlpha" type="matrix" values="0 0 0 0 0 0 0 0 0 0 0 0 0 0 0 0 0 0 127 0" result="hardAlpha"/>
<feOffset dy="4"/>
<feGaussianBlur stdDeviation="2"/>
<feComposite in2="hardAlpha" operator="out"/>
<feColorMatrix type="matrix" values="0 0 0 0 0 0 0 0 0 0 0 0 0 0 0 0 0 0 0.25 0"/>
<feBlend mode="normal" in2="BackgroundImageFix" result="effect1_dropShadow_29_265"/>
<feBlend mode="normal" in="SourceGraphic" in2="effect1_dropShadow_29_265" result="shape"/>
</filter>
</defs>
</svg>
