<svg width="10" height="11" viewBox="0 0 10 11" fill="none" xmlns="http://www.w3.org/2000/svg">
<g clip-path="url(#clip0_75_66)">
<path fill-rule="evenodd" clip-rule="evenodd" d="M5.00016 2.44929C3.05301 2.44929 1.47452 4.02665 1.47452 5.97243C1.47452 7.91821 3.05301 9.49558 5.00016 9.49558C6.94732 9.49558 8.5258 7.91821 8.5258 5.97243C8.5258 4.02665 6.94732 2.44929 5.00016 2.44929ZM0.833496 5.97243C0.833496 3.67288 2.69898 1.80872 5.00016 1.80872C7.30135 1.80872 9.16683 3.67288 9.16683 5.97243C9.16683 8.27199 7.30135 10.1361 5.00016 10.1361C2.69898 10.1361 0.833496 8.27199 0.833496 5.97243Z" fill="#263238"/>
<path fill-rule="evenodd" clip-rule="evenodd" d="M5.00018 3.51691C5.17719 3.51691 5.32069 3.6603 5.32069 3.83719V5.97243C5.32069 6.05738 5.28692 6.13884 5.22682 6.19891L3.94476 7.48005C3.81959 7.60513 3.61665 7.60513 3.49148 7.48005C3.36632 7.35497 3.36632 7.15218 3.49149 7.0271L4.67967 5.83977V3.83719C4.67967 3.6603 4.82317 3.51691 5.00018 3.51691Z" fill="#263238"/>
</g>
<defs>
<clipPath id="clip0_75_66">
<rect width="10" height="9.99292" fill="white" transform="translate(0 0.975952)"/>
</clipPath>
</defs>
</svg>
