<svg width="46" height="46" viewBox="0 0 46 46" fill="none" xmlns="http://www.w3.org/2000/svg">
<path d="M14.264 19.7206L23.0041 10.984L31.7478 19.7277L36.8305 14.6414L23.0041 0.811523L9.17773 14.6379L14.264 19.7206Z" fill="#F3BA2F"/>
<path d="M0.5 23.313L5.58439 18.2286L10.6688 23.313L5.58439 28.3974L0.5 23.313Z" fill="#F3BA2F"/>
<path d="M14.2643 26.9039L23.0044 35.6441L31.748 26.9004L36.8343 31.9795L36.8307 31.9831L23.0044 45.813L9.17801 31.9902L9.1709 31.9831L14.2643 26.9039Z" fill="#F3BA2F"/>
<path d="M35.3311 23.3142L40.4154 18.2298L45.4998 23.3142L40.4154 28.3986L35.3311 23.3142Z" fill="#F3BA2F"/>
<path d="M28.1616 23.3106L23.0043 18.1497L19.1905 21.9635L18.7498 22.4006L17.847 23.3034L17.8398 23.3106L17.847 23.3212L23.0043 28.475L28.1616 23.3141L28.1652 23.3106H28.1616Z" fill="#F3BA2F"/>
</svg>
