<svg width="45" height="53" viewBox="0 0 45 53" fill="none" xmlns="http://www.w3.org/2000/svg">
<path d="M22.4755 2.32666C30.77 8.76942 40.3073 8.36358 43.0214 8.36358C42.438 44.9402 37.8976 40.0701 22.4755 50.3176C7.05349 40.0701 2.56384 44.9402 1.95508 8.36358C4.66916 8.36358 14.1811 8.74406 22.4755 2.32666Z" fill="white"/>
<path d="M22.4757 2.32664L23.6679 0.779366C22.9576 0.221331 21.9684 0.221331 21.2582 0.779366L22.4757 2.32664ZM43.0215 8.36356L44.9746 8.38893C44.9746 7.85626 44.7717 7.34895 44.4166 6.99384C44.0361 6.61336 43.5542 6.41044 43.0215 6.41044V8.36356ZM22.4757 50.3176L21.385 51.941C22.0445 52.3722 22.9069 52.3722 23.5664 51.941L22.4757 50.3176ZM1.95524 8.36356V6.41044C1.42257 6.41044 0.91527 6.61336 0.560157 6.99384C0.179679 7.37432 -0.0232427 7.88162 0.00212255 8.38893L1.95524 8.36356ZM21.2835 3.87392C30.1867 10.7733 40.3582 10.3167 43.0215 10.3167V6.38508C40.2567 6.38508 31.3789 6.74019 23.6679 0.753999L21.2835 3.87392ZM41.0684 8.31283C40.9162 17.4189 40.5357 23.8363 39.8001 28.605C39.0645 33.3229 38.0246 36.1385 36.6802 38.1169C35.3105 40.1715 33.611 41.3891 31.0999 42.911C28.5634 44.4329 25.342 46.0816 21.385 48.6942L23.5664 51.9664C27.3205 49.4552 30.4657 47.8572 33.1291 46.2845C35.8178 44.6865 38.1768 42.911 39.9523 40.3237C41.7533 37.6604 42.9201 34.2107 43.681 29.2138C44.442 24.2675 44.8478 17.5965 45 8.38893L41.0684 8.31283ZM23.5664 48.6942C19.6094 46.0816 16.4134 44.4329 13.8515 42.911C11.3404 41.4144 9.6409 40.1715 8.27118 38.1169C6.92682 36.1385 5.88685 33.3229 5.17663 28.605C4.44103 23.8363 4.06056 17.4189 3.90837 8.31283L0.00212255 8.38893C0.154314 17.5711 0.560156 24.2675 1.32111 29.2138C2.08207 34.2107 3.24887 37.6604 5.0498 40.3237C6.82536 42.911 9.18433 44.6612 11.8477 46.2845C14.511 47.8826 17.6309 49.4806 21.385 51.9664L23.5664 48.6942ZM1.95524 10.3167C4.59322 10.3167 14.79 10.7479 23.6679 3.87392L21.2582 0.779366C13.5725 6.74019 4.69469 6.38508 1.95524 6.38508V10.3167Z" fill="#72A6DE"/>
</svg>
