<svg width="45" height="46" viewBox="0 0 45 46" fill="none" xmlns="http://www.w3.org/2000/svg">
<path d="M38.7148 5.82642L24.6611 16.2643L27.26 10.1061L38.7148 5.82642Z" fill="#E2761B" stroke="#E2761B" stroke-linecap="round" stroke-linejoin="round"/>
<path d="M6.271 5.82642L20.2117 16.3631L17.7399 10.1061L6.271 5.82642Z" fill="#E4761B" stroke="#E4761B" stroke-linecap="round" stroke-linejoin="round"/>
<path d="M33.658 30.0212L29.915 35.7557L37.9235 37.9591L40.2258 30.1484L33.658 30.0212Z" fill="#E4761B" stroke="#E4761B" stroke-linecap="round" stroke-linejoin="round"/>
<path d="M4.78809 30.1484L7.07622 37.9591L15.0847 35.7557L11.3418 30.0212L4.78809 30.1484Z" fill="#E4761B" stroke="#E4761B" stroke-linecap="round" stroke-linejoin="round"/>
<path d="M14.6325 20.332L12.4009 23.7077L20.3529 24.0608L20.0704 15.5156L14.6325 20.332Z" fill="#E4761B" stroke="#E4761B" stroke-linecap="round" stroke-linejoin="round"/>
<path d="M30.3532 20.3322L24.8447 15.417L24.6611 24.0611L32.599 23.7079L30.3532 20.3322Z" fill="#E4761B" stroke="#E4761B" stroke-linecap="round" stroke-linejoin="round"/>
<path d="M15.0845 35.7557L19.8585 33.4252L15.7342 30.2048L15.0845 35.7557Z" fill="#E4761B" stroke="#E4761B" stroke-linecap="round" stroke-linejoin="round"/>
<path d="M25.127 33.4252L29.9151 35.7557L29.2512 30.2048L25.127 33.4252Z" fill="#E4761B" stroke="#E4761B" stroke-linecap="round" stroke-linejoin="round"/>
<path d="M29.9151 35.7558L25.127 33.4253L25.5083 36.5468L25.4659 37.8603L29.9151 35.7558Z" fill="#D7C1B3" stroke="#D7C1B3" stroke-linecap="round" stroke-linejoin="round"/>
<path d="M15.0845 35.7558L19.5336 37.8603L19.5054 36.5468L19.8585 33.4253L15.0845 35.7558Z" fill="#D7C1B3" stroke="#D7C1B3" stroke-linecap="round" stroke-linejoin="round"/>
<path d="M19.6046 28.1427L15.6216 26.9704L18.4323 25.6851L19.6046 28.1427Z" fill="#233447" stroke="#233447" stroke-linecap="round" stroke-linejoin="round"/>
<path d="M25.3813 28.1427L26.5537 25.6851L29.3785 26.9704L25.3813 28.1427Z" fill="#233447" stroke="#233447" stroke-linecap="round" stroke-linejoin="round"/>
<path d="M15.0847 35.7559L15.7627 30.0215L11.3418 30.1486L15.0847 35.7559Z" fill="#CD6116" stroke="#CD6116" stroke-linecap="round" stroke-linejoin="round"/>
<path d="M29.2373 30.0215L29.9153 35.7559L33.6582 30.1486L29.2373 30.0215Z" fill="#CD6116" stroke="#CD6116" stroke-linecap="round" stroke-linejoin="round"/>
<path d="M32.599 23.7078L24.6611 24.0609L25.3956 28.1428L26.5679 25.6852L29.3928 26.9705L32.599 23.7078Z" fill="#CD6116" stroke="#CD6116" stroke-linecap="round" stroke-linejoin="round"/>
<path d="M15.6212 26.9705L18.4461 25.6852L19.6043 28.1428L20.3529 24.0609L12.4009 23.7078L15.6212 26.9705Z" fill="#CD6116" stroke="#CD6116" stroke-linecap="round" stroke-linejoin="round"/>
<path d="M12.4009 23.7078L15.7342 30.2049L15.6212 26.9705L12.4009 23.7078Z" fill="#E4751F" stroke="#E4751F" stroke-linecap="round" stroke-linejoin="round"/>
<path d="M29.3922 26.9705L29.251 30.2049L32.5984 23.7078L29.3922 26.9705Z" fill="#E4751F" stroke="#E4751F" stroke-linecap="round" stroke-linejoin="round"/>
<path d="M20.3531 24.0608L19.6045 28.1427L20.5367 32.9591L20.7486 26.6173L20.3531 24.0608Z" fill="#E4751F" stroke="#E4751F" stroke-linecap="round" stroke-linejoin="round"/>
<path d="M24.6607 24.0608L24.2793 26.6032L24.4488 32.9591L25.3951 28.1427L24.6607 24.0608Z" fill="#E4751F" stroke="#E4751F" stroke-linecap="round" stroke-linejoin="round"/>
<path d="M25.3955 28.1428L24.4492 32.9592L25.1272 33.4253L29.2515 30.2049L29.3927 26.9705L25.3955 28.1428Z" fill="#F6851B" stroke="#F6851B" stroke-linecap="round" stroke-linejoin="round"/>
<path d="M15.6216 26.9705L15.7346 30.2049L19.8589 33.4253L20.5368 32.9592L19.6046 28.1428L15.6216 26.9705Z" fill="#F6851B" stroke="#F6851B" stroke-linecap="round" stroke-linejoin="round"/>
<path d="M25.4658 37.8604L25.5082 36.5468L25.1551 36.2361H19.8302L19.5054 36.5468L19.5336 37.8604L15.0845 35.7559L16.6381 37.027L19.7879 39.2163H25.1975L28.3613 37.027L29.915 35.7559L25.4658 37.8604Z" fill="#C0AD9E" stroke="#C0AD9E" stroke-linecap="round" stroke-linejoin="round"/>
<path d="M25.1273 33.4251L24.4494 32.959H20.5369L19.859 33.4251L19.5059 36.5466L19.8307 36.2358H25.1556L25.5087 36.5466L25.1273 33.4251Z" fill="#161616" stroke="#161616" stroke-linecap="round" stroke-linejoin="round"/>
<path d="M39.3082 16.9422L40.5088 11.1795L38.715 5.82642L25.1274 15.9112L30.3534 20.3321L37.7404 22.4931L39.3788 20.5863L38.6726 20.0778L39.8026 19.0468L38.9269 18.3688L40.0568 17.5072L39.3082 16.9422Z" fill="#763D16" stroke="#763D16" stroke-linecap="round" stroke-linejoin="round"/>
<path d="M4.4917 11.1795L5.69226 16.9422L4.92955 17.5072L6.0595 18.3688L5.19791 19.0468L6.32786 20.0778L5.62164 20.5863L7.24594 22.4931L14.6329 20.3321L19.8589 15.9112L6.27136 5.82642L4.4917 11.1795Z" fill="#763D16" stroke="#763D16" stroke-linecap="round" stroke-linejoin="round"/>
<path d="M37.7401 22.493L30.3532 20.332L32.5989 23.7077L29.2515 30.2049L33.6582 30.1484H40.226L37.7401 22.493Z" fill="#F6851B" stroke="#F6851B" stroke-linecap="round" stroke-linejoin="round"/>
<path d="M14.6327 20.332L7.24571 22.493L4.78809 30.1484H11.3418L15.7344 30.2049L12.4011 23.7077L14.6327 20.332Z" fill="#F6851B" stroke="#F6851B" stroke-linecap="round" stroke-linejoin="round"/>
<path d="M24.6611 24.0608L25.1272 15.911L27.2741 10.106H17.7402L19.8589 15.911L20.3532 24.0608L20.5227 26.6314L20.5368 32.9591H24.4493L24.4775 26.6314L24.6611 24.0608Z" fill="#F6851B" stroke="#F6851B" stroke-linecap="round" stroke-linejoin="round"/>
</svg>
