<svg width="45" height="47" viewBox="0 0 45 47" fill="none" xmlns="http://www.w3.org/2000/svg">
<path fill-rule="evenodd" clip-rule="evenodd" d="M8.09148 7.69716C7.3817 4.00631 10.2208 0.599365 13.9117 0.599365C17.1767 0.599365 19.8738 3.29653 19.8738 6.56151V13.9432C20.7256 13.9432 21.5773 13.8013 22.429 13.8013C23.2808 13.8013 23.9905 13.8013 24.8423 13.9432V6.56151C24.8423 3.29653 27.5394 0.599365 30.8044 0.599365C34.4953 0.599365 37.3344 4.00631 36.7666 7.69716L35.205 16.3565C40.7413 18.7697 45 23.0284 45 28.2808V31.5457C45 35.9464 42.1609 39.6372 38.0442 42.0505C33.9274 44.6057 28.5331 46.0252 22.429 46.0252C16.3249 46.0252 10.9306 44.6057 6.81388 42.0505C2.83912 39.6372 0 35.9464 0 31.5457V28.2808C0 23.0284 4.11672 18.7697 9.653 16.3565L8.09148 7.69716ZM33.0757 17.4921L34.9211 7.27129C35.347 4.71608 33.5016 2.30284 30.8044 2.30284C28.5331 2.30284 26.6877 4.14826 26.6877 6.41955V15.7886C26.1199 15.6467 25.4101 15.6467 24.8423 15.6467C23.9905 15.6467 23.2808 15.5047 22.429 15.5047C21.5773 15.5047 20.7256 15.5047 19.8738 15.6467C19.306 15.6467 18.5962 15.7886 18.0284 15.7886V6.56151C18.0284 4.29022 16.183 2.44479 13.9117 2.44479C11.3565 2.44479 9.36908 4.85804 9.93691 7.41325L11.7823 17.6341C5.82019 19.9054 1.84543 23.8801 1.84543 28.4227V31.6877C1.84543 38.6435 11.0726 44.3218 22.429 44.3218C33.7855 44.3218 43.0126 38.6435 43.0126 31.6877V28.4227C43.1546 23.7382 39.1798 19.7634 33.0757 17.4921Z" fill="#633001"/>
<path d="M43.1545 31.5457C43.1545 38.5016 33.9274 44.1798 22.5709 44.1798C11.2144 44.1798 1.9873 38.5016 1.9873 31.5457V28.2808H43.2965V31.5457H43.1545Z" fill="#FEDC90"/>
<path fill-rule="evenodd" clip-rule="evenodd" d="M9.93683 7.41328C9.36901 4.85807 11.3564 2.44482 13.9116 2.44482C16.1829 2.44482 18.0283 4.29025 18.0283 6.56154V15.9306C19.4479 15.7887 20.8674 15.6467 22.4289 15.6467C23.8485 15.6467 25.2681 15.7887 26.6876 15.9306V6.56154C26.6876 4.29025 28.533 2.44482 30.8043 2.44482C33.3595 2.44482 35.3469 4.85807 34.9211 7.41328L33.0756 17.6341C39.0378 19.9054 43.1545 23.8802 43.1545 28.4227C43.1545 35.3786 33.9274 41.0568 22.5709 41.0568C11.2144 41.0568 1.9873 35.3786 1.9873 28.4227C1.9873 23.8802 5.96207 19.9054 11.9242 17.6341L9.93683 7.41328Z" fill="#D1884F"/>
<path d="M16.7506 27.4289C16.7506 29.2743 15.7569 30.8359 14.4793 30.8359C13.2017 30.8359 12.208 29.2743 12.208 27.4289C12.208 25.5835 13.2017 24.022 14.4793 24.022C15.7569 24.022 16.7506 25.5835 16.7506 27.4289Z" fill="#633001"/>
<path d="M32.5079 27.4289C32.5079 29.2743 31.5142 30.8359 30.2366 30.8359C28.959 30.8359 27.9653 29.2743 27.9653 27.4289C27.9653 25.5835 28.959 24.022 30.2366 24.022C31.5142 24.022 32.5079 25.5835 32.5079 27.4289Z" fill="#633001"/>
</svg>
