<svg width="30" height="31" viewBox="0 0 30 31" fill="none" xmlns="http://www.w3.org/2000/svg">
<path fill-rule="evenodd" clip-rule="evenodd" d="M16.7778 13.0864H23L18.3333 19.3684L13.2222 25.9426V17.7614H7.00001L12.1429 11.3333L16.7778 4.90525V13.0864ZM10.5418 10.1503L15.1478 3.76236C15.6521 3.06299 16.5571 2.76543 17.3861 3.02644C18.2151 3.28745 18.7778 4.0471 18.7778 4.90525V11.1142H23C23.7535 11.1142 24.443 11.5318 24.7838 12.1945C25.1245 12.8572 25.0587 13.6525 24.6134 14.252L19.9467 20.5339C19.9381 20.5455 19.9294 20.557 19.9205 20.5684L14.8094 27.1426C14.288 27.8132 13.3913 28.0818 12.5797 27.8103C11.7682 27.5388 11.2222 26.7877 11.2222 25.9426V19.7337H7.00001C6.23365 19.7337 5.53467 19.3018 5.20035 18.6218C4.86604 17.9417 4.95517 17.1331 5.42986 16.5398L10.5418 10.1503Z" fill="black"/>
</svg>
