<svg width="30" height="31" viewBox="0 0 30 31" fill="none" xmlns="http://www.w3.org/2000/svg">
<path fill-rule="evenodd" clip-rule="evenodd" d="M2.5 21.6789C2.5 19.7331 4.07848 18.1558 6.02564 18.1558C7.9728 18.1558 9.55128 19.7331 9.55128 21.6789V24.2411C9.55128 26.1868 7.9728 27.7642 6.02564 27.7642C4.07848 27.7642 2.5 26.1868 2.5 24.2411V21.6789ZM6.02564 20.0775C5.14057 20.0775 4.42308 20.7945 4.42308 21.6789V24.2411C4.42308 25.1255 5.14057 25.8425 6.02564 25.8425C6.91071 25.8425 7.62821 25.1255 7.62821 24.2411V21.6789C7.62821 20.7945 6.91071 20.0775 6.02564 20.0775Z" fill="#D80027"/>
<path fill-rule="evenodd" clip-rule="evenodd" d="M11.4744 13.9922C11.4744 12.0465 13.0528 10.4691 15 10.4691C16.9472 10.4691 18.5256 12.0465 18.5256 13.9922V24.2411C18.5256 26.1868 16.9472 27.7642 15 27.7642C13.0528 27.7642 11.4744 26.1868 11.4744 24.2411V13.9922ZM15 12.3908C14.1149 12.3908 13.3974 13.1078 13.3974 13.9922V24.2411C13.3974 25.1255 14.1149 25.8425 15 25.8425C15.8851 25.8425 16.6026 25.1255 16.6026 24.2411V13.9922C16.6026 13.1078 15.8851 12.3908 15 12.3908Z" fill="#D80027"/>
<path fill-rule="evenodd" clip-rule="evenodd" d="M20.4487 6.30553C20.4487 4.3598 22.0272 2.78247 23.9744 2.78247C25.9215 2.78247 27.5 4.3598 27.5 6.30553V24.2411C27.5 26.1868 25.9215 27.7642 23.9744 27.7642C22.0272 27.7642 20.4487 26.1868 20.4487 24.2411V6.30553ZM23.9744 4.70414C23.0893 4.70414 22.3718 5.42111 22.3718 6.30553V24.2411C22.3718 25.1255 23.0893 25.8425 23.9744 25.8425C24.8594 25.8425 25.5769 25.1255 25.5769 24.2411V6.30553C25.5769 5.42111 24.8594 4.70414 23.9744 4.70414Z" fill="#D80027"/>
</svg>
