<svg width="30" height="31" viewBox="0 0 30 31" fill="none" xmlns="http://www.w3.org/2000/svg">
<path fill-rule="evenodd" clip-rule="evenodd" d="M15.7381 3.80535C16.3935 3.15041 17.2825 2.78247 18.2094 2.78247H23.3375C23.9273 2.78247 24.493 3.01661 24.9101 3.43339L26.8486 5.37046C27.2657 5.78724 27.5 6.35252 27.5 6.94193V12.0663C27.5 12.9925 27.1318 13.8808 26.4764 14.5358L14.2619 26.7413C12.8971 28.1051 10.6842 28.1051 9.31938 26.7413L3.52363 20.9498C2.15879 19.5859 2.15879 17.3747 3.52363 16.0109L15.7381 3.80535ZM18.2094 4.68738C17.788 4.68738 17.384 4.85463 17.0861 5.15232L4.87159 17.3578C4.25121 17.9778 4.25121 18.9829 4.87159 19.6028L10.6673 25.3943C11.2877 26.0142 12.2936 26.0142 12.9139 25.3943L25.1284 13.1888C25.4263 12.8911 25.5937 12.4873 25.5937 12.0663V6.94193C25.5937 6.85773 25.5602 6.77698 25.5006 6.71744L23.5621 4.78037C23.5026 4.72083 23.4218 4.68738 23.3375 4.68738H18.2094Z" fill="#2A9843"/>
<path d="M21.4634 10.0846C21.4634 10.786 20.8944 11.3546 20.1925 11.3546C19.4906 11.3546 18.9216 10.786 18.9216 10.0846C18.9216 9.38325 19.4906 8.81468 20.1925 8.81468C20.8944 8.81468 21.4634 9.38325 21.4634 10.0846Z" fill="#2A9843"/>
</svg>
