<svg width="30" height="31" viewBox="0 0 30 31" fill="none" xmlns="http://www.w3.org/2000/svg">
<path fill-rule="evenodd" clip-rule="evenodd" d="M20.7055 15.2809C21.0465 15.6703 21.007 16.2622 20.6173 16.6029L15.6173 20.9747C15.2639 21.2837 14.7361 21.2837 14.3827 20.9747L9.38265 16.6029C8.99299 16.2622 8.95351 15.6703 9.29446 15.2809C9.63541 14.8916 10.2277 14.8521 10.6173 15.1928L14.0625 18.2051V10.277C14.0625 9.75957 14.4822 9.34015 15 9.34015C15.5178 9.34015 15.9375 9.75957 15.9375 10.277V18.2051L19.3827 15.1928C19.7723 14.8521 20.3646 14.8916 20.7055 15.2809Z" fill="#EC3E91"/>
<path fill-rule="evenodd" clip-rule="evenodd" d="M15 4.96835C12.3563 4.96835 8.74312 5.21079 6.48697 5.38545C5.74501 5.44289 5.16239 6.02508 5.1049 6.76651C4.93011 9.02101 4.6875 12.6315 4.6875 15.2733C4.6875 17.9151 4.93011 21.5256 5.1049 23.7801C5.16239 24.5215 5.74501 25.1037 6.48697 25.1611C8.74312 25.3358 12.3563 25.5782 15 25.5782C17.6437 25.5782 21.2569 25.3358 23.513 25.1611C24.255 25.1037 24.8376 24.5215 24.8951 23.7801C25.0699 21.5256 25.3125 17.9151 25.3125 15.2733C25.3125 12.6315 25.0699 9.02101 24.8951 6.76651C24.8376 6.02508 24.255 5.44289 23.513 5.38545C21.2569 5.21079 17.6437 4.96835 15 4.96835ZM6.34215 3.51742C8.59935 3.34268 12.2767 3.09473 15 3.09473C17.7233 3.09473 21.4006 3.34268 23.6579 3.51742C25.3211 3.64618 26.6356 4.95977 26.7645 6.62179C26.9394 8.87734 27.1875 12.552 27.1875 15.2733C27.1875 17.9946 26.9394 21.6693 26.7645 23.9248C26.6356 25.5868 25.3211 26.9004 23.6579 27.0292C21.4006 27.2039 17.7233 27.4519 15 27.4519C12.2767 27.4519 8.59935 27.2039 6.34215 27.0292C4.67891 26.9004 3.36436 25.5868 3.23551 23.9248C3.06063 21.6693 2.8125 17.9946 2.8125 15.2733C2.8125 12.552 3.06063 8.87734 3.23551 6.62179C3.36436 4.95976 4.67891 3.64618 6.34215 3.51742Z" fill="#EC3E91"/>
</svg>
