<svg width="17" height="26" viewBox="0 0 17 26" fill="none" xmlns="http://www.w3.org/2000/svg">
<path d="M7.1 25.529V23.339C4.56 22.939 2.22 21.789 0.0800001 19.889L2.87 16.499C4.43 17.859 5.84 18.729 7.1 19.109V14.639C5 14.099 3.46 13.379 2.48 12.479C1.5 11.559 1.01 10.249 1.01 8.54898C1.01 6.82898 1.57 5.41898 2.69 4.31898C3.81 3.19898 5.28 2.52898 7.1 2.30898V0.838984H10.28V2.36898C12.28 2.64898 14.27 3.47898 16.25 4.85898L13.79 8.39898C12.53 7.49898 11.36 6.89898 10.28 6.59898V10.919C12.44 11.479 14.03 12.229 15.05 13.169C16.09 14.109 16.61 15.439 16.61 17.159C16.61 18.879 16.03 20.299 14.87 21.419C13.73 22.539 12.2 23.209 10.28 23.429V25.529H7.1ZM11.81 17.399C11.81 16.979 11.7 16.629 11.48 16.349C11.26 16.069 10.86 15.809 10.28 15.569V19.259C11.3 18.939 11.81 18.319 11.81 17.399ZM7.1 6.47898C6.24 6.77898 5.81 7.32898 5.81 8.12898C5.81 8.92898 6.24 9.53898 7.1 9.95898V6.47898Z" fill="#23A6F0"/>
</svg>
