<svg width="30" height="31" viewBox="0 0 30 31" fill="none" xmlns="http://www.w3.org/2000/svg">
<path fill-rule="evenodd" clip-rule="evenodd" d="M15 9.24366C11.6285 9.24366 8.89535 11.9749 8.89535 15.344C8.89535 18.7132 11.6285 21.4444 15 21.4444C18.3715 21.4444 21.1047 18.7132 21.1047 15.344C21.1047 11.9749 18.3715 9.24366 15 9.24366ZM7.15116 15.344C7.15116 11.0123 10.6652 7.50069 15 7.50069C19.3348 7.50069 22.8488 11.0123 22.8488 15.344C22.8488 19.6758 19.3348 23.1874 15 23.1874C10.6652 23.1874 7.15116 19.6758 7.15116 15.344Z" fill="#0026AE"/>
<path fill-rule="evenodd" clip-rule="evenodd" d="M15 2.85278C15.4816 2.85278 15.8721 3.24296 15.8721 3.72427V4.88624C15.8721 5.36755 15.4816 5.75773 15 5.75773C14.5184 5.75773 14.1279 5.36755 14.1279 4.88624V3.72427C14.1279 3.24296 14.5184 2.85278 15 2.85278Z" fill="#0026AE"/>
<path fill-rule="evenodd" clip-rule="evenodd" d="M15 24.9303C15.4816 24.9303 15.8721 25.3205 15.8721 25.8018V26.9638C15.8721 27.4451 15.4816 27.8353 15 27.8353C14.5184 27.8353 14.1279 27.4451 14.1279 26.9638V25.8018C14.1279 25.3205 14.5184 24.9303 15 24.9303Z" fill="#0026AE"/>
<path fill-rule="evenodd" clip-rule="evenodd" d="M27.5 15.344C27.5 15.8253 27.1096 16.2155 26.6279 16.2155H25.4651C24.9835 16.2155 24.593 15.8253 24.593 15.344C24.593 14.8627 24.9835 14.4726 25.4651 14.4726H26.6279C27.1096 14.4726 27.5 14.8627 27.5 15.344Z" fill="#0026AE"/>
<path fill-rule="evenodd" clip-rule="evenodd" d="M5.40698 15.344C5.40698 15.8253 5.01653 16.2155 4.53488 16.2155H3.37209C2.89045 16.2155 2.5 15.8253 2.5 15.344C2.5 14.8627 2.89045 14.4726 3.37209 14.4726H4.53488C5.01653 14.4726 5.40698 14.8627 5.40698 15.344Z" fill="#0026AE"/>
<path fill-rule="evenodd" clip-rule="evenodd" d="M23.8388 6.51139C24.1794 6.85172 24.1794 7.40351 23.8388 7.74385L23.0166 8.56549C22.676 8.90583 22.1239 8.90583 21.7833 8.56549C21.4427 8.22515 21.4427 7.67336 21.7833 7.33303L22.6055 6.51139C22.9461 6.17105 23.4983 6.17105 23.8388 6.51139Z" fill="#0026AE"/>
<path fill-rule="evenodd" clip-rule="evenodd" d="M8.21671 22.1226C8.55728 22.4629 8.55728 23.0147 8.21671 23.355L7.39449 24.1767C7.05392 24.517 6.50174 24.517 6.16116 24.1767C5.82059 23.8363 5.82059 23.2846 6.16116 22.9442L6.98338 22.1226C7.32396 21.7822 7.87613 21.7822 8.21671 22.1226Z" fill="#0026AE"/>
<path fill-rule="evenodd" clip-rule="evenodd" d="M23.8388 24.1767C23.4983 24.517 22.9461 24.517 22.6055 24.1767L21.7833 23.355C21.4427 23.0147 21.4427 22.4629 21.7833 22.1226C22.1239 21.7822 22.676 21.7822 23.0166 22.1226L23.8388 22.9442C24.1794 23.2846 24.1794 23.8363 23.8388 24.1767Z" fill="#0026AE"/>
<path fill-rule="evenodd" clip-rule="evenodd" d="M8.21671 8.56549C7.87613 8.90583 7.32396 8.90582 6.98338 8.56549L6.16117 7.74385C5.82059 7.40351 5.82059 6.85172 6.16117 6.51139C6.50174 6.17105 7.05392 6.17105 7.39449 6.51139L8.21671 7.33303C8.55728 7.67336 8.55728 8.22515 8.21671 8.56549Z" fill="#0026AE"/>
</svg>
