<svg width="30" height="31" viewBox="0 0 30 31" fill="none" xmlns="http://www.w3.org/2000/svg">
<path fill-rule="evenodd" clip-rule="evenodd" d="M8.89286 7.65711C8.89286 5.00375 11.0515 2.85278 13.7143 2.85278H16.2857C18.9485 2.85278 21.1071 5.00375 21.1071 7.65711V10.8386C21.7362 10.8885 22.3225 10.939 22.8355 10.9853C24.4942 11.1351 25.8108 12.4347 25.9615 14.0943C26.096 15.5751 26.25 17.6099 26.25 19.1875C26.25 20.7651 26.096 22.7999 25.9615 24.2807C25.8108 25.9403 24.4942 27.2399 22.8355 27.3897C20.7516 27.5778 17.4578 27.8353 15 27.8353C12.5422 27.8353 9.24835 27.5778 7.16452 27.3897C5.50579 27.2399 4.18915 25.9403 4.03847 24.2807C3.90403 22.7999 3.75 20.7651 3.75 19.1875C3.75 17.6099 3.90403 15.5751 4.03847 14.0943C4.18915 12.4347 5.50579 11.1351 7.16452 10.9853C7.67748 10.939 8.26377 10.8885 8.89286 10.8386V7.65711ZM9.92069 12.6878C9.92584 12.6874 9.93097 12.6871 9.9361 12.6867C11.6264 12.5637 13.4882 12.4614 15 12.4614C16.5118 12.4614 18.3736 12.5637 20.0639 12.6867C20.069 12.6871 20.0742 12.6874 20.0793 12.6878C21.0247 12.7566 21.9159 12.8319 22.6614 12.8992C23.3992 12.9658 23.9747 13.539 24.0408 14.2674C24.1746 15.7411 24.3214 17.7026 24.3214 19.1875C24.3214 20.6724 24.1746 22.6338 24.0408 24.1076C23.9747 24.836 23.3992 25.4092 22.6614 25.4758C20.5796 25.6638 17.3624 25.9136 15 25.9136C12.6376 25.9136 9.42037 25.6638 7.33857 25.4758C6.60078 25.4092 6.02534 24.836 5.9592 24.1076C5.8254 22.6338 5.67857 20.6724 5.67857 19.1875C5.67857 17.7026 5.8254 15.7411 5.9592 14.2674C6.02534 13.539 6.60078 12.9658 7.33857 12.8992C8.08412 12.8319 8.9753 12.7566 9.92069 12.6878ZM19.1786 10.6996C17.7502 10.6078 16.2645 10.5397 15 10.5397C13.7355 10.5397 12.2498 10.6078 10.8214 10.6996V7.65711C10.8214 6.0651 12.1166 4.77451 13.7143 4.77451H16.2857C17.8834 4.77451 19.1786 6.0651 19.1786 7.65711V10.6996ZM15 16.9455C15.5326 16.9455 15.9643 17.3757 15.9643 17.9063V20.4686C15.9643 20.9993 15.5326 21.4295 15 21.4295C14.4674 21.4295 14.0357 20.9993 14.0357 20.4686V17.9063C14.0357 17.3757 14.4674 16.9455 15 16.9455Z" fill="#E4897B"/>
</svg>
