<svg width="272" height="244" viewBox="0 0 272 244" fill="none" xmlns="http://www.w3.org/2000/svg">
<path d="M136 243.617C210.958 243.617 271.723 240.072 271.723 235.699C271.723 231.326 210.958 227.781 136 227.781C61.0421 227.781 0.276855 231.326 0.276855 235.699C0.276855 240.072 61.0421 243.617 136 243.617Z" fill="#F5F5F5"/>
<path d="M160.234 27.6315C156.034 21.9517 157.007 16.9923 160.234 13.4249C164.259 8.9482 170.832 8.98317 175.214 11.2705C182.074 14.8449 183.551 30.5064 172.092 32.7168C168.026 31.2984 164.064 29.5992 160.234 27.6315Z" fill="#263238"/>
<path d="M173.877 12.2566C178.077 9.7874 176.908 4.99585 180.702 2.46367C185.98 -1.03382 197.355 0.484094 193.799 9.22781C190.243 17.9715 202.899 18.4752 199.224 27.1629C195.549 35.8507 184.874 41.1529 182.13 28.5619C180.079 19.1257 188.794 6.96843 181.759 8.27649C177.37 9.08791 175.907 13.5997 175.907 13.5997L173.877 12.2566Z" fill="#263238"/>
<path d="M163.44 49.2883C162.866 50.8761 162.243 52.3171 161.578 53.8071C160.913 55.297 160.178 56.731 159.408 58.165C157.858 61.1743 155.911 63.9622 153.619 66.4541C152.964 67.1519 152.244 67.7866 151.47 68.3498C150.705 68.8925 149.889 69.361 149.034 69.7488C147.46 70.4528 145.818 70.9965 144.134 71.3716C140.944 72.1079 137.678 72.4624 134.404 72.4279C134.037 72.4219 133.684 72.283 133.411 72.0371C133.139 71.7911 132.964 71.4547 132.921 71.0902C132.877 70.7256 132.967 70.3577 133.175 70.0545C133.382 69.7512 133.692 69.5333 134.047 69.441H134.117C137.046 68.7568 139.928 67.8901 142.748 66.8458C144.074 66.3523 145.357 65.751 146.584 65.0481C147.131 64.7349 147.651 64.377 148.138 63.9779C148.61 63.5836 149.046 63.1482 149.44 62.6768C150.342 61.6122 151.154 60.4751 151.869 59.2772C152.625 58.0391 153.353 56.759 154.025 55.4229C155.355 52.7788 156.615 49.9528 157.7 47.2387V47.1967C157.988 46.4426 158.564 45.8336 159.301 45.5037C160.038 45.1737 160.876 45.1499 161.631 45.4375C162.385 45.725 162.995 46.3004 163.325 47.037C163.655 47.7736 163.679 48.6111 163.391 49.3652L163.44 49.2883Z" fill="#EB8D84"/>
<path d="M162.53 44.1118C156.748 44.7694 153.563 53.4363 153.563 53.4363L159.485 61.7744C159.485 61.7744 166.485 53.849 167.094 50.3095C167.703 46.665 166.8 43.6152 162.53 44.1118Z" fill="#263238"/>
<path opacity="0.2" d="M159.366 49.4142C161.305 48.197 163.419 48.8686 165.218 51.128C165.59 51.7764 165.839 52.4878 165.953 53.2265C164.203 56.3953 159.478 61.7676 159.478 61.7676L156.769 57.9552C156.566 55.7028 158.113 50.1627 159.366 49.4142Z" fill="black"/>
<path d="M135.461 69.749L131.1 67.3984L130.981 73.0788C130.981 73.0788 133.893 73.7085 135.818 72.1554L135.461 69.749Z" fill="#B55B52"/>
<path d="M126.725 67.5943L127.488 72.2322L131.009 73.0786L131.128 67.3984L126.725 67.5943Z" fill="#B55B52"/>
<path d="M148.705 57.3745L144.883 54.2407L118.843 93.336L122.7 96.4698C127.096 100.065 136.483 94.2314 143.7 83.431C150.917 72.6307 153.101 60.97 148.705 57.3745Z" fill="#407BFF"/>
<path opacity="0.1" d="M148.705 57.3745L144.883 54.2407L118.843 93.336L122.7 96.4698C127.096 100.065 136.483 94.2314 143.7 83.431C150.917 72.6307 153.101 60.97 148.705 57.3745Z" fill="black"/>
<path d="M140.503 79.2507C147.45 68.278 149.215 56.9382 144.445 53.9226C139.675 50.907 130.177 57.3576 123.23 68.3303C116.283 79.3031 114.518 90.6429 119.288 93.6584C124.058 96.674 133.556 90.2235 140.503 79.2507Z" fill="#407BFF"/>
<path d="M127.033 80.1994L130.533 74.9252C130.178 73.8439 130.16 72.6799 130.484 71.5886C130.885 70.2127 131.507 68.911 132.325 67.7344C133.063 66.5455 134.029 65.5138 135.167 64.6986C136.14 64.0551 136.973 63.9012 137.652 64.2369L138.506 62.9639L139.248 63.5724L138.408 64.8525C138.636 65.2088 138.789 65.608 138.856 66.0255C138.923 66.443 138.904 66.8699 138.8 67.2797C138.528 68.5141 138.055 69.6956 137.4 70.7772L135.825 70.1337C136.315 69.3875 136.56 68.5072 136.525 67.6155L133.242 72.5119C133.694 73.6214 133.787 74.8444 133.508 76.0094C132.616 78.8057 130.91 81.2727 128.608 83.0953C127.544 83.8321 126.599 84.0443 125.773 83.7318L124.926 85.0049L124.184 84.3963L124.989 83.1862C124.738 82.7702 124.577 82.3065 124.516 81.8248C124.454 81.3431 124.494 80.8538 124.632 80.3882C125.011 78.8286 125.634 77.3388 126.48 75.9744L128.09 76.7439C127.733 77.3728 127.447 78.039 127.236 78.7304C127.084 79.2047 127.015 79.7017 127.033 80.1994ZM135.839 66.951C135.449 66.9892 135.081 67.1509 134.789 67.4126C133.977 68.0837 133.376 68.9753 133.06 69.9798C132.916 70.4071 132.875 70.8626 132.941 71.3088L135.839 66.951ZM127.663 80.9408C127.878 80.9735 128.098 80.9578 128.306 80.8949C128.515 80.8319 128.706 80.7234 128.867 80.5771C129.868 79.7981 130.602 78.7275 130.967 77.5133C131.107 77.027 131.095 76.5096 130.932 76.0304L127.663 80.9408Z" fill="white"/>
<path opacity="0.1" d="M143.735 67.2166C144.253 63.7891 143.735 61.04 142.111 59.69C138.534 56.7591 130.911 61.5157 125.024 70.3083C122.549 73.9298 120.723 77.9535 119.627 82.1997C120.229 78.1846 122.224 73.2392 125.381 68.4896C131.24 59.697 138.891 54.9475 142.468 57.8713C144.4 59.4452 144.75 62.9497 143.735 67.2166Z" fill="black"/>
<path d="M194.485 197.625L188.605 198.185L185.609 184.495L191.489 183.936L194.485 197.625Z" fill="#EB8D84"/>
<path d="M227.238 189.161L221.771 191.301L216.5 178.319L221.967 176.178L227.238 189.161Z" fill="#EB8D84"/>
<path d="M220.182 188.616L226.174 185.636C226.277 185.585 226.395 185.572 226.507 185.601C226.619 185.629 226.717 185.696 226.783 185.79L229.821 190.19C229.898 190.304 229.95 190.433 229.972 190.568C229.995 190.704 229.988 190.843 229.952 190.976C229.916 191.108 229.852 191.232 229.764 191.337C229.677 191.443 229.567 191.529 229.443 191.589C227.343 192.596 226.419 193.093 223.78 194.387C222.156 195.191 218.537 197.087 216.297 198.199C214.057 199.311 212.839 197.157 213.672 196.492C217.403 193.519 218.635 191.274 219.454 189.392C219.598 189.056 219.856 188.781 220.182 188.616Z" fill="#263238"/>
<path d="M187.457 195.135H194.527C194.654 195.135 194.776 195.177 194.876 195.254C194.976 195.332 195.048 195.44 195.08 195.562L196.62 201.158C196.659 201.29 196.666 201.429 196.64 201.564C196.615 201.7 196.558 201.827 196.474 201.936C196.39 202.045 196.282 202.133 196.157 202.192C196.033 202.251 195.897 202.28 195.759 202.277C193.288 202.235 192.105 202.277 188.997 202.277H179.505C176.922 202.277 176.355 199.661 177.405 199.43C182.2 198.367 184.965 196.905 186.442 195.513C186.719 195.26 187.083 195.124 187.457 195.135Z" fill="#263238"/>
<path opacity="0.2" d="M185.616 184.502L187.156 191.554H193.162L191.496 183.936L185.616 184.502Z" fill="black"/>
<path opacity="0.2" d="M221.967 176.186L216.5 178.326L219.223 185.013L224.683 182.873L221.967 176.186Z" fill="black"/>
<path d="M180.478 38.2011C185.154 37.6625 188.178 39.8869 188.388 44.5526C189.004 60.9979 190.824 64.7822 193.575 73.2881L170.258 79.7725C161.97 61.8373 159.058 53.3803 158.134 49.4001C157.942 48.4751 158.058 47.5126 158.465 46.6599C158.873 45.8072 159.548 45.1113 160.388 44.6785C166.595 41.2237 173.421 39.0227 180.478 38.2011Z" fill="#263238"/>
<path d="M173.387 27.1772C173.667 30.7657 174.598 36.9704 177.587 38.6143C177.587 38.6143 177.146 40.8317 169.418 48.2256C164.651 44.2104 167.087 41.5173 167.087 41.5173C170.636 39.5516 169.803 36.9914 168.403 34.5221L173.387 27.1772Z" fill="#EB8D84"/>
<path opacity="0.2" d="M172.848 27.9814C173.358 30.0209 173.43 32.1452 173.058 34.2142C172.792 35.6133 171.266 36.6766 169.558 37.2852C169.325 36.3133 168.943 35.3835 168.424 34.529L172.848 27.9814Z" fill="black"/>
<path d="M174.759 20.3989C175.9 26.1978 176.509 28.6251 174.395 32.2905C171.21 37.8306 163.832 37.9705 160.976 32.6263C158.407 27.8207 156.965 19.1468 161.963 15.4114C163.062 14.5837 164.355 14.0506 165.719 13.8629C167.082 13.6751 168.471 13.8389 169.753 14.3387C171.035 14.8385 172.168 15.6576 173.045 16.7183C173.921 17.779 174.511 19.046 174.759 20.3989Z" fill="#EB8D84"/>
<path d="M177.79 23.9315C177.876 24.4906 177.849 25.061 177.712 25.6098C177.575 26.1585 177.33 26.6746 176.992 27.1282C176.082 28.3384 174.71 27.7508 174.192 26.4287C173.73 25.2256 173.639 23.1411 174.927 22.4136C175.209 22.2591 175.525 22.1771 175.846 22.1749C176.168 22.1726 176.485 22.2503 176.769 22.4008C177.052 22.5513 177.294 22.77 177.473 23.0372C177.651 23.3044 177.76 23.6117 177.79 23.9315Z" fill="#EB8D84"/>
<path d="M169.67 17.328C169.453 19.5454 171.231 23.3367 174.57 24.218C178.028 20.2449 175.746 14.7959 172.568 14.684C169.39 14.5721 169.67 17.328 169.67 17.328Z" fill="#263238"/>
<path d="M165.008 11.284C159.905 11.5149 154.431 13.7883 156.328 21.7769C160.78 20.8465 173.17 19.4614 174.122 16.2856C172.869 12.2074 168.354 11.1301 165.008 11.284Z" fill="#263238"/>
<path d="M170.258 79.7724C170.258 79.7724 168.9 126.835 172.687 144.596C176.614 163.076 185.483 189.49 185.483 189.49L193.813 188.951C193.813 188.951 188.43 154.417 186.813 140.168C184.531 120.526 187.366 75.0088 187.366 75.0088L170.258 79.7724Z" fill="#407BFF"/>
<path opacity="0.2" d="M181.99 94.4904C182.368 90.2235 185.588 91.0419 186.309 96.8198C185.994 105.913 185.77 116.469 185.952 125.709C182.48 118.931 181.129 104.199 181.99 94.4904Z" fill="black"/>
<path d="M194.87 189.49L184.839 190.168L183.446 185.468L194.303 184.32L194.87 189.49Z" fill="#263238"/>
<path d="M178.483 77.4851C178.483 77.4851 185.581 116.937 195.22 138.167C203.004 155.312 217.109 182.936 217.109 182.936L224.76 180.075C224.76 180.075 212.797 148.716 208.471 136.656C197.698 106.578 203.571 88.3205 193.575 73.2881L178.483 77.4851Z" fill="#407BFF"/>
<path d="M225.663 180.802L216.836 183.873L214.323 179.354L224.83 176.752L225.663 180.802Z" fill="#263238"/>
<path d="M193.54 71.8477L195.178 73.6453C195.304 73.7852 195.178 74.002 194.884 74.072L170.433 80.8777C170.223 80.9337 170.02 80.8777 169.971 80.7518L169.18 78.7234C169.124 78.5835 169.271 78.4086 169.502 78.3457L193.113 71.7777C193.184 71.7503 193.261 71.7423 193.336 71.7546C193.411 71.7669 193.481 71.7991 193.54 71.8477Z" fill="#263238"/>
<path d="M191.104 75.3448L191.741 75.163C191.867 75.128 191.944 75.037 191.909 74.9601L190.859 72.3371C190.859 72.2602 190.705 72.2252 190.579 72.2602L189.942 72.435C189.816 72.435 189.739 72.5609 189.767 72.6379L190.824 75.2679C190.852 75.3448 190.978 75.3798 191.104 75.3448Z" fill="#407BFF"/>
<path d="M172.274 80.5774L172.911 80.4025C173.03 80.4025 173.114 80.2766 173.079 80.1996L172.029 77.5764C172.029 77.4994 171.868 77.4645 171.742 77.4994L171.112 77.6743C170.986 77.6743 170.909 77.8002 170.937 77.8772L171.987 80.5074C172.022 80.5844 172.148 80.6124 172.274 80.5774Z" fill="#407BFF"/>
<path d="M181.689 77.961L182.326 77.7862C182.452 77.7512 182.529 77.6602 182.494 77.5833L181.444 74.9533C181.444 74.8764 181.283 74.8414 181.157 74.8764L180.527 75.0512C180.401 75.0512 180.324 75.1841 180.352 75.2611L181.409 77.8841C181.437 77.961 181.563 77.996 181.689 77.961Z" fill="#407BFF"/>
<path d="M166.513 24.2812C166.632 24.7499 166.513 25.1906 166.184 25.2675C165.855 25.3445 165.533 25.0367 165.414 24.568C165.295 24.0993 165.414 23.6656 165.743 23.5816C166.072 23.4977 166.394 23.7985 166.513 24.2812Z" fill="#263238"/>
<path d="M161.256 25.6382C161.382 26.0998 161.256 26.5404 160.927 26.6244C160.598 26.7083 160.276 26.3866 160.157 25.9249C160.038 25.4633 160.157 25.0157 160.486 24.9388C160.815 24.8618 161.137 25.1696 161.256 25.6382Z" fill="#263238"/>
<path d="M160.626 24.9315L159.429 24.8965C159.429 24.8965 160.227 25.6245 160.626 24.9315Z" fill="#263238"/>
<path d="M162.859 26.072C162.722 27.2401 162.425 28.384 161.977 29.4716C162.258 29.5791 162.559 29.6236 162.859 29.6018C163.159 29.58 163.451 29.4926 163.713 29.3457L162.859 26.072Z" fill="#FF7062"/>
<path d="M165.771 30.7517C165.744 30.747 165.719 30.7346 165.699 30.7159C165.679 30.6973 165.665 30.6733 165.659 30.6468C165.654 30.6293 165.652 30.611 165.654 30.5929C165.656 30.5748 165.662 30.5573 165.671 30.5416C165.681 30.5258 165.693 30.5121 165.708 30.5014C165.722 30.4906 165.739 30.4829 165.757 30.4789C166.339 30.3412 166.88 30.0679 167.336 29.6813C167.793 29.2948 168.151 28.8059 168.382 28.2547C168.387 28.2365 168.397 28.2196 168.409 28.205C168.421 28.1904 168.436 28.1786 168.453 28.17C168.47 28.1615 168.489 28.1566 168.508 28.1555C168.527 28.1544 168.546 28.1572 168.564 28.1637C168.598 28.1764 168.626 28.2014 168.643 28.2337C168.66 28.266 168.664 28.3034 168.655 28.3386C168.414 28.9342 168.034 29.4638 167.547 29.8834C167.06 30.3031 166.48 30.6007 165.855 30.7517C165.828 30.7599 165.798 30.7599 165.771 30.7517Z" fill="#263238"/>
<path d="M167.542 22.1826C167.492 22.1762 167.446 22.1542 167.409 22.1197C167.138 21.8922 166.815 21.7329 166.47 21.6551C166.124 21.5772 165.764 21.5829 165.421 21.6719C165.35 21.6941 165.273 21.6875 165.206 21.6535C165.139 21.6195 165.088 21.5609 165.064 21.49C165.051 21.4552 165.045 21.418 165.047 21.3808C165.049 21.3436 165.058 21.3072 165.075 21.2738C165.091 21.2404 165.114 21.2107 165.143 21.1865C165.171 21.1623 165.204 21.1442 165.239 21.1332C165.672 21.0157 166.127 21.0039 166.566 21.0989C167.004 21.1938 167.414 21.3928 167.759 21.6789C167.806 21.7186 167.839 21.7723 167.853 21.8321C167.867 21.8919 167.861 21.9545 167.837 22.0109C167.813 22.0673 167.771 22.1144 167.718 22.1453C167.665 22.1762 167.603 22.1893 167.542 22.1826Z" fill="#263238"/>
<path d="M158.127 23.8475H158.071C158.036 23.8357 158.004 23.8171 157.976 23.7927C157.948 23.7683 157.926 23.7387 157.909 23.7055C157.893 23.6724 157.884 23.6363 157.881 23.5994C157.879 23.5626 157.884 23.5256 157.896 23.4907C158.033 23.0634 158.27 22.6751 158.588 22.3586C158.906 22.042 159.295 21.8065 159.723 21.6718C159.759 21.6624 159.796 21.6602 159.833 21.6653C159.87 21.6704 159.905 21.6827 159.937 21.7016C159.969 21.7205 159.997 21.7455 160.019 21.7752C160.041 21.8049 160.057 21.8387 160.066 21.8747C160.083 21.9479 160.071 22.0249 160.031 22.089C159.992 22.1531 159.929 22.1993 159.856 22.2175C159.524 22.331 159.223 22.5223 158.98 22.7754C158.736 23.0285 158.557 23.3361 158.456 23.6726C158.432 23.737 158.386 23.7904 158.325 23.8227C158.264 23.8549 158.194 23.8638 158.127 23.8475Z" fill="#263238"/>
<path d="M185.525 49.2114C183.705 52.9607 181.815 56.6402 179.82 60.2986C178.826 62.1314 177.832 63.9641 176.775 65.7688C175.718 67.5735 174.675 69.3853 173.422 71.197C173.135 71.6447 172.778 72.1204 172.442 72.5961L172.316 72.7639L172.253 72.8549L172.148 72.9878C172.001 73.1697 171.854 73.3235 171.707 73.4774C171.44 73.7485 171.152 73.9987 170.846 74.2259C169.838 74.9626 168.742 75.5712 167.584 76.0377C165.54 76.8624 163.434 77.5221 161.284 78.0103C157.169 78.9608 152.991 79.613 148.782 79.9619L148.306 76.982C150.259 76.4643 152.247 75.9187 154.2 75.3521C156.153 74.7855 158.092 74.1839 159.982 73.5264C161.823 72.9069 163.621 72.1686 165.365 71.3159C166.101 70.9536 166.793 70.5101 167.43 69.9939C167.534 69.9073 167.631 69.8113 167.717 69.7071C167.743 69.6759 167.766 69.6432 167.787 69.6091L167.941 69.3713C168.186 68.9866 168.438 68.6228 168.69 68.1891C169.684 66.5173 170.664 64.7265 171.616 62.9358L174.451 57.5006L180.051 46.5322L185.525 49.2114Z" fill="#EB8D84"/>
<path d="M150.224 77.0096L146.101 75.4287L146.451 81.2417C146.451 81.2417 149.692 81.2417 151.19 79.2481L150.224 77.0096Z" fill="#EB8D84"/>
<path d="M142.86 75.5966L141.978 79.8707L146.451 81.2417L146.101 75.4287L142.86 75.5966Z" fill="#EB8D84"/>
<path d="M180.45 41.2094C178.147 42.2656 175.473 51.8278 175.473 51.8278L185.448 52.9609C185.448 52.9609 187.38 48.3163 186.988 45.931C186.4 42.1187 183.075 40.0062 180.45 41.2094Z" fill="#263238"/>
<path d="M217.2 190.322C217.161 190.256 217.131 190.186 217.109 190.113C217.077 190.034 217.066 189.949 217.078 189.865C217.091 189.781 217.125 189.703 217.179 189.637C217.662 189.049 219.804 189.287 220.042 189.315C220.069 189.317 220.096 189.328 220.117 189.345C220.138 189.363 220.154 189.386 220.161 189.413C220.17 189.439 220.171 189.467 220.163 189.493C220.156 189.519 220.14 189.543 220.119 189.56C219.51 190.071 218.376 190.889 217.648 190.679C217.552 190.655 217.463 190.61 217.386 190.549C217.309 190.487 217.245 190.41 217.2 190.322ZM219.671 189.56C218.81 189.49 217.655 189.504 217.396 189.812C217.376 189.845 217.366 189.882 217.366 189.92C217.366 189.958 217.376 189.996 217.396 190.029C217.416 190.117 217.459 190.199 217.521 190.267C217.582 190.334 217.659 190.385 217.746 190.413C218.131 190.525 218.845 190.211 219.685 189.56H219.671Z" fill="#407BFF"/>
<path d="M217.725 188.392C217.698 188.341 217.677 188.287 217.662 188.231C217.633 188.123 217.641 188.008 217.686 187.905C217.73 187.802 217.808 187.717 217.907 187.664C217.998 187.605 218.101 187.566 218.209 187.55C218.316 187.535 218.426 187.543 218.53 187.573C219.363 187.797 220.133 189.329 220.168 189.392C220.18 189.414 220.187 189.438 220.187 189.462C220.187 189.487 220.18 189.511 220.168 189.532C220.154 189.552 220.135 189.569 220.113 189.58C220.091 189.591 220.067 189.596 220.042 189.595C219.151 189.481 218.33 189.055 217.725 188.392ZM219.762 189.238C219.475 188.735 218.943 187.972 218.453 187.839C218.389 187.819 218.321 187.813 218.254 187.823C218.187 187.832 218.124 187.857 218.068 187.895C217.914 187.993 217.914 188.084 217.935 188.147C218.04 188.553 219.076 189.119 219.783 189.266L219.762 189.238Z" fill="#407BFF"/>
<path d="M184.3 196.297C183.81 196.336 183.321 196.221 182.9 195.968C182.789 195.888 182.699 195.783 182.637 195.661C182.575 195.539 182.543 195.405 182.543 195.268C182.533 195.194 182.544 195.119 182.575 195.05C182.606 194.982 182.656 194.924 182.718 194.883C183.355 194.449 185.763 195.541 186.218 195.765C186.245 195.778 186.268 195.799 186.283 195.825C186.298 195.851 186.305 195.882 186.302 195.912C186.298 195.941 186.285 195.968 186.265 195.989C186.245 196.011 186.219 196.025 186.19 196.031C185.571 196.185 184.938 196.274 184.3 196.297ZM183.173 195.079C183.076 195.073 182.979 195.095 182.893 195.142C182.893 195.142 182.837 195.191 182.844 195.275C182.846 195.367 182.869 195.457 182.912 195.538C182.954 195.619 183.015 195.69 183.089 195.744C183.502 196.059 184.489 196.101 185.749 195.863C184.942 195.472 184.081 195.208 183.194 195.079H183.173Z" fill="#407BFF"/>
<path d="M186.225 196.058H186.169C185.371 195.737 183.761 194.443 183.852 193.778C183.852 193.631 183.971 193.449 184.335 193.407C185.735 193.239 186.337 195.793 186.365 195.898C186.37 195.923 186.367 195.949 186.359 195.974C186.35 195.998 186.336 196.02 186.316 196.037C186.289 196.054 186.257 196.061 186.225 196.058ZM184.468 193.666H184.37C184.223 193.666 184.146 193.729 184.132 193.799C184.083 194.184 185.196 195.198 186.008 195.646C185.819 195.037 185.315 193.666 184.468 193.666Z" fill="#407BFF"/>
<path d="M165.883 23.5813H164.679C164.679 23.5813 165.484 24.2813 165.883 23.5813Z" fill="#263238"/>
<path d="M168.634 202.284H206.938C207.202 202.284 207.454 202.388 207.641 202.575C207.827 202.761 207.932 203.014 207.932 203.277V206.509H167.647V203.277C167.647 203.015 167.751 202.763 167.936 202.577C168.121 202.391 168.372 202.286 168.634 202.284Z" fill="#263238"/>
<path d="M208.275 217.204H167.99V221.422H208.275V217.204Z" fill="#263238"/>
<path opacity="0.5" d="M208.275 217.204H181.64V221.422H208.275V217.204Z" fill="black"/>
<path d="M185.518 206.502L180.989 234.832C180.951 235.065 180.832 235.277 180.652 235.431C180.473 235.585 180.245 235.67 180.009 235.672H177.79C177.646 235.672 177.505 235.64 177.375 235.58C177.245 235.52 177.129 235.432 177.036 235.323C176.943 235.214 176.874 235.087 176.835 234.949C176.796 234.811 176.788 234.666 176.81 234.525L181.297 206.474L185.518 206.502Z" fill="#263238"/>
<path opacity="0.5" d="M185.518 206.502L185.175 208.657H180.947L181.297 206.502H185.518Z" fill="black"/>
<path d="M171.868 206.502L167.339 234.832C167.301 235.065 167.182 235.277 167.002 235.431C166.823 235.585 166.595 235.67 166.359 235.672H164.14C163.997 235.672 163.855 235.64 163.725 235.58C163.595 235.52 163.479 235.432 163.386 235.323C163.293 235.214 163.224 235.087 163.185 234.949C163.146 234.811 163.138 234.666 163.16 234.525L167.647 206.474L171.868 206.502Z" fill="#263238"/>
<path d="M212.412 234.553L207.932 206.502H203.732L208.24 234.832C208.277 235.066 208.396 235.279 208.576 235.433C208.755 235.587 208.984 235.671 209.22 235.672H211.432C211.573 235.671 211.712 235.64 211.84 235.582C211.968 235.523 212.082 235.438 212.174 235.333C212.267 235.227 212.336 235.103 212.377 234.968C212.418 234.834 212.43 234.692 212.412 234.553Z" fill="#263238"/>
<path opacity="0.5" d="M208.275 208.657L207.932 206.502H203.704L204.047 208.657H208.275Z" fill="black"/>
<path d="M198.762 234.553L194.282 206.502H190.082L194.59 234.832C194.627 235.066 194.745 235.279 194.925 235.433C195.105 235.587 195.333 235.671 195.57 235.672H197.782C197.923 235.671 198.062 235.64 198.189 235.582C198.317 235.523 198.431 235.438 198.524 235.333C198.617 235.227 198.686 235.103 198.727 234.968C198.768 234.834 198.78 234.692 198.762 234.553Z" fill="#263238"/>
<path opacity="0.5" d="M198.762 234.553L194.282 206.502H190.082L194.59 234.832C194.627 235.066 194.745 235.279 194.925 235.433C195.105 235.587 195.333 235.671 195.57 235.672H197.782C197.923 235.671 198.062 235.64 198.189 235.582C198.317 235.523 198.431 235.438 198.524 235.333C198.617 235.227 198.686 235.103 198.727 234.968C198.768 234.834 198.78 234.692 198.762 234.553Z" fill="black"/>
<path opacity="0.5" d="M181.297 202.284H206.938C207.202 202.284 207.454 202.388 207.641 202.575C207.827 202.761 207.932 203.014 207.932 203.277V206.509H181.332V202.312L181.297 202.284Z" fill="black"/>
<path d="M63.0458 231.845L68.6528 221.562L48.5978 203.998L47.0298 231.845H63.0458Z" fill="#407BFF"/>
<path opacity="0.1" d="M63.0458 231.845L68.6528 221.562L48.5978 203.998L47.0298 231.845H63.0458Z" fill="black"/>
<path d="M132.164 114.671C143.413 106.977 152.835 107.767 155.964 110.012C159.093 112.258 149.153 129.311 149.153 129.311C145.436 128.232 141.994 126.366 139.063 123.84C136.132 121.314 133.779 118.186 132.164 114.671Z" fill="#407BFF"/>
<path opacity="0.2" d="M137.519 122.4C143.854 116.182 150.315 114.188 152.065 115.23C153.815 116.273 148.194 128.262 148.194 128.262C148.194 128.262 140.599 129.354 137.519 122.4Z" fill="black"/>
<path d="M34.4231 138.79L33.7861 138.468C35.5448 135.01 37.6136 131.718 39.9672 128.633L40.5342 129.066C38.2104 132.118 36.1652 135.372 34.4231 138.79Z" fill="#407BFF"/>
<path d="M31.0911 146.694L30.3911 146.463C30.9231 144.904 31.5251 143.344 32.1831 141.833L32.8411 142.119C32.2111 143.602 31.6161 145.141 31.0911 146.694Z" fill="#407BFF"/>
<path d="M161.977 166.105C161.977 200.836 135.811 228.984 98.0389 228.984C60.2669 228.984 29.6489 200.836 29.6489 166.105C29.6489 131.375 60.2669 103.227 98.0389 103.227C135.811 103.227 161.977 131.375 161.977 166.105Z" fill="#407BFF"/>
<path opacity="0.1" d="M88.925 222.325L86.188 228.047C88.1667 228.368 90.1757 228.602 92.2151 228.746L88.925 222.325Z" fill="black"/>
<path d="M84.7807 235.699L92.6487 221.562L67.4837 212.371L64.2637 235.699H84.7807Z" fill="#407BFF"/>
<path d="M121.433 235.699L114.615 221.562L138.576 212.371L140.165 235.699H121.433Z" fill="#407BFF"/>
<path opacity="0.2" d="M138.646 175.192C138.646 184.593 130.33 192.211 120.103 192.211C109.876 192.211 101.595 184.593 101.595 175.192C101.595 165.79 109.883 158.173 120.103 158.173C130.323 158.173 138.646 165.79 138.646 175.192Z" fill="black"/>
<path opacity="0.2" d="M113.957 180.76C115.693 180.76 117.1 178.142 117.1 174.912C117.1 171.683 115.693 169.064 113.957 169.064C112.221 169.064 110.814 171.683 110.814 174.912C110.814 178.142 112.221 180.76 113.957 180.76Z" fill="black"/>
<path opacity="0.4" d="M91.48 143.449C92.383 146.198 91.55 149.199 89.6249 150.143C87.6999 151.088 85.4249 149.619 84.5009 146.87C83.5769 144.12 84.4239 141.12 86.3489 140.175C88.2739 139.231 90.577 140.693 91.48 143.449Z" fill="black"/>
<path opacity="0.4" d="M140.2 143.575C139.5 146.324 140.361 149.29 142.097 150.192C143.833 151.094 145.793 149.597 146.479 146.841C147.165 144.085 146.318 141.126 144.582 140.224C142.846 139.322 140.9 140.819 140.2 143.575Z" fill="black"/>
<path opacity="0.2" d="M130.68 180.76C132.416 180.76 133.823 178.142 133.823 174.912C133.823 171.683 132.416 169.064 130.68 169.064C128.944 169.064 127.537 171.683 127.537 174.912C127.537 178.142 128.944 180.76 130.68 180.76Z" fill="black"/>
<path d="M78.0469 114.096C65.8599 104.01 54.9469 103.226 51.1809 105.059C47.4149 106.892 57.2079 126.667 57.2079 126.667C57.2079 126.667 70.5779 125.883 78.0469 114.096Z" fill="#407BFF"/>
<path opacity="0.2" d="M71.1868 121.358C64.5018 113.664 57.2778 110.46 55.1708 111.257C53.0638 112.055 58.4048 125.709 58.4048 125.709C58.4048 125.709 67.0148 128.185 71.1868 121.358Z" fill="black"/>
<path opacity="0.4" d="M102.659 108.697H112.956C112.956 108.697 110.716 106.235 103.114 105.487C98.8087 105.137 94.4759 105.373 90.2339 106.186C90.2339 106.186 98.7179 105.997 102.659 108.697Z" fill="black"/>
</svg>
